# Blender 4.4.3
# www.blender.org
mtllib Ravine 3.mtl
o Side_Ravine_3
v 0.004200 0.000000 -0.125979
v 1.004200 3.000000 -0.125979
v 0.004200 0.000000 0.124021
v 1.004200 3.000000 0.124021
v 0.470867 2.000000 0.124021
v 0.337533 1.000000 0.124021
v 0.004200 0.000000 -0.042646
v 0.004200 0.000000 0.040688
v 1.004200 3.000000 0.040688
v 1.004200 3.000000 -0.042646
v 0.470867 2.000000 -0.125979
v 0.337533 1.000000 -0.125979
v 0.410390 1.000000 0.069657
v 0.410390 1.000000 -0.071615
v 0.351001 2.000000 0.019726
v 0.351001 2.000000 -0.021684
vn -0.7555 0.4431 -0.4826
vn -0.8385 0.3165 0.4436
vn -0.9579 0.0425 -0.2838
vn -0.8385 0.3165 -0.4436
vn -0.9265 0.3763 -0.0000
vn -0.9579 0.0425 0.2838
vn -0.9982 -0.0593 -0.0000
vn -0.7555 0.4431 0.4826
vn -0.8372 0.5469 -0.0000
vt 0.541667 0.666667
vt 0.625000 0.666667
vt 0.625000 0.750000
vt 0.541667 0.750000
vt 0.375000 0.666667
vt 0.458333 0.666667
vt 0.458333 0.750000
vt 0.375000 0.750000
vt 0.375000 0.500000
vt 0.458333 0.500000
vt 0.458333 0.583333
vt 0.375000 0.583333
vt 0.541667 0.500000
vt 0.541667 0.583333
vt 0.625000 0.500000
vt 0.625000 0.583333
s 0
f 16/1/1 10/2/1 2/3/1 11/4/1
f 7/5/2 14/6/2 12/7/2 1/8/2
f 14/6/3 16/1/3 11/4/3 12/7/3
f 3/9/4 6/10/4 13/11/4 8/12/4
f 8/12/5 13/11/5 14/6/5 7/5/5
f 6/10/6 5/13/6 15/14/6 13/11/6
f 13/11/7 15/14/7 16/1/7 14/6/7
f 5/13/8 4/15/8 9/16/8 15/14/8
f 15/14/9 9/16/9 10/2/9 16/1/9
