# Blender 4.4.3
# www.blender.org
mtllib Ravine 1.mtl
o Side_Ravine_1
v 0.005533 0.000000 -0.125000
v 1.005533 3.000000 -0.125000
v 0.005533 0.000000 0.125000
v 1.005533 3.000000 0.125000
v 0.472200 2.000000 0.125000
v 0.338866 1.000000 0.125000
v 0.005533 0.000000 -0.041667
v 0.005533 0.000000 0.041667
v 1.005533 3.000000 0.041667
v 1.005533 3.000000 -0.041667
v 0.472200 2.000000 -0.125000
v 0.338867 1.000000 -0.125000
v 0.338866 1.000000 0.041667
v 0.338867 1.000000 -0.041667
v 0.472200 2.000000 0.041667
v 0.472200 2.000000 -0.041667
vn -0.8824 0.4706 -0.0000
vn -0.9487 0.3162 -0.0000
vn -0.9912 0.1322 -0.0000
vt 0.541667 0.666667
vt 0.625000 0.666667
vt 0.625000 0.750000
vt 0.541667 0.750000
vt 0.375000 0.666667
vt 0.458333 0.666667
vt 0.458333 0.750000
vt 0.375000 0.750000
vt 0.375000 0.500000
vt 0.458333 0.500000
vt 0.458333 0.583333
vt 0.375000 0.583333
vt 0.541667 0.500000
vt 0.541667 0.583333
vt 0.625000 0.500000
vt 0.625000 0.583333
s 0
f 16/1/1 10/2/1 2/3/1 11/4/1
f 7/5/2 14/6/2 12/7/2 1/8/2
f 14/6/3 16/1/3 11/4/3 12/7/3
f 3/9/2 6/10/2 13/11/2 8/12/2
f 8/12/2 13/11/2 14/6/2 7/5/2
f 6/10/3 5/13/3 15/14/3 13/11/3
f 13/11/3 15/14/3 16/1/3 14/6/3
f 5/13/1 4/15/1 9/16/1 15/14/1
f 15/14/1 9/16/1 10/2/1 16/1/1
