# Blender 4.4.3
# www.blender.org
mtllib Ravine 2.mtl
o Side_Ravine_2
v 1.000000 0.000000 0.500000
v 0.000000 3.000000 0.500000
v 1.000000 0.000000 -0.500000
v 0.000000 3.000000 -0.500000
v 0.533333 2.000000 -0.500000
v 0.666667 1.000000 -0.500000
v 0.936180 0.000000 0.166667
v 0.936180 0.000000 -0.166667
v 0.000000 3.000000 -0.166667
v 0.000000 3.000000 0.166667
v 0.533333 2.000000 0.500000
v 0.666667 1.000000 0.500000
v 0.682751 1.063971 -0.100920
v 0.682751 1.063971 0.100920
v 0.492323 2.093762 -0.166667
v 0.492323 2.093762 0.166667
vn 0.8806 0.4738 0.0125
vn 0.9615 0.2721 -0.0389
vn 0.9875 0.1575 0.0003
vn 0.9615 0.2721 0.0389
vn 0.9728 0.2317 -0.0000
vn 0.9875 0.1575 -0.0003
vn 0.9833 0.1818 -0.0000
vn 0.8806 0.4738 -0.0125
vn 0.8787 0.4774 -0.0000
vt 0.541667 0.666667
vt 0.625000 0.666667
vt 0.625000 0.750000
vt 0.541667 0.750000
vt 0.375000 0.666667
vt 0.458333 0.666667
vt 0.458333 0.750000
vt 0.375000 0.750000
vt 0.375000 0.500000
vt 0.458333 0.500000
vt 0.458333 0.583333
vt 0.375000 0.583333
vt 0.541667 0.500000
vt 0.541667 0.583333
vt 0.625000 0.500000
vt 0.625000 0.583333
s 0
f 16/1/1 10/2/1 2/3/1 11/4/1
f 7/5/2 14/6/2 12/7/2 1/8/2
f 14/6/3 16/1/3 11/4/3 12/7/3
f 3/9/4 6/10/4 13/11/4 8/12/4
f 8/12/5 13/11/5 14/6/5 7/5/5
f 6/10/6 5/13/6 15/14/6 13/11/6
f 13/11/7 15/14/7 16/1/7 14/6/7
f 5/13/8 4/15/8 9/16/8 15/14/8
f 15/14/9 9/16/9 10/2/9 16/1/9
