# Blender 4.4.3
# www.blender.org
o Crystal_1
v 0.199887 -0.284356 0.012778
v 0.199887 -0.314895 -0.014509
v 0.114322 -0.349814 0.001256
v 0.199887 -0.296351 0.013822
v 0.199887 -0.297821 -0.021913
v 0.139027 -0.309137 -0.048633
v 0.149685 -0.252735 -0.006121
v 0.199887 -0.280848 -0.000664
v 0.007384 -0.322522 -0.044222
v 0.007384 -0.350624 -0.013709
v 0.007384 -0.337145 -0.039546
v 0.007384 -0.347431 -0.028378
v 0.007384 -0.348627 0.023186
v 0.007384 -0.317398 0.050489
v 0.007384 -0.343871 0.037425
v 0.007384 -0.332440 0.047418
v 0.007384 -0.253430 -0.018968
v 0.007384 -0.284659 -0.046270
v 0.007384 -0.258186 -0.033207
v 0.007384 -0.269617 -0.043200
v 0.007384 -0.279535 0.048440
v 0.007384 -0.251434 0.017928
v 0.007384 -0.264912 0.043765
v 0.007384 -0.254626 0.032596
v 0.104524 -0.350624 -0.013709
v 0.122107 -0.322770 -0.046728
v 0.099952 -0.347464 -0.028714
v 0.106388 -0.337269 -0.040800
v 0.108071 -0.251434 0.017928
v 0.143751 -0.270707 0.026257
v 0.094542 -0.253443 0.029624
v 0.107602 -0.260498 0.032673
v 0.132497 -0.323544 0.034344
v 0.097019 -0.348627 0.023186
v 0.106410 -0.335513 0.039346
v 0.093424 -0.344694 0.035262
v 0.100007 -0.284696 -0.048291
v 0.119811 -0.253430 -0.018968
v 0.085303 -0.269635 -0.044210
v 0.092552 -0.258191 -0.033477
vn -0.0253 -0.0558 -0.9981
vn 0.3152 0.5647 -0.7628
vn 0.3393 0.8171 0.4660
vn -1.0000 -0.0000 -0.0000
vn -0.0000 0.9985 -0.0540
vn 0.4302 -0.7909 0.4352
vn 1.0000 -0.0000 -0.0000
vn 0.1719 0.0922 0.9808
vn 0.3736 -0.7531 -0.5416
vn 0.1061 -0.0314 0.9939
vn 0.0329 -0.5777 0.8155
vn -0.0006 -0.9496 0.3135
vn -0.0031 0.9814 0.1920
vn 0.0375 0.6503 0.7587
vn 0.1315 0.1225 0.9837
vn -0.0173 0.2231 -0.9746
vn -0.0057 0.6724 -0.7401
vn -0.0004 0.9494 -0.3139
vn -0.0172 -0.3339 -0.9425
vn -0.0061 -0.7496 -0.6619
vn -0.0005 -0.9779 -0.2092
vn -0.0000 -0.9985 0.0540
vt 0.375000 0.826305
vt 0.495287 0.866313
vt 0.545961 0.962027
vt 0.523988 0.974052
vt 0.375000 0.923695
vt 0.476243 0.803541
vt 0.485941 0.693622
vt 0.521006 0.634622
vt 0.559804 0.583347
vt 0.699027 0.548980
vt 0.625000 0.406655
vt 0.625000 0.380666
vt 0.625000 0.474954
vt 0.505760 0.545497
vt 0.488177 0.520992
vt 0.506240 0.464995
vt 0.552097 0.427896
vt 0.125000 0.576305
vt 0.135223 0.538152
vt 0.163152 0.510223
vt 0.201305 0.500000
vt 0.298695 0.500000
vt 0.336848 0.510223
vt 0.364777 0.538152
vt 0.375000 0.576305
vt 0.375000 0.673695
vt 0.364777 0.711848
vt 0.336848 0.739777
vt 0.298695 0.750000
vt 0.201305 0.750000
vt 0.163152 0.739777
vt 0.135223 0.711848
vt 0.125000 0.673695
vt 0.594015 0.324569
vt 0.625000 0.316646
vt 0.775242 0.500000
vt 0.607162 0.365946
vt 0.542431 0.311466
vt 0.516822 0.284631
vt 0.536975 0.292402
vt 0.744334 0.500000
vt 0.857093 0.635903
vt 0.847627 0.652959
vt 0.375000 0.326305
vt 0.537482 0.296266
vt 0.625000 0.349758
vt 0.552097 0.427896
vt 0.375000 0.423695
vt 0.553954 0.554969
vt 0.520163 0.774514
vt 0.509171 0.927888
vt 0.377949 0.288224
vt 0.505924 0.272358
vt 0.375000 0.211848
vt 0.517076 0.206038
vt 0.375000 0.173695
vt 0.536975 0.173695
vt 0.375000 0.538152
vt 0.377938 0.461905
vt 0.374601 0.788152
vt 0.375000 0.711848
vt 0.476575 1.000000
vt 0.375000 1.000000
vt 0.375000 0.000000
vt 0.476575 0.000000
vt 0.524509 0.037264
vt 0.375000 0.038152
vt 0.553954 0.076305
vt 0.375000 0.076305
vt 0.594015 0.115809
s 0
f 18/1/1 37/2/1 6/3/1 26/4/1 9/5/1
f 6/3/2 37/2/2 39/6/2 40/7/2 38/8/2 7/9/2 8/10/2 5/11/2
f 1/12/3 8/13/3 7/9/3 29/14/3 31/15/3 32/16/3 30/17/3
f 13/18/4 15/19/4 16/20/4 14/21/4 21/22/4 23/23/4 24/24/4 22/25/4 17/26/4 19/27/4 20/28/4 18/29/4 9/30/4 11/31/4 12/32/4 10/33/4
f 22/25/5 29/14/5 7/9/5 38/8/5 17/26/5
f 3/34/6 2/35/6 4/36/6 33/37/6 35/38/6 36/39/6 34/40/6
f 1/41/7 4/36/7 2/42/7 5/43/7 8/10/7
f 14/44/8 33/45/8 4/46/8 1/12/8 30/47/8 21/48/8
f 5/11/9 2/35/9 3/34/9 25/49/9 27/50/9 28/51/9 26/4/9 6/3/9
f 33/45/10 14/44/10 16/52/10 35/53/10
f 35/53/11 16/52/11 15/54/11 36/55/11
f 36/55/12 15/54/12 13/56/12 34/57/12
f 29/14/13 22/25/13 24/58/13 31/15/13
f 31/15/14 24/58/14 23/59/14 32/16/14
f 32/16/15 23/59/15 21/48/15 30/47/15
f 37/2/16 18/1/16 20/60/16 39/6/16
f 39/6/17 20/60/17 19/61/17 40/7/17
f 40/7/18 19/61/18 17/26/18 38/8/18
f 9/5/19 26/4/19 28/62/19 11/63/19
f 11/64/20 28/65/20 27/66/20 12/67/20
f 12/67/21 27/66/21 25/68/21 10/69/21
f 10/69/22 25/68/22 3/70/22 34/57/22 13/56/22
o Crystal_1.001
v 0.199887 -0.091021 -0.014360
v 0.199887 -0.118877 0.015661
v 0.114322 -0.103771 0.050870
v 0.199887 -0.090203 -0.002348
v 0.199887 -0.125959 -0.001549
v 0.139027 -0.152887 0.009263
v 0.149685 -0.109322 -0.046331
v 0.199887 -0.104395 -0.018120
v 0.007384 -0.148728 0.022728
v 0.007384 -0.118749 0.051398
v 0.007384 -0.144329 0.037436
v 0.007384 -0.133356 0.047930
v 0.007384 -0.081823 0.050096
v 0.007384 -0.053938 0.019385
v 0.007384 -0.067497 0.045608
v 0.007384 -0.057291 0.034367
v 0.007384 -0.122180 -0.045877
v 0.007384 -0.150065 -0.015167
v 0.007384 -0.136505 -0.041390
v 0.007384 -0.146712 -0.030149
v 0.007384 -0.055274 -0.018510
v 0.007384 -0.085253 -0.047180
v 0.007384 -0.059674 -0.033218
v 0.007384 -0.070647 -0.043712
v 0.104524 -0.118749 0.051398
v 0.122107 -0.151239 0.022929
v 0.099952 -0.133692 0.047957
v 0.106388 -0.145584 0.037537
v 0.108071 -0.085253 -0.047180
v 0.143751 -0.077288 -0.027753
v 0.094542 -0.073596 -0.044951
v 0.107602 -0.070681 -0.037840
v 0.132497 -0.070195 0.025226
v 0.097019 -0.081823 0.050096
v 0.106410 -0.065419 0.037288
v 0.093424 -0.069675 0.046390
v 0.100007 -0.152086 -0.015168
v 0.119811 -0.122180 -0.045877
v 0.085303 -0.147723 -0.030149
v 0.092552 -0.136776 -0.041390
vn -0.0253 -0.9990 0.0371
vn 0.3152 -0.7520 -0.5789
vn 0.3393 0.4813 -0.8082
vn -1.0000 -0.0000 -0.0000
vn -0.0000 -0.0352 -0.9994
vn 0.4302 0.4203 0.7989
vn 1.0000 -0.0000 -0.0000
vn 0.1719 0.9823 -0.0737
vn 0.3736 -0.5557 0.7427
vn 0.1061 0.9931 0.0501
vn 0.0329 0.8045 0.5930
vn -0.0006 0.2956 0.9553
vn -0.0031 0.2104 -0.9776
vn 0.0375 0.7708 -0.6359
vn 0.1315 0.9859 -0.1040
vn -0.0173 -0.9703 -0.2414
vn -0.0057 -0.7274 -0.6862
vn -0.0004 -0.2960 -0.9552
vn -0.0172 -0.9486 0.3161
vn -0.0061 -0.6759 0.7370
vn -0.0005 -0.2276 0.9738
vn -0.0000 0.0352 0.9994
vt 0.375000 0.826305
vt 0.495287 0.866313
vt 0.545961 0.962027
vt 0.523988 0.974052
vt 0.375000 0.923695
vt 0.476243 0.803541
vt 0.485941 0.693622
vt 0.521006 0.634622
vt 0.559804 0.583347
vt 0.699027 0.548980
vt 0.625000 0.406655
vt 0.625000 0.380666
vt 0.625000 0.474954
vt 0.505760 0.545497
vt 0.488177 0.520992
vt 0.506240 0.464995
vt 0.552097 0.427896
vt 0.125000 0.576305
vt 0.135223 0.538152
vt 0.163152 0.510223
vt 0.201305 0.500000
vt 0.298695 0.500000
vt 0.336848 0.510223
vt 0.364777 0.538152
vt 0.375000 0.576305
vt 0.375000 0.673695
vt 0.364777 0.711848
vt 0.336848 0.739777
vt 0.298695 0.750000
vt 0.201305 0.750000
vt 0.163152 0.739777
vt 0.135223 0.711848
vt 0.125000 0.673695
vt 0.594015 0.324569
vt 0.625000 0.316646
vt 0.775242 0.500000
vt 0.607162 0.365946
vt 0.542431 0.311466
vt 0.516822 0.284631
vt 0.536975 0.292402
vt 0.744334 0.500000
vt 0.857093 0.635903
vt 0.847627 0.652959
vt 0.375000 0.326305
vt 0.537482 0.296266
vt 0.625000 0.349758
vt 0.552097 0.427896
vt 0.375000 0.423695
vt 0.553954 0.554969
vt 0.520163 0.774514
vt 0.509171 0.927888
vt 0.377949 0.288224
vt 0.505924 0.272358
vt 0.375000 0.211848
vt 0.517076 0.206038
vt 0.375000 0.173695
vt 0.536975 0.173695
vt 0.375000 0.538152
vt 0.377938 0.461905
vt 0.374601 0.788152
vt 0.375000 0.711848
vt 0.476575 1.000000
vt 0.375000 1.000000
vt 0.375000 0.000000
vt 0.476575 0.000000
vt 0.524509 0.037264
vt 0.375000 0.038152
vt 0.553954 0.076305
vt 0.375000 0.076305
vt 0.594015 0.115809
s 0
f 58/71/23 77/72/23 46/73/23 66/74/23 49/75/23
f 46/73/24 77/72/24 79/76/24 80/77/24 78/78/24 47/79/24 48/80/24 45/81/24
f 41/82/25 48/83/25 47/79/25 69/84/25 71/85/25 72/86/25 70/87/25
f 53/88/26 55/89/26 56/90/26 54/91/26 61/92/26 63/93/26 64/94/26 62/95/26 57/96/26 59/97/26 60/98/26 58/99/26 49/100/26 51/101/26 52/102/26 50/103/26
f 62/95/27 69/84/27 47/79/27 78/78/27 57/96/27
f 43/104/28 42/105/28 44/106/28 73/107/28 75/108/28 76/109/28 74/110/28
f 41/111/29 44/106/29 42/112/29 45/113/29 48/80/29
f 54/114/30 73/115/30 44/116/30 41/82/30 70/117/30 61/118/30
f 45/81/31 42/105/31 43/104/31 65/119/31 67/120/31 68/121/31 66/74/31 46/73/31
f 73/115/32 54/114/32 56/122/32 75/123/32
f 75/123/33 56/122/33 55/124/33 76/125/33
f 76/125/34 55/124/34 53/126/34 74/127/34
f 69/84/35 62/95/35 64/128/35 71/85/35
f 71/85/36 64/128/36 63/129/36 72/86/36
f 72/86/37 63/129/37 61/118/37 70/117/37
f 77/72/38 58/71/38 60/130/38 79/76/38
f 79/76/39 60/130/39 59/131/39 80/77/39
f 80/77/40 59/131/40 57/96/40 78/78/40
f 49/75/41 66/74/41 68/132/41 51/133/41
f 51/134/42 68/135/42 67/136/42 52/137/42
f 52/137/43 67/136/43 65/138/43 50/139/43
f 50/139/44 65/138/44 43/140/44 74/127/44 53/126/44
o Crystal_1.002
v 0.199887 0.091034 -0.007336
v 0.199887 0.123453 0.017689
v 0.114322 0.157150 -0.000540
v 0.199887 0.102924 -0.009238
v 0.199887 0.106953 0.026299
v 0.139027 0.120158 0.052139
v 0.149685 0.060851 0.013783
v 0.199887 0.088500 0.006323
v 0.007384 0.133191 0.046779
v 0.007384 0.159032 0.014329
v 0.007384 0.147442 0.041067
v 0.007384 0.156900 0.029189
v 0.007384 0.154394 -0.022328
v 0.007384 0.121286 -0.047320
v 0.007384 0.148628 -0.036189
v 0.007384 0.136510 -0.045337
v 0.007384 0.062465 0.026547
v 0.007384 0.095573 0.051538
v 0.007384 0.068231 0.040407
v 0.007384 0.080349 0.049555
v 0.007384 0.083668 -0.042561
v 0.007384 0.057828 -0.010111
v 0.007384 0.069418 -0.036848
v 0.007384 0.059959 -0.024971
v 0.104524 0.159032 0.014329
v 0.122107 0.133619 0.049261
v 0.099952 0.156957 0.029522
v 0.106388 0.147655 0.042308
v 0.108071 0.057828 -0.010111
v 0.143751 0.076454 -0.019801
v 0.094542 0.058993 -0.021922
v 0.107602 0.065811 -0.025469
v 0.132497 0.128574 -0.031658
v 0.097019 0.154394 -0.022328
v 0.106410 0.140154 -0.037505
v 0.093424 0.149605 -0.034091
v 0.100007 0.095754 0.053551
v 0.119811 0.062465 0.026547
v 0.085303 0.080440 0.050561
v 0.092552 0.068255 0.040677
vn -0.0253 0.1273 0.9915
vn 0.3152 -0.5085 0.8013
vn 0.3393 -0.8485 -0.4062
vn -1.0000 -0.0000 -0.0000
vn -0.0000 -0.9921 0.1255
vn 0.4302 0.7576 -0.4908
vn 1.0000 -0.0000 -0.0000
vn 0.1719 -0.1623 -0.9716
vn 0.3736 0.7900 0.4862
vn 0.1061 -0.0400 -0.9936
vn 0.0329 0.5178 -0.8549
vn -0.0006 0.9247 -0.3808
vn -0.0031 -0.9926 -0.1211
vn 0.0375 -0.7031 -0.7101
vn 0.1315 -0.1927 -0.9724
vn -0.0173 -0.1526 0.9881
vn -0.0057 -0.6176 0.7865
vn -0.0004 -0.9245 0.3812
vn -0.0172 0.4006 0.9161
vn -0.0061 0.7951 0.6064
vn -0.0005 0.9904 0.1385
vn -0.0000 0.9921 -0.1255
vt 0.375000 0.826305
vt 0.495287 0.866313
vt 0.545961 0.962027
vt 0.523988 0.974052
vt 0.375000 0.923695
vt 0.476243 0.803541
vt 0.485941 0.693622
vt 0.521006 0.634622
vt 0.559804 0.583347
vt 0.699027 0.548980
vt 0.625000 0.406655
vt 0.625000 0.380666
vt 0.625000 0.474954
vt 0.505760 0.545497
vt 0.488177 0.520992
vt 0.506240 0.464995
vt 0.552097 0.427896
vt 0.125000 0.576305
vt 0.135223 0.538152
vt 0.163152 0.510223
vt 0.201305 0.500000
vt 0.298695 0.500000
vt 0.336848 0.510223
vt 0.364777 0.538152
vt 0.375000 0.576305
vt 0.375000 0.673695
vt 0.364777 0.711848
vt 0.336848 0.739777
vt 0.298695 0.750000
vt 0.201305 0.750000
vt 0.163152 0.739777
vt 0.135223 0.711848
vt 0.125000 0.673695
vt 0.594015 0.324569
vt 0.625000 0.316646
vt 0.775242 0.500000
vt 0.607162 0.365946
vt 0.542431 0.311466
vt 0.516822 0.284631
vt 0.536975 0.292402
vt 0.744334 0.500000
vt 0.857093 0.635903
vt 0.847627 0.652959
vt 0.375000 0.326305
vt 0.537482 0.296266
vt 0.625000 0.349758
vt 0.552097 0.427896
vt 0.375000 0.423695
vt 0.553954 0.554969
vt 0.520163 0.774514
vt 0.509171 0.927888
vt 0.377949 0.288224
vt 0.505924 0.272358
vt 0.375000 0.211848
vt 0.517076 0.206038
vt 0.375000 0.173695
vt 0.536975 0.173695
vt 0.375000 0.538152
vt 0.377938 0.461905
vt 0.374601 0.788152
vt 0.375000 0.711848
vt 0.476575 1.000000
vt 0.375000 1.000000
vt 0.375000 0.000000
vt 0.476575 0.000000
vt 0.524509 0.037264
vt 0.375000 0.038152
vt 0.553954 0.076305
vt 0.375000 0.076305
vt 0.594015 0.115809
s 0
f 98/141/45 117/142/45 86/143/45 106/144/45 89/145/45
f 86/143/46 117/142/46 119/146/46 120/147/46 118/148/46 87/149/46 88/150/46 85/151/46
f 81/152/47 88/153/47 87/149/47 109/154/47 111/155/47 112/156/47 110/157/47
f 93/158/48 95/159/48 96/160/48 94/161/48 101/162/48 103/163/48 104/164/48 102/165/48 97/166/48 99/167/48 100/168/48 98/169/48 89/170/48 91/171/48 92/172/48 90/173/48
f 102/165/49 109/154/49 87/149/49 118/148/49 97/166/49
f 83/174/50 82/175/50 84/176/50 113/177/50 115/178/50 116/179/50 114/180/50
f 81/181/51 84/176/51 82/182/51 85/183/51 88/150/51
f 94/184/52 113/185/52 84/186/52 81/152/52 110/187/52 101/188/52
f 85/151/53 82/175/53 83/174/53 105/189/53 107/190/53 108/191/53 106/144/53 86/143/53
f 113/185/54 94/184/54 96/192/54 115/193/54
f 115/193/55 96/192/55 95/194/55 116/195/55
f 116/195/56 95/194/56 93/196/56 114/197/56
f 109/154/57 102/165/57 104/198/57 111/155/57
f 111/155/58 104/198/58 103/199/58 112/156/58
f 112/156/59 103/199/59 101/188/59 110/187/59
f 117/142/60 98/141/60 100/200/60 119/146/60
f 119/146/61 100/200/61 99/201/61 120/147/61
f 120/147/62 99/201/62 97/166/62 118/148/62
f 89/145/63 106/144/63 108/202/63 91/203/63
f 91/204/64 108/205/64 107/206/64 92/207/64
f 92/207/65 107/206/65 105/208/65 90/209/65
f 90/209/66 105/208/66 83/210/66 114/197/66 93/196/66
o Crystal_1.003
v 0.199887 0.316726 0.018720
v 0.199887 0.344188 -0.011662
v 0.114322 0.328623 -0.046670
v 0.199887 0.315751 0.006720
v 0.199887 0.351494 0.005454
v 0.139027 0.378279 -0.005709
v 0.149685 0.335444 0.050449
v 0.199887 0.330148 0.022305
v 0.007384 0.373944 -0.019118
v 0.007384 0.343593 -0.047394
v 0.007384 0.369353 -0.033768
v 0.007384 0.358244 -0.044118
v 0.007384 0.306687 -0.045610
v 0.007384 0.279206 -0.014537
v 0.007384 0.292421 -0.040935
v 0.007384 0.282362 -0.029562
v 0.007384 0.348294 0.049828
v 0.007384 0.375775 0.018756
v 0.007384 0.362560 0.045153
v 0.007384 0.372619 0.033780
v 0.007384 0.281037 0.023337
v 0.007384 0.311388 0.051613
v 0.007384 0.285629 0.037986
v 0.007384 0.296738 0.048336
v 0.104524 0.343593 -0.047394
v 0.122107 0.376452 -0.019352
v 0.099952 0.358579 -0.044149
v 0.106388 0.370606 -0.033885
v 0.108071 0.311388 0.051613
v 0.143751 0.303169 0.032292
v 0.094542 0.299703 0.049536
v 0.107602 0.296695 0.042464
v 0.132497 0.295386 -0.020591
v 0.097019 0.306687 -0.045610
v 0.106410 0.290452 -0.032588
v 0.093424 0.294589 -0.041746
v 0.100007 0.377796 0.018731
v 0.119811 0.348294 0.049828
v 0.085303 0.373629 0.033768
v 0.092552 0.362831 0.045150
vn -0.0253 0.9984 -0.0501
vn 0.3152 0.7595 0.5690
vn 0.3393 -0.4707 0.8145
vn -1.0000 -0.0000 -0.0000
vn -0.0000 0.0483 0.9988
vn 0.4302 -0.4307 -0.7934
vn 1.0000 -0.0000 -0.0000
vn 0.1719 -0.9813 0.0865
vn 0.3736 0.5459 -0.7499
vn 0.1061 -0.9937 -0.0371
vn 0.0329 -0.8122 -0.5824
vn -0.0006 -0.3080 -0.9514
vn -0.0031 -0.1976 0.9803
vn 0.0375 -0.7624 0.6460
vn 0.1315 -0.9844 0.1168
vn -0.0173 0.9733 0.2287
vn -0.0057 0.7363 0.6767
vn -0.0004 0.3085 0.9512
vn -0.0172 0.9444 -0.3285
vn -0.0061 0.6662 -0.7458
vn -0.0005 0.2148 -0.9767
vn -0.0000 -0.0483 -0.9988
vt 0.375000 0.826305
vt 0.495287 0.866313
vt 0.545961 0.962027
vt 0.523988 0.974052
vt 0.375000 0.923695
vt 0.476243 0.803541
vt 0.485941 0.693622
vt 0.521006 0.634622
vt 0.559804 0.583347
vt 0.699027 0.548980
vt 0.625000 0.406655
vt 0.625000 0.380666
vt 0.625000 0.474954
vt 0.505760 0.545497
vt 0.488177 0.520992
vt 0.506240 0.464995
vt 0.552097 0.427896
vt 0.125000 0.576305
vt 0.135223 0.538152
vt 0.163152 0.510223
vt 0.201305 0.500000
vt 0.298695 0.500000
vt 0.336848 0.510223
vt 0.364777 0.538152
vt 0.375000 0.576305
vt 0.375000 0.673695
vt 0.364777 0.711848
vt 0.336848 0.739777
vt 0.298695 0.750000
vt 0.201305 0.750000
vt 0.163152 0.739777
vt 0.135223 0.711848
vt 0.125000 0.673695
vt 0.594015 0.324569
vt 0.625000 0.316646
vt 0.775242 0.500000
vt 0.607162 0.365946
vt 0.542431 0.311466
vt 0.516822 0.284631
vt 0.536975 0.292402
vt 0.744334 0.500000
vt 0.857093 0.635903
vt 0.847627 0.652959
vt 0.375000 0.326305
vt 0.537482 0.296266
vt 0.625000 0.349758
vt 0.552097 0.427896
vt 0.375000 0.423695
vt 0.553954 0.554969
vt 0.520163 0.774514
vt 0.509171 0.927888
vt 0.377949 0.288224
vt 0.505924 0.272358
vt 0.375000 0.211848
vt 0.517076 0.206038
vt 0.375000 0.173695
vt 0.536975 0.173695
vt 0.375000 0.538152
vt 0.377938 0.461905
vt 0.374601 0.788152
vt 0.375000 0.711848
vt 0.476575 1.000000
vt 0.375000 1.000000
vt 0.375000 0.000000
vt 0.476575 0.000000
vt 0.524509 0.037264
vt 0.375000 0.038152
vt 0.553954 0.076305
vt 0.375000 0.076305
vt 0.594015 0.115809
s 0
f 138/211/67 157/212/67 126/213/67 146/214/67 129/215/67
f 126/213/68 157/212/68 159/216/68 160/217/68 158/218/68 127/219/68 128/220/68 125/221/68
f 121/222/69 128/223/69 127/219/69 149/224/69 151/225/69 152/226/69 150/227/69
f 133/228/70 135/229/70 136/230/70 134/231/70 141/232/70 143/233/70 144/234/70 142/235/70 137/236/70 139/237/70 140/238/70 138/239/70 129/240/70 131/241/70 132/242/70 130/243/70
f 142/235/71 149/224/71 127/219/71 158/218/71 137/236/71
f 123/244/72 122/245/72 124/246/72 153/247/72 155/248/72 156/249/72 154/250/72
f 121/251/73 124/246/73 122/252/73 125/253/73 128/220/73
f 134/254/74 153/255/74 124/256/74 121/222/74 150/257/74 141/258/74
f 125/221/75 122/245/75 123/244/75 145/259/75 147/260/75 148/261/75 146/214/75 126/213/75
f 153/255/76 134/254/76 136/262/76 155/263/76
f 155/263/77 136/262/77 135/264/77 156/265/77
f 156/265/78 135/264/78 133/266/78 154/267/78
f 149/224/79 142/235/79 144/268/79 151/225/79
f 151/225/80 144/268/80 143/269/80 152/226/80
f 152/226/81 143/269/81 141/258/81 150/257/81
f 157/212/82 138/211/82 140/270/82 159/216/82
f 159/216/83 140/270/83 139/271/83 160/217/83
f 160/217/84 139/271/84 137/236/84 158/218/84
f 129/215/85 146/214/85 148/272/85 131/273/85
f 131/274/86 148/275/86 147/276/86 132/277/86
f 132/277/87 147/276/87 145/278/87 130/279/87
f 130/279/88 145/278/88 123/280/88 154/267/88 133/266/88
o Placa
v -0.018227 -0.500000 0.017546
v -0.018227 -0.035091 0.250000
v -0.018227 -0.437714 0.133773
v -0.018227 -0.267546 0.218857
v -0.018227 0.035091 0.250000
v -0.018227 0.500000 0.017546
v -0.018227 0.267546 0.218857
v -0.018227 0.437714 0.133773
v 0.007384 -0.083042 0.049534
v -0.018227 -0.035091 -0.250000
v 0.007384 0.127389 0.049534
v 0.007384 0.346450 0.049534
v 0.007384 -0.282069 0.049534
v 0.007384 0.376159 0.020584
v -0.018227 -0.500000 -0.017546
v 0.007384 -0.053333 0.020584
v 0.007384 0.157098 0.020584
v 0.007384 -0.252361 0.020584
v 0.007384 -0.267215 0.045655
v 0.007384 0.142243 0.045655
v 0.007384 -0.068188 0.045655
v -0.018227 -0.267546 -0.218857
v 0.007384 0.361304 0.045655
v 0.007384 -0.057314 0.035059
v -0.018227 -0.437714 -0.133773
v 0.007384 0.372178 0.035059
v 0.007384 0.153117 0.035059
v 0.007384 -0.256341 0.035059
v 0.007384 0.157098 -0.016366
v 0.007384 0.376159 -0.016366
v 0.007384 -0.252361 -0.016366
v -0.018227 0.500000 -0.017546
v 0.007384 -0.053333 -0.016366
v 0.007384 0.127389 -0.045315
v 0.007384 0.346450 -0.045315
v -0.018227 0.035091 -0.250000
v 0.007384 -0.282069 -0.045315
v 0.007384 -0.083042 -0.045315
v 0.007384 0.153117 -0.030841
v 0.007384 0.372178 -0.030841
v 0.007384 -0.057314 -0.030841
v -0.018227 0.437714 -0.133773
v 0.007384 -0.256341 -0.030841
v -0.018227 0.267546 -0.218857
v 0.007384 -0.068188 -0.041437
v 0.007384 0.361304 -0.041437
v 0.007384 -0.267215 -0.041437
v 0.007384 0.142243 -0.041437
v 0.007384 0.278823 0.020584
v 0.007384 -0.349696 0.020584
v 0.007384 -0.150669 0.020584
v 0.053650 -0.026959 0.155600
v 0.007384 0.059762 0.020584
v 0.007384 -0.120961 0.049534
v 0.053650 -0.416071 0.009472
v 0.007384 0.089470 0.049534
v 0.007384 0.308531 0.049534
v 0.007384 -0.319988 0.049534
v 0.053650 -0.225100 0.135504
v 0.007384 -0.146689 0.035059
v 0.007384 -0.345716 0.035059
v 0.007384 0.282803 0.035059
v 0.007384 0.063742 0.035059
v 0.007384 -0.135815 0.045655
v 0.007384 0.293677 0.045655
v 0.007384 0.074616 0.045655
v 0.053650 -0.364100 0.082889
v 0.007384 -0.334842 0.045655
v 0.007384 0.308531 -0.045315
v 0.053650 0.416071 0.009472
v 0.007384 0.089470 -0.045315
v 0.007384 -0.319988 -0.045315
v 0.007384 -0.120961 -0.045315
v 0.053650 0.026959 0.155600
v 0.007384 0.278823 -0.016366
v 0.007384 -0.349696 -0.016366
v 0.007384 -0.150669 -0.016366
v 0.007384 0.059762 -0.016366
v 0.007384 -0.135815 -0.041437
v 0.007384 0.293677 -0.041437
v 0.053650 0.364100 0.082889
v 0.007384 -0.334842 -0.041437
v 0.007384 0.074616 -0.041437
v 0.053650 0.225100 0.135504
v 0.007384 -0.345716 -0.030841
v 0.007384 0.063742 -0.030841
v 0.007384 0.282803 -0.030841
v 0.007384 -0.146689 -0.030841
v 0.053650 -0.416071 -0.009472
v 0.053650 -0.026959 -0.155600
v 0.053650 -0.364100 -0.082889
v 0.053650 -0.225100 -0.135504
v 0.053650 0.026959 -0.155600
v 0.053650 0.416071 -0.009472
v 0.053650 0.225100 -0.135504
v 0.053650 0.364100 -0.082889
v 0.050000 -0.404365 -0.111431
v 0.050000 -0.461905 -0.014615
v 0.050000 -0.247161 -0.182305
v 0.050000 -0.032418 -0.208247
v 0.050000 0.461905 -0.014615
v 0.050000 0.404365 -0.111431
v 0.050000 0.247161 -0.182305
v 0.050000 0.032418 -0.208247
v 0.050000 -0.461905 0.014615
v 0.050000 -0.404365 0.111431
v 0.050000 -0.247161 0.182305
v 0.050000 -0.032418 0.208247
v 0.050000 0.404365 0.111431
v 0.050000 0.461905 0.014615
v 0.050000 0.247161 0.182305
v 0.050000 0.032418 0.208247
v 0.067776 -0.396488 -0.108946
v 0.067933 -0.367467 -0.088449
v 0.067805 -0.420981 -0.010197
v 0.067776 -0.452939 -0.013963
v 0.067776 -0.242846 -0.178215
v 0.068144 -0.227964 -0.146862
v 0.067776 -0.031350 -0.203764
v 0.068248 -0.027905 -0.169910
v 0.067776 0.452939 -0.013963
v 0.067782 0.423756 -0.010645
v 0.067845 0.373612 -0.090913
v 0.067776 0.396488 -0.108946
v 0.068029 0.231852 -0.150107
v 0.067776 0.242846 -0.178215
v 0.068248 0.027905 -0.169910
v 0.067776 0.031350 -0.203764
v 0.067776 -0.452939 0.013963
v 0.067782 -0.423756 0.010645
v 0.067845 -0.373612 0.090913
v 0.067776 -0.396488 0.108946
v 0.068029 -0.231852 0.150107
v 0.067776 -0.242846 0.178215
v 0.068248 -0.027905 0.169910
v 0.067776 -0.031350 0.203764
v 0.067776 0.396488 0.108946
v 0.067933 0.367467 0.088449
v 0.067805 0.420981 0.010197
v 0.067776 0.452939 0.013963
v 0.067776 0.242846 0.178215
v 0.068144 0.227964 0.146861
v 0.067776 0.031350 0.203764
v 0.068248 0.027905 0.169910
v 0.053650 -0.353444 -0.034405
v 0.053650 -0.330147 -0.044741
v 0.053650 -0.342725 -0.042651
v 0.053650 0.378697 -0.034241
v 0.053650 0.351258 -0.045116
v 0.053650 0.367314 -0.043256
v 0.053650 0.289088 0.051970
v 0.053650 0.305942 0.056840
v 0.053650 0.349098 0.056846
v 0.053650 0.382787 0.022816
v 0.053650 0.378275 0.039446
v 0.053650 0.365947 0.051957
v 0.053650 -0.322927 0.057873
v 0.053650 -0.340078 0.052917
v 0.053650 -0.352627 0.040147
v 0.053650 -0.357221 0.015954
v 0.053650 0.382787 -0.014718
v 0.053650 0.272243 -0.019148
v 0.053650 -0.357221 -0.019457
v 0.053650 -0.244724 -0.019457
v 0.053650 -0.157419 -0.019186
v 0.053650 0.050774 -0.020120
v 0.053650 -0.248886 -0.034817
v 0.053650 -0.153696 -0.033919
v 0.053650 -0.050636 -0.034325
v 0.053650 0.054648 -0.035451
v 0.053650 0.275954 -0.033836
v 0.053650 -0.046534 -0.019186
v 0.053650 0.166151 -0.020120
v 0.053650 -0.260471 -0.043991
v 0.053650 -0.143130 -0.042047
v 0.053650 0.065642 -0.043908
v 0.053650 0.286488 -0.041939
v 0.053650 0.133243 -0.047224
v 0.053650 -0.276810 -0.045884
v 0.053650 -0.078160 -0.045234
v 0.053650 -0.127445 -0.043788
v 0.053650 -0.062055 -0.043368
v 0.053650 0.081962 -0.045720
v 0.053650 0.150001 -0.045282
v 0.053650 0.302124 -0.043675
v 0.053650 0.161882 -0.035873
v 0.053650 -0.279008 0.057880
v 0.053650 -0.123616 0.057036
v 0.053650 -0.080327 0.057043
v 0.053650 0.068356 0.054106
v 0.053650 0.085946 0.059189
v 0.053650 0.130989 0.059196
v 0.053650 -0.261862 0.052904
v 0.053650 0.148574 0.054092
v 0.053650 -0.249316 0.040172
v 0.053650 -0.152891 0.039565
v 0.053650 -0.063426 0.052138
v 0.053650 -0.051060 0.039589
v 0.053650 0.055486 0.041009
v 0.053650 0.161442 0.041035
v 0.053650 0.276757 0.039422
v 0.053650 -0.140521 0.052152
v 0.053650 -0.244724 0.023248
v 0.053650 -0.157419 0.022907
v 0.053650 -0.046534 0.022907
v 0.053650 0.050774 0.023678
v 0.053650 0.166151 0.023678
v 0.053650 0.272243 0.022816
vn 0.5220 -0.0000 0.8530
vn 1.0000 -0.0000 -0.0000
vn 0.4875 0.8731 -0.0000
vn -1.0000 -0.0000 -0.0000
vn 0.5220 -0.0000 -0.8530
vn 0.4800 -0.7646 -0.4301
vn 0.4879 -0.3754 -0.7880
vn 0.5086 -0.1090 -0.8541
vn 0.4800 0.7646 -0.4301
vn 0.4879 0.3754 -0.7880
vn 0.5086 0.1090 -0.8541
vn 0.4800 -0.7646 0.4301
vn 0.4879 -0.3754 0.7880
vn 0.5086 -0.1090 0.8541
vn 0.4800 0.7646 0.4301
vn 0.4879 0.3754 0.7880
vn 0.5086 0.1090 0.8541
vn 0.4875 -0.8731 -0.0000
vn 0.5308 0.3135 0.7874
vn 0.4051 0.9121 0.0638
vn 0.7000 -0.0000 0.7141
vn 0.4051 -0.9121 -0.0638
vn 0.7137 -0.0688 0.6970
vn 0.5653 0.6870 -0.4567
vn 0.6873 0.2684 -0.6750
vn 0.7137 0.0688 -0.6970
vn 0.7000 -0.0000 -0.7141
vn 0.5308 -0.3135 -0.7874
vn 0.6653 -0.0802 -0.7422
vn 0.6653 0.0802 0.7422
vn 0.3430 -0.7710 -0.5365
vn 0.6873 -0.2684 0.6750
vn 0.5653 -0.6870 0.4567
vn 0.4121 -0.7832 -0.4655
vn 0.2957 -0.3926 -0.8709
vn 0.2494 -0.1161 -0.9614
vn 0.4121 0.7832 -0.4655
vn 0.2957 0.3926 -0.8709
vn 0.2494 0.1161 -0.9614
vn 0.4121 -0.7832 0.4655
vn 0.2957 -0.3926 0.8709
vn 0.2494 -0.1161 0.9614
vn 0.4121 0.7832 0.4655
vn 0.2957 0.3926 0.8709
vn 0.2494 0.1161 0.9614
vn 0.4504 -0.8929 -0.0000
vn 0.2445 -0.0000 0.9696
vn 0.4504 0.8929 -0.0000
vn 0.2445 -0.0000 -0.9696
vn 1.0000 -0.0027 -0.0010
vn 1.0000 -0.0037 -0.0070
vn 0.9999 -0.0017 -0.0124
vn 1.0000 0.0013 -0.0004
vn 1.0000 0.0028 -0.0049
vn 0.9999 0.0018 -0.0113
vn 1.0000 -0.0013 0.0004
vn 1.0000 -0.0028 0.0049
vn 0.9999 -0.0018 0.0113
vn 1.0000 0.0027 0.0010
vn 1.0000 0.0037 0.0070
vn 0.9999 0.0017 0.0124
vn 1.0000 -0.0006 0.0004
vn 0.9999 -0.0000 0.0139
vn 1.0000 0.0006 -0.0004
vn 0.9999 -0.0000 -0.0139
vn 0.3430 0.7710 0.5365
vn 0.1775 0.0001 -0.9841
vn 0.1605 0.9870 -0.0000
vn 0.0006 0.0125 0.9999
vn 0.0567 -0.1816 0.9817
vn 0.1526 -0.6530 0.7418
vn 0.1747 -0.9499 0.2592
vn 0.1750 0.9520 0.2510
vn 0.1482 0.6502 0.7452
vn 0.0482 0.2123 0.9760
vn 0.1829 0.2616 -0.9477
vn 0.1840 0.6942 -0.6959
vn 0.1516 0.9650 -0.2140
vn 0.1835 -0.2621 -0.9474
vn 0.1858 -0.6934 -0.6962
vn 0.1724 -0.9503 -0.2594
vn 0.1629 -0.9867 -0.0000
vn 0.1601 0.0001 -0.9871
vn 0.1444 0.9895 -0.0000
vn -0.0171 0.0166 0.9997
vn 0.0413 -0.1823 0.9824
vn 0.1342 -0.6551 0.7436
vn 0.1565 -0.9528 0.2600
vn 0.1580 0.9548 0.2518
vn 0.1307 0.6521 0.7467
vn 0.0172 0.1809 0.9833
vn 0.1647 0.2623 -0.9508
vn 0.1651 0.6965 -0.6983
vn 0.1527 0.9533 -0.2605
vn 0.1650 -0.2629 -0.9506
vn 0.1660 -0.6959 -0.6987
vn 0.1537 -0.9532 -0.2602
vn 0.1454 -0.9894 -0.0000
vn 0.2044 0.0001 -0.9789
vn 0.1907 0.9817 -0.0000
vn 0.0253 0.0169 0.9995
vn 0.0875 -0.1804 0.9797
vn 0.1866 -0.6487 0.7378
vn 0.2062 -0.9440 0.2576
vn 0.2074 0.9460 0.2493
vn 0.1828 0.6458 0.7412
vn 0.0624 0.1792 0.9818
vn 0.2118 0.2602 -0.9420
vn 0.2158 0.6897 -0.6912
vn 0.2013 0.9449 -0.2582
vn 0.2122 -0.2608 -0.9418
vn 0.2169 -0.6890 -0.6916
vn 0.2027 -0.9447 -0.2579
vn 0.1920 -0.9814 -0.0000
vn 0.1561 0.0001 -0.9877
vn 0.1408 0.9900 -0.0000
vn -0.0196 0.0166 0.9997
vn 0.0385 -0.1824 0.9825
vn 0.1307 -0.6554 0.7439
vn 0.1412 -0.9632 0.2286
vn 0.1544 0.9553 0.2520
vn 0.1272 0.6525 0.7470
vn 0.0145 0.1811 0.9834
vn 0.1604 0.2625 -0.9515
vn 0.1608 0.6970 -0.6988
vn 0.1487 0.9539 -0.2607
vn 0.1607 -0.2631 -0.9513
vn 0.1616 -0.6964 -0.6993
vn 0.1498 -0.9538 -0.2604
vn 0.1418 -0.9899 -0.0000
vt 0.071279 0.550354
vt 0.071279 0.525847
vt 0.330543 0.524995
vt 0.330543 0.551524
vt 0.805204 0.954275
vt 0.795980 0.975102
vt 0.781943 0.972255
vt 0.731452 0.941967
vt 0.762269 0.935122
vt 0.762872 0.940096
vt 0.768176 0.945307
vt 0.778967 0.948953
vt 0.780840 0.841697
vt 0.778207 0.860172
vt 0.778318 0.866244
vt 0.783546 0.871380
vt 0.794183 0.874974
vt 0.787421 0.907276
vt 0.775728 0.906510
vt 0.768060 0.909423
vt 0.765430 0.915191
vt 0.702914 0.882565
vt 0.702914 0.806141
vt 0.706966 0.786166
vt 0.736746 0.715782
vt 0.786175 0.672196
vt 0.844477 0.663977
vt 0.838089 0.675519
vt 0.823317 0.674100
vt 0.815782 0.676962
vt 0.813197 0.682630
vt 0.810573 0.701049
vt 0.810683 0.707103
vt 0.815895 0.712223
vt 0.826500 0.715806
vt 0.857592 0.722113
vt 0.870235 0.722936
vt 0.880459 0.720254
vt 0.885333 0.714742
vt 0.888581 0.698755
vt 0.909005 0.697111
vt 0.937543 0.756514
vt 0.937543 0.832938
vt 0.933491 0.852913
vt 0.903711 0.923296
vt 0.854282 0.966883
vt 0.823475 0.956209
vt 0.833880 0.953479
vt 0.838841 0.947870
vt 0.842146 0.931601
vt 0.839748 0.924501
vt 0.831257 0.917939
vt 0.819063 0.913695
vt 0.825371 0.881300
vt 0.838053 0.882126
vt 0.848309 0.879436
vt 0.853198 0.873907
vt 0.856456 0.857871
vt 0.854092 0.850873
vt 0.845724 0.844405
vt 0.833704 0.840221
vt 0.841587 0.804288
vt 0.854783 0.805147
vt 0.865454 0.802348
vt 0.870542 0.796595
vt 0.873931 0.779909
vt 0.871472 0.772628
vt 0.862764 0.765898
vt 0.850258 0.761545
vt 0.817806 0.754963
vt 0.805814 0.754176
vt 0.797950 0.757164
vt 0.795252 0.763080
vt 0.792513 0.782304
vt 0.792628 0.788622
vt 0.798068 0.793966
vt 0.809136 0.797705
vt 0.802516 0.833895
vt 0.790991 0.833139
vt 0.783432 0.836011
vt 0.858514 0.666824
vt 0.886225 0.691778
vt 0.877882 0.685331
vt 0.865899 0.681160
vt 0.792839 0.596040
vt 0.790567 0.337811
vt 0.817095 0.337811
vt 0.814937 0.596040
vt 0.131133 0.371995
vt 0.052351 0.326510
vt 0.006866 0.247728
vt 0.000000 0.222102
vt 0.000000 0.131133
vt 0.045485 0.052351
vt 0.124267 0.006866
vt 0.149892 -0.000000
vt 0.240862 -0.000000
vt 0.319644 0.045485
vt 0.365128 0.124267
vt 0.371995 0.149892
vt 0.371995 0.240862
vt 0.326510 0.319644
vt 0.247728 0.365128
vt 0.222102 0.371995
vt 0.524284 0.337811
vt 0.550814 0.337811
vt 0.549790 0.597348
vt 0.525281 0.597348
vt 0.767055 0.067940
vt 0.764814 0.326170
vt 0.677042 0.325428
vt 0.693951 0.067255
vt 0.384604 0.602784
vt 0.371995 0.344338
vt 0.436389 0.339560
vt 0.444085 0.598804
vt 0.719845 0.596722
vt 0.702914 0.338549
vt 0.702914 0.344338
vt 0.690310 0.602784
vt 0.630944 0.598804
vt 0.638658 0.339560
vt 0.791343 0.326170
vt 0.789154 0.067940
vt 0.862438 0.067255
vt 0.879310 0.325428
vt 0.325640 0.702900
vt 0.067195 0.690271
vt 0.070185 0.631345
vt 0.329229 0.639172
vt 0.905175 0.338549
vt 0.888326 0.596722
vt 0.067195 0.384578
vt 0.325640 0.371995
vt 0.329229 0.436911
vt 0.070185 0.444494
vt 0.428543 0.895902
vt 0.430763 0.948811
vt 0.376619 0.950072
vt 0.373360 0.896934
vt 0.958715 0.572742
vt 0.958715 0.587064
vt 0.905231 0.587961
vt 0.905175 0.572195
vt 0.427695 0.800485
vt 0.427695 0.820866
vt 0.371995 0.821152
vt 0.371995 0.800056
vt 0.633518 0.904625
vt 0.633518 0.918947
vt 0.580033 0.919828
vt 0.579977 0.904076
vt 0.428543 0.725730
vt 0.373657 0.723104
vt 0.959331 0.642387
vt 0.905586 0.648470
vt 0.879310 0.276539
vt 0.882264 0.224038
vt 0.937289 0.226598
vt 0.933271 0.280136
vt 0.883393 0.149155
vt 0.939227 0.149520
vt 0.883393 0.128774
vt 0.939227 0.128423
vt 0.882264 0.053859
vt 0.879310 0.001272
vt 0.933466 0.000000
vt 0.937540 0.052781
vt 0.634136 0.849202
vt 0.580130 0.845001
vt 0.430763 0.673556
vt 0.376848 0.669933
vt 0.634136 0.974532
vt 0.580390 0.980590
vt 0.695834 -0.000000
vt 0.767553 0.000672
vt 0.445719 0.666043
vt 0.387584 0.669933
vt 0.525687 0.664608
vt 0.793344 0.663308
vt 0.721732 0.663977
vt 0.687336 0.669933
vt 0.629314 0.666043
vt 0.549388 0.664608
vt 0.788666 0.000672
vt 0.860562 0.000000
vt 0.000000 0.687311
vt 0.002922 0.629720
vt 0.004000 0.549954
vt 0.886455 0.663977
vt 0.814456 0.663308
vt 0.002922 0.446132
vt 0.000000 0.387572
vt 0.004000 0.526254
vt 0.426898 0.288222
vt 0.479652 0.321779
vt 0.474048 0.332853
vt 0.409259 0.295246
vt 0.396356 0.226593
vt 0.371995 0.226494
vt 0.397179 0.148991
vt 0.371995 0.144246
vt 0.554315 0.011312
vt 0.490876 0.015485
vt 0.479655 0.003878
vt 0.554467 0.000000
vt 0.434791 0.057063
vt 0.415112 0.048033
vt 0.402134 0.128485
vt 0.377561 0.121208
vt 0.494722 0.326499
vt 0.558160 0.322326
vt 0.569382 0.333933
vt 0.494570 0.337811
vt 0.614246 0.280748
vt 0.633925 0.289778
vt 0.646903 0.209326
vt 0.671476 0.216603
vt 0.622139 0.049589
vt 0.569385 0.016032
vt 0.574989 0.004958
vt 0.639778 0.042565
vt 0.652681 0.111218
vt 0.677042 0.111317
vt 0.651858 0.188820
vt 0.677042 0.193565
vt 0.959331 0.517061
vt 0.905325 0.512855
vt 0.676316 0.669933
vt 0.675212 0.844805
vt 0.660878 0.844805
vt 0.659714 0.669933
vt 0.574362 0.913792
vt 0.568747 0.916724
vt 0.554413 0.916724
vt 0.548798 0.913792
vt 0.544688 0.905781
vt 0.543183 0.894838
vt 0.543183 0.866903
vt 0.544688 0.855960
vt 0.548798 0.847949
vt 0.554413 0.845016
vt 0.568747 0.845016
vt 0.574362 0.847949
vt 0.578473 0.855960
vt 0.579977 0.866903
vt 0.579977 0.894838
vt 0.578473 0.905781
vt 0.017584 0.877966
vt 0.019945 0.703076
vt 0.047879 0.703076
vt 0.044354 0.877966
vt 0.964164 -0.000000
vt 0.962263 0.174639
vt 0.947930 0.174639
vt 0.943995 0.000048
vt 0.967851 0.174802
vt 0.970327 0.000080
vt 0.589948 0.844871
vt 0.581921 0.845001
vt 0.579977 0.670120
vt 0.586931 0.669982
vt 0.600898 0.844824
vt 0.598550 0.669933
vt 0.008989 0.703029
vt 0.006271 0.877922
vt 0.000941 0.702900
vt 0.000000 0.877795
vt 0.942288 0.174802
vt 0.939227 0.000136
vt 0.680824 0.845023
vt 0.682795 0.670211
vt 0.058808 0.703029
vt 0.066781 0.702900
vt 0.072240 0.877763
vt 0.062629 0.877912
vt 0.655260 0.845023
vt 0.653229 0.670212
vt 0.647763 0.845001
vt 0.639769 0.844871
vt 0.643623 0.669987
vt 0.653229 0.670137
vt 0.628832 0.844824
vt 0.630835 0.669933
vt 0.927931 0.337811
vt 0.926935 0.512637
vt 0.912602 0.512637
vt 0.911568 0.337811
vt 0.361722 0.615934
vt 0.356107 0.618867
vt 0.341773 0.618867
vt 0.336158 0.615934
vt 0.332048 0.607923
vt 0.330543 0.596980
vt 0.330543 0.569046
vt 0.332048 0.558102
vt 0.336158 0.550091
vt 0.341773 0.547159
vt 0.356107 0.547159
vt 0.361722 0.550091
vt 0.365832 0.558102
vt 0.367337 0.569046
vt 0.367337 0.596980
vt 0.365832 0.607923
vt 0.233753 0.877957
vt 0.235912 0.703076
vt 0.263845 0.703076
vt 0.265575 0.877957
vt 0.987951 0.337811
vt 0.986197 0.512422
vt 0.971864 0.512422
vt 0.969312 0.337872
vt 0.991785 0.512586
vt 0.994026 0.337890
vt 0.081741 0.877829
vt 0.073713 0.877958
vt 0.072240 0.703085
vt 0.079094 0.702949
vt 0.092690 0.877781
vt 0.090546 0.702900
vt 0.224955 0.703029
vt 0.222602 0.877913
vt 0.216907 0.702900
vt 0.216421 0.877788
vt 0.966222 0.512586
vt 0.963371 0.337945
vt 0.932547 0.512855
vt 0.934318 0.338086
vt 0.274774 0.703029
vt 0.282748 0.702900
vt 0.287625 0.877757
vt 0.278152 0.877904
vt 0.906984 0.512855
vt 0.905175 0.338086
vt 0.139555 0.877958
vt 0.131561 0.877829
vt 0.134973 0.702954
vt 0.144441 0.703101
vt 0.120624 0.877781
vt 0.122369 0.702900
vt 0.354221 0.371995
vt 0.352895 0.546941
vt 0.338562 0.546941
vt 0.337195 0.371995
vt 0.361722 0.687642
vt 0.356107 0.690574
vt 0.341773 0.690574
vt 0.336158 0.687642
vt 0.332048 0.679631
vt 0.330543 0.668688
vt 0.330543 0.640753
vt 0.332048 0.629810
vt 0.336158 0.621799
vt 0.341773 0.618867
vt 0.356107 0.618867
vt 0.361722 0.621799
vt 0.365832 0.629810
vt 0.367337 0.640753
vt 0.367337 0.668688
vt 0.365832 0.679631
vt 0.523923 0.845016
vt 0.526781 0.670109
vt 0.554714 0.670109
vt 0.557034 0.845016
vt 0.963118 0.663977
vt 0.960983 0.838672
vt 0.946650 0.838672
vt 0.943724 0.664040
vt 0.966570 0.838835
vt 0.969439 0.664059
vt 0.441709 0.844888
vt 0.433681 0.845018
vt 0.430763 0.670125
vt 0.437895 0.669984
vt 0.452658 0.844841
vt 0.449811 0.669933
vt 0.515824 0.670062
vt 0.512320 0.844970
vt 0.507776 0.669933
vt 0.505889 0.844840
vt 0.941008 0.838835
vt 0.937543 0.664117
vt 0.358507 0.547159
vt 0.360866 0.372281
vt 0.565643 0.670062
vt 0.573617 0.669933
vt 0.579977 0.844808
vt 0.570120 0.844961
vt 0.332943 0.547159
vt 0.330543 0.372281
vt 0.499523 0.845018
vt 0.491529 0.844888
vt 0.496037 0.669989
vt 0.505889 0.670142
vt 0.480592 0.844841
vt 0.482923 0.669933
vt 0.957004 0.337811
vt 0.956033 0.512626
vt 0.941700 0.512626
vt 0.940691 0.337811
vt 0.537568 0.913792
vt 0.531953 0.916724
vt 0.517620 0.916724
vt 0.512005 0.913792
vt 0.507894 0.905781
vt 0.506390 0.894838
vt 0.506390 0.866903
vt 0.507894 0.855960
vt 0.512005 0.847949
vt 0.517620 0.845016
vt 0.531953 0.845016
vt 0.537568 0.847949
vt 0.541679 0.855960
vt 0.543183 0.866903
vt 0.543183 0.894838
vt 0.541679 0.905781
vt 0.304904 0.877955
vt 0.307035 0.703076
vt 0.334968 0.703076
vt 0.336628 0.877955
vt 0.993944 0.663977
vt 0.992218 0.838583
vt 0.977885 0.838583
vt 0.975362 0.664037
vt 0.997806 0.838746
vt 1.000000 0.664055
vt 0.153858 0.877827
vt 0.145830 0.877956
vt 0.144441 0.703084
vt 0.151275 0.702949
vt 0.164807 0.877779
vt 0.166041 0.702900
vt 0.296078 0.703029
vt 0.293787 0.877911
vt 0.288030 0.702900
vt 0.287625 0.877786
vt 0.972243 0.838746
vt 0.969439 0.664111
vt 0.961645 0.512843
vt 0.963371 0.338085
vt 0.345897 0.703029
vt 0.353871 0.702900
vt 0.358611 0.877756
vt 0.349167 0.877902
vt 0.936081 0.512843
vt 0.934318 0.338086
vt 0.211672 0.877956
vt 0.203678 0.877827
vt 0.206982 0.702954
vt 0.216421 0.703101
vt 0.192742 0.877779
vt 0.194416 0.702900
s 0
f 268/281/89 272/282/89 165/283/89 162/284/89
f 320/285/90 215/286/90 249/287/90 251/288/90 306/289/90 307/290/90 305/291/90 323/292/90
f 340/293/90 341/294/90 335/295/90 328/296/90 325/297/90 324/298/90 327/299/90 334/300/90 339/301/90 306/289/90 251/288/90 252/302/90 250/303/90 253/304/90 255/305/90 256/306/90 254/307/90 321/308/90 308/309/90 310/310/90 309/311/90 345/312/90 337/313/90 331/314/90 322/315/90 368/316/90 361/317/90 311/318/90 312/319/90 313/320/90 241/321/90 244/322/90 234/323/90 212/324/90 219/325/90 227/326/90 215/286/90 320/285/90 319/327/90 318/328/90 317/329/90 347/330/90 353/331/90 355/332/90 363/333/90 364/334/90 356/335/90 362/336/90 348/337/90 349/338/90 357/339/90 358/340/90 365/341/90 366/342/90 359/343/90 350/344/90 351/345/90 352/346/90 354/347/90 360/348/90 367/349/90 333/350/90 346/351/90 344/352/90 338/353/90 343/354/90 336/355/90 330/356/90 326/357/90 332/358/90 329/359/90 342/360/90
f 321/308/90 254/307/90 230/361/90 241/321/90 313/320/90 316/362/90 315/363/90 314/364/90
f 364/334/90 363/333/90 324/298/90 325/297/90
f 366/342/90 365/341/90 332/358/90 326/357/90
f 261/365/91 192/366/91 166/367/91 270/368/91
f 182/369/92 185/370/92 175/371/92 161/372/92 163/373/92 164/374/92 162/375/92 165/376/92 167/377/92 168/378/92 166/379/92 192/380/92 202/381/92 204/382/92 196/383/92 170/384/92
f 170/385/93 196/386/93 264/387/93 260/388/93
f 258/389/94 175/390/94 185/391/94 257/392/94
f 257/393/95 185/394/95 182/395/95 259/396/95
f 259/396/96 182/395/96 170/385/96 260/388/96
f 192/366/97 261/365/97 262/397/97 202/398/97
f 202/399/98 262/400/98 263/401/98 204/402/98
f 204/402/99 263/401/99 264/387/99 196/386/99
f 161/403/100 265/404/100 266/405/100 163/406/100
f 163/407/101 266/408/101 267/409/101 164/410/101
f 164/410/102 267/409/102 268/281/102 162/284/102
f 270/368/103 166/367/103 168/411/103 269/412/103
f 269/413/104 168/414/104 167/415/104 271/416/104
f 271/416/105 167/415/105 165/283/105 272/282/105
f 175/390/106 258/389/106 265/404/106 161/403/106
f 252/417/107 251/418/107 274/419/107 278/420/107
f 249/421/108 215/422/108 290/423/108 275/424/108
f 253/425/109 250/426/109 280/427/109 287/428/109
f 230/429/110 254/430/110 282/431/110 299/432/110
f 255/433/111 253/425/111 287/428/111 285/434/111
f 215/422/112 227/435/112 291/436/112 290/423/112
f 227/437/113 219/438/113 293/439/113 291/440/113
f 219/438/114 212/441/114 295/442/114 293/439/114
f 212/441/115 234/443/115 304/444/115 295/442/115
f 244/445/116 241/446/116 298/447/116 302/448/116
f 234/443/117 244/445/117 302/448/117 304/444/117
f 250/426/118 252/417/118 278/420/118 280/427/118
f 241/449/119 230/429/119 299/432/119 298/450/119
f 256/451/120 255/433/120 285/434/120 283/452/120
f 254/430/121 256/453/121 283/454/121 282/431/121
f 273/455/122 276/456/122 258/389/122 257/392/122
f 277/457/123 273/458/123 257/393/123 259/396/123
f 279/459/124 277/457/124 259/396/124 260/388/124
f 281/460/125 284/461/125 262/397/125 261/365/125
f 284/462/126 286/463/126 263/401/126 262/400/126
f 286/463/127 288/464/127 264/387/127 263/401/127
f 289/465/128 292/466/128 266/405/128 265/404/128
f 292/467/129 294/468/129 267/409/129 266/408/129
f 294/468/130 296/469/130 268/281/130 267/409/130
f 297/470/131 300/471/131 270/368/131 269/412/131
f 301/472/132 297/473/132 269/413/132 271/416/132
f 303/474/133 301/472/133 271/416/133 272/282/133
f 276/456/134 289/465/134 265/404/134 258/389/134
f 296/469/135 303/474/135 272/282/135 268/281/135
f 300/471/136 281/460/136 261/365/136 270/368/136
f 288/464/137 279/459/137 260/388/137 264/387/137
f 274/475/138 275/476/138 276/477/138 273/478/138
f 278/479/139 274/475/139 273/478/139 277/480/139
f 280/481/140 278/479/140 277/480/140 279/482/140
f 282/483/141 283/484/141 284/485/141 281/486/141
f 283/484/142 285/487/142 286/488/142 284/485/142
f 285/487/143 287/489/143 288/490/143 286/488/143
f 290/491/144 291/492/144 292/493/144 289/494/144
f 291/492/145 293/495/145 294/496/145 292/493/145
f 293/495/146 295/497/146 296/498/146 294/496/146
f 298/499/147 299/500/147 300/501/147 297/502/147
f 302/503/148 298/499/148 297/502/148 301/504/148
f 304/505/149 302/503/149 301/504/149 303/506/149
f 275/476/150 290/491/150 289/494/150 276/477/150
f 295/497/151 304/505/151 303/506/151 296/498/151
f 299/500/152 282/483/152 281/486/152 300/501/152
f 287/489/153 280/481/153 279/482/153 288/490/153
f 251/507/154 249/421/154 275/424/154 274/508/154
f 317/509/155 218/510/155 173/511/155 347/512/155
f 242/513/90 232/514/90 197/515/90 207/516/90 203/517/90 191/518/90 178/519/90 188/520/90 179/521/90 173/522/90 218/523/90 228/524/90 221/525/90 210/526/90 236/527/90 245/528/90
f 323/529/156 236/530/156 210/531/156 320/532/156
f 339/533/157 197/534/157 232/535/157 306/536/157
f 207/537/158 197/534/158 339/533/158 334/538/158
f 203/539/159 207/540/159 334/541/159 327/542/159
f 191/543/160 203/539/160 327/542/160 324/544/160
f 245/545/161 236/530/161 323/529/161 305/546/161
f 242/547/162 245/545/162 305/546/162 307/548/162
f 232/535/163 242/549/163 307/550/163 306/536/163
f 228/551/164 218/510/164 317/509/164 318/552/164
f 221/553/165 228/554/165 318/555/165 319/556/165
f 210/531/166 221/553/166 319/556/166 320/532/166
f 173/511/167 179/557/167 353/558/167 347/512/167
f 179/559/168 188/560/168 355/561/168 353/562/168
f 188/560/169 178/563/169 363/564/169 355/561/169
f 178/563/170 191/543/170 324/544/170 363/564/170
f 348/565/171 214/566/171 169/567/171 349/568/171
f 239/569/90 233/570/90 198/571/90 205/572/90 201/573/90 193/574/90 176/575/90 184/576/90 181/577/90 169/578/90 214/579/90 224/580/90 220/581/90 211/582/90 237/583/90 248/584/90
f 325/585/172 237/586/172 211/587/172 364/588/172
f 340/589/173 198/590/173 233/591/173 341/592/173
f 205/593/174 198/590/174 340/589/174 342/594/174
f 201/595/175 205/596/175 342/597/175 329/598/175
f 193/599/176 201/595/176 329/598/176 332/600/176
f 248/601/177 237/586/177 325/585/177 328/602/177
f 239/603/178 248/601/178 328/602/178 335/604/178
f 233/591/179 239/605/179 335/606/179 341/592/179
f 224/607/180 214/566/180 348/565/180 362/608/180
f 220/609/181 224/610/181 362/611/181 356/612/181
f 211/587/182 220/609/182 356/612/182 364/588/182
f 169/567/183 181/613/183 357/614/183 349/568/183
f 181/615/184 184/616/184 358/617/184 357/618/184
f 184/616/185 176/619/185 365/620/185 358/617/185
f 365/620/186 176/619/186 193/599/186 332/600/186
f 351/621/187 216/622/187 171/623/187 352/624/187
f 243/625/90 231/626/90 194/627/90 208/628/90 199/629/90 189/630/90 177/631/90 187/632/90 180/633/90 171/634/90 216/635/90 226/636/90 223/637/90 213/638/90 238/639/90 246/640/90
f 326/641/188 238/642/188 213/643/188 366/644/188
f 338/645/189 194/646/189 231/647/189 343/648/189
f 208/649/190 194/646/190 338/645/190 344/650/190
f 199/651/191 208/652/191 344/653/191 346/654/191
f 189/655/192 199/651/192 346/654/192 333/656/192
f 246/657/193 238/642/193 326/641/193 330/658/193
f 243/659/194 246/657/194 330/658/194 336/660/194
f 231/647/195 243/661/195 336/662/195 343/648/195
f 226/663/196 216/622/196 351/621/196 350/664/196
f 223/665/197 226/666/197 350/667/197 359/668/197
f 213/643/198 223/665/198 359/668/198 366/644/198
f 171/623/199 180/669/199 354/670/199 352/624/199
f 180/671/200 187/672/200 360/673/200 354/674/200
f 187/672/201 177/675/201 367/676/201 360/673/201
f 367/676/202 177/675/202 189/655/202 333/656/202
f 312/677/203 217/678/203 172/679/203 313/680/203
f 240/681/90 229/682/90 195/683/90 206/684/90 200/685/90 190/686/90 174/687/90 186/688/90 183/689/90 172/690/90 217/691/90 225/692/90 222/693/90 209/694/90 235/695/90 247/696/90
f 322/697/204 235/698/204 209/699/204 368/700/204
f 309/701/205 195/702/205 229/703/205 345/704/205
f 206/705/206 195/702/206 309/701/206 310/706/206
f 200/707/207 206/708/207 310/709/207 308/710/207
f 190/711/208 200/707/208 308/710/208 321/712/208
f 247/713/209 235/698/209 322/697/209 331/714/209
f 240/715/210 247/713/210 331/714/210 337/716/210
f 229/703/211 240/717/211 337/718/211 345/704/211
f 225/719/212 217/678/212 312/677/212 311/720/212
f 222/721/213 225/722/213 311/723/213 361/724/213
f 209/699/214 222/721/214 361/724/214 368/700/214
f 172/679/215 183/725/215 316/726/215 313/680/215
f 183/727/216 186/728/216 315/729/216 316/730/216
f 186/728/217 174/731/217 314/732/217 315/729/217
f 174/731/218 190/711/218 321/712/218 314/732/218
