# Blender 4.4.3
# www.blender.org
o Plancha.001
v 0.027692 0.000000 0.091106
v 0.035022 0.467113 0.068856
v -0.012308 0.000000 0.091106
v -0.025200 0.467113 0.068856
v 0.027692 0.000000 -0.099512
v 0.035022 0.490847 -0.124152
v -0.012308 0.000000 -0.099512
v -0.025200 0.490847 -0.124152
vn -0.0000 0.0476 0.9989
vn -0.9996 -0.0270 -0.0017
vn -0.0000 -0.0501 -0.9987
vn 0.9999 -0.0153 -0.0009
vn -0.0000 -1.0000 -0.0000
vn -0.0000 0.9925 0.1220
vt 0.375000 0.000000
vt 0.625000 0.000000
vt 0.625000 0.250000
vt 0.375000 0.250000
vt 0.625000 0.500000
vt 0.375000 0.500000
vt 0.625000 0.750000
vt 0.375000 0.750000
vt 0.625000 1.000000
vt 0.375000 1.000000
vt 0.125000 0.500000
vt 0.125000 0.750000
vt 0.875000 0.500000
vt 0.875000 0.750000
s 1
f 1/1/1 2/2/1 4/3/1 3/4/1
f 3/4/2 4/3/2 8/5/2 7/6/2
f 7/6/3 8/5/3 6/7/3 5/8/3
f 5/8/4 6/7/4 2/9/4 1/10/4
f 3/11/5 7/6/5 5/8/5 1/12/5
f 8/5/6 4/13/6 2/14/6 6/7/6
o Transversal
v -0.010000 0.300000 0.133549
v -0.010000 0.200000 0.133549
v -0.050000 0.300000 0.133549
v -0.050000 0.200000 0.133549
v -0.050000 0.300000 -0.153409
v -0.010000 0.200000 -0.144618
v -0.050000 0.200000 -0.144618
v -0.010000 0.300000 -0.153409
vn -0.0000 -0.0000 1.0000
vn -0.0000 -0.0876 -0.9962
vn 1.0000 -0.0000 -0.0000
vn -0.0000 -1.0000 -0.0000
vn -1.0000 -0.0000 -0.0000
vn -0.0000 1.0000 -0.0000
vt 0.000000 0.625000
vt 0.250000 0.625000
vt 0.250000 0.375000
vt 0.000000 0.375000
vt 0.914282 0.375000
vt 0.335718 0.375000
vt 0.500000 0.793605
vt 0.918605 0.625000
vt 1.000000 0.625000
vt 1.000000 0.375000
vt 0.500000 0.210718
vt 0.750000 0.210718
vt 0.750000 0.125000
vt 0.500000 0.125000
vt 0.331395 0.625000
vt 0.500000 0.875000
vt 0.750000 0.875000
vt 0.750000 0.793605
s 1
f 9/15/7 11/16/7 12/17/7 10/18/7
f 14/19/8 15/20/8 13/21/8 16/22/8
f 16/22/9 9/23/9 10/24/9 14/19/9
f 15/25/10 14/26/10 10/27/10 12/28/10
f 11/16/11 13/29/11 15/20/11 12/17/11
f 11/30/12 9/31/12 16/32/12 13/21/12
