# Blender 4.4.3
# www.blender.org
o Bajo2
v -0.142758 0.000062 0.247036
v -0.070084 0.444598 0.147469
v -0.144264 0.000664 -0.216223
v -0.075171 0.496363 -0.146450
v 0.167651 0.000062 0.195360
v 0.106918 0.437341 0.119444
v 0.157071 -0.000967 -0.255318
v 0.081192 0.529115 -0.151709
v -0.161342 0.000062 -0.006758
v -0.134798 0.276096 0.230157
v -0.098595 0.518727 -0.004269
v -0.136656 0.277085 -0.202756
v 0.005604 -0.000147 -0.235667
v -0.011628 0.535191 -0.179894
v 0.150384 0.275532 -0.239997
v 0.178918 0.000062 -0.032239
v 0.116901 0.518727 -0.004269
v 0.150308 0.276096 0.205742
v 0.009543 0.000062 0.246989
v 0.006233 0.457280 0.153969
v 0.003577 0.537758 -0.005377
v 0.006233 0.000062 -0.006758
v 0.008367 0.276096 0.231630
v 0.150308 0.276096 -0.006758
v 0.006864 0.276309 -0.221376
v -0.137841 0.276096 -0.006758
vn -0.9712 0.2226 -0.0847
vn 0.0464 0.2527 -0.9664
vn 0.9763 0.2018 0.0778
vn -0.0574 0.4246 0.9036
vn -0.0000 -1.0000 -0.0000
vn -0.1693 0.8757 0.4522
vn 0.2295 0.8423 0.4876
vn 0.1202 0.9927 0.0051
vn -0.3438 0.9354 -0.0826
vn -0.0026 -1.0000 -0.0010
vn -0.0021 -1.0000 0.0028
vn -0.0048 0.0584 0.9983
vn 0.2501 0.0171 0.9681
vn 0.2506 0.4450 0.8597
vn 0.9964 0.0813 0.0255
vn 0.9966 0.0672 -0.0478
vn 0.9725 0.2167 -0.0854
vn -0.1282 0.0518 -0.9904
vn -0.2753 0.2163 -0.9367
vn -0.9974 0.0573 -0.0447
vn -0.9973 0.0582 0.0440
vn -0.9552 0.2666 0.1284
vt 0.921875 0.250000
vt 0.921875 0.312500
vt 0.859375 0.312500
vt 0.859375 0.250000
vt 0.796875 0.250000
vt 0.796875 0.312500
vt 0.734375 0.312500
vt 0.734375 0.250000
vt 0.671875 0.250000
vt 0.671875 0.312500
vt 0.609375 0.312500
vt 0.609375 0.250000
vt 0.546875 0.250000
vt 0.546875 0.312500
vt 0.484375 0.312500
vt 0.484375 0.250000
vt 0.671875 0.125000
vt 0.671875 0.187500
vt 0.609375 0.187500
vt 0.609375 0.125000
vt 0.671875 0.375000
vt 0.671875 0.437500
vt 0.609375 0.437500
vt 0.609375 0.375000
vt 0.734375 0.375000
vt 0.734375 0.437500
vt 0.671875 0.062500
vt 0.609375 0.062500
vt 0.734375 0.062500
vt 0.734375 0.125000
vt 0.734375 0.187500
vt 0.546875 0.187500
vt 0.484375 0.187500
vt 0.796875 0.187500
vt 0.859375 0.187500
vt 0.921875 0.187500
vt 0.984375 0.187500
vt 0.984375 0.250000
vt 0.984375 0.312500
s 0
f 26/1/1 11/2/1 4/3/1 12/4/1
f 25/5/2 14/6/2 8/7/2 15/8/2
f 24/9/3 17/10/3 6/11/3 18/12/3
f 23/13/4 20/14/4 2/15/4 10/16/4
f 22/17/5 16/18/5 5/19/5 19/20/5
f 21/21/6 11/22/6 2/23/6 20/24/6
f 17/10/7 21/21/7 20/24/7 6/11/7
f 8/7/8 14/25/8 21/21/8 17/10/8
f 14/25/9 4/26/9 11/22/9 21/21/9
f 9/27/5 22/17/5 19/20/5 1/28/5
f 3/29/10 13/30/10 22/17/10 9/27/10
f 13/30/11 7/31/11 16/18/11 22/17/11
f 19/32/12 23/13/12 10/16/12 1/33/12
f 5/19/13 18/12/13 23/13/13 19/32/13
f 18/12/14 6/11/14 20/14/14 23/13/14
f 16/18/15 24/9/15 18/12/15 5/19/15
f 7/31/16 15/8/16 24/9/16 16/18/16
f 15/8/17 8/7/17 17/10/17 24/9/17
f 13/34/18 25/5/18 15/8/18 7/31/18
f 3/35/18 12/4/18 25/5/18 13/34/18
f 12/4/19 4/3/19 14/6/19 25/5/19
f 9/36/20 26/1/20 12/4/20 3/35/20
f 1/37/21 10/38/21 26/1/21 9/36/21
f 10/38/22 2/39/22 11/2/22 26/1/22
