# Blender 4.4.3
# www.blender.org
o Bajo1
v -0.145623 0.000083 0.245759
v -0.069412 0.613597 0.170123
v -0.142830 0.000083 -0.254241
v -0.074450 0.606516 -0.152912
v 0.163758 0.000083 0.245759
v 0.105891 0.596899 0.140836
v 0.156766 0.000083 -0.254241
v 0.080413 0.648213 -0.162643
v -0.150324 0.000083 -0.002531
v -0.136518 0.366859 0.228925
v -0.097649 0.672236 -0.002531
v -0.136518 0.366859 -0.233986
v 0.006173 0.000083 -0.254241
v -0.011516 0.648995 -0.193758
v 0.148865 0.366859 -0.233986
v 0.170237 0.000083 -0.002531
v 0.115779 0.672236 -0.002531
v 0.148865 0.366859 0.228925
v 0.006173 0.000083 0.245759
v 0.006173 0.631923 0.175551
v 0.003542 0.696961 -0.006087
v 0.006173 0.000083 -0.002531
v 0.006173 0.366859 0.228925
v 0.148865 0.366859 -0.002531
v 0.006173 0.366859 -0.233986
v -0.136518 0.366859 -0.002531
vn -0.9765 0.1946 -0.0928
vn 0.1292 0.2116 -0.9688
vn 0.9872 0.1495 0.0561
vn -0.0426 0.2192 0.9747
vn -0.0000 -1.0000 -0.0000
vn -0.2260 0.9134 0.3385
vn 0.3024 0.8726 0.3836
vn 0.1579 0.9622 -0.2221
vn -0.4296 0.8528 -0.2971
vn -0.0000 0.0459 0.9989
vn 0.1761 0.2845 0.9424
vn 0.9987 0.0497 0.0135
vn 0.9988 0.0406 -0.0278
vn 0.9784 0.1814 -0.0995
vn -0.0000 0.0551 -0.9985
vn -0.2365 0.2390 -0.9418
vn -0.9995 0.0278 -0.0155
vn -0.9995 0.0314 0.0098
vn -0.9755 0.1976 0.0968
vt 0.203125 0.937500
vt 0.140625 0.937500
vt 0.140625 0.875000
vt 0.203125 0.875000
vt 0.203125 0.812500
vt 0.140625 0.812500
vt 0.140625 0.750000
vt 0.203125 0.750000
vt 0.203125 0.687500
vt 0.140625 0.687500
vt 0.140625 0.625000
vt 0.203125 0.625000
vt 0.203125 0.605564
vt 0.140625 0.605564
vt 0.140625 0.543064
vt 0.203125 0.543064
vt 0.328125 0.687500
vt 0.265625 0.687500
vt 0.265625 0.625000
vt 0.328125 0.625000
vt 0.078125 0.687500
vt 0.015625 0.687500
vt 0.015625 0.625000
vt 0.078125 0.625000
vt 0.078125 0.750000
vt 0.015625 0.750000
vt 0.390625 0.687500
vt 0.390625 0.625000
vt 0.390625 0.750000
vt 0.328125 0.750000
vt 0.265625 0.750000
vt 0.265625 0.605564
vt 0.265625 0.543064
vt 0.265625 0.812500
vt 0.265625 0.875000
vt 0.265625 0.937500
vt 0.265625 1.000000
vt 0.203125 1.000000
vt 0.140625 1.000000
s 0
f 26/1/1 11/2/1 4/3/1 12/4/1
f 25/5/2 14/6/2 8/7/2 15/8/2
f 24/9/3 17/10/3 6/11/3 18/12/3
f 23/13/4 20/14/4 2/15/4 10/16/4
f 22/17/5 16/18/5 5/19/5 19/20/5
f 21/21/6 11/22/6 2/23/6 20/24/6
f 17/10/7 21/21/7 20/24/7 6/11/7
f 8/7/8 14/25/8 21/21/8 17/10/8
f 14/25/9 4/26/9 11/22/9 21/21/9
f 9/27/5 22/17/5 19/20/5 1/28/5
f 3/29/5 13/30/5 22/17/5 9/27/5
f 13/30/5 7/31/5 16/18/5 22/17/5
f 19/32/10 23/13/10 10/16/10 1/33/10
f 5/19/10 18/12/10 23/13/10 19/32/10
f 18/12/11 6/11/11 20/14/11 23/13/11
f 16/18/12 24/9/12 18/12/12 5/19/12
f 7/31/13 15/8/13 24/9/13 16/18/13
f 15/8/14 8/7/14 17/10/14 24/9/14
f 13/34/15 25/5/15 15/8/15 7/31/15
f 3/35/15 12/4/15 25/5/15 13/34/15
f 12/4/16 4/3/16 14/6/16 25/5/16
f 9/36/17 26/1/17 12/4/17 3/35/17
f 1/37/18 10/38/18 26/1/18 9/36/18
f 10/38/19 2/39/19 11/2/19 26/1/19
