# Blender 4.4.3
# www.blender.org
o Plancha
v 0.027666 0.000000 0.056522
v 0.019754 0.596073 0.128155
v -0.012334 0.000000 0.056522
v -0.032246 0.596073 0.128155
v 0.027666 0.000000 -0.106268
v 0.019754 0.585554 -0.110554
v -0.012334 0.000000 -0.106268
v -0.032246 0.585554 -0.110554
vn -0.0000 -0.1193 0.9929
vn -0.9994 -0.0337 0.0009
vn -0.0000 -0.0073 -1.0000
vn 0.9999 0.0134 -0.0004
vn -0.0000 -1.0000 -0.0000
vn -0.0000 0.9990 -0.0440
vt 0.375000 0.000000
vt 0.625000 0.000000
vt 0.625000 0.250000
vt 0.375000 0.250000
vt 0.625000 0.500000
vt 0.375000 0.500000
vt 0.625000 0.750000
vt 0.375000 0.750000
vt 0.625000 1.000000
vt 0.375000 1.000000
vt 0.125000 0.500000
vt 0.125000 0.750000
vt 0.875000 0.500000
vt 0.875000 0.750000
s 0
f 1/1/1 2/2/1 4/3/1 3/4/1
f 3/4/2 4/3/2 8/5/2 7/6/2
f 7/6/3 8/5/3 6/7/3 5/8/3
f 5/8/4 6/7/4 2/9/4 1/10/4
f 3/11/5 7/6/5 5/8/5 1/12/5
f 8/5/6 4/13/6 2/14/6 6/7/6
o Plancha.001
v 0.057692 0.000000 0.435170
v 0.065022 0.467113 0.412920
v 0.017692 0.000000 0.435170
v 0.022890 0.467113 0.412920
v 0.057692 0.000000 0.244552
v 0.065022 0.490847 0.219912
v 0.017692 0.000000 0.244552
v 0.022890 0.490847 0.219912
vn -0.0000 0.0476 0.9989
vn -0.9999 0.0109 0.0007
vn -0.0000 -0.0501 -0.9987
vn 0.9999 -0.0153 -0.0009
vn -0.0000 -1.0000 -0.0000
vn -0.0000 0.9925 0.1221
vt 0.375000 0.000000
vt 0.625000 0.000000
vt 0.625000 0.250000
vt 0.375000 0.250000
vt 0.625000 0.500000
vt 0.375000 0.500000
vt 0.625000 0.750000
vt 0.375000 0.750000
vt 0.625000 1.000000
vt 0.375000 1.000000
vt 0.125000 0.500000
vt 0.125000 0.750000
vt 0.875000 0.500000
vt 0.875000 0.750000
s 0
f 9/15/7 10/16/7 12/17/7 11/18/7
f 11/18/8 12/17/8 16/19/8 15/20/8
f 15/20/9 16/19/9 14/21/9 13/22/9
f 13/22/10 14/21/10 10/23/10 9/24/10
f 11/25/11 15/20/11 13/22/11 9/26/11
f 16/19/12 12/27/12 10/28/12 14/21/12
o Plancha.002
v 0.065494 0.000000 -0.206850
v 0.050973 0.446097 -0.175045
v 0.025494 0.000000 -0.206850
v 0.010973 0.446097 -0.175045
v 0.065494 0.000000 -0.379090
v 0.050973 0.459079 -0.405060
v 0.025494 0.000000 -0.379090
v 0.010973 0.459079 -0.405060
vn -0.0000 -0.0711 0.9975
vn -0.9995 -0.0321 -0.0010
vn -0.0000 -0.0565 -0.9984
vn 0.9995 0.0321 0.0010
vn -0.0000 -1.0000 -0.0000
vn -0.0000 0.9984 0.0563
vt 0.375000 0.000000
vt 0.625000 0.000000
vt 0.625000 0.250000
vt 0.375000 0.250000
vt 0.625000 0.500000
vt 0.375000 0.500000
vt 0.625000 0.750000
vt 0.375000 0.750000
vt 0.625000 1.000000
vt 0.375000 1.000000
vt 0.125000 0.500000
vt 0.125000 0.750000
vt 0.875000 0.500000
vt 0.875000 0.750000
s 0
f 17/29/13 18/30/13 20/31/13 19/32/13
f 19/32/14 20/31/14 24/33/14 23/34/14
f 23/34/15 24/33/15 22/35/15 21/36/15
f 21/36/16 22/35/16 18/37/16 17/38/16
f 19/39/17 23/34/17 21/36/17 17/40/17
f 24/33/18 20/41/18 18/42/18 22/35/18
o Transversal
v 0.020000 0.300000 0.520000
v 0.020000 0.200000 0.520000
v -0.020000 0.300000 0.520000
v -0.020000 0.200000 0.520000
v -0.020000 0.300000 0.156183
v 0.020000 0.200000 0.164974
v -0.020000 0.200000 0.164974
v 0.020000 0.300000 0.156183
vn -0.0000 -0.0000 1.0000
vn -0.0000 -0.0876 -0.9962
vn 1.0000 -0.0000 -0.0000
vn -0.0000 -1.0000 -0.0000
vn -1.0000 -0.0000 -0.0000
vn -0.0000 1.0000 -0.0000
vt 0.000000 0.625000
vt 0.250000 0.625000
vt 0.250000 0.375000
vt 0.000000 0.375000
vt 0.914282 0.375000
vt 0.335718 0.375000
vt 0.500000 0.793605
vt 0.918605 0.625000
vt 1.000000 0.625000
vt 1.000000 0.375000
vt 0.500000 0.210718
vt 0.750000 0.210718
vt 0.750000 0.125000
vt 0.500000 0.125000
vt 0.331395 0.625000
vt 0.500000 0.875000
vt 0.750000 0.875000
vt 0.750000 0.793605
s 0
f 25/43/19 27/44/19 28/45/19 26/46/19
f 30/47/20 31/48/20 29/49/20 32/50/20
f 32/50/21 25/51/21 26/52/21 30/47/21
f 31/53/22 30/54/22 26/55/22 28/56/22
f 27/44/23 29/57/23 31/48/23 28/45/23
f 27/58/24 25/59/24 32/60/24 29/49/24
o Transversal.001
v -0.060281 0.302524 0.199251
v -0.060281 0.178687 0.174190
v -0.020281 0.302346 0.203354
v -0.020281 0.178509 0.178293
v -0.060179 0.197346 -0.255924
v -0.020179 0.321622 -0.240976
v -0.060179 0.321483 -0.237780
v -0.020179 0.197485 -0.259120
vn -0.0793 0.1442 -0.9864
vn 1.0000 -0.0000 0.0002
vn -0.0000 -0.9991 -0.0433
vn -0.1009 -0.1973 0.9751
vn -0.0000 0.9991 0.0433
vn -1.0000 -0.0000 -0.0002
vt 0.684635 0.498055
vt 0.308621 0.498055
vt 0.372028 0.814649
vt 0.687822 0.748055
vt 0.786050 0.748055
vt 0.781132 0.498055
vt 0.372028 0.434647
vt 0.622028 0.435447
vt 0.622028 0.338950
vt 0.372028 0.339977
vt 0.372028 0.911050
vt 0.213950 0.498055
vt 0.622028 0.912076
vt 0.622028 0.813849
vt 0.209033 0.748055
vt 0.305434 0.748055
s 0
f 40/61/25 37/62/25 39/63/25 38/64/25
f 38/64/26 35/65/26 36/66/26 40/61/26
f 37/67/27 40/68/27 36/69/27 34/70/27
f 36/66/28 35/65/28 33/71/28 34/72/28
f 33/71/29 35/73/29 38/74/29 39/63/29
f 33/75/30 39/76/30 37/62/30 34/72/30
o Transversal.002
v 0.020000 0.300000 -0.520000
v 0.020000 0.200000 -0.520000
v -0.020000 0.300000 -0.520000
v -0.020000 0.200000 -0.520000
v -0.020000 0.200000 -0.136167
v 0.020000 0.300000 -0.149561
v -0.020000 0.300000 -0.147359
v 0.020000 0.200000 -0.138368
vn -1.0000 -0.0000 -0.0000
vn -0.0000 -0.0000 -1.0000
vn -0.0000 1.0000 -0.0000
vn 0.0546 0.1111 0.9923
vn 1.0000 -0.0000 -0.0000
vn -0.0000 -1.0000 -0.0000
vt 0.309081 0.753294
vt 0.378845 0.753294
vt 0.378845 0.503294
vt 0.301942 0.503294
vt 0.628845 0.753294
vt 0.628845 0.503294
vt 0.378845 0.823058
vt 0.628845 0.822507
vt 0.705196 0.503294
vt 0.698058 0.753294
vt 0.628845 0.426942
vt 0.378845 0.426392
s 0
f 47/77/31 43/78/31 44/79/31 45/80/31
f 43/78/32 41/81/32 42/82/32 44/79/32
f 47/83/33 46/84/33 41/81/33 43/78/33
f 48/85/34 46/86/34 47/83/34 45/80/34
f 41/81/35 46/86/35 48/85/35 42/82/35
f 44/79/36 42/82/36 48/87/36 45/88/36
