# Blender 4.4.3
# www.blender.org
o Portico_A_Cara
v -0.092922 1.539466 0.081896
v 0.253094 1.906936 0.010675
v -0.092922 1.561327 0.081896
v 0.334734 1.342993 0.104421
v 0.253094 1.944978 0.046602
v -0.162852 1.539466 0.081896
v -0.284325 1.906936 0.010675
v -0.162852 1.561327 0.081896
v -0.365965 1.342993 0.104421
v -0.284325 1.944978 0.046602
v 0.128276 1.539466 0.063779
v 0.117536 1.693342 0.073076
v 0.128276 1.561327 0.063779
v -0.148767 1.693342 0.073076
v -0.148767 1.693342 -0.000414
v 0.058346 1.539466 0.063779
v 0.058346 1.561327 0.063779
v -0.316050 1.342993 0.059341
v 0.284819 1.342993 0.059340
v 0.117536 1.693342 -0.000414
v 0.068289 1.378942 0.108286
v 0.051515 1.411760 0.108286
v -0.018077 1.906936 0.037149
v -0.016835 1.693342 -0.000414
v -0.109973 1.378942 0.108286
v -0.016835 1.693342 0.073076
v -0.086565 1.411760 0.108286
v 0.148030 1.644153 0.077477
v -0.179261 1.644153 0.077477
v -0.179261 1.644153 -0.018587
v -0.020842 1.446419 0.108286
v -0.020842 1.479237 0.108286
v 0.148030 1.644153 -0.018588
v -0.017115 1.644153 0.084954
v -0.016841 1.695211 0.088868
v -0.148772 1.695211 0.080121
v 0.117531 1.695211 0.081486
v 0.148025 1.646022 0.085887
v -0.179266 1.646022 0.084522
v -0.017120 1.646022 0.090480
v 0.128276 1.539466 0.090676
v 0.128276 1.561327 0.088106
v 0.068289 1.378942 0.135905
v 0.058346 1.539290 0.097692
v 0.058346 1.561327 0.093517
v 0.051515 1.411760 0.130534
v -0.019500 1.446189 0.133176
v -0.015505 1.476648 0.125402
v -0.018282 1.479237 0.124648
v -0.020842 1.446419 0.132582
v -0.092922 1.539466 0.106765
v -0.092922 1.561327 0.101480
v -0.109973 1.378942 0.137058
v -0.086565 1.411760 0.134591
v -0.162852 1.539466 0.099317
v -0.162852 1.561327 0.095282
v -0.056761 1.342993 0.151857
v -0.240672 1.342993 0.123642
v -0.147779 1.342993 0.137893
v -0.056761 1.342993 0.059340
v -0.240672 1.342993 0.059341
v -0.147779 1.342993 0.059341
v 0.217440 1.342993 0.059340
v 0.119785 1.342993 0.059340
v 0.130288 1.379773 0.050180
v 0.206936 1.379773 0.050180
v -0.019204 1.379773 0.050180
v 0.008102 1.342993 0.059340
v -0.002519 1.379773 0.050180
v -0.046140 1.379773 0.050180
v -0.155701 1.379773 0.050180
v -0.232749 1.379773 0.050180
v 0.217440 1.342993 0.122088
v 0.008102 1.342993 0.153621
v 0.119785 1.342993 0.136798
v -0.002519 1.379773 0.146370
v -0.018617 1.379773 0.148795
v 0.206936 1.379773 0.115102
v 0.130288 1.379773 0.126498
v -0.232749 1.379773 0.118069
v -0.046140 1.379773 0.146697
v -0.155701 1.379773 0.129889
v -0.017988 1.926810 0.073076
v -0.029644 1.926810 0.071917
v -0.034890 1.944978 0.071404
v -0.162451 1.926810 0.058711
v -0.244287 1.944978 0.050583
v -0.239099 1.926810 0.051090
v -0.157263 1.944978 0.059236
v 0.200586 1.926810 0.034570
v 0.204500 1.944978 0.051346
v 0.119625 1.944978 0.059632
v 0.123539 1.926810 0.042092
v 0.019223 1.944978 0.069434
v 0.013977 1.926810 0.052789
v -0.018077 1.926810 0.055918
v -0.029644 1.926810 0.054768
v -0.162451 1.926810 0.041562
v -0.239099 1.926810 0.033941
v 0.123539 1.926810 0.060206
v 0.200586 1.926810 0.052684
v 0.013977 1.926810 0.070902
vn 0.8537 -0.4919 0.1710
vn -0.0651 0.0357 0.9972
vn -0.8537 -0.4919 0.1710
vn -0.0646 0.1329 -0.9890
vn -0.0000 -1.0000 -0.0000
vn -0.0708 0.6849 -0.7252
vn -0.0000 -0.1928 -0.9812
vn -0.8499 0.5269 -0.0000
vn -0.0118 -0.9584 0.2850
vn 0.8499 0.5269 -0.0000
vn -0.8474 0.5131 -0.1367
vn 0.0721 0.6848 -0.7251
vn 0.0657 0.1337 -0.9888
vn 0.0639 0.0347 0.9974
vn 0.0972 0.1739 0.9800
vn 0.1172 0.2005 0.9726
vn 0.8603 0.4091 -0.3042
vn -0.1368 0.1887 0.9724
vn -0.0516 0.2274 0.9724
vn -0.8603 0.4091 -0.3042
vn -0.0498 0.0764 0.9958
vn 0.0398 0.0731 0.9965
vn -0.0042 0.9883 -0.1527
vn 0.8489 0.5161 -0.1142
vn 0.0095 -0.9658 0.2591
vn 0.0054 0.9869 -0.1615
vn -1.0000 -0.0000 -0.0000
vn 1.0000 -0.0000 -0.0000
vn -0.0000 -0.0000 1.0000
vn -0.0000 1.0000 -0.0000
vn -0.0011 1.0000 0.0029
vn -0.8904 -0.4551 -0.0000
vn 0.8141 -0.5807 -0.0000
vn -0.6036 0.7973 -0.0000
vn -0.6889 -0.7234 0.0468
vn 0.7074 -0.7056 -0.0425
vn 0.6038 0.7970 -0.0120
vn -0.9776 -0.2106 -0.0000
vn -0.9607 -0.2774 -0.0000
vn 0.9776 -0.2106 -0.0000
vn 0.9616 -0.2746 -0.0000
vn 0.9607 -0.2774 -0.0000
vn -0.9616 -0.2746 -0.0000
vn 0.9776 0.2106 -0.0000
vn 0.9607 0.2774 -0.0000
vn -0.9776 0.2106 -0.0000
vn -0.9616 0.2746 -0.0000
vn -0.9607 0.2774 -0.0000
vn 0.9616 0.2746 -0.0000
vt 0.025000 0.750000
vt 0.025000 0.687500
vt 0.137500 0.687500
vt 0.137500 0.750000
vt 0.241619 0.687500
vt 0.250000 0.687500
vt 0.250000 0.750000
vt 0.194265 0.750000
vt 0.194265 0.692012
vt 0.197110 0.692011
vt 0.197785 0.687500
vt 0.223402 0.687500
vt 0.225859 0.692007
vt 0.242240 0.692006
vt 0.362500 0.687500
vt 0.362500 0.750000
vt 0.418235 0.750000
vt 0.418235 0.687500
vt 0.475000 0.687500
vt 0.475000 0.750000
vt 0.250000 0.812500
vt 0.362500 0.812500
vt 0.362500 0.834852
vt 0.250000 0.834852
vt 0.250000 0.867660
vt 0.250000 0.851423
vt 0.362500 0.851423
vt 0.362500 0.867660
vt 0.250000 0.573803
vt 0.250000 0.562500
vt 0.362500 0.562500
vt 0.362500 0.625573
vt 0.303728 0.625573
vt 0.303728 0.618117
vt 0.250000 0.616897
vt 0.250000 0.593544
vt 0.303728 0.592634
vt 0.303728 0.574713
vt 0.475000 0.758775
vt 0.475000 0.812500
vt 0.456168 0.812500
vt 0.457966 0.810729
vt 0.445141 0.810729
vt 0.440489 0.812500
vt 0.422558 0.812500
vt 0.421773 0.810729
vt 0.418262 0.810729
vt 0.412790 0.810729
vt 0.412144 0.812500
vt 0.397531 0.812500
vt 0.393639 0.810729
vt 0.380711 0.810729
vt 0.382616 0.812500
vt 0.362500 0.758775
vt 0.250000 0.758775
vt 0.194265 0.758775
vt 0.025000 0.758775
vt 0.137500 0.758775
vt 0.250000 0.678188
vt 0.303728 0.676981
vt 0.303728 0.659153
vt 0.250000 0.657946
vt 0.250000 0.629483
vt 0.303728 0.628263
vt 0.250000 0.899155
vt 0.250000 0.879231
vt 0.362500 0.879231
vt 0.362500 0.899155
vt 0.362500 0.916576
vt 0.362500 0.937500
vt 0.250000 0.937500
vt 0.250000 0.916576
vt 0.147672 0.687500
vt 0.146836 0.692014
vt 0.163301 0.692015
vt 0.165439 0.687500
vt 0.186457 0.687500
vt 0.186877 0.692018
vt 0.173437 0.773385
vt 0.154212 0.773402
vt 0.194265 0.788657
vt 0.174321 0.776498
vt 0.156332 0.812500
vt 0.137500 0.812500
vt 0.156455 0.777256
vt 0.180540 0.800184
vt 0.178684 0.806056
vt 0.194265 0.794400
vt 0.194265 0.805939
vt 0.191299 0.805921
vt 0.189942 0.812500
vt 0.172011 0.812500
vt 0.167939 0.805867
vt 0.155031 0.805872
vt 0.025000 0.812500
vt 0.199335 0.805994
vt 0.194829 0.794056
vt 0.210546 0.806125
vt 0.207551 0.800319
vt 0.194896 0.788201
vt 0.213497 0.777581
vt 0.231430 0.777559
vt 0.233759 0.773656
vt 0.229884 0.812500
vt 0.231505 0.805953
vt 0.218509 0.805966
vt 0.214969 0.812500
vt 0.200356 0.812500
vt 0.214632 0.773659
vt 0.089964 0.687500
vt 0.107494 0.812500
vt 0.304712 0.812500
vt 0.318098 0.687500
vt 0.280006 0.937500
vt 0.297536 0.562500
vt 0.105699 0.687500
vt 0.114223 0.812500
vt 0.273277 0.937500
vt 0.250000 0.786727
vt 0.263852 0.687500
vt 0.281801 0.562500
vt 0.098803 0.687500
vt 0.116618 0.812500
vt 0.267057 0.812500
vt 0.275238 0.687500
vt 0.418750 0.687500
vt 0.418750 0.812500
vt 0.281906 0.875000
vt 0.362500 0.875000
vt 0.305722 0.622602
vt 0.308223 0.625000
vt 0.362500 0.625000
vt 0.288697 0.562500
vt 0.279935 0.876818
vt 0.270882 0.937500
vt 0.339713 0.656084
vt 0.268496 0.656084
vt 0.270682 0.656084
vt 0.342215 0.656084
vt 0.342215 0.618434
vt 0.339713 0.618434
vt 0.264199 0.618434
vt 0.266180 0.618434
vt 0.342215 0.679532
vt 0.273911 0.679532
vt 0.266091 0.635530
vt 0.342215 0.635530
vt 0.342215 0.624973
vt 0.265518 0.624743
vt 0.342215 0.593098
vt 0.342215 0.568138
vt 0.274721 0.568138
vt 0.271608 0.593098
vt 0.272388 0.679532
vt 0.339713 0.679532
vt 0.268795 0.593098
vt 0.339713 0.593098
vt 0.264681 0.635530
vt 0.339713 0.635530
vt 0.339713 0.568138
vt 0.272813 0.568138
vt 0.289873 0.656084
vt 0.289717 0.656084
vt 0.294664 0.656084
vt 0.286658 0.618434
vt 0.286518 0.618434
vt 0.291202 0.618434
vt 0.291771 0.679532
vt 0.296719 0.679532
vt 0.286201 0.623002
vt 0.286795 0.635530
vt 0.291743 0.635530
vt 0.290888 0.622967
vt 0.296891 0.568138
vt 0.292207 0.568138
vt 0.290125 0.593098
vt 0.294809 0.593098
vt 0.292137 0.679532
vt 0.289981 0.593098
vt 0.287196 0.635530
vt 0.292345 0.568138
s 0
f 20/1/1 2/2/1 5/3/1 12/4/1
f 87/5/2 10/6/2 14/7/2 26/8/2 83/9/2 84/10/2 85/11/2 89/12/2 86/13/2 88/14/2
f 14/7/3 10/6/3 7/15/3 15/16/3
f 24/17/4 23/18/4 2/19/4 20/20/4
f 9/21/5 18/22/5 61/23/5 58/24/5
f 57/25/5 59/26/5 62/27/5 60/28/5
f 91/29/6 5/30/6 2/31/6 23/32/6 96/33/6 95/34/6 94/35/6 92/36/6 93/37/6 90/38/6
f 15/16/7 24/17/7 20/20/7 33/39/7 19/40/7 63/41/7 66/42/7 65/43/7 64/44/7 68/45/7 69/46/7 67/47/7 70/48/7 60/49/7 62/50/7 71/51/7 72/52/7 61/53/7 18/22/7 30/54/7
f 29/55/8 14/7/8 15/16/8 30/54/8
f 29/55/9 34/56/9 40/56/9 39/55/9
f 33/57/10 20/1/10 12/4/10 28/58/10
f 14/7/11 29/55/11 39/55/11 36/7/11
f 96/33/12 23/32/12 7/15/12 10/6/12 87/59/12 99/60/12 98/61/12 89/62/12 85/63/12 97/64/12
f 75/65/5 74/66/5 68/67/5 64/68/5
f 63/69/5 19/70/5 4/71/5 73/72/5
f 15/16/13 7/15/13 23/18/13 24/17/13
f 26/8/14 12/4/14 5/3/14 91/73/14 101/74/14 100/75/14 92/76/14 94/77/14 102/78/14 83/9/14
f 45/79/15 42/80/15 28/58/15 34/56/15 48/81/15 44/82/15
f 73/83/16 4/84/16 28/58/16 42/80/16 41/85/16 44/82/16 48/81/16 46/86/16 43/87/16 47/88/16 77/89/16 76/90/16 74/91/16 75/92/16 79/93/16 78/94/16
f 19/95/17 33/57/17 28/58/17 4/84/17
f 81/96/18 77/89/18 47/88/18 50/97/18 53/98/18 54/99/18 49/100/18 51/101/18 55/102/18 56/103/18 29/55/18 9/21/18 58/104/18 80/105/18 82/106/18 59/107/18 57/108/18
f 52/109/19 51/101/19 49/100/19 48/81/19 34/56/19 29/55/19 56/103/19
f 9/21/20 29/55/20 30/54/20 18/22/20
f 40/56/21 35/8/21 36/7/21 39/55/21
f 38/58/22 37/4/22 35/8/22 40/56/22
f 12/4/23 26/8/23 35/8/23 37/4/23
f 28/58/24 12/4/24 37/4/24 38/58/24
f 34/56/25 28/58/25 38/58/25 40/56/25
f 26/8/26 14/7/26 36/7/26 35/8/26
f 52/110/27 3/2/27 1/95/27 51/111/27
f 55/112/28 6/22/28 8/15/28 56/113/28
f 3/19/29 8/15/29 6/22/29 1/40/29
f 55/112/30 51/114/30 1/70/30 6/22/30
f 52/115/5 56/113/5 8/15/5 3/31/5
f 42/116/27 13/2/27 11/95/27 41/117/27
f 41/118/31 11/70/31 16/22/31 44/119/31
f 16/22/28 17/15/28 45/120/28 44/119/28
f 16/22/29 11/40/29 13/19/29 17/15/29
f 45/120/5 17/15/5 13/31/5 42/121/5
f 46/122/32 22/2/32 21/95/32 43/123/32
f 53/124/33 25/22/33 27/15/33 54/125/33
f 22/19/29 32/126/29 31/127/29 21/40/29
f 53/124/34 50/128/34 31/129/34 25/22/34
f 48/130/35 49/131/35 32/132/35 22/31/35 46/133/35
f 54/125/36 27/15/36 32/132/36 49/131/36
f 47/134/37 43/135/37 21/70/37 31/129/37 50/128/37
f 27/15/29 25/22/29 31/127/29 32/126/29
f 62/136/38 59/137/38 82/138/38 71/139/38
f 69/140/39 68/141/39 74/142/39 76/143/39
f 72/144/5 71/139/5 82/138/5 80/145/5
f 81/146/5 70/147/5 67/148/5 69/140/5 76/143/5 77/149/5
f 65/150/5 66/151/5 78/152/5 79/153/5
f 58/154/40 61/155/40 72/144/40 80/145/40
f 65/150/41 79/153/41 75/156/41 64/157/41
f 57/158/42 60/159/42 70/147/42 81/146/42
f 66/151/43 63/160/43 73/161/43 78/152/43
f 92/162/44 100/163/44 93/164/44
f 85/165/45 84/166/45 97/167/45
f 101/168/30 90/169/30 93/164/30 100/163/30
f 97/167/30 84/166/30 83/170/30 102/171/30 95/172/30 96/173/30
f 99/174/30 88/175/30 86/176/30 98/177/30
f 91/178/46 90/169/46 101/168/46
f 98/177/47 86/176/47 89/179/47
f 94/180/48 95/172/48 102/171/48
f 88/175/49 99/174/49 87/181/49
o Portico_A
v 0.922704 0.000442 0.035035
v 0.902816 0.411734 0.035035
v 0.922704 0.000442 -0.096390
v 0.876180 0.420861 -0.096390
v 0.700961 0.000442 -0.096390
v 0.700961 0.420861 -0.096390
v 0.718954 0.411734 0.035035
v 0.700961 0.000442 0.035035
v 0.896174 0.411423 0.027146
v 0.879721 0.782493 0.035035
v 0.873229 0.420022 -0.090336
v 0.867118 0.803531 -0.096390
v 0.704818 0.420022 -0.090336
v 0.720928 0.803531 -0.096390
v 0.721576 0.782493 0.035035
v 0.723528 0.411534 0.028805
v 0.871398 0.825625 0.031159
v 0.876180 1.278516 0.035035
v 0.863701 0.845348 -0.087239
v 0.876180 1.278516 -0.096390
v 0.725246 0.837837 -0.087239
v 0.700961 1.278516 -0.096390
v 0.700961 1.278516 0.035035
v 0.725945 0.816799 0.025857
v 0.871384 1.277166 0.032276
v 0.692940 1.670626 0.035035
v 0.871384 1.277166 -0.093631
v 0.692940 1.670626 -0.096390
v 0.705568 1.277166 -0.093631
v 0.560680 1.736298 -0.096390
v 0.560680 1.736298 0.035035
v 0.705568 1.277166 0.032276
v 0.882958 0.636807 -0.096390
v 0.725369 0.636807 -0.096390
v 0.893267 0.636453 0.034029
v 0.730353 0.632563 0.035035
v 0.847095 0.982632 -0.083168
v 0.747329 1.009929 -0.083168
v 0.858688 0.970206 0.041387
v 0.736398 0.970206 0.041387
v 0.872751 1.130574 -0.092935
v 0.743261 1.144222 -0.092935
v 0.878717 1.124361 0.031580
v 0.747826 1.124361 0.031580
v 0.698516 1.473758 -0.095010
v 0.562984 1.473758 -0.095010
v 0.698516 1.473758 0.033655
v 0.562984 1.473758 0.033655
v 0.652600 1.384710 0.032966
v 0.818648 1.384710 -0.094320
v 0.652600 1.384710 -0.094320
v 0.818648 1.384710 0.032966
v 0.699668 1.483205 -0.095700
v 0.561832 1.483205 -0.095700
v 0.699668 1.483205 0.034345
v 0.561832 1.483205 0.034345
v 0.487972 1.451039 0.091432
v 0.490021 1.442322 0.091779
v 0.783125 1.443007 -0.167585
v 0.490021 1.443308 -0.157868
v 0.783125 1.441944 0.101495
v 0.785424 1.452403 -0.167211
v 0.487972 1.452025 -0.157522
v 0.785424 1.451340 0.101122
v -0.818935 1.451340 0.101122
v -0.521483 1.452025 -0.157522
v -0.818935 1.452403 -0.167211
v -0.816636 1.441944 0.101495
v -0.523532 1.443308 -0.157868
v -0.816636 1.443007 -0.167585
v -0.523532 1.442322 0.091779
v -0.521483 1.451039 0.091432
v -0.595343 1.483205 0.034345
v -0.733179 1.483205 0.034345
v -0.595343 1.483205 -0.095700
v -0.733179 1.483205 -0.095700
v -0.852159 1.384710 0.032966
v -0.686111 1.384710 -0.094320
v -0.852159 1.384710 -0.094320
v -0.686111 1.384710 0.032966
v -0.596495 1.473758 0.033655
v -0.732027 1.473758 0.033655
v -0.596495 1.473758 -0.095010
v -0.732027 1.473758 -0.095010
v -0.781336 1.124361 0.031580
v -0.912228 1.124361 0.031580
v -0.776771 1.144222 -0.092935
v -0.906262 1.130574 -0.092935
v -0.769908 0.970206 0.041387
v -0.892199 0.970206 0.041387
v -0.780840 1.009929 -0.083168
v -0.880606 0.982632 -0.083168
v -0.763864 0.632563 0.035035
v -0.926778 0.636453 0.034029
v -0.758880 0.636807 -0.096390
v -0.916469 0.636807 -0.096390
v -0.739079 1.277166 0.032276
v -0.594191 1.736298 0.035035
v -0.594191 1.736298 -0.096390
v -0.739079 1.277166 -0.093631
v -0.726451 1.670626 -0.096390
v -0.904895 1.277166 -0.093631
v -0.726451 1.670626 0.035035
v -0.904895 1.277166 0.032276
v -0.759456 0.816799 0.025857
v -0.734472 1.278516 0.035035
v -0.734472 1.278516 -0.096390
v -0.758757 0.837837 -0.087239
v -0.909691 1.278516 -0.096390
v -0.897212 0.845348 -0.087239
v -0.909691 1.278516 0.035035
v -0.904909 0.825625 0.031159
v -0.757039 0.411534 0.028805
v -0.755086 0.782493 0.035035
v -0.754439 0.803531 -0.096390
v -0.738328 0.420022 -0.090336
v -0.900629 0.803531 -0.096390
v -0.906740 0.420022 -0.090336
v -0.913232 0.782493 0.035035
v -0.929685 0.411423 0.027146
v -0.734472 0.000442 0.035035
v -0.752465 0.411734 0.035035
v -0.734472 0.420861 -0.096390
v -0.734472 0.000442 -0.096390
v -0.909691 0.420861 -0.096390
v -0.956215 0.000442 -0.096390
v -0.936327 0.411734 0.035035
v -0.956215 0.000442 0.035035
vn 0.9921 0.0792 -0.0978
vn -0.0000 -1.0000 -0.0000
vn -0.0000 -0.0000 1.0000
vn -0.0000 0.9976 0.0693
vn -0.9974 0.0216 0.0690
vn -0.0000 -0.0000 -1.0000
vn 0.9925 0.0935 -0.0792
vn -0.0007 -0.9974 -0.0719
vn 0.0032 -0.0032 1.0000
vn -0.0000 -0.9874 -0.1581
vn -0.9933 0.0621 0.0971
vn -0.0000 -0.0279 -0.9996
vn 0.9997 -0.0030 -0.0234
vn 0.0598 -0.9827 -0.1752
vn -0.0000 -0.0224 0.9997
vn -0.0000 1.0000 -0.0000
vn -0.9948 0.1005 -0.0171
vn 0.0022 0.0263 -0.9997
vn 0.9994 0.0359 -0.0000
vn -0.0008 -0.0031 1.0000
vn 0.4447 0.8957 -0.0000
vn -0.8971 -0.4418 -0.0000
vn -0.0000 -0.0064 -1.0000
vn -0.9990 -0.0417 0.0174
vn 0.0083 -0.0295 0.9995
vn 0.9909 -0.0151 -0.1335
vn -0.0122 -0.0681 -0.9976
vn -0.9995 0.0242 -0.0198
vn -0.0169 -0.0862 0.9961
vn 0.9922 0.1065 -0.0647
vn -0.9554 -0.2953 -0.0059
vn -0.0011 -0.0246 -0.9997
vn -0.0000 0.0635 0.9980
vn 0.9847 -0.1542 -0.0810
vn 0.0087 -0.9110 0.4124
vn 0.0094 -0.8933 -0.4494
vn -0.0000 -0.0077 1.0000
vn 0.5955 0.8034 -0.0000
vn 0.8979 0.4403 -0.0000
vn -0.0000 -0.0064 1.0000
vn -0.0000 -0.0077 -1.0000
vn -0.7049 -0.7094 -0.0000
vn -0.0000 -0.0027 -1.0000
vn -0.0008 -0.0031 -1.0000
vn -0.0102 0.9064 -0.4223
vn 0.3433 0.9392 0.0025
vn -0.0328 0.0402 -0.9987
vn -0.9735 -0.2288 -0.0009
vn -0.0328 0.0402 0.9987
vn 0.9714 -0.2376 -0.0009
vn -0.0109 0.8878 0.4600
vn -0.3942 0.9190 0.0024
vn -0.3468 -0.9379 -0.0025
vn 0.3905 -0.9206 -0.0024
vn -0.9885 0.1402 -0.0574
vn 0.9917 0.1256 0.0271
vn 0.0062 0.2338 -0.9723
vn 0.0220 0.1651 0.9860
vn 0.3468 -0.9379 -0.0025
vn -0.3905 -0.9206 -0.0024
vn 0.9735 -0.2288 -0.0009
vn 0.0109 0.8878 0.4600
vn 0.0328 0.0402 -0.9987
vn 0.0328 0.0402 0.9987
vn 0.0008 -0.0031 -1.0000
vn -0.3433 0.9392 0.0025
vn -0.5955 0.8034 -0.0000
vn -0.8979 0.4403 -0.0000
vn -0.9847 -0.1542 -0.0810
vn -0.0094 -0.8933 -0.4494
vn 0.9995 0.0242 -0.0198
vn 0.9554 -0.2953 -0.0059
vn 0.0122 -0.0681 -0.9976
vn 0.0169 -0.0862 0.9961
vn 0.9990 -0.0417 0.0174
vn -0.9909 -0.0151 -0.1335
vn 0.0102 0.9064 -0.4223
vn -0.9714 -0.2376 -0.0009
vn 0.3942 0.9190 0.0024
vn 0.0008 -0.0031 1.0000
vn -0.9994 0.0359 -0.0000
vn 0.7049 -0.7094 -0.0000
vn -0.0087 -0.9110 0.4124
vn -0.0022 0.0263 -0.9997
vn 0.9933 0.0621 0.0971
vn 0.0011 -0.0246 -0.9997
vn -0.9922 0.1065 -0.0647
vn 0.9948 0.1005 -0.0171
vn -0.9997 -0.0030 -0.0234
vn -0.0083 -0.0295 0.9995
vn 0.0007 -0.9974 -0.0719
vn -0.0032 -0.0032 1.0000
vn 0.8971 -0.4418 -0.0000
vn -0.4447 0.8957 -0.0000
vn -0.9921 0.0792 -0.0978
vn 0.9974 0.0216 0.0690
vn -0.9925 0.0935 -0.0792
vn -0.0598 -0.9827 -0.1752
vn -0.0220 0.1651 0.9860
vn -0.0062 0.2338 -0.9723
vn 0.9885 0.1402 -0.0574
vn -0.9917 0.1256 0.0271
vn -0.0000 -0.0027 1.0000
vt 0.550574 0.537500
vt 0.975574 0.537500
vt 0.975574 0.962500
vt 0.550574 0.962500
vt 0.515157 0.962500
vt 0.515157 0.537500
vt 0.975574 0.869187
vt 0.975574 0.630813
vt 0.550574 0.630813
vt 0.550574 0.869187
vt 0.763074 0.537500
vt 0.763074 0.962500
vt 0.745365 0.915843
vt 0.763074 0.869187
vt 0.763074 0.630813
vt 0.869324 0.537500
vt 0.869324 0.962500
vt 0.860469 0.892515
vt 0.763073 0.630813
vt 0.869324 0.962500
vt 0.656823 0.869187
vt 0.656824 0.630813
vt 0.656824 0.537500
vt 0.869324 0.630813
vt 0.869324 0.869187
vt 0.745365 0.915843
vt 0.763073 0.962500
vt 0.656824 0.962500
vt 0.630261 0.939172
vt 0.763073 0.869186
vt 0.869324 0.630813
vt 0.000000 0.000000
s 0
f 105/182/50 106/183/50 104/184/50 103/185/50
f 105/182/51 103/185/51 110/186/51 107/187/51
f 103/185/52 104/184/52 109/188/52 110/186/52
f 104/184/53 106/183/53 108/189/53 109/188/53
f 109/188/54 108/189/54 107/190/54 110/191/54
f 106/183/55 105/182/55 107/190/55 108/189/55
f 135/192/56 114/183/56 112/184/56 137/193/56
f 113/182/57 111/185/57 118/186/57 115/187/57
f 137/193/58 112/184/58 117/188/58 138/194/58
f 112/184/59 117/188/59 116/189/59 114/183/59
f 138/195/60 136/196/60 115/190/60 118/191/60
f 135/192/61 113/182/61 115/190/61 136/196/61
f 143/197/62 122/183/62 120/184/62 145/198/62
f 121/182/63 119/185/63 126/186/63 123/187/63
f 145/198/64 120/184/64 125/188/64 146/199/64
f 120/184/65 122/183/65 124/189/65 125/188/65
f 142/195/66 140/200/66 123/190/66 126/191/66
f 139/192/67 121/182/67 123/190/67 140/200/67
f 155/197/68 130/183/68 128/184/68 157/201/68
f 129/182/51 127/185/51 134/186/51 131/187/51
f 157/201/69 128/184/69 133/188/69 158/199/69
f 128/184/70 130/183/70 132/189/70 133/188/70
f 151/202/71 153/203/71 131/190/71 134/191/71
f 152/204/72 129/182/72 131/190/72 153/203/72
f 114/183/55 135/192/55 136/196/55 116/189/55
f 117/188/73 116/189/73 136/196/73 138/195/73
f 111/185/74 137/193/74 138/194/74 118/186/74
f 113/182/75 135/192/75 137/193/75 111/185/75
f 143/197/76 139/192/76 140/200/76 144/205/76
f 146/206/77 144/205/77 140/200/77 142/195/77
f 119/185/78 141/193/78 142/194/78 126/186/78
f 121/182/79 139/192/79 141/193/79 119/185/79
f 125/188/80 124/189/80 144/205/80 146/206/80
f 122/183/81 143/197/81 144/205/81 124/189/81
f 141/193/82 145/198/82 146/199/82 142/194/82
f 139/192/83 143/197/83 145/198/83 141/193/83
f 147/192/84 148/200/84 162/200/84 161/192/84
f 150/207/85 149/208/85 163/208/85 160/207/85
f 154/209/86 149/208/86 150/207/86 151/210/86
f 152/204/87 147/192/87 149/208/87 154/209/87
f 129/182/88 152/204/88 154/209/88 127/185/88
f 127/185/89 154/209/89 151/210/89 134/186/89
f 147/192/90 152/204/90 153/203/90 148/200/90
f 150/211/91 148/200/91 153/203/91 151/202/91
f 132/189/92 156/212/92 177/212/92 201/189/92
f 130/183/93 155/197/93 156/212/93 132/189/93
f 156/212/94 155/197/94 164/197/94 165/212/94
f 155/197/95 157/201/95 166/201/95 164/197/95
f 219/183/55 217/189/55 197/196/55 198/192/55
f 164/197/96 161/192/96 162/200/96 165/212/96
f 159/206/97 165/212/97 162/200/97 160/211/97
f 163/208/98 166/201/98 159/199/98 160/207/98
f 161/192/99 164/197/99 166/201/99 163/208/99
f 157/201/100 158/199/100 159/199/100 166/201/100
f 158/206/101 156/212/101 165/212/101 159/206/101
f 149/208/102 147/192/102 161/192/102 163/208/102
f 148/200/103 150/211/103 160/211/103 162/200/103
f 214/213/104 212/213/104 219/213/104 221/213/104
f 210/213/105 207/213/105 216/213/105 217/213/105
f 219/183/106 212/182/106 210/187/106 217/189/106
f 216/188/107 207/186/107 214/185/107 221/184/107
f 184/208/108 170/208/108 172/192/108 186/192/108
f 185/200/109 171/200/109 173/211/109 183/211/109
f 174/206/110 173/211/110 171/200/110 168/212/110
f 176/201/111 167/201/111 174/199/111 175/199/111
f 169/197/112 168/212/112 171/200/112 172/192/112
f 170/208/113 173/207/113 174/199/113 167/201/113
f 203/183/114 201/189/114 177/212/114 178/197/114
f 178/197/115 169/197/115 167/201/115 176/201/115
f 181/204/116 179/209/116 184/208/116 186/192/116
f 186/192/90 185/200/90 180/203/90 181/204/90
f 179/209/86 182/210/86 183/207/86 184/208/86
f 204/182/117 206/185/117 179/209/117 181/204/117
f 194/192/118 192/193/118 188/198/118 190/197/118
f 183/207/119 173/207/119 170/208/119 184/208/119
f 187/206/120 191/195/120 193/200/120 189/205/120
f 208/188/121 187/206/121 189/205/121 209/189/121
f 190/197/122 189/205/122 193/200/122 194/192/122
f 214/185/123 207/186/123 191/194/123 192/193/123
f 216/188/124 195/195/124 197/196/124 217/189/124
f 220/182/125 222/185/125 196/193/125 198/192/125
f 177/212/126 168/212/126 169/197/126 178/197/126
f 172/192/127 170/208/127 167/201/127 169/197/127
f 175/206/128 174/206/128 168/212/128 177/212/128
f 176/201/129 175/199/129 200/188/129 205/184/129
f 178/197/130 176/201/130 205/184/130 203/183/130
f 206/185/89 199/186/89 182/210/89 179/209/89
f 183/211/131 182/202/131 180/203/131 185/200/131
f 192/193/82 191/194/82 187/199/82 188/198/82
f 186/192/132 172/192/132 171/200/132 185/200/132
f 194/192/133 193/200/133 210/190/133 212/182/133
f 204/182/51 202/187/51 199/186/51 206/185/51
f 188/198/64 187/199/64 208/188/64 213/184/64
f 221/184/59 219/183/59 217/189/59 216/188/59
f 195/195/134 215/191/134 218/190/134 197/196/134
f 213/184/65 208/188/65 209/189/65 211/183/65
f 211/183/135 209/189/135 189/205/135 190/197/135
f 212/182/136 214/185/136 192/193/136 194/192/136
f 191/195/137 207/191/137 210/190/137 193/200/137
f 190/197/138 188/198/138 213/184/138 211/183/138
f 181/204/72 180/203/72 202/190/72 204/182/72
f 222/185/139 215/186/139 195/194/139 196/193/139
f 220/182/140 218/187/140 215/186/140 222/185/140
f 196/193/141 195/194/141 216/188/141 221/184/141
f 227/183/55 225/189/55 226/190/55 228/182/55
f 182/202/142 199/191/142 202/190/142 180/203/142
f 205/184/143 200/188/143 201/189/143 203/183/143
f 228/182/51 226/187/51 223/186/51 230/185/51
f 230/185/52 223/186/52 224/188/52 229/184/52
f 229/184/53 224/188/53 225/189/53 227/183/53
f 228/182/144 230/185/144 229/184/144 227/183/144
f 224/188/145 223/191/145 226/190/145 225/189/145
f 198/192/146 196/193/146 221/184/146 219/183/146
f 212/182/147 210/187/147 207/186/147 214/185/147
f 198/192/61 197/196/61 218/190/61 220/182/61
f 117/188/148 112/184/148 119/185/148 126/186/148
f 114/183/149 116/189/149 123/187/149 121/182/149
f 119/213/150 112/213/150 114/213/150 121/213/150
f 123/213/151 116/213/151 117/213/151 126/213/151
f 132/189/65 201/189/65 200/188/65 133/188/65
f 158/199/152 133/188/152 200/188/152 175/199/152
f 158/199/51 175/199/51 177/212/51 156/212/51
o Surfae_Portico_A
v -0.788141 0.000442 0.017933
v 0.846145 0.000442 -0.000000
v -0.678914 1.524190 0.000000
v 0.653569 1.524190 0.000000
v -0.780381 0.514748 -0.000000
v 0.749857 0.762316 0.019402
v 0.788109 1.143253 0.000000
v -0.824501 1.143253 0.000000
vn -0.0000 -0.0000 1.0000
vn -0.0004 -0.0012 1.0000
vn -0.0077 0.0192 0.9998
vt 0.000000 0.750000
vt 1.000000 0.750000
vt 1.000000 1.000000
vt 0.000000 1.000000
vt 0.000000 0.000000
vt 1.000000 0.000000
vt 1.000000 0.500000
vt 0.000000 0.500000
s 0
f 238/214/153 237/215/153 234/216/153 233/217/153
f 231/218/154 232/219/154 236/220/154 235/221/154
f 235/221/155 236/220/155 237/215/155 238/214/155
