# Blender 4.4.3
# www.blender.org
mtllib Portico B.mtl
o Brazo_Der
v 0.257790 1.158340 0.004379
v 0.319330 1.242692 0.002352
v 0.224441 1.170080 0.005344
v 0.307520 1.247979 0.006859
v 0.210627 1.174943 0.017738
v 0.302628 1.250169 0.017738
v 0.224441 1.170080 0.030133
v 0.307520 1.247979 0.028618
v 0.257790 1.158340 0.035267
v 0.319330 1.242692 0.033125
v 0.291139 1.146600 0.030133
v 0.331140 1.237404 0.028618
v 0.304953 1.141737 0.017738
v 0.336032 1.235214 0.017738
v 0.291139 1.146600 0.005344
v 0.331140 1.237404 0.006859
v 0.295811 1.197963 0.001153
v 0.282634 1.204805 0.002205
v 0.272269 1.209979 0.017738
v 0.282634 1.204805 0.033272
v 0.295811 1.197963 0.039706
v 0.320833 1.185472 0.033272
v 0.331198 1.180298 0.017738
v 0.320833 1.185472 0.002205
v 0.308447 1.250048 0.006859
v 0.320257 1.244761 0.002352
v 0.303555 1.252238 0.017738
v 0.307269 1.250048 0.026710
v 0.318313 1.244761 0.033125
v 0.332067 1.239473 0.028618
v 0.336959 1.240089 0.017738
v 0.332067 1.239473 0.006859
v 0.319381 1.250008 0.017738
v 0.314420 1.270769 0.006859
v 0.326230 1.265481 0.002352
v 0.314031 1.269848 0.017738
v 0.334398 1.256172 0.006859
v 0.338336 1.250627 0.017738
v 0.321454 1.264966 0.017738
v 0.310172 1.258044 0.027992
v 0.309905 1.259681 0.023055
v 0.312422 1.254012 0.030194
v 0.315033 1.254895 0.023267
vn 0.1468 -0.1460 0.9783
vn 0.6904 -0.4874 0.5346
vn 0.6904 -0.4874 -0.5346
vn 0.2739 -0.2688 -0.9234
vn -0.2892 -0.0101 -0.9572
vn -0.8497 0.0979 -0.5181
vn 0.8187 -0.3666 0.4419
vn -0.8497 0.0979 0.5181
vn -0.1523 -0.0065 0.9883
vn 0.3321 0.9433 -0.0000
vn -0.0006 0.0814 0.9967
vn -0.5877 0.4518 0.6712
vn -0.5877 0.4518 -0.6712
vn -0.1135 0.1920 -0.9748
vn 0.1855 -0.1409 -0.9725
vn 0.4131 -0.6825 -0.6029
vn 0.4131 -0.6825 0.6029
vn 0.0510 0.0194 0.9985
vn 0.3188 -0.0919 0.9433
vn -0.3352 -0.0074 -0.9421
vn -0.3002 0.1344 0.9444
vn 0.3002 -0.1344 0.9444
vn 0.8343 -0.3372 -0.4361
vn -0.8801 0.2348 -0.4127
vn 0.2780 -0.3306 -0.9019
vn -0.8801 0.2348 0.4127
vn -0.4886 -0.8607 -0.1432
vn -0.8016 -0.5295 -0.2776
vn -0.4513 -0.8437 -0.2907
vn -0.3607 0.0801 0.9292
vn -0.0000 -0.0000 -1.0000
vn 0.8923 -0.3830 0.2389
vn -0.9094 0.1238 0.3971
vn -0.6978 -0.6601 -0.2781
vn -0.2168 -0.6247 0.7502
vn 0.5516 0.0158 -0.8339
vn 0.8622 -0.3680 -0.3481
vn -0.6558 -0.7308 -0.1896
vt 1.000000 0.750000
vt 1.000000 1.000000
vt 0.875000 1.000000
vt 0.875000 0.750000
vt 0.750000 1.000000
vt 0.750000 0.750000
vt 0.625000 1.000000
vt 0.625000 0.750000
vt 0.500000 1.000000
vt 0.500000 0.750000
vt 0.375000 1.000000
vt 0.375000 0.750000
vt 0.250000 1.000000
vt 0.250000 0.750000
vt 0.125000 1.000000
vt 0.125000 0.750000
vt 0.000000 1.000000
vt 0.000000 0.750000
vt 0.750000 0.490000
vt 0.919706 0.419706
vt 0.990000 0.250000
vt 0.919706 0.080294
vt 0.750000 0.010000
vt 0.580294 0.080294
vt 0.510000 0.250000
vt 0.580294 0.419706
vt 0.125000 0.500000
vt 0.000000 0.500000
vt 0.250000 0.500000
vt 0.375000 0.500000
vt 0.500000 0.500000
vt 0.625000 0.500000
vt 0.750000 0.500000
vt 0.875000 0.500000
vt 1.000000 0.500000
vt 0.419706 0.419706
vt 0.250000 0.490000
vt 0.318641 0.250000
vt 0.490000 0.250000
vt 0.250000 0.010000
vt 0.010000 0.250000
vt 0.080294 0.080294
vt 0.419706 0.080294
vt 0.080294 0.419706
s 0
usemtl Material.007
f 17/1/1 2/2/1 4/3/1 18/4/1
f 18/4/2 4/3/2 6/5/2 19/6/2
f 19/6/3 6/5/3 8/7/3 20/8/3
f 20/8/4 8/7/4 10/9/4 21/10/4
f 21/10/5 10/9/5 12/11/5 22/12/5
f 22/12/6 12/11/6 14/13/6 23/14/6
f 6/5/7 4/3/7 25/3/7 27/5/7
f 23/14/8 14/13/8 16/15/8 24/16/8
f 24/16/9 16/15/9 2/17/9 17/18/9
f 1/19/10 3/20/10 5/21/10 7/22/10 9/23/10 11/24/10 13/25/10 15/26/10
f 15/27/11 24/16/11 17/18/11 1/28/11
f 13/29/12 23/14/12 24/16/12 15/27/12
f 11/30/13 22/12/13 23/14/13 13/29/13
f 9/31/14 21/10/14 22/12/14 11/30/14
f 7/32/15 20/8/15 21/10/15 9/31/15
f 5/33/16 19/6/16 20/8/16 7/32/16
f 3/34/17 18/4/17 19/6/17 5/33/17
f 1/35/18 17/1/18 18/4/18 3/34/18
f 25/3/19 26/2/19 35/2/19 34/3/19
f 12/11/20 10/9/20 29/9/20 30/11/20
f 2/17/21 16/15/21 32/15/21 26/17/21
f 4/3/22 2/2/22 26/2/22 25/3/22
f 8/7/23 6/5/23 27/5/23 28/7/23
f 14/13/24 12/11/24 30/11/24 31/13/24
f 10/9/25 8/7/25 28/7/25 29/9/25
f 16/15/26 14/13/26 31/13/26 32/15/26
f 34/36/27 35/37/27 39/38/27 36/39/27
f 33/38/28 29/40/28 42/40/28 43/38/28
f 29/40/29 33/38/29 31/41/29 30/42/29
f 26/17/30 32/15/30 37/15/30 35/17/30
f 33/38/31 27/39/31 36/39/31 39/38/31
f 27/5/32 25/3/32 34/3/32 36/5/32
f 31/41/31 33/38/31 39/38/31 38/41/31
f 32/15/33 31/13/33 38/13/33 37/15/33
f 41/39/34 43/38/34 42/40/34 40/43/34
f 27/39/35 33/38/35 43/38/35 41/39/35
f 29/9/36 28/7/36 40/7/36 42/9/36
f 28/7/37 27/5/37 41/5/37 40/7/37
f 39/38/38 35/37/38 37/44/38 38/41/38
o Brazo_Izq
v -0.263651 1.159243 0.004037
v -0.325191 1.243594 0.002009
v -0.230301 1.170982 0.005001
v -0.313381 1.248881 0.006516
v -0.216488 1.175845 0.017396
v -0.308489 1.251072 0.017396
v -0.230301 1.170982 0.029791
v -0.313381 1.248881 0.028276
v -0.263651 1.159243 0.034925
v -0.325191 1.243594 0.032783
v -0.297000 1.147503 0.029791
v -0.337001 1.238307 0.028276
v -0.310814 1.142640 0.017396
v -0.341893 1.236117 0.017396
v -0.297000 1.147503 0.005001
v -0.337001 1.238307 0.006516
v -0.301671 1.198866 0.000810
v -0.288495 1.205707 0.001862
v -0.278130 1.210881 0.017396
v -0.288495 1.205707 0.032930
v -0.301671 1.198866 0.039364
v -0.326694 1.186375 0.032930
v -0.337058 1.181201 0.017396
v -0.326694 1.186375 0.001862
v -0.314307 1.250951 0.006516
v -0.326118 1.245663 0.002009
v -0.309416 1.253141 0.017396
v -0.313130 1.250951 0.026368
v -0.324173 1.245663 0.032783
v -0.337928 1.240376 0.028276
v -0.342820 1.240992 0.017396
v -0.337928 1.240376 0.006516
v -0.325242 1.250911 0.017396
v -0.320281 1.271671 0.006516
v -0.332091 1.266384 0.002009
v -0.319892 1.270751 0.017396
v -0.340259 1.257075 0.006516
v -0.344197 1.251529 0.017396
v -0.327315 1.265868 0.017396
v -0.316032 1.258946 0.027649
v -0.315766 1.260584 0.022713
v -0.318283 1.254915 0.029851
v -0.320894 1.255798 0.022925
vn 0.1468 0.1460 -0.9783
vn 0.6904 0.4874 -0.5346
vn 0.6904 0.4874 0.5346
vn 0.2739 0.2688 0.9234
vn -0.2892 0.0101 0.9572
vn -0.8497 -0.0979 0.5181
vn 0.8187 0.3666 -0.4419
vn -0.8497 -0.0979 -0.5181
vn -0.1523 0.0065 -0.9883
vn 0.3321 -0.9433 -0.0000
vn -0.0006 -0.0814 -0.9967
vn -0.5877 -0.4518 -0.6712
vn -0.5877 -0.4518 0.6712
vn -0.1135 -0.1920 0.9748
vn 0.1855 0.1409 0.9725
vn 0.4131 0.6825 0.6029
vn 0.4131 0.6825 -0.6029
vn 0.0510 -0.0194 -0.9985
vn 0.3188 0.0919 -0.9433
vn -0.3352 0.0074 0.9421
vn -0.3002 -0.1344 -0.9444
vn 0.3002 0.1344 -0.9444
vn 0.8343 0.3372 0.4361
vn -0.8801 -0.2348 0.4127
vn 0.2780 0.3306 0.9019
vn -0.8801 -0.2348 -0.4127
vn -0.4886 0.8607 0.1432
vn -0.8016 0.5295 0.2776
vn -0.4513 0.8437 0.2907
vn -0.3607 -0.0801 -0.9292
vn -0.0000 -0.0000 1.0000
vn 0.8923 0.3830 -0.2389
vn -0.9094 -0.1238 -0.3971
vn -0.6978 0.6601 0.2781
vn -0.2168 0.6247 -0.7502
vn 0.5516 -0.0158 0.8339
vn 0.8622 0.3680 0.3481
vn -0.6558 0.7308 0.1896
vt 1.000000 0.750000
vt 1.000000 1.000000
vt 0.875000 1.000000
vt 0.875000 0.750000
vt 0.750000 1.000000
vt 0.750000 0.750000
vt 0.625000 1.000000
vt 0.625000 0.750000
vt 0.500000 1.000000
vt 0.500000 0.750000
vt 0.375000 1.000000
vt 0.375000 0.750000
vt 0.250000 1.000000
vt 0.250000 0.750000
vt 0.125000 1.000000
vt 0.125000 0.750000
vt 0.000000 1.000000
vt 0.000000 0.750000
vt 0.750000 0.490000
vt 0.919706 0.419706
vt 0.990000 0.250000
vt 0.919706 0.080294
vt 0.750000 0.010000
vt 0.580294 0.080294
vt 0.510000 0.250000
vt 0.580294 0.419706
vt 0.125000 0.500000
vt 0.000000 0.500000
vt 0.250000 0.500000
vt 0.375000 0.500000
vt 0.500000 0.500000
vt 0.625000 0.500000
vt 0.750000 0.500000
vt 0.875000 0.500000
vt 1.000000 0.500000
vt 0.419706 0.419706
vt 0.250000 0.490000
vt 0.318641 0.250000
vt 0.490000 0.250000
vt 0.250000 0.010000
vt 0.010000 0.250000
vt 0.080294 0.080294
vt 0.419706 0.080294
vt 0.080294 0.419706
s 0
usemtl Material.007
f 60/45/39 45/46/39 47/47/39 61/48/39
f 61/48/40 47/47/40 49/49/40 62/50/40
f 62/50/41 49/49/41 51/51/41 63/52/41
f 63/52/42 51/51/42 53/53/42 64/54/42
f 64/54/43 53/53/43 55/55/43 65/56/43
f 65/56/44 55/55/44 57/57/44 66/58/44
f 49/49/45 47/47/45 68/47/45 70/49/45
f 66/58/46 57/57/46 59/59/46 67/60/46
f 67/60/47 59/59/47 45/61/47 60/62/47
f 44/63/48 46/64/48 48/65/48 50/66/48 52/67/48 54/68/48 56/69/48 58/70/48
f 58/71/49 67/60/49 60/62/49 44/72/49
f 56/73/50 66/58/50 67/60/50 58/71/50
f 54/74/51 65/56/51 66/58/51 56/73/51
f 52/75/52 64/54/52 65/56/52 54/74/52
f 50/76/53 63/52/53 64/54/53 52/75/53
f 48/77/54 62/50/54 63/52/54 50/76/54
f 46/78/55 61/48/55 62/50/55 48/77/55
f 44/79/56 60/45/56 61/48/56 46/78/56
f 68/47/57 69/46/57 78/46/57 77/47/57
f 55/55/58 53/53/58 72/53/58 73/55/58
f 45/61/59 59/59/59 75/59/59 69/61/59
f 47/47/60 45/46/60 69/46/60 68/47/60
f 51/51/61 49/49/61 70/49/61 71/51/61
f 57/57/62 55/55/62 73/55/62 74/57/62
f 53/53/63 51/51/63 71/51/63 72/53/63
f 59/59/64 57/57/64 74/57/64 75/59/64
f 77/80/65 78/81/65 82/82/65 79/83/65
f 76/82/66 72/84/66 85/84/66 86/82/66
f 72/84/67 76/82/67 74/85/67 73/86/67
f 69/61/68 75/59/68 80/59/68 78/61/68
f 76/82/69 70/83/69 79/83/69 82/82/69
f 70/49/70 68/47/70 77/47/70 79/49/70
f 74/85/69 76/82/69 82/82/69 81/85/69
f 75/59/71 74/57/71 81/57/71 80/59/71
f 84/83/72 86/82/72 85/84/72 83/87/72
f 70/83/73 76/82/73 86/82/73 84/83/73
f 72/53/74 71/51/74 83/51/74 85/53/74
f 71/51/75 70/49/75 84/49/75 83/51/75
f 82/82/76 78/81/76 80/88/76 81/85/76
o Cara_Portico_B
v -0.000289 1.209427 0.051217
v -0.093119 1.196312 0.051217
v -0.161287 1.160480 0.051217
v -0.186239 1.111534 0.051217
v -0.161287 1.062587 0.051217
v -0.093119 1.026756 0.051217
v -0.000003 1.013641 0.051217
v -0.093119 1.196312 0.072685
v -0.000289 1.209427 0.072685
v -0.161287 1.160480 0.072685
v -0.186239 1.111534 0.072685
v -0.161287 1.062587 0.072685
v -0.093119 1.026756 0.072685
v 0.000000 1.013641 0.072685
v -0.065722 1.164377 0.051217
v -0.048219 1.167550 0.051217
v -0.106424 1.144456 0.051217
v -0.103174 1.153827 0.051217
v -0.096675 1.127287 0.051217
v -0.087373 1.155462 0.051217
v -0.041021 1.151318 0.051217
v -0.072170 1.124369 0.051217
v -0.048120 1.135086 0.051217
v -0.106428 1.144473 0.072685
v -0.096680 1.127304 0.072685
v -0.103179 1.153843 0.072685
v -0.087377 1.155479 0.072685
v -0.048224 1.167567 0.072685
v -0.065727 1.164394 0.072685
v -0.072175 1.124386 0.072685
v -0.041026 1.151335 0.072685
v -0.048125 1.135103 0.072685
v -0.050234 1.087899 0.051217
v -0.034192 1.064416 0.051217
v -0.047990 1.073210 0.051217
v -0.042906 1.093946 0.051217
v -0.028443 1.091350 0.051217
v -0.020412 1.088115 0.051217
v -0.000196 1.087473 0.051217
v -0.000128 1.087473 0.051217
v 0.000392 1.209427 0.051217
v 0.000004 1.057934 0.051217
v -0.034199 1.064416 0.072685
v -0.050241 1.087899 0.072685
v -0.047998 1.073210 0.072685
v -0.042913 1.093946 0.072685
v -0.000000 1.057934 0.072685
v -0.000138 1.057934 0.072685
v -0.028998 1.091449 0.072685
v -0.000135 1.087473 0.072685
v -0.000204 1.087473 0.072685
v -0.028451 1.091350 0.072685
v -0.020420 1.088115 0.072685
v 0.093223 1.196312 0.051217
v 0.161391 1.160480 0.051217
v 0.186342 1.111534 0.051217
v 0.161391 1.062587 0.051217
v 0.093223 1.026756 0.051217
v 0.000107 1.013641 0.051217
v 0.093223 1.196312 0.072685
v 0.000392 1.209427 0.072685
v 0.161391 1.160480 0.072685
v 0.186342 1.111534 0.072685
v 0.161391 1.062587 0.072685
v 0.093223 1.026756 0.072685
v 0.000103 1.013641 0.072685
v 0.065825 1.164377 0.051217
v 0.048323 1.167550 0.051217
v 0.106527 1.144456 0.051217
v 0.103277 1.153827 0.051217
v 0.096778 1.127287 0.051217
v 0.087476 1.155462 0.051217
v 0.041124 1.151318 0.051217
v 0.072274 1.124369 0.051217
v 0.048223 1.135086 0.051217
v 0.106532 1.144473 0.072685
v 0.096783 1.127304 0.072685
v 0.103282 1.153843 0.072685
v 0.087481 1.155479 0.072685
v 0.048328 1.167567 0.072685
v 0.065830 1.164394 0.072685
v 0.072278 1.124386 0.072685
v 0.041129 1.151335 0.072685
v 0.048228 1.135103 0.072685
v 0.050337 1.087899 0.051217
v 0.034295 1.064416 0.051217
v 0.048093 1.073210 0.051217
v 0.043009 1.093946 0.051217
v 0.028546 1.091350 0.051217
v 0.020515 1.088115 0.051217
v 0.000299 1.087473 0.051217
v 0.000231 1.087473 0.051217
v 0.000100 1.057934 0.051217
v 0.034302 1.064416 0.072685
v 0.050345 1.087899 0.072685
v 0.048101 1.073210 0.072685
v 0.043017 1.093946 0.072685
v 0.000103 1.057934 0.072685
v 0.000242 1.057934 0.072685
v 0.029101 1.091449 0.072685
v 0.000238 1.087473 0.072685
v 0.000307 1.087473 0.072685
v 0.028554 1.091350 0.072685
v 0.020523 1.088115 0.072685
vn -0.0000 -0.0000 -1.0000
vn -0.0000 -0.0000 1.0000
vn -0.1395 -0.9902 -0.0000
vn -0.8909 0.4542 -0.0000
vn -0.8909 -0.4542 -0.0000
vn -0.1399 0.9902 -0.0000
vn -0.4653 -0.8852 -0.0000
vn -0.4653 0.8852 -0.0000
vn 0.3807 -0.9247 0.0008
vn -0.9141 -0.4054 0.0001
vn -0.9162 0.4007 -0.0005
vn 0.9448 -0.3276 0.0005
vn 0.8696 0.4938 -0.0002
vn 0.1784 -0.9840 0.0008
vn 0.1183 0.9930 -0.0007
vn 0.1030 -0.9947 0.0008
vn -0.4070 0.9134 -0.0008
vn -0.6364 0.7713 -0.0002
vn -0.9885 -0.1510 -0.0003
vn 0.3737 0.9276 0.0001
vn 0.1766 0.9843 0.0001
vn -0.0000 -1.0000 -0.0000
vn 0.0317 0.9995 -0.0000
vn -0.5375 -0.8433 -0.0002
vn -0.7208 -0.6931 0.0001
vn -0.1862 -0.9825 -0.0006
vn -0.1395 0.9902 -0.0000
vn -0.1399 -0.9902 -0.0000
vn 0.3807 0.9247 -0.0008
vn -0.9141 0.4054 -0.0001
vn -0.9162 -0.4007 0.0005
vn 0.9448 0.3276 -0.0005
vn 0.8696 -0.4938 0.0002
vn 0.1784 0.9840 -0.0008
vn 0.1183 -0.9930 0.0007
vn 0.1030 0.9947 -0.0008
vn -0.4070 -0.9134 0.0008
vn -0.6364 -0.7713 0.0002
vn -0.9885 0.1510 0.0003
vn 0.3737 -0.9276 -0.0001
vn 0.1766 -0.9843 -0.0001
vn -0.0000 1.0000 -0.0000
vn 0.0317 -0.9995 -0.0000
vn -0.5375 0.8433 0.0002
vn -0.7208 0.6931 -0.0001
vn -0.1862 0.9825 0.0006
vn 1.0000 -0.0001 0.0032
vn 1.0000 0.0001 -0.0032
vn -0.9996 -0.0000 -0.0276
vt 0.000000 0.000000
s 0
usemtl Material.011
f 93/89/77 92/89/77 91/89/77 90/89/77 89/89/77 104/89/77 103/89/77 105/89/77 108/89/77 122/89/77 119/89/77 121/89/77 120/89/77 128/89/77
f 106/89/77 104/89/77 89/89/77 88/89/77 87/89/77 102/89/77 101/89/77
f 116/89/78 111/89/78 132/89/78 135/89/78
f 116/89/78 135/89/78 139/89/78 137/89/78 95/89/78 114/89/78 117/89/78 118/89/78
f 115/89/78 114/89/78 95/89/78 94/89/78 96/89/78 112/89/78 113/89/78
f 92/89/79 93/89/79 100/89/79 99/89/79
f 89/89/80 90/89/80 97/89/80 96/89/80
f 90/89/81 91/89/81 98/89/81 97/89/81
f 87/89/82 88/89/82 94/89/82 95/89/82
f 91/89/83 92/89/83 99/89/83 98/89/83
f 88/89/84 89/89/84 96/89/84 94/89/84
f 113/89/85 106/89/85 101/89/85 115/89/85
f 102/89/86 107/89/86 117/89/86 114/89/86
f 107/89/87 109/89/87 118/89/87 117/89/87
f 110/89/88 103/89/88 104/89/88 112/89/88
f 111/89/89 105/89/89 103/89/89 110/89/89
f 115/89/90 101/89/90 102/89/90 114/89/90
f 108/89/91 105/89/91 111/89/91 116/89/91
f 112/89/92 104/89/92 106/89/92 113/89/92
f 109/89/93 108/89/93 116/89/93 118/89/93
f 122/89/94 119/89/94 130/89/94 132/89/94
f 119/89/95 121/89/95 131/89/95 130/89/95
f 124/89/96 123/89/96 138/89/96 139/89/96
f 145/89/78 144/89/78 143/89/78 142/89/78 141/89/78 156/89/78 155/89/78 157/89/78 160/89/78 174/89/78 171/89/78 173/89/78 172/89/78 179/89/78
f 123/89/97 122/89/97 132/89/97 135/89/97 138/89/97
f 137/89/98 125/89/98 126/89/98 136/89/98
f 125/89/99 124/89/99 139/89/99 137/89/99
f 158/89/78 156/89/78 141/89/78 140/89/78 127/89/78 154/89/78 153/89/78
f 121/89/100 120/89/100 129/89/100 131/89/100
f 122/89/77 108/89/77 109/89/77 107/89/77 102/89/77 87/89/77 125/89/77 124/89/77 123/89/77
f 132/89/101 116/89/101 108/89/101 122/89/101
f 132/89/78 111/89/78 110/89/78 112/89/78 96/89/78 97/89/78 98/89/78 99/89/78 100/89/78 134/89/78 129/89/78 131/89/78 130/89/78
f 129/89/102 120/89/102 128/89/102 133/89/102 134/89/102
f 168/89/77 163/89/77 183/89/77 186/89/77
f 168/89/77 186/89/77 190/89/77 188/89/77 147/89/77 166/89/77 169/89/77 170/89/77
f 167/89/77 166/89/77 147/89/77 146/89/77 148/89/77 164/89/77 165/89/77
f 144/89/103 145/89/103 152/89/103 151/89/103
f 141/89/81 142/89/81 149/89/81 148/89/81
f 142/89/80 143/89/80 150/89/80 149/89/80
f 127/89/104 140/89/104 146/89/104 147/89/104
f 143/89/84 144/89/84 151/89/84 150/89/84
f 140/89/83 141/89/83 148/89/83 146/89/83
f 165/89/105 158/89/105 153/89/105 167/89/105
f 154/89/106 159/89/106 169/89/106 166/89/106
f 159/89/107 161/89/107 170/89/107 169/89/107
f 162/89/108 155/89/108 156/89/108 164/89/108
f 163/89/109 157/89/109 155/89/109 162/89/109
f 167/89/110 153/89/110 154/89/110 166/89/110
f 160/89/111 157/89/111 163/89/111 168/89/111
f 164/89/112 156/89/112 158/89/112 165/89/112
f 161/89/113 160/89/113 168/89/113 170/89/113
f 174/89/114 171/89/114 181/89/114 183/89/114
f 171/89/115 173/89/115 182/89/115 181/89/115
f 176/89/116 175/89/116 189/89/116 190/89/116
f 175/89/117 174/89/117 183/89/117 186/89/117 189/89/117
f 188/89/118 177/89/118 178/89/118 187/89/118
f 177/89/119 176/89/119 190/89/119 188/89/119
f 173/89/120 172/89/120 180/89/120 182/89/120
f 174/89/78 160/89/78 161/89/78 159/89/78 154/89/78 127/89/78 177/89/78 176/89/78 175/89/78
f 183/89/121 168/89/121 160/89/121 174/89/121
f 183/89/77 163/89/77 162/89/77 164/89/77 148/89/77 149/89/77 150/89/77 151/89/77 152/89/77 185/89/77 180/89/77 182/89/77 181/89/77
f 180/89/122 172/89/122 179/89/122 184/89/122 185/89/122
f 93/89/123 128/89/123 133/89/123 134/89/123 100/89/123
f 179/89/124 184/89/124 185/89/124 152/89/124 145/89/124
f 137/89/78 188/89/78 147/89/78 95/89/78
f 185/89/78 134/89/78 100/89/78 152/89/78
f 93/89/98 145/89/98 152/89/98 100/89/98
f 137/89/118 187/89/118 178/89/118 125/89/118
f 184/89/98 133/89/98 128/89/98 179/89/98
f 95/89/118 147/89/118 127/89/118 87/89/118
f 95/89/125 127/89/125 177/89/125 137/89/125
f 145/89/77 93/89/77 128/89/77 179/89/77
o Portico_B
v 0.496699 0.000000 0.000000
v 0.440114 0.917979 0.000000
v 0.583301 0.000000 0.000000
v 0.690811 1.003711 0.000000
v 0.440114 1.000256 0.000000
v 0.690811 1.085988 0.000000
v 0.440114 1.162233 0.000000
v 0.690811 1.137964 0.000000
v 0.226806 1.228305 0.000000
v 0.220063 1.000256 0.000000
v 0.422164 1.178948 0.000000
v 0.330088 1.000256 0.000000
v 0.230134 1.000256 0.000000
v 0.238562 1.194822 0.000000
v -0.497507 0.000000 0.000000
v -0.440922 0.931765 0.000000
v -0.584109 0.000000 0.000000
v -0.691619 1.017497 0.000000
v -0.440922 1.000256 0.000000
v -0.691619 1.085988 0.000000
v -0.440922 1.162233 0.000000
v -0.691619 1.137964 0.000000
v -0.227614 1.228305 0.000000
v -0.220871 1.000256 0.000000
v -0.422972 1.178948 0.000000
v -0.330896 1.000256 0.000000
v -0.230942 1.000256 0.000000
v -0.239370 1.194822 0.000000
v 0.440114 0.917979 0.036506
v 0.690811 1.003711 0.036506
v 0.583301 0.000000 0.036506
v 0.496699 0.000000 0.036506
v 0.440114 1.000256 0.036506
v 0.690811 1.085988 0.036506
v 0.434878 1.141094 0.036506
v 0.685575 1.116826 0.036506
v 0.416928 1.157810 0.036506
v 0.230134 1.000256 0.036506
v 0.220063 1.000256 0.064318
v 0.202258 1.221998 0.064483
v 0.233326 1.173683 0.036506
v 0.330088 1.000256 0.036506
v -0.440922 0.931765 0.036506
v -0.691619 1.017497 0.036506
v -0.497507 0.000000 0.036506
v -0.584109 0.000000 0.036506
v -0.440922 1.000256 0.036506
v -0.691619 1.085988 0.036506
v -0.696855 1.116826 0.036506
v -0.446158 1.141094 0.036506
v -0.428207 1.157810 0.036506
v -0.220871 1.000256 0.064318
v -0.230942 1.000256 0.036506
v -0.204059 1.219430 0.064483
v -0.244606 1.173683 0.036506
v -0.330896 1.000256 0.036506
v -0.691619 1.025995 0.000000
v -0.440922 0.940263 0.000000
v -0.691619 1.025995 0.036506
v -0.440922 0.940263 0.036506
v 0.690811 1.013340 0.000000
v 0.440114 0.927608 0.000000
v 0.690811 1.013340 0.036506
v 0.440114 0.927608 0.036506
v -0.442772 0.935765 0.002745
v -0.442772 0.935765 0.033761
v -0.689768 1.021497 0.002745
v -0.689768 1.021497 0.033761
v 0.685470 1.008532 0.002088
v 0.685470 1.008532 0.034417
v 0.445455 0.922800 0.002088
v 0.445455 0.922800 0.034417
vn -0.0000 -0.0000 1.0000
vn -0.0000 -0.0000 -1.0000
vn -0.0000 0.0007 -1.0000
vn -0.8167 -0.0300 -0.5763
vn -0.7429 0.0057 0.6694
vn -0.0000 1.0000 -0.0000
vn 1.0000 -0.0000 -0.0000
vn 0.0030 -0.9931 -0.1169
vn -0.0840 0.8675 0.4903
vn -0.0742 -0.8584 -0.5077
vn -0.9940 -0.0628 -0.0895
vn 0.9981 0.0615 -0.0000
vn -0.6479 0.6958 0.3100
vn -0.9943 0.1065 -0.0000
vn -0.0000 -1.0000 -0.0000
vn -0.8739 -0.3379 -0.3496
vn -0.6701 -0.7423 -0.0000
vn -0.0750 0.8676 0.4916
vn -0.0830 -0.8572 -0.5083
vn 0.9982 -0.0606 -0.0000
vn -0.9945 -0.1051 -0.0000
vn -0.8428 0.4547 0.2880
vn -0.6043 -0.6489 -0.4624
vn -0.9076 0.4199 -0.0000
vn -1.0000 -0.0000 -0.0000
vn 0.9248 -0.3805 -0.0000
vn -0.1766 -0.5127 0.8402
vn -0.1766 -0.5127 -0.8402
vn 0.6690 0.7432 -0.0000
vn -0.1379 0.3946 -0.9084
vn -0.1379 0.3946 0.9084
vn 0.1913 0.5553 -0.8094
vn 0.1913 0.5553 0.8094
vn 0.9076 0.4199 -0.0000
vn -0.9248 -0.3805 -0.0000
vn 0.1376 -0.3937 0.9089
vn 0.1376 -0.3937 -0.9089
vn 0.6700 -0.7423 -0.0000
vn -0.6690 0.7432 -0.0000
vt 0.250000 0.500000
vt 0.750000 0.500000
vt 0.750000 1.000000
vt 0.250000 1.000000
vt 0.750000 1.000000
vt 0.250000 1.000000
vt 0.250000 1.000000
vt 0.750000 1.000000
vt 0.750000 1.000000
vt 0.250000 1.000000
vt 0.250000 1.000000
s 0
usemtl Material.010
f 191/90/126 193/91/126 194/92/126 192/93/126
f 251/92/126 196/92/126 195/93/126 252/93/126
f 196/92/126 198/92/126 197/93/126 195/93/126
f 200/93/126 199/93/126 213/93/126 214/93/126
f 204/93/126 199/93/126 200/93/126 203/93/126
f 197/93/126 201/93/126 202/93/126 195/93/126
f 201/93/126 204/93/126 203/93/126 202/93/126
f 205/90/127 207/91/127 208/92/127 206/93/127
f 247/94/127 210/92/127 209/93/127 248/95/127
f 210/92/127 212/92/127 211/93/127 209/93/127
f 218/93/127 213/93/127 214/93/127 217/93/127
f 211/93/127 215/93/127 216/93/127 209/93/127
f 215/93/127 218/93/127 217/93/127 216/93/127
f 222/90/127 219/93/127 220/92/127 221/91/127
f 253/94/127 254/96/127 223/93/127 224/92/127
f 224/92/127 223/93/127 225/93/127 226/92/127
f 229/93/128 242/93/128 244/93/128 230/93/128
f 231/93/129 228/93/129 229/93/129 230/93/129
f 225/93/127 223/93/127 232/93/127 227/93/127
f 227/93/127 232/93/127 228/93/127 231/93/127
f 235/90/126 233/93/126 234/92/126 236/91/126
f 249/92/126 250/93/126 237/93/126 238/92/126
f 238/92/126 237/93/126 240/93/126 239/92/126
f 245/93/130 243/93/130 242/93/130 244/93/130
f 240/93/126 237/93/126 246/93/126 241/93/126
f 241/93/126 246/93/126 243/93/126 245/93/126
f 203/93/131 200/93/131 229/93/131 228/93/131
f 200/93/131 214/93/131 242/93/131 229/93/131
f 248/95/132 209/93/132 237/93/132 250/93/132
f 213/93/133 199/93/133 230/93/133 244/93/133
f 211/93/134 212/92/134 239/92/134 240/93/134
f 204/93/135 201/93/135 227/93/135 231/93/135
f 212/92/136 210/92/136 238/92/136 239/92/136
f 195/93/131 202/93/131 232/93/131 223/93/131
f 193/91/131 191/90/131 222/90/131 221/91/131
f 191/90/137 192/93/137 219/93/137 222/90/137
f 215/93/138 211/93/138 240/93/138 241/93/138
f 202/93/131 203/93/131 228/93/131 232/93/131
f 194/92/139 193/91/139 221/91/139 220/92/139
f 217/93/140 214/93/140 242/93/140 243/93/140
f 199/93/141 204/93/141 231/93/141 230/93/141
f 259/92/142 194/92/142 220/92/142 260/97/142
f 218/93/143 215/93/143 241/93/143 245/93/143
f 252/93/132 195/93/132 223/93/132 254/96/132
f 209/93/140 216/93/140 246/93/140 237/93/140
f 207/91/140 205/90/140 235/90/140 236/91/140
f 197/93/144 198/92/144 226/92/144 225/93/144
f 205/90/145 206/93/145 233/93/145 235/90/145
f 198/92/136 196/92/136 224/92/136 226/92/136
f 216/93/140 217/93/140 243/93/140 246/93/140
f 208/92/146 207/91/146 236/91/146 234/92/146
f 213/93/147 218/93/147 245/93/147 244/93/147
f 201/93/148 197/93/148 225/93/148 227/93/148
f 257/98/149 208/92/149 234/92/149 258/94/149
f 210/92/150 247/94/150 249/92/150 238/92/150
f 255/99/151 248/95/151 250/93/151 256/95/151
f 258/94/152 256/95/152 250/93/152 249/92/152
f 257/98/153 247/94/153 248/95/153 255/99/153
f 261/93/154 252/93/154 254/96/154 262/100/154
f 196/92/150 251/92/150 253/94/150 224/92/150
f 260/97/155 262/100/155 254/96/155 253/94/155
f 259/92/156 251/92/156 252/93/156 261/93/156
f 208/92/157 257/98/157 255/99/157 206/93/157
f 234/92/158 233/93/158 256/95/158 258/94/158
f 206/93/159 255/99/159 256/95/159 233/93/159
f 247/94/160 257/98/160 258/94/160 249/92/160
f 194/92/161 259/92/161 261/93/161 192/93/161
f 220/92/162 219/93/162 262/100/162 260/97/162
f 192/93/163 261/93/163 262/100/163 219/93/163
f 251/92/164 259/92/164 260/97/164 253/94/164
o Surfae_Portico_B
v -0.563380 0.000000 0.016006
v 0.559837 0.000000 0.016006
v -0.484642 1.087306 0.016006
v 0.466183 1.087306 0.016006
v -0.567149 0.543653 0.016006
v 0.534891 0.543653 0.016006
v 0.562187 0.815480 0.016006
v -0.588529 0.815480 0.016006
vn -0.0000 -0.0000 1.0000
vt 0.000000 0.750000
vt 1.000000 0.750000
vt 1.000000 1.000000
vt 0.000000 1.000000
vt 0.000000 0.000000
vt 1.000000 0.000000
vt 1.000000 0.500000
vt 0.000000 0.500000
s 0
f 270/101/165 269/102/165 266/103/165 265/104/165
f 263/105/165 264/106/165 268/107/165 267/108/165
f 267/108/165 268/107/165 269/102/165 270/101/165
