# Blender 4.4.3
# www.blender.org
o Bloque
v 0.194114 1.624444 -0.100000
v -0.194114 1.624444 -0.100000
v -0.530330 1.430330 -0.100000
v -0.724444 1.094114 -0.100000
v -0.724444 0.705886 -0.100000
v -0.530330 0.369670 -0.100000
v -0.194114 0.175556 -0.100000
v 0.194114 0.175556 -0.100000
v 0.530330 0.369670 -0.100000
v 0.724444 0.705886 -0.100000
v 0.724444 1.094114 -0.100000
v 0.530330 1.430330 -0.100000
v 0.194114 1.624444 0.100000
v -0.194114 1.624444 0.100000
v -0.530330 1.430330 0.100000
v -0.724444 1.094114 0.100000
v -0.724444 0.705886 0.100000
v -0.530330 0.369670 0.100000
v -0.194114 0.175556 0.100000
v 0.194114 0.175556 0.100000
v 0.530330 0.369670 0.100000
v 0.724444 0.705886 0.100000
v 0.724444 1.094114 0.100000
v 0.530330 1.430330 0.100000
vn -1.0000 -0.0000 -0.0000
vn 0.8660 0.5000 -0.0000
vn -0.0000 1.0000 -0.0000
vn 0.5000 -0.8660 -0.0000
vn -0.8660 -0.5000 -0.0000
vn 0.5000 0.8660 -0.0000
vn -0.5000 0.8660 -0.0000
vn 0.8660 -0.5000 -0.0000
vn -0.5000 -0.8660 -0.0000
vn -0.8660 0.5000 -0.0000
vn 1.0000 -0.0000 -0.0000
vn -0.0000 -1.0000 -0.0000
vn -0.0000 -0.0000 1.0000
vn -0.0000 -0.0000 -1.0000
vt 0.199466 0.104350
vt 0.293248 0.104350
vt 0.293248 0.216016
vt 0.199466 0.216016
vt 0.711822 0.216399
vt 0.630604 0.216399
vt 0.630604 0.104733
vt 0.711822 0.104733
vt 0.455642 0.104508
vt 0.549425 0.104508
vt 0.549425 0.216173
vt 0.455642 0.216173
vt 0.886876 0.104670
vt 0.968094 0.104670
vt 0.968094 0.216336
vt 0.886876 0.216336
vt 0.118248 0.104350
vt 0.199466 0.216016
vt 0.118248 0.216016
vt 0.630642 0.104508
vt 0.630642 0.216173
vt 0.549425 0.216173
vt 0.374422 0.104552
vt 0.455640 0.104552
vt 0.455640 0.216218
vt 0.374422 0.216218
vt 0.886832 0.216308
vt 0.805614 0.216308
vt 0.805614 0.104642
vt 0.886832 0.104642
vt 0.036987 0.104237
vt 0.118205 0.104237
vt 0.118205 0.215903
vt 0.036987 0.215903
vt 0.374466 0.104350
vt 0.374466 0.216016
vt 0.805557 0.216371
vt 0.711775 0.216371
vt 0.711775 0.104705
vt 0.805557 0.104705
vt 0.638037 0.116025
vt 0.638037 0.250000
vt 0.569018 0.250000
vt 0.569018 0.116025
vt 1.000000 0.683013
vt 1.000000 0.816987
vt 0.933013 0.933013
vt 0.816987 1.000000
vt 0.683013 1.000000
vt 0.566987 0.933013
vt 0.500000 0.816987
vt 0.500000 0.683013
vt 0.566987 0.566987
vt 0.683013 0.500000
vt 0.816987 0.500000
vt 0.933013 0.566987
vt 0.816987 1.000000
vt 0.683013 1.000000
vt 0.566987 0.933013
vt 0.500000 0.816987
vt 0.500000 0.683013
vt 0.683013 0.500000
vt 0.816987 0.500000
vt 0.933013 0.566987
vt 1.000000 0.683013
vt 1.000000 0.816987
vt 0.933013 0.933013
s 0
f 4/1/1 5/2/1 17/3/1 16/4/1
f 11/5/2 12/6/2 24/7/2 23/8/2
f 1/9/3 2/10/3 14/11/3 13/12/3
f 8/13/4 9/14/4 21/15/4 20/16/4
f 5/17/5 6/1/5 18/18/5 17/19/5
f 12/10/6 1/20/6 13/21/6 24/22/6
f 2/23/7 3/24/7 15/25/7 14/26/7
f 9/27/8 10/28/8 22/29/8 21/30/8
f 6/31/9 7/32/9 19/33/9 18/34/9
f 3/2/10 4/35/10 16/36/10 15/3/10
f 10/37/11 11/38/11 23/39/11 22/40/11
f 7/41/12 8/42/12 20/43/12 19/44/12
f 14/45/13 15/46/13 16/47/13 17/48/13 18/49/13 19/50/13 20/51/13 21/52/13 22/53/13 23/54/13 24/55/13 13/56/13
f 2/57/14 1/58/14 12/59/14 11/60/14 10/61/14 9/53/14 8/62/14 7/63/14 6/64/14 5/65/14 4/66/14 3/67/14
o StickerSlot
v 0.097057 1.262222 0.100000
v -0.097057 1.262222 0.100000
v -0.265165 1.165165 0.100000
v -0.362222 0.997057 0.100000
v -0.362222 0.802943 0.100000
v -0.265165 0.634835 0.100000
v -0.097057 0.537778 0.100000
v 0.097057 0.537778 0.100000
v 0.265165 0.634835 0.100000
v 0.362222 0.802943 0.100000
v 0.362222 0.997057 0.100000
v 0.265165 1.165165 0.100000
v 0.097057 1.262222 0.200000
v -0.097057 1.262222 0.200000
v -0.265165 1.165165 0.200000
v -0.362222 0.997057 0.200000
v -0.362222 0.802943 0.200000
v -0.265165 0.634835 0.200000
v -0.097057 0.537778 0.200000
v 0.097057 0.537778 0.200000
v 0.265165 0.634835 0.200000
v 0.362222 0.802943 0.200000
v 0.362222 0.997057 0.200000
v 0.265165 1.165165 0.200000
vn -1.0000 -0.0000 -0.0000
vn 0.8660 0.5000 -0.0000
vn -0.0000 1.0000 -0.0000
vn 0.5000 -0.8660 -0.0000
vn -0.8660 -0.5000 -0.0000
vn 0.5000 0.8660 -0.0000
vn -0.5000 0.8660 -0.0000
vn 0.8660 -0.5000 -0.0000
vn -0.5000 -0.8660 -0.0000
vn -0.8660 0.5000 -0.0000
vn 1.0000 -0.0000 -0.0000
vn -0.0000 -1.0000 -0.0000
vn -0.0000 -0.0000 1.0000
vn -0.0000 -0.0000 -1.0000
vt 0.168287 0.820989
vt 0.213463 0.820989
vt 0.213463 0.888226
vt 0.168287 0.888226
vt 0.329496 0.888257
vt 0.290373 0.888257
vt 0.290373 0.821020
vt 0.329496 0.821020
vt 0.412505 0.820865
vt 0.457681 0.820865
vt 0.457681 0.888102
vt 0.412505 0.888102
vt 0.089971 0.821616
vt 0.129095 0.821616
vt 0.129095 0.888853
vt 0.089971 0.888853
vt 0.252587 0.820989
vt 0.252587 0.888226
vt 0.456549 0.820865
vt 0.495673 0.820865
vt 0.495673 0.888102
vt 0.456549 0.888102
vt 0.252403 0.820865
vt 0.291527 0.820865
vt 0.291527 0.888102
vt 0.252403 0.888102
vt 0.413927 0.888257
vt 0.374804 0.888257
vt 0.374804 0.821020
vt 0.413927 0.821020
vt 0.005672 0.821616
vt 0.044795 0.821616
vt 0.044795 0.888853
vt 0.005672 0.888853
vt 0.129164 0.820989
vt 0.129164 0.888226
vt 0.374672 0.888257
vt 0.374672 0.821020
vt 0.076091 0.576091
vt 0.186345 0.512435
vt 0.313655 0.512435
vt 0.423910 0.576091
vt 0.487565 0.686345
vt 0.487565 0.813655
vt 0.423909 0.923910
vt 0.313655 0.987565
vt 0.186345 0.987565
vt 0.076090 0.923909
vt 0.012435 0.813655
vt 0.012435 0.686345
vt 0.423909 0.076090
vt 0.487565 0.186345
vt 0.487565 0.313655
vt 0.423910 0.423909
vt 0.313655 0.487565
vt 0.186345 0.487565
vt 0.076091 0.423910
vt 0.012435 0.313655
vt 0.012435 0.186345
vt 0.076090 0.076091
vt 0.186345 0.012435
vt 0.313655 0.012435
s 0
f 28/68/15 29/69/15 41/70/15 40/71/15
f 35/72/16 36/73/16 48/74/16 47/75/16
f 25/76/17 26/77/17 38/78/17 37/79/17
f 32/80/18 33/81/18 45/82/18 44/83/18
f 29/69/19 30/84/19 42/85/19 41/70/19
f 36/86/20 25/87/20 37/88/20 48/89/20
f 26/90/21 27/91/21 39/92/21 38/93/21
f 33/94/22 34/95/22 46/96/22 45/97/22
f 30/98/23 31/99/23 43/100/23 42/101/23
f 27/102/24 28/68/24 40/71/24 39/103/24
f 34/104/25 35/72/25 47/75/25 46/105/25
f 31/99/26 32/80/26 44/83/26 43/100/26
f 38/106/27 39/107/27 40/108/27 41/109/27 42/110/27 43/111/27 44/112/27 45/113/27 46/114/27 47/115/27 48/116/27 37/117/27
f 26/118/28 25/119/28 36/120/28 35/121/28 34/122/28 33/123/28 32/124/28 31/125/28 30/126/28 29/127/28 28/128/28 27/129/28
o Base.001
v -0.500000 0.000000 0.300000
v -0.443467 0.200000 0.229725
v -0.500000 0.000000 -0.300000
v -0.443467 0.200000 -0.229725
v 0.500000 0.000000 0.300000
v 0.443467 0.200000 0.229725
v 0.500000 0.000000 -0.300000
v 0.443467 0.200000 -0.229725
v -0.500000 0.000000 -0.180000
v -0.500000 0.000000 -0.060000
v -0.500000 0.000000 0.060000
v -0.500000 0.000000 0.180000
v -0.443467 0.249110 0.101002
v -0.443467 0.200000 0.100777
v -0.443467 0.200000 -0.100560
v -0.443467 0.253997 -0.101419
v 0.500000 0.000000 0.180000
v 0.500000 0.000000 0.060000
v 0.500000 0.000000 -0.060000
v 0.500000 0.000000 -0.180000
v 0.443467 0.253997 -0.101419
v 0.443467 0.200000 -0.100560
v 0.443467 0.200000 0.100777
v 0.443467 0.249110 0.101002
vn -0.9643 0.2586 -0.0562
vn -0.0000 0.3315 -0.9435
vn 0.9643 0.2598 0.0513
vn -0.0000 0.3315 0.9435
vn -0.0000 -1.0000 -0.0000
vn -0.0000 0.9343 0.3565
vn -0.0000 0.9217 -0.3879
vn -0.0000 0.0159 0.9999
vn -0.0000 1.0000 -0.0000
vn -0.0000 0.0046 -1.0000
vn 0.9643 0.2586 -0.0562
vn 0.9671 0.2322 0.1037
vn 0.9623 0.2720 -0.0000
vn 0.9672 0.2353 -0.0961
vn -0.9643 0.2598 0.0513
vn -0.9672 0.2353 -0.0961
vn -0.9623 0.2720 -0.0000
vn -0.9671 0.2322 0.1037
vt 0.187500 0.600000
vt 0.312500 0.600000
vt 0.312500 0.625000
vt 0.187500 0.625000
vt 0.312500 0.750000
vt 0.187500 0.750000
vt 0.187500 0.850000
vt 0.312500 0.850000
vt 0.312500 0.875000
vt 0.187500 0.875000
vt 0.312500 1.000000
vt 0.187500 1.000000
vt 0.062500 0.850000
vt 0.062500 0.875000
vt 0.437500 0.850000
vt 0.437500 0.875000
vt 0.437500 0.750000
vt 0.437500 0.775000
vt 0.312500 0.775000
vt 0.437500 0.800000
vt 0.312500 0.800000
vt 0.437500 0.825000
vt 0.312500 0.825000
vt 0.062500 0.750000
vt 0.187500 0.775000
vt 0.062500 0.775000
vt 0.187500 0.800000
vt 0.062500 0.800000
vt 0.187500 0.825000
vt 0.062500 0.825000
vt 0.187500 0.500000
vt 0.312500 0.500000
vt 0.312500 0.525000
vt 0.187500 0.525000
vt 0.312500 0.550000
vt 0.187500 0.550000
vt 0.312500 0.575000
vt 0.187500 0.575000
s 0
f 57/130/29 64/131/29 52/132/29 51/133/29
f 51/133/30 52/132/30 56/134/30 55/135/30
f 65/136/31 72/137/31 54/138/31 53/139/31
f 53/139/32 54/138/32 50/140/32 49/141/32
f 60/142/33 65/136/33 53/139/33 49/143/33
f 72/137/34 61/144/34 50/145/34 54/138/34
f 56/134/35 52/146/35 64/147/35 69/148/35
f 69/148/36 64/147/36 63/149/36 70/150/36
f 70/150/37 63/149/37 62/151/37 71/152/37
f 71/152/38 62/151/38 61/144/38 72/137/38
f 51/153/33 55/135/33 68/154/33 57/155/33
f 57/155/33 68/154/33 67/156/33 58/157/33
f 58/157/33 67/156/33 66/158/33 59/159/33
f 59/159/33 66/158/33 65/136/33 60/142/33
f 55/135/39 56/134/39 69/148/39 68/154/39
f 68/154/40 69/148/40 70/150/40 67/156/40
f 67/156/41 70/150/41 71/152/41 66/158/41
f 66/158/42 71/152/42 72/137/42 65/136/42
f 49/160/43 50/161/43 61/162/43 60/163/43
f 60/163/44 61/162/44 62/164/44 59/165/44
f 59/165/45 62/164/45 63/166/45 58/167/45
f 58/167/46 63/166/46 64/131/46 57/130/46
