# Blender 4.4.3
# www.blender.org
mtllib Pedestal.mtl
o Cube.004
v -0.305828 0.000000 -0.318041
v -0.250000 0.600000 -0.250000
v 0.305828 0.000000 -0.318041
v 0.250000 0.600000 -0.250000
v -0.305828 0.000000 0.318041
v -0.250000 0.600000 0.250000
v 0.305828 0.000000 0.318041
v 0.250000 0.600000 0.250000
v -0.000000 0.700000 -0.250000
v 0.250000 0.700000 -0.000000
v 0.000000 0.700000 0.250000
v -0.250000 0.700000 0.000000
v 0.000000 0.800000 0.000000
v -0.250000 0.700000 -0.125000
v 0.250000 0.700000 -0.125000
v -0.000000 0.800000 -0.125000
v 0.250000 0.700000 0.125000
v -0.250000 0.700000 0.125000
v 0.000000 0.800000 0.125000
v -0.250000 0.700000 0.062500
v 0.250000 0.700000 0.062500
v 0.000000 0.800000 0.062500
v 0.250000 0.700000 -0.062500
v -0.000000 0.800000 -0.062500
v -0.250000 0.700000 -0.062500
v -0.125000 0.700000 0.250000
v -0.125000 0.700000 -0.250000
v -0.140625 0.800000 0.000000
v -0.125000 0.785614 -0.125000
v -0.125000 0.786732 0.125000
v -0.125000 0.800000 0.062500
v -0.140625 0.800000 -0.062500
v -0.062500 0.700000 -0.250000
v -0.062500 0.700000 0.250000
v -0.037500 0.800000 0.000000
v -0.062500 0.796176 -0.125000
v -0.062500 0.795099 0.125000
v -0.062500 0.800000 0.062500
v -0.037500 0.800000 -0.062500
v 0.125000 0.700000 -0.250000
v 0.125000 0.700000 0.250000
v 0.140625 0.800000 -0.000000
v 0.125000 0.785614 -0.125000
v 0.125000 0.786732 0.125000
v 0.125000 0.800000 0.062500
v 0.140625 0.800000 -0.062500
v 0.062500 0.700000 0.250000
v 0.037500 0.800000 -0.000000
v 0.062500 0.796176 -0.125000
v 0.062500 0.795099 0.125000
v 0.062500 0.800000 0.062500
v 0.037500 0.800000 -0.062500
v 0.062500 0.700000 -0.250000
v 0.187500 0.700000 -0.250000
v 0.187500 0.700000 0.250000
v 0.171875 0.800000 -0.000000
v 0.159036 0.772127 -0.125000
v 0.187500 0.765695 0.125000
v 0.187500 0.786145 0.062500
v 0.171875 0.800000 -0.062500
v -0.187500 0.700000 0.250000
v -0.171875 0.800000 0.000000
v -0.159036 0.772127 -0.125000
v -0.187500 0.765695 0.125000
v -0.187500 0.786145 0.062500
v -0.171875 0.800000 -0.062500
v -0.187500 0.700000 -0.250000
v 0.062500 1.000000 -0.000000
v 0.000000 1.000000 0.000000
v -0.000000 1.000000 -0.062500
v 0.062500 1.000000 -0.062500
v -0.125000 1.000000 -0.062500
v -0.125000 1.000000 0.000000
v -0.062500 1.000000 0.000000
v -0.062500 1.000000 -0.062500
v 0.243387 0.958969 -0.000000
v 0.125000 1.000000 -0.000000
v 0.243387 0.958969 -0.062500
v 0.125000 1.000000 -0.062500
v -0.243387 0.958969 0.000000
v -0.243387 0.958969 -0.062500
vn -0.0000 0.0998 -0.9950
vn 0.9965 0.0835 -0.0000
vn -0.0000 0.0998 0.9950
vn -0.9965 0.0835 -0.0000
vn -0.0000 -1.0000 -0.0000
vn -0.6993 0.6235 -0.3496
vn -0.7975 0.6025 -0.0329
vn -0.0000 1.0000 -0.0000
vn 0.0241 0.7865 -0.6172
vn 0.0382 0.9990 -0.0229
vn -0.6953 0.6830 -0.2237
vn 0.0309 0.7880 0.6149
vn -0.7414 0.5593 0.3707
vn 0.0392 0.9985 0.0392
vn -0.7679 0.6322 0.1034
vn -0.7880 0.6156 -0.0000
vn -0.0000 -0.0000 1.0000
vn -0.0661 0.9874 0.1435
vn -0.0541 0.8075 0.5873
vn -0.0630 0.9883 -0.1392
vn -0.0682 0.8069 -0.5867
vn -0.0241 0.7865 -0.6172
vn -0.0382 0.9990 -0.0229
vn -0.0309 0.7880 0.6149
vn -0.0392 0.9985 0.0392
vn -0.0000 -0.0000 -1.0000
vn 0.2602 0.9322 0.2515
vn 0.1422 0.8451 0.5153
vn 0.1893 0.9163 -0.3529
vn 0.1182 0.8458 -0.5202
vn 0.1453 0.9834 0.1090
vn 0.0661 0.9874 0.1435
vn 0.0541 0.8075 0.5873
vn 0.0630 0.9883 -0.1392
vn 0.0682 0.8069 -0.5867
vn 0.7975 0.6025 -0.0329
vn 0.6993 0.6235 -0.3496
vn 0.6953 0.6830 -0.2237
vn 0.7414 0.5593 0.3707
vn 0.7679 0.6322 0.1034
vn 0.7880 0.6156 -0.0000
vn -0.9120 -0.4102 -0.0000
vn -0.2602 0.9322 0.2515
vn -0.1422 0.8451 0.5153
vn -0.1893 0.9163 -0.3529
vn -0.1453 0.9834 0.1090
vn -0.1182 0.8458 -0.5202
vn 0.3275 0.9449 -0.0000
vn -0.3275 0.9449 -0.0000
vn 0.9970 -0.0779 -0.0000
vn 0.9923 -0.1240 -0.0000
vn -0.9923 -0.1240 -0.0000
vn -0.9970 -0.0779 -0.0000
vn 0.9120 -0.4102 -0.0000
vt 0.375000 0.000000
vt 0.625000 0.000000
vt 0.625000 0.031250
vt 0.625000 0.062500
vt 0.625000 0.093750
vt 0.625000 0.125000
vt 0.625000 0.156250
vt 0.625000 0.187500
vt 0.625000 0.218750
vt 0.625000 0.250000
vt 0.375000 0.250000
vt 0.625000 0.312500
vt 0.625000 0.343750
vt 0.625000 0.375000
vt 0.625000 0.406250
vt 0.625000 0.437500
vt 0.625000 0.500000
vt 0.375000 0.500000
vt 0.625000 0.531250
vt 0.625000 0.562500
vt 0.625000 0.593750
vt 0.625000 0.625000
vt 0.625000 0.656250
vt 0.625000 0.687500
vt 0.625000 0.718750
vt 0.625000 0.750000
vt 0.375000 0.750000
vt 0.625000 0.812500
vt 0.625000 0.843750
vt 0.625000 0.875000
vt 0.625000 0.906250
vt 0.625000 0.937500
vt 0.625000 1.000000
vt 0.375000 1.000000
vt 0.125000 0.500000
vt 0.125000 0.750000
vt 0.812500 0.718750
vt 0.875000 0.718750
vt 0.875000 0.750000
vt 0.812500 0.750000
vt 0.718750 0.718750
vt 0.750000 0.718750
vt 0.750000 0.750000
vt 0.718750 0.750000
vt 0.718750 0.593750
vt 0.750000 0.593750
vt 0.750000 0.625000
vt 0.718750 0.625000
vt 0.812500 0.593750
vt 0.875000 0.593750
vt 0.875000 0.625000
vt 0.812500 0.625000
vt 0.781250 0.593750
vt 0.781250 0.625000
vt 0.781250 0.718750
vt 0.781250 0.750000
vt 0.687500 0.593750
vt 0.687500 0.625000
vt 0.687500 0.718750
vt 0.687500 0.750000
vt 0.750000 0.656250
vt 0.781250 0.656250
vt 0.781250 0.687500
vt 0.750000 0.687500
vt 0.687500 0.656250
vt 0.718750 0.656250
vt 0.718750 0.687500
vt 0.687500 0.687500
vt 0.812500 0.656250
vt 0.812500 0.687500
vt 0.875000 0.656250
vt 0.875000 0.687500
vt 0.750000 0.562500
vt 0.750000 0.531250
vt 0.687500 0.531250
vt 0.718750 0.531250
vt 0.718750 0.562500
vt 0.687500 0.562500
vt 0.781250 0.531250
vt 0.812500 0.531250
vt 0.812500 0.562500
vt 0.781250 0.562500
vt 0.875000 0.531250
vt 0.875000 0.562500
vt 0.718750 0.500000
vt 0.750000 0.500000
vt 0.812500 0.500000
vt 0.875000 0.500000
vt 0.781250 0.500000
vt 0.687500 0.500000
s 0
f 1/1/1 2/2/1 67/3/1 27/4/1 33/5/1 9/6/1 53/7/1 40/8/1 54/9/1 4/10/1 3/11/1
f 3/11/2 4/10/2 15/12/2 23/13/2 10/14/2 21/15/2 17/16/2 8/17/2 7/18/2
f 7/18/3 8/17/3 55/19/3 41/20/3 47/21/3 11/22/3 34/23/3 26/24/3 61/25/3 6/26/3 5/27/3
f 5/27/4 6/26/4 18/28/4 20/29/4 12/30/4 25/31/4 14/32/4 2/33/4 1/34/4
f 3/35/5 7/18/5 5/27/5 1/36/5
f 63/37/6 67/38/6 2/39/6 14/40/6
f 65/41/7 62/42/7 12/43/7 20/44/7
f 51/45/8 48/46/8 13/47/8 22/48/8
f 49/49/9 53/50/9 9/51/9 16/52/9
f 52/53/10 49/49/10 16/52/10 24/54/10
f 66/55/11 63/37/11 14/40/11 25/56/11
f 47/21/12 50/57/12 19/58/12 11/22/12
f 61/25/13 64/59/13 18/60/13 6/26/13
f 50/57/14 51/45/14 22/48/14 19/58/14
f 64/59/15 65/41/15 20/44/15 18/60/15
f 62/42/16 66/55/16 25/56/16 12/43/16
f 13/47/17 48/46/17 68/46/17 69/47/17
f 35/61/8 39/62/8 32/63/8 28/64/8
f 37/65/18 38/66/18 31/67/18 30/68/18
f 34/23/19 37/65/19 30/68/19 26/24/19
f 39/62/20 36/69/20 29/70/20 32/63/20
f 38/66/8 35/61/8 28/64/8 31/67/8
f 36/69/21 33/71/21 27/72/21 29/70/21
f 16/52/22 9/51/22 33/71/22 36/69/22
f 22/48/8 13/47/8 35/61/8 38/66/8
f 24/54/23 16/52/23 36/69/23 39/62/23
f 11/22/24 19/58/24 37/65/24 34/23/24
f 19/58/25 22/48/25 38/66/25 37/65/25
f 52/53/26 24/54/26 70/54/26 71/53/26
f 42/73/17 56/74/17 76/74/17 77/73/17
f 58/75/27 59/76/27 45/77/27 44/78/27
f 55/19/28 58/75/28 44/78/28 41/20/28
f 60/79/29 57/80/29 43/81/29 46/82/29
f 57/80/30 54/83/30 40/84/30 43/81/30
f 59/76/31 56/74/31 42/73/31 45/77/31
f 42/73/8 46/82/8 52/53/8 48/46/8
f 44/78/32 45/77/32 51/45/32 50/57/32
f 41/20/33 44/78/33 50/57/33 47/21/33
f 46/82/34 43/81/34 49/49/34 52/53/34
f 43/81/35 40/84/35 53/50/35 49/49/35
f 45/77/8 42/73/8 48/46/8 51/45/8
f 21/85/36 10/86/36 56/74/36 59/76/36
f 15/87/37 4/88/37 54/83/37 57/80/37
f 23/89/38 15/87/38 57/80/38 60/79/38
f 8/17/39 17/90/39 58/75/39 55/19/39
f 17/90/40 21/85/40 59/76/40 58/75/40
f 10/86/41 23/89/41 60/79/41 56/74/41
f 66/55/42 62/42/42 80/42/42 81/55/42
f 30/68/43 31/67/43 65/41/43 64/59/43
f 26/24/44 30/68/44 64/59/44 61/25/44
f 32/63/45 29/70/45 63/37/45 66/55/45
f 31/67/46 28/64/46 62/42/46 65/41/46
f 29/70/47 27/72/47 67/38/47 63/37/47
f 68/46/8 71/53/8 70/54/8 69/47/8
f 69/47/8 70/54/8 75/62/8 74/61/8
f 76/74/48 78/79/48 79/82/48 77/73/48
f 73/64/49 72/63/49 81/55/49 80/42/49
f 62/42/17 28/64/17 73/64/17 80/42/17
f 28/64/50 32/63/50 72/63/50 73/64/50
f 35/61/17 13/47/17 69/47/17 74/61/17
f 48/46/51 52/53/51 71/53/51 68/46/51
f 60/79/26 46/82/26 79/82/26 78/79/26
f 39/62/52 35/61/52 74/61/52 75/62/52
f 46/82/53 42/73/53 77/73/53 79/82/53
f 32/63/26 66/55/26 81/55/26 72/63/26
f 24/54/26 39/62/26 75/62/26 70/54/26
f 56/74/54 60/79/54 78/79/54 76/74/54
