# Blender 4.4.3
# www.blender.org
mtllib Tabla2.mtl
o Tabla2
v -0.501518 -0.031293 -0.154500
v -0.497784 0.068638 -0.154500
v 0.497784 -0.068638 -0.154500
v 0.501518 0.031293 -0.154500
v -0.501518 -0.031293 0.154500
v -0.497784 0.068638 0.154500
v 0.497784 -0.068638 0.154500
v 0.501518 0.031293 0.154500
vn -0.0000 -0.0000 -1.0000
vn 0.9993 -0.0373 -0.0000
vn -0.0000 -0.0000 1.0000
vn -0.9993 0.0373 -0.0000
vn -0.0373 -0.9993 -0.0000
vn 0.0373 0.9993 -0.0000
vt 0.625000 0.750000
vt 0.625000 0.625000
vt 0.875000 0.625000
vt 0.875000 0.750000
vt 0.546875 0.625000
vt 0.546875 0.375000
vt 0.625000 0.375000
vt 0.625000 0.625000
vt 0.625000 0.750000
vt 0.546875 0.375000
vt 0.625000 0.625000
vt 1.000000 0.375000
vt 1.000000 0.625000
s 0
f 1/1/1 2/2/1 4/3/1 3/4/1
f 3/5/2 4/6/2 8/7/2 7/8/2
f 7/9/3 8/8/3 6/3/3 5/4/3
f 5/5/4 6/10/4 2/7/4 1/11/4
f 3/8/5 7/7/5 5/12/5 1/13/5
f 8/8/6 4/7/6 2/12/6 6/13/6
