# Blender 4.4.3
# www.blender.org
o Tabla1
v -0.498789 -0.060902 -0.154500
v -0.500972 0.039074 -0.154500
v 0.500972 -0.039074 -0.154500
v 0.498789 0.060902 -0.154500
v -0.498789 -0.060902 0.154500
v -0.500972 0.039074 0.154500
v 0.500972 -0.039074 0.154500
v 0.498789 0.060902 0.154500
vn -0.0000 -0.0000 -1.0000
vn 0.9998 0.0218 -0.0000
vn -0.0000 -0.0000 1.0000
vn -0.9998 -0.0218 -0.0000
vn 0.0218 -0.9998 -0.0000
vn -0.0218 0.9998 -0.0000
vt 0.665816 0.624949
vt 0.873710 0.624949
vt 0.873710 0.718333
vt 0.665816 0.718333
vt 0.492449 0.624270
vt 0.492449 0.460397
vt 0.592449 0.460397
vt 0.592449 0.624270
vt 0.665816 0.625182
vt 0.874941 0.625182
vt 0.874941 0.718566
vt 0.665816 0.718566
vt 0.492449 0.624269
vt 0.592449 0.460397
vt 0.594906 0.459397
vt 0.778874 0.459397
vt 0.778874 0.623270
vt 0.594906 0.623270
vt 0.396827 0.755470
vt 0.363305 0.570775
vt 0.767441 0.523687
vt 0.791908 0.698944
s 0
f 1/1/1 2/2/1 4/3/1 3/4/1
f 3/5/2 4/6/2 8/7/2 7/8/2
f 7/9/3 8/10/3 6/11/3 5/12/3
f 5/13/4 6/6/4 2/14/4 1/8/4
f 3/15/5 7/16/5 5/17/5 1/18/5
f 8/19/6 4/20/6 2/21/6 6/22/6
