# Blender 4.4.3
# www.blender.org
o Plance_Alta.001
v 0.027666 0.000000 0.110871
v 0.019754 1.253989 0.140067
v -0.012334 0.000000 0.110871
v -0.032246 1.253989 0.140067
v 0.027666 0.000000 -0.102959
v 0.019754 1.243469 -0.130213
v -0.012334 0.000000 -0.102959
v -0.032246 1.243469 -0.130213
v -0.019058 0.419886 -0.060887
v -0.019858 0.469886 -0.047490
v -0.020659 0.519886 -0.060887
v -0.018412 0.379589 -0.111279
v -0.018472 0.383283 -0.097490
v -0.021322 0.561250 -0.115260
v -0.021245 0.556489 -0.097490
v 0.025251 0.379589 -0.111279
v 0.024095 0.561250 -0.115260
v 0.025007 0.419886 -0.060887
v 0.024692 0.469886 -0.047490
v 0.024371 0.519886 -0.060887
v 0.025231 0.383283 -0.097490
v 0.024129 0.556489 -0.097490
vn -0.0000 -0.0233 0.9997
vn -0.9999 -0.0159 0.0004
vn -0.0000 -0.0219 -0.9998
vn 1.0000 0.0063 -0.0001
vn -0.0000 -1.0000 -0.0000
vn -0.0000 0.9992 -0.0389
vn -0.0000 -0.9659 -0.2588
vn -0.0000 -0.7071 -0.7071
vn -0.0000 -0.2588 -0.9659
vn -0.0000 0.2588 -0.9659
vn -0.0000 0.7071 -0.7071
vn -0.0000 0.9659 -0.2588
vt 0.375000 0.000000
vt 0.625000 0.000000
vt 0.625000 0.250000
vt 0.375000 0.250000
vt 0.375000 0.500000
vt 0.625000 0.500000
vt 0.487840 0.500000
vt 0.486812 0.481532
vt 0.479325 0.443712
vt 0.469248 0.430100
vt 0.459260 0.445007
vt 0.452019 0.485041
vt 0.451316 0.500000
vt 0.625000 0.750000
vt 0.487840 0.750000
vt 0.375000 0.750000
vt 0.451316 0.750000
vt 0.625000 1.000000
vt 0.375000 1.000000
vt 0.452019 0.764959
vt 0.459260 0.804993
vt 0.469248 0.819900
vt 0.479325 0.806288
vt 0.486812 0.768468
vt 0.125000 0.500000
vt 0.125000 0.750000
vt 0.875000 0.500000
vt 0.875000 0.750000
vt 0.696285 0.669685
vt 0.666667 0.669569
vt 0.666667 0.820818
vt 0.696285 0.821073
vt 0.583333 0.668763
vt 0.583333 0.818864
vt 0.500000 0.667692
vt 0.500000 0.816195
vt 0.416667 0.666643
vt 0.416667 0.813526
vt 0.333333 0.811572
vt 0.333333 0.665898
vt 0.310352 0.811375
vt 0.310352 0.665831
s 0
f 1/1/1 2/2/1 4/3/1 3/4/1
f 7/5/2 3/4/2 4/3/2 8/6/2 14/7/2 15/8/2 11/9/2 10/10/2 9/11/2 13/12/2 12/13/2
f 8/6/3 6/14/3 17/15/3 14/7/3
f 5/16/3 7/5/3 12/13/3 16/17/3
f 17/15/4 6/14/4 2/18/4 1/19/4 5/16/4 16/17/4 21/20/4 18/21/4 19/22/4 20/23/4 22/24/4
f 3/25/5 7/5/5 5/16/5 1/26/5
f 8/6/6 4/27/6 2/28/6 6/14/6
f 17/29/7 22/30/7 15/31/7 14/32/7
f 15/31/8 22/30/8 20/33/8 11/34/8
f 11/34/9 20/33/9 19/35/9 10/36/9
f 10/36/10 19/35/10 18/37/10 9/38/10
f 13/39/11 9/38/11 18/37/11 21/40/11
f 12/41/12 13/39/12 21/40/12 16/42/12
o Transversal.006
v -0.060281 0.310750 0.164199
v -0.060281 0.188070 0.164237
v -0.020281 0.310750 0.164177
v -0.020281 0.188072 0.164256
v -0.060179 0.187942 -0.170044
v -0.020179 0.310871 -0.169959
v -0.060179 0.310870 -0.169941
v -0.020179 0.187941 -0.170062
vn -0.0005 0.0008 -1.0000
vn 1.0000 -0.0000 0.0003
vn -0.0000 -1.0000 0.0004
vn -0.0000 0.0005 1.0000
vn -0.0000 1.0000 0.0004
vn -1.0000 -0.0000 -0.0003
vt 0.684635 0.498055
vt 0.308621 0.498055
vt 0.372028 0.814649
vt 0.687822 0.748055
vt 0.786050 0.748055
vt 0.781132 0.498055
vt 0.372028 0.434647
vt 0.622028 0.435447
vt 0.622028 0.338950
vt 0.372028 0.339977
vt 0.372028 0.911050
vt 0.213950 0.498055
vt 0.622028 0.912076
vt 0.622028 0.813849
vt 0.209033 0.748055
vt 0.305434 0.748055
s 0
f 30/43/13 27/44/13 29/45/13 28/46/13
f 28/46/14 25/47/14 26/48/14 30/43/14
f 27/49/15 30/50/15 26/51/15 24/52/15
f 26/48/16 25/47/16 23/53/16 24/54/16
f 23/53/17 25/55/17 28/56/17 29/45/17
f 23/57/18 29/58/18 27/44/18 24/54/18
o Transversal.009
v -0.060281 0.934703 0.164199
v -0.060281 0.812023 0.164237
v -0.020281 0.934703 0.164177
v -0.020281 0.812025 0.164256
v -0.060179 0.811896 -0.170044
v -0.020179 0.934824 -0.169959
v -0.060179 0.934823 -0.169941
v -0.020179 0.811895 -0.170062
vn -0.0005 0.0008 -1.0000
vn 1.0000 -0.0000 0.0003
vn -0.0000 -1.0000 0.0004
vn -0.0000 0.0005 1.0000
vn -0.0000 1.0000 0.0004
vn -1.0000 -0.0000 -0.0003
vt 0.684635 0.498055
vt 0.308621 0.498055
vt 0.372028 0.814649
vt 0.687822 0.748055
vt 0.786050 0.748055
vt 0.781132 0.498055
vt 0.372028 0.434647
vt 0.622028 0.435447
vt 0.622028 0.338950
vt 0.372028 0.339977
vt 0.372028 0.911050
vt 0.213950 0.498055
vt 0.622028 0.912076
vt 0.622028 0.813849
vt 0.209033 0.748055
vt 0.305434 0.748055
s 0
f 38/59/19 35/60/19 37/61/19 36/62/19
f 36/62/20 33/63/20 34/64/20 38/59/20
f 35/65/21 38/66/21 34/67/21 32/68/21
f 34/64/22 33/63/22 31/69/22 32/70/22
f 31/69/23 33/71/23 36/72/23 37/61/23
f 31/73/24 37/74/24 35/60/24 32/70/24
