# Blender 4.4.3
# www.blender.org
o Plance_Alta
v 0.027666 0.000000 0.112783
v 0.019754 1.290203 0.162107
v -0.012334 0.000000 0.112783
v -0.032246 1.290203 0.162107
v 0.027666 0.000000 -0.121664
v 0.019754 1.291425 -0.118660
v -0.012334 0.000000 -0.121664
v -0.032246 1.291425 -0.118660
v -0.032246 1.291185 -0.063672
v -0.030513 1.178604 0.001830
v -0.032246 1.290617 0.067001
v 0.019754 1.290617 0.067001
v 0.020442 1.178604 0.001830
v 0.019754 1.291185 -0.063672
vn -0.0000 -0.0382 0.9993
vn -0.9999 -0.0154 -0.0000
vn -0.0000 0.0023 -1.0000
vn 1.0000 0.0061 -0.0000
vn -0.0000 -1.0000 -0.0000
vn -0.0000 1.0000 0.0044
vn -0.0000 0.5029 -0.8643
vn -0.0000 0.5029 0.8643
vt 0.375000 0.000000
vt 0.625000 0.000000
vt 0.625000 0.250000
vt 0.375000 0.250000
vt 0.625000 0.451038
vt 0.625000 0.500000
vt 0.375000 0.500000
vt 0.625000 0.334684
vt 0.603253 0.390822
vt 0.625000 0.750000
vt 0.375000 0.750000
vt 0.625000 0.915316
vt 0.625000 1.000000
vt 0.375000 1.000000
vt 0.625000 0.798962
vt 0.603253 0.859177
vt 0.125000 0.500000
vt 0.125000 0.750000
vt 0.790316 0.500000
vt 0.875000 0.500000
vt 0.875000 0.750000
vt 0.790316 0.750000
vt 0.673962 0.750000
vt 0.673962 0.500000
vt 0.414602 0.870062
vt 0.375000 0.869890
vt 0.375000 0.882628
vt 0.414602 0.883062
vt 0.241938 0.710197
vt 0.242372 0.750000
vt 0.255110 0.750000
vt 0.254938 0.710197
s 0
f 1/1/1 2/2/1 4/3/1 3/4/1
f 9/5/2 8/6/2 7/7/2 3/4/2 4/3/2 11/8/2 10/9/2
f 7/7/3 8/6/3 6/10/3 5/11/3
f 12/12/4 2/13/4 1/14/4 5/11/4 6/10/4 14/15/4 13/16/4
f 3/17/5 7/7/5 5/11/5 1/18/5
f 11/19/6 4/20/6 2/21/6 12/22/6
f 14/23/6 6/10/6 8/6/6 9/24/6
f 12/25/7 13/26/7 10/27/7 11/28/7
f 9/29/8 10/30/8 13/31/8 14/32/8
o Transversal.004
v -0.060281 0.310750 0.166183
v -0.060281 0.188070 0.166221
v -0.020281 0.310750 0.166161
v -0.020281 0.188072 0.166240
v -0.060179 0.187942 -0.168060
v -0.020179 0.310871 -0.167975
v -0.060179 0.310870 -0.167957
v -0.020179 0.187941 -0.168078
vn -0.0005 0.0008 -1.0000
vn 1.0000 -0.0000 0.0003
vn -0.0000 -1.0000 0.0004
vn -0.0000 0.0005 1.0000
vn -0.0000 1.0000 0.0004
vn -1.0000 -0.0000 -0.0003
vt 0.684635 0.498055
vt 0.308621 0.498055
vt 0.372028 0.814649
vt 0.687822 0.748055
vt 0.786050 0.748055
vt 0.781132 0.498055
vt 0.372028 0.434647
vt 0.622028 0.435447
vt 0.622028 0.338950
vt 0.372028 0.339977
vt 0.372028 0.911050
vt 0.213950 0.498055
vt 0.622028 0.912076
vt 0.622028 0.813849
vt 0.209033 0.748055
vt 0.305434 0.748055
s 0
f 22/33/9 19/34/9 21/35/9 20/36/9
f 20/36/10 17/37/10 18/38/10 22/33/10
f 19/39/11 22/40/11 18/41/11 16/42/11
f 18/38/12 17/37/12 15/43/12 16/44/12
f 15/43/13 17/45/13 20/46/13 21/35/13
f 15/47/14 21/48/14 19/34/14 16/44/14
o Transversal.008
v -0.060281 0.934703 0.166183
v -0.060281 0.812023 0.166221
v -0.020281 0.934703 0.166161
v -0.020281 0.812025 0.166240
v -0.060179 0.811896 -0.168060
v -0.020179 0.934824 -0.167975
v -0.060179 0.934823 -0.167957
v -0.020179 0.811895 -0.168078
vn -0.0005 0.0008 -1.0000
vn 1.0000 -0.0000 0.0003
vn -0.0000 -1.0000 0.0004
vn -0.0000 0.0005 1.0000
vn -0.0000 1.0000 0.0004
vn -1.0000 -0.0000 -0.0003
vt 0.684635 0.498055
vt 0.308621 0.498055
vt 0.372028 0.814649
vt 0.687822 0.748055
vt 0.786050 0.748055
vt 0.781132 0.498055
vt 0.372028 0.434647
vt 0.622028 0.435447
vt 0.622028 0.338950
vt 0.372028 0.339977
vt 0.372028 0.911050
vt 0.213950 0.498055
vt 0.622028 0.912076
vt 0.622028 0.813849
vt 0.209033 0.748055
vt 0.305434 0.748055
s 0
f 30/49/15 27/50/15 29/51/15 28/52/15
f 28/52/16 25/53/16 26/54/16 30/49/16
f 27/55/17 30/56/17 26/57/17 24/58/17
f 26/54/18 25/53/18 23/59/18 24/60/18
f 23/59/19 25/61/19 28/62/19 29/51/19
f 23/63/20 29/64/20 27/50/20 24/60/20
