# Blender 4.4.3
# www.blender.org
o Bajo2
v -0.142758 0.000062 0.502275
v -0.070084 0.444598 0.303141
v -0.144264 0.000664 -0.424242
v -0.075171 0.496363 -0.284696
v 0.167651 0.000062 0.398924
v 0.106918 0.437341 0.247093
v 0.157071 -0.000967 -0.502433
v 0.081192 0.529115 -0.295213
v -0.161342 0.000062 -0.005313
v -0.134798 0.276096 0.468517
v -0.098595 0.518727 -0.000334
v -0.136656 0.277085 -0.397308
v 0.005604 -0.000147 -0.463130
v -0.011628 0.535191 -0.351584
v 0.150384 0.275532 -0.471789
v 0.178918 0.000062 -0.056275
v 0.116901 0.518727 -0.000334
v 0.150308 0.276096 0.419687
v 0.009543 0.000062 0.502181
v 0.006233 0.457280 0.316143
v 0.003577 0.537758 -0.002550
v 0.006233 0.000062 -0.005313
v 0.008367 0.276096 0.471465
v 0.150308 0.276096 -0.005313
v 0.006864 0.276309 -0.434548
v -0.137841 0.276096 -0.005313
vn -0.9738 0.2232 -0.0425
vn 0.0849 0.4617 -0.8830
vn 0.9786 0.2023 0.0390
vn -0.0921 0.6819 0.7256
vn -0.0000 -1.0000 -0.0000
vn -0.1839 0.9517 0.2457
vn 0.2532 0.9293 0.2690
vn 0.1202 0.9927 0.0026
vn -0.3447 0.9378 -0.0414
vn -0.0026 -1.0000 -0.0005
vn -0.0021 -1.0000 0.0014
vn -0.0096 0.1161 0.9932
vn 0.4588 0.0314 0.8880
vn 0.3755 0.6666 0.6440
vn 0.9966 0.0813 0.0128
vn 0.9974 0.0673 -0.0239
vn 0.9752 0.2173 -0.0428
vn -0.2494 0.1007 -0.9632
vn -0.4708 0.3699 -0.8010
vn -0.9981 0.0573 -0.0224
vn -0.9981 0.0582 0.0220
vn -0.9612 0.2682 0.0646
vt 0.500000 0.125000
vt 0.625000 0.125000
vt 0.625000 0.250000
vt 0.500000 0.250000
vt 0.500000 0.375000
vt 0.625000 0.375000
vt 0.625000 0.500000
vt 0.500000 0.500000
vt 0.500000 0.625000
vt 0.625000 0.625000
vt 0.625000 0.750000
vt 0.500000 0.750000
vt 0.500000 0.875000
vt 0.625000 0.875000
vt 0.625000 1.000000
vt 0.500000 1.000000
vt 0.250000 0.625000
vt 0.375000 0.625000
vt 0.375000 0.750000
vt 0.250000 0.750000
vt 0.750000 0.625000
vt 0.875000 0.625000
vt 0.875000 0.750000
vt 0.750000 0.750000
vt 0.750000 0.500000
vt 0.875000 0.500000
vt 0.125000 0.625000
vt 0.125000 0.750000
vt 0.125000 0.500000
vt 0.250000 0.500000
vt 0.375000 0.500000
vt 0.375000 0.875000
vt 0.375000 1.000000
vt 0.375000 0.375000
vt 0.375000 0.250000
vt 0.375000 0.125000
vt 0.375000 0.000000
vt 0.500000 0.000000
vt 0.625000 0.000000
s 0
f 26/1/1 11/2/1 4/3/1 12/4/1
f 25/5/2 14/6/2 8/7/2 15/8/2
f 24/9/3 17/10/3 6/11/3 18/12/3
f 23/13/4 20/14/4 2/15/4 10/16/4
f 22/17/5 16/18/5 5/19/5 19/20/5
f 21/21/6 11/22/6 2/23/6 20/24/6
f 17/10/7 21/21/7 20/24/7 6/11/7
f 8/7/8 14/25/8 21/21/8 17/10/8
f 14/25/9 4/26/9 11/22/9 21/21/9
f 9/27/5 22/17/5 19/20/5 1/28/5
f 3/29/10 13/30/10 22/17/10 9/27/10
f 13/30/11 7/31/11 16/18/11 22/17/11
f 19/32/12 23/13/12 10/16/12 1/33/12
f 5/19/13 18/12/13 23/13/13 19/32/13
f 18/12/14 6/11/14 20/14/14 23/13/14
f 16/18/15 24/9/15 18/12/15 5/19/15
f 7/31/16 15/8/16 24/9/16 16/18/16
f 15/8/17 8/7/17 17/10/17 24/9/17
f 13/34/18 25/5/18 15/8/18 7/31/18
f 3/35/18 12/4/18 25/5/18 13/34/18
f 12/4/19 4/3/19 14/6/19 25/5/19
f 9/36/20 26/1/20 12/4/20 3/35/20
f 1/37/21 10/38/21 26/1/21 9/36/21
f 10/38/22 2/39/22 11/2/22 26/1/22
