# Blender 4.4.3
# www.blender.org
o Bajo1
v -0.145623 0.000083 0.499723
v -0.069412 0.613597 0.348450
v -0.142830 0.000083 -0.500277
v -0.074450 0.606516 -0.297620
v 0.163758 0.000083 0.499723
v 0.105891 0.596899 0.289876
v 0.156766 0.000083 -0.500277
v 0.080413 0.648213 -0.317081
v -0.150324 0.000083 0.003142
v -0.136518 0.366859 0.466054
v -0.097649 0.672236 0.003142
v -0.136518 0.366859 -0.459769
v 0.006173 0.000083 -0.500277
v -0.011516 0.648995 -0.379313
v 0.148865 0.366859 -0.459769
v 0.170237 0.000083 0.003142
v 0.115779 0.672236 0.003142
v 0.148865 0.366859 0.466054
v 0.006173 0.000083 0.499723
v 0.006173 0.631923 0.359307
v 0.003542 0.696961 -0.003970
v 0.006173 0.000083 0.003142
v 0.006173 0.366859 0.466054
v 0.148865 0.366859 0.003142
v 0.006173 0.366859 -0.459769
v -0.136518 0.366859 0.003142
vn -0.9796 0.1953 -0.0466
vn 0.2374 0.3888 -0.8902
vn 0.9883 0.1496 0.0281
vn -0.0795 0.4089 0.9091
vn -0.0000 -1.0000 -0.0000
vn -0.2364 0.9554 0.1771
vn 0.3206 0.9251 0.2034
vn 0.1609 0.9805 -0.1131
vn -0.4445 0.8825 -0.1537
vn -0.0000 0.0914 0.9958
vn 0.3047 0.4924 0.8153
vn 0.9987 0.0497 0.0067
vn 0.9991 0.0406 -0.0139
vn 0.9820 0.1821 -0.0499
vn -0.0000 0.1098 -0.9940
vn -0.4087 0.4131 -0.8138
vn -0.9996 0.0278 -0.0078
vn -0.9995 0.0314 0.0049
vn -0.9789 0.1983 0.0486
vt 0.500000 0.125000
vt 0.625000 0.125000
vt 0.625000 0.250000
vt 0.500000 0.250000
vt 0.500000 0.375000
vt 0.625000 0.375000
vt 0.625000 0.500000
vt 0.500000 0.500000
vt 0.500000 0.625000
vt 0.625000 0.625000
vt 0.625000 0.750000
vt 0.500000 0.750000
vt 0.500000 0.875000
vt 0.625000 0.875000
vt 0.625000 1.000000
vt 0.500000 1.000000
vt 0.250000 0.625000
vt 0.375000 0.625000
vt 0.375000 0.750000
vt 0.250000 0.750000
vt 0.750000 0.625000
vt 0.875000 0.625000
vt 0.875000 0.750000
vt 0.750000 0.750000
vt 0.750000 0.500000
vt 0.875000 0.500000
vt 0.125000 0.625000
vt 0.125000 0.750000
vt 0.125000 0.500000
vt 0.250000 0.500000
vt 0.375000 0.500000
vt 0.375000 0.875000
vt 0.375000 1.000000
vt 0.375000 0.375000
vt 0.375000 0.250000
vt 0.375000 0.125000
vt 0.375000 0.000000
vt 0.500000 0.000000
vt 0.625000 0.000000
s 0
f 26/1/1 11/2/1 4/3/1 12/4/1
f 25/5/2 14/6/2 8/7/2 15/8/2
f 24/9/3 17/10/3 6/11/3 18/12/3
f 23/13/4 20/14/4 2/15/4 10/16/4
f 22/17/5 16/18/5 5/19/5 19/20/5
f 21/21/6 11/22/6 2/23/6 20/24/6
f 17/10/7 21/21/7 20/24/7 6/11/7
f 8/7/8 14/25/8 21/21/8 17/10/8
f 14/25/9 4/26/9 11/22/9 21/21/9
f 9/27/5 22/17/5 19/20/5 1/28/5
f 3/29/5 13/30/5 22/17/5 9/27/5
f 13/30/5 7/31/5 16/18/5 22/17/5
f 19/32/10 23/13/10 10/16/10 1/33/10
f 5/19/10 18/12/10 23/13/10 19/32/10
f 18/12/11 6/11/11 20/14/11 23/13/11
f 16/18/12 24/9/12 18/12/12 5/19/12
f 7/31/13 15/8/13 24/9/13 16/18/13
f 15/8/14 8/7/14 17/10/14 24/9/14
f 13/34/15 25/5/15 15/8/15 7/31/15
f 3/35/15 12/4/15 25/5/15 13/34/15
f 12/4/16 4/3/16 14/6/16 25/5/16
f 9/36/17 26/1/17 12/4/17 3/35/17
f 1/37/18 10/38/18 26/1/18 9/36/18
f 10/38/19 2/39/19 11/2/19 26/1/19
