# Blender 4.4.3
# www.blender.org
o Columna
v -0.168340 0.000056 0.158021
v -0.090195 0.894265 0.156450
v -0.165024 0.000056 -0.153697
v -0.118631 0.947993 -0.099108
v 0.198927 0.000056 0.158021
v 0.178360 0.877642 0.169547
v 0.190627 0.000056 -0.153697
v 0.123978 0.959650 -0.107069
v -0.221479 0.000056 0.004009
v -0.198247 0.770056 0.227635
v -0.145601 0.978205 0.004009
v -0.207688 0.770056 -0.213232
v 0.010816 0.000056 -0.227868
v -0.020176 0.962364 -0.151096
v 0.223269 0.770056 -0.164922
v 0.241892 0.000056 0.004009
v 0.180087 0.978205 0.004009
v 0.232883 0.770056 0.233819
v 0.010816 0.000056 0.232192
v 0.010816 0.920378 0.171221
v 0.006206 0.995059 0.000167
v 0.010816 0.000056 0.004009
v 0.010816 0.770056 0.254009
v 0.260816 0.770056 0.004009
v 0.010816 0.770056 -0.245991
v -0.239184 0.770056 0.004009
vn -0.8612 0.4668 -0.2012
vn 0.3001 0.4407 -0.8460
vn 0.8921 0.4174 0.1731
vn -0.1553 0.5290 0.8343
vn -0.0000 -1.0000 -0.0000
vn -0.1681 0.8724 0.4590
vn 0.1502 0.8774 0.4555
vn 0.0927 0.9713 -0.2189
vn -0.1721 0.9562 -0.2369
vn -0.2502 -0.0622 0.9662
vn 0.2237 -0.0666 0.9724
vn 0.1038 0.5091 0.8544
vn 0.9825 -0.0427 0.1815
vn 0.9644 -0.0342 -0.2622
vn 0.8477 0.4290 -0.3120
vn 0.3679 -0.0255 -0.9295
vn -0.2613 -0.0558 -0.9636
vn -0.2442 0.5055 -0.8276
vn -0.9725 -0.0469 -0.2281
vn -0.9695 -0.0409 0.2415
vn -0.7781 0.5406 0.3200
vt 0.500000 0.125000
vt 0.625000 0.125000
vt 0.625000 0.250000
vt 0.500000 0.250000
vt 0.500000 0.375000
vt 0.625000 0.375000
vt 0.625000 0.500000
vt 0.500000 0.500000
vt 0.500000 0.625000
vt 0.625000 0.625000
vt 0.625000 0.750000
vt 0.500000 0.750000
vt 0.500000 0.875000
vt 0.625000 0.875000
vt 0.625000 1.000000
vt 0.500000 1.000000
vt 0.250000 0.625000
vt 0.375000 0.625000
vt 0.375000 0.750000
vt 0.250000 0.750000
vt 0.750000 0.625000
vt 0.875000 0.625000
vt 0.875000 0.750000
vt 0.750000 0.750000
vt 0.750000 0.500000
vt 0.875000 0.500000
vt 0.125000 0.625000
vt 0.125000 0.750000
vt 0.125000 0.500000
vt 0.250000 0.500000
vt 0.375000 0.500000
vt 0.375000 0.875000
vt 0.375000 1.000000
vt 0.375000 0.375000
vt 0.375000 0.250000
vt 0.375000 0.125000
vt 0.375000 0.000000
vt 0.500000 0.000000
vt 0.625000 0.000000
s 0
f 26/1/1 11/2/1 4/3/1 12/4/1
f 25/5/2 14/6/2 8/7/2 15/8/2
f 24/9/3 17/10/3 6/11/3 18/12/3
f 23/13/4 20/14/4 2/15/4 10/16/4
f 22/17/5 16/18/5 5/19/5 19/20/5
f 21/21/6 11/22/6 2/23/6 20/24/6
f 17/10/7 21/21/7 20/24/7 6/11/7
f 8/7/8 14/25/8 21/21/8 17/10/8
f 14/25/9 4/26/9 11/22/9 21/21/9
f 9/27/5 22/17/5 19/20/5 1/28/5
f 3/29/5 13/30/5 22/17/5 9/27/5
f 13/30/5 7/31/5 16/18/5 22/17/5
f 19/32/10 23/13/10 10/16/10 1/33/10
f 5/19/11 18/12/11 23/13/11 19/32/11
f 18/12/12 6/11/12 20/14/12 23/13/12
f 16/18/13 24/9/13 18/12/13 5/19/13
f 7/31/14 15/8/14 24/9/14 16/18/14
f 15/8/15 8/7/15 17/10/15 24/9/15
f 13/34/16 25/5/16 15/8/16 7/31/16
f 3/35/17 12/4/17 25/5/17 13/34/17
f 12/4/18 4/3/18 14/6/18 25/5/18
f 9/36/19 26/1/19 12/4/19 3/35/19
f 1/37/20 10/38/20 26/1/20 9/36/20
f 10/38/21 2/39/21 11/2/21 26/1/21
