# Blender 4.4.3
# www.blender.org
mtllib Bush Segment 1.mtl
o Bush_Part
v -0.387962 0.000017 -0.766044
v -0.387962 0.850935 -0.766044
v 0.387962 -0.000419 -0.766044
v 0.387962 0.850935 -0.766044
v -0.382840 0.000351 0.057921
v -0.347756 0.814240 -0.051885
v 0.393780 0.000787 0.058570
v 0.315960 0.886666 -0.077508
v 0.154160 0.000492 -0.840564
v -0.154160 0.000274 -0.840564
v -0.462481 0.308813 -0.840564
v -0.462481 0.617134 -0.840564
v -0.154160 0.925454 -0.840564
v 0.154160 0.925454 -0.840564
v 0.462481 0.617134 -0.840564
v 0.462481 0.308813 -0.840564
v 0.462481 0.000492 -0.223922
v 0.462481 0.000492 -0.532243
v 0.462481 0.925454 -0.532243
v 0.462481 0.925454 -0.242455
v 0.425851 0.563265 0.073729
v 0.462481 0.237551 -0.023351
v 0.136505 0.925454 -0.002988
v -0.124857 0.925454 -0.002988
v -0.424239 0.543305 0.052781
v -0.457360 0.240254 0.057921
v -0.462481 0.000274 -0.532243
v -0.462481 0.000274 -0.223922
v -0.462481 0.925454 -0.242455
v -0.462481 0.925454 -0.532243
v 0.202606 1.036815 -0.194009
v -0.202606 1.036815 -0.194009
v 0.202606 1.070793 -0.580689
v -0.202607 1.070793 -0.580689
v -0.607820 0.195433 -0.175476
v -0.607820 0.260367 -0.580689
v -0.607820 0.429138 -0.175476
v -0.607820 0.665580 -0.580689
v 0.169556 0.687505 0.108319
v -0.163732 0.687505 0.108319
v 0.607819 0.260367 -0.580689
v 0.607820 0.188387 -0.175476
v 0.607819 0.665580 -0.580689
v 0.607820 0.665580 -0.175476
v -0.202607 0.260367 -0.985902
v 0.202606 0.260367 -0.985902
v -0.202607 0.665580 -0.985902
v 0.202606 0.665580 -0.985902
v -0.387962 0.002326 0.837345
v -0.275576 0.597994 0.847330
v 0.387962 0.001993 0.837345
v 0.275576 0.597994 0.847330
v 0.462481 0.002688 0.603543
v 0.462481 0.002688 0.295222
v 0.462481 0.709431 0.295222
v 0.462481 0.709431 0.603543
v 0.325629 0.470368 0.887596
v 0.325629 0.304498 0.887596
v -0.154160 0.002522 0.911864
v 0.154160 0.002688 0.911864
v 0.109503 0.638438 0.887255
v -0.109503 0.638438 0.887255
v -0.325628 0.470368 0.887596
v -0.325628 0.304498 0.887596
v -0.462481 0.002522 0.295222
v -0.462481 0.002522 0.603543
v -0.462481 0.709431 0.603543
v -0.462481 0.709431 0.295222
v 0.153979 0.867986 0.603362
v -0.153979 0.867986 0.603362
v 0.153979 0.847855 0.295403
v -0.153979 0.847855 0.295403
v -0.564742 0.201253 0.651989
v -0.564742 0.201253 0.246776
v -0.564742 0.510867 0.651989
v -0.564742 0.510867 0.246776
v 0.142653 0.278435 0.964782
v -0.142653 0.278435 0.964782
v 0.142653 0.496431 0.964782
v -0.142653 0.496431 0.964782
v 0.528498 0.201253 0.246776
v 0.528498 0.201253 0.651989
v 0.528498 0.510867 0.246776
v 0.528498 0.510867 0.651989
vn 0.4544 0.4544 -0.7662
vn 0.5898 0.4964 0.6369
vn -0.4031 0.4334 0.8060
vn -0.7662 0.4544 -0.4544
vn -0.4544 0.7662 -0.4544
vn -0.4304 0.6682 0.6068
vn -0.4424 0.8957 0.0450
vn 0.4038 0.7313 0.5497
vn -0.0000 0.8639 0.5036
vn 0.4424 0.8957 0.0450
vn -0.0000 0.9962 0.0875
vn 0.4544 0.7662 -0.4544
vn -0.0000 0.8728 -0.4881
vn -0.8201 -0.4044 -0.4047
vn -0.8728 -0.0000 -0.4881
vn -0.8007 -0.4488 0.3967
vn -0.8418 -0.5375 -0.0489
vn -0.8179 0.0560 0.5726
vn -1.0000 -0.0000 -0.0000
vn -0.7662 0.3431 0.5433
vn -0.9254 0.3587 0.1220
vn 0.3757 0.4694 0.7991
vn -0.0000 0.4237 0.9058
vn 0.8139 -0.3753 0.4435
vn 0.7769 -0.0405 0.6283
vn 0.8204 -0.4043 -0.4043
vn 0.8375 -0.5437 -0.0548
vn 0.8728 -0.0000 -0.4881
vn 1.0000 -0.0000 -0.0000
vn 0.7662 0.4544 -0.4544
vn 0.8728 0.4881 -0.0000
vn 0.4043 -0.4043 -0.8204
vn 0.4881 -0.0000 -0.8728
vn -0.4047 -0.4044 -0.8201
vn 0.0001 -0.4880 -0.8729
vn -0.4881 -0.0000 -0.8728
vn -0.0000 -0.0000 -1.0000
vn -0.4544 0.4544 -0.7662
vn -0.0000 0.4881 -0.8728
vn 0.6421 0.4054 0.6506
vn -0.3600 0.4645 0.8091
vn -0.7417 0.4930 -0.4548
vn -0.3130 0.7460 -0.5878
vn -0.3489 0.7099 0.6118
vn -0.4335 0.9007 -0.0294
vn 0.3489 0.7099 0.6118
vn -0.0000 0.7776 0.6288
vn 0.4335 0.9007 -0.0294
vn -0.0000 0.9979 -0.0652
vn 0.3139 0.7517 -0.5801
vn -0.0000 0.7593 -0.6508
vn -0.8343 -0.3803 -0.3990
vn -0.8422 0.0410 -0.5376
vn -0.8000 -0.1767 0.5733
vn -0.8892 -0.4575 -0.0000
vn -0.7019 -0.0000 0.7123
vn -0.5884 0.4563 0.6675
vn -0.8890 0.4578 -0.0000
vn -0.3462 -0.1218 0.9302
vn -0.3887 -0.0000 0.9214
vn 0.3460 -0.1218 0.9303
vn 0.0001 -0.1884 0.9821
vn 0.3887 -0.0000 0.9214
vn -0.0000 -0.0000 1.0000
vn 0.3600 0.4645 0.8091
vn -0.0000 0.4792 0.8777
vn 0.8451 -0.1093 0.5233
vn 0.7578 -0.0000 0.6525
vn 0.8968 -0.3561 -0.2626
vn 0.9489 -0.3155 -0.0000
vn 0.9362 0.1052 -0.3353
vn 0.8428 0.3745 -0.3865
vn 0.9489 0.3155 -0.0000
vt 0.558821 0.812330
vt 0.625377 0.795659
vt 0.592452 0.876084
vt 0.525876 0.901722
vt 0.900026 0.000000
vt 0.988655 0.047772
vt 0.980926 0.098385
vt 0.873018 0.063298
vt 0.921646 0.264947
vt 1.000000 0.249590
vt 0.962529 0.327238
vt 0.873018 0.355818
vt 0.406136 0.095102
vt 0.317706 0.104930
vt 0.343796 0.021908
vt 0.423717 0.000000
vt 0.084763 0.676198
vt 0.000000 0.692863
vt 0.027745 0.612437
vt 0.105668 0.586802
vt 0.287053 0.702943
vt 0.218291 0.676198
vt 0.204983 0.586802
vt 0.273587 0.626267
vt 0.262662 0.854582
vt 0.204983 0.904985
vt 0.218291 0.815589
vt 0.287053 0.792851
vt 0.105668 0.904985
vt 0.084763 0.815589
vt 0.027745 0.879351
vt 0.000000 0.798924
vt 0.635906 0.105621
vt 0.545502 0.095405
vt 0.529759 0.000230
vt 0.636456 0.022544
vt 0.636456 0.303347
vt 0.553461 0.306501
vt 0.567875 0.233660
vt 0.635937 0.210781
vt 0.449446 0.303040
vt 0.487496 0.233486
vt 0.356749 0.263717
vt 0.317734 0.203768
vt 0.997728 0.159711
vt 0.918749 0.150334
vt 0.317706 0.376403
vt 0.255904 0.354327
vt 0.236281 0.307314
vt 0.316311 0.282170
vt 0.091998 0.353403
vt 0.123715 0.274760
vt 0.316615 0.564536
vt 0.211804 0.586802
vt 0.231181 0.492839
vt 0.317706 0.481901
vt 0.105902 0.586205
vt 0.091998 0.492055
vt 0.024193 0.562887
vt 0.000000 0.480110
vt 0.000000 0.380953
vt 0.326875 0.795667
vt 0.428052 0.812333
vt 0.426376 0.901725
vt 0.317706 0.876092
vt 0.317846 0.609178
vt 0.426376 0.583542
vt 0.428052 0.672942
vt 0.326805 0.689606
vt 0.525876 0.583540
vt 0.558821 0.672938
vt 0.592452 0.609170
vt 0.625377 0.689598
vt 0.703302 0.376069
vt 0.636456 0.353359
vt 0.668326 0.289066
vt 0.711052 0.306284
vt 0.700101 0.145198
vt 0.653412 0.156601
vt 0.668326 0.099473
vt 0.711053 0.082255
vt 0.459709 0.375516
vt 0.392085 0.387317
vt 0.697401 0.689545
vt 0.638120 0.684854
vt 0.625377 0.594931
vt 0.703826 0.583540
vt 0.906041 0.709549
vt 0.802322 0.691909
vt 0.809466 0.585920
vt 0.894845 0.652154
vt 0.890574 0.841700
vt 0.802299 0.904022
vt 0.799936 0.797818
vt 0.904344 0.784867
vt 0.696659 0.901642
vt 0.695015 0.795454
vt 0.625377 0.887432
vt 0.635538 0.799474
vt 0.635215 0.387845
vt 0.566196 0.375748
vt 0.635821 0.569414
vt 0.532304 0.583540
vt 0.566236 0.513955
vt 0.635246 0.493005
vt 0.767947 0.082255
vt 0.703302 0.000000
vt 0.809501 0.000000
vt 0.459749 0.513723
vt 0.636456 0.035177
vt 0.392116 0.492477
vt 0.870894 0.141239
vt 0.774875 0.145198
vt 0.872904 0.060812
vt 0.873018 0.327726
vt 0.767947 0.306284
vt 0.774875 0.243342
vt 0.870837 0.247300
vt 0.700101 0.243342
vt 0.653412 0.231938
vt 0.316951 0.093265
vt 0.249991 0.073971
vt 0.210709 0.000321
vt 0.315787 0.015900
vt 0.143645 0.073371
vt 0.153736 0.000000
vt 0.249991 0.212623
vt 0.316951 0.198763
vt 0.143645 0.212023
vt 0.074200 0.197394
vt 0.074200 0.091896
s 0
f 48/1/1 14/2/1 4/3/1 15/4/1
f 44/5/2 20/6/2 8/7/2 21/8/2
f 40/9/3 24/10/3 6/11/3 25/12/3
f 38/13/4 30/14/4 2/15/4 12/16/4
f 34/17/5 13/18/5 2/19/5 30/20/5
f 24/21/6 32/22/6 29/23/6 6/24/6
f 32/22/7 34/17/7 30/20/7 29/23/7
f 8/25/8 20/26/8 31/27/8 23/28/8
f 23/28/9 31/27/9 32/22/9 24/21/9
f 20/26/10 19/29/10 33/30/10 31/27/10
f 31/27/11 33/30/11 34/17/11 32/22/11
f 19/29/12 4/31/12 14/32/12 33/30/12
f 33/30/13 14/32/13 13/18/13 34/17/13
f 27/33/14 36/34/14 11/35/14 1/36/14
f 36/34/15 38/13/15 12/16/15 11/35/15
f 5/37/16 26/38/16 35/39/16 28/40/16
f 28/40/17 35/39/17 36/34/17 27/33/17
f 26/38/18 25/41/18 37/42/18 35/39/18
f 35/39/19 37/42/19 38/13/19 36/34/19
f 25/41/20 6/43/20 29/44/20 37/42/20
f 37/42/21 29/44/21 30/14/21 38/13/21
f 21/8/22 8/7/22 23/45/22 39/46/22
f 39/46/23 23/45/23 24/10/23 40/9/23
f 17/47/24 42/48/24 22/49/24 7/50/24
f 42/48/25 44/51/25 21/52/25 22/49/25
f 3/53/26 16/54/26 41/55/26 18/56/26
f 18/56/27 41/55/27 42/48/27 17/47/27
f 16/54/28 15/57/28 43/58/28 41/55/28
f 41/55/29 43/58/29 44/51/29 42/48/29
f 15/57/30 4/59/30 19/60/30 43/58/30
f 43/58/31 19/60/31 20/61/31 44/51/31
f 9/62/32 46/63/32 16/64/32 3/65/32
f 46/63/33 48/1/33 15/4/33 16/64/33
f 1/66/34 11/67/34 45/68/34 10/69/34
f 10/69/35 45/68/35 46/63/35 9/62/35
f 11/67/36 12/70/36 47/71/36 45/68/36
f 45/68/37 47/71/37 48/1/37 46/63/37
f 12/70/38 2/72/38 13/73/38 47/71/38
f 47/71/39 13/73/39 14/2/39 48/1/39
f 84/74/40 56/75/40 52/76/40 57/77/40
f 80/78/41 62/79/41 50/80/41 63/81/41
f 76/82/42 68/83/42 25/41/42
f 72/84/43 40/85/43 25/86/43 68/87/43
f 62/88/44 70/89/44 67/90/44 50/91/44
f 70/89/45 72/84/45 68/87/45 67/90/45
f 52/92/46 56/93/46 69/94/46 61/95/46
f 61/95/47 69/94/47 70/89/47 62/88/47
f 56/93/48 55/96/48 71/97/48 69/94/48
f 69/94/49 71/97/49 72/84/49 70/89/49
f 55/96/50 21/98/50 39/99/50 71/97/50
f 71/97/51 39/99/51 40/85/51 72/84/51
f 65/100/52 74/101/52 26/38/52 5/37/52
f 74/101/53 76/82/53 25/41/53 26/38/53
f 49/102/54 64/103/54 73/104/54 66/105/54
f 66/105/55 73/104/55 74/101/55 65/100/55
f 64/106/56 63/81/56 75/107/56 73/108/56
f 73/104/19 75/109/19 76/82/19 74/101/19
f 63/81/57 50/80/57 67/110/57 75/107/57
f 75/109/58 67/111/58 68/83/58 76/82/58
f 59/112/59 78/113/59 64/106/59 49/114/59
f 78/113/60 80/78/60 63/81/60 64/106/60
f 51/115/61 58/116/61 77/117/61 60/118/61
f 60/118/62 77/117/62 78/113/62 59/112/62
f 58/116/63 57/77/63 79/119/63 77/117/63
f 77/117/64 79/119/64 80/78/64 78/113/64
f 57/77/65 52/76/65 61/120/65 79/119/65
f 79/119/66 61/120/66 62/79/66 80/78/66
f 53/121/67 82/122/67 58/123/67 51/124/67
f 82/122/68 84/125/68 57/126/68 58/123/68
f 7/50/69 22/49/69 81/127/69 54/128/69
f 54/128/70 81/127/70 82/122/70 53/121/70
f 22/49/71 21/52/71 83/129/71 81/127/71
f 81/127/29 83/129/29 84/125/29 82/122/29
f 21/52/72 55/130/72 83/129/72
f 83/129/73 55/130/73 56/131/73 84/125/73
