# Blender 4.4.3
# www.blender.org
mtllib Bush Node.mtl
o Bush_Base
v -0.387962 0.000017 -0.387962
v -0.387962 0.850935 -0.387962
v 0.387962 -0.000419 -0.387962
v 0.387962 0.850935 -0.387962
v -0.387962 0.000017 0.387962
v -0.387962 0.850935 0.387962
v 0.387962 -0.000419 0.387962
v 0.387962 0.850935 0.387962
v 0.154160 0.000492 -0.462481
v -0.154160 0.000274 -0.462481
v -0.462481 0.308813 -0.462481
v -0.462481 0.617134 -0.462481
v -0.154160 0.925454 -0.462481
v 0.154160 0.925454 -0.462481
v 0.462481 0.617134 -0.462481
v 0.462481 0.308813 -0.462481
v 0.462481 0.000492 0.154160
v 0.462481 0.000492 -0.154160
v 0.462481 0.925454 -0.154160
v 0.462481 0.925454 0.154160
v 0.462481 0.617134 0.462481
v 0.462481 0.308813 0.462481
v -0.154160 0.000274 0.462481
v 0.154160 0.000492 0.462481
v 0.154160 0.925454 0.462481
v -0.154160 0.925454 0.462481
v -0.462481 0.617134 0.462481
v -0.462481 0.308813 0.462481
v -0.462481 0.000274 -0.154160
v -0.462481 0.000274 0.154160
v -0.462481 0.925454 0.154160
v -0.462481 0.925454 -0.154160
v 0.202606 1.070793 0.202606
v -0.202606 1.070793 0.202606
v 0.202606 1.070793 -0.202606
v -0.202606 1.070793 -0.202606
v -0.607820 0.260367 0.202607
v -0.607820 0.260367 -0.202606
v -0.607820 0.665580 0.202607
v -0.607820 0.665580 -0.202606
v 0.202607 0.260367 0.607820
v -0.202606 0.260367 0.607820
v 0.202607 0.665580 0.607820
v -0.202606 0.665580 0.607820
v 0.607820 0.260367 -0.202607
v 0.607820 0.260367 0.202606
v 0.607820 0.665580 -0.202607
v 0.607820 0.665580 0.202606
v -0.202607 0.260367 -0.607820
v 0.202606 0.260367 -0.607820
v -0.202607 0.665580 -0.607820
v 0.202606 0.665580 -0.607820
vn 0.4544 0.4544 -0.7662
vn 0.7662 0.4544 0.4544
vn -0.4544 0.4544 0.7662
vn -0.7662 0.4544 -0.4544
vn -0.4544 0.7662 -0.4544
vn -0.4544 0.7662 0.4544
vn -0.4881 0.8728 -0.0000
vn 0.4544 0.7662 0.4544
vn -0.0000 0.8728 0.4881
vn 0.4881 0.8728 -0.0000
vn -0.0000 1.0000 -0.0000
vn 0.4544 0.7662 -0.4544
vn -0.0000 0.8728 -0.4881
vn -0.8201 -0.4044 -0.4047
vn -0.8728 -0.0000 -0.4881
vn -0.8201 -0.4044 0.4047
vn -0.8730 -0.4878 -0.0000
vn -0.8728 -0.0000 0.4881
vn -1.0000 -0.0000 -0.0000
vn -0.7662 0.4544 0.4544
vn -0.8728 0.4881 -0.0000
vn -0.4047 -0.4044 0.8201
vn -0.4881 -0.0000 0.8728
vn 0.4043 -0.4043 0.8204
vn 0.0001 -0.4880 0.8729
vn 0.4881 -0.0000 0.8728
vn -0.0000 -0.0000 1.0000
vn 0.4544 0.4544 0.7662
vn -0.0000 0.4881 0.8728
vn 0.8204 -0.4043 0.4043
vn 0.8728 -0.0000 0.4881
vn 0.8204 -0.4043 -0.4043
vn 0.8728 -0.4881 -0.0000
vn 0.8728 -0.0000 -0.4881
vn 1.0000 -0.0000 -0.0000
vn 0.7662 0.4544 -0.4544
vn 0.8728 0.4881 -0.0000
vn 0.4043 -0.4043 -0.8204
vn 0.4881 -0.0000 -0.8728
vn -0.4047 -0.4044 -0.8201
vn 0.0001 -0.4880 -0.8729
vn -0.4881 -0.0000 -0.8728
vn -0.0000 -0.0000 -1.0000
vn -0.4544 0.4544 -0.7662
vn -0.0000 0.4881 -0.8728
vt 0.245114 0.095778
vt 0.227261 -0.000000
vt 0.313428 0.027463
vt 0.340891 0.113630
vt 0.412198 0.437002
vt 0.340891 0.454856
vt 0.376165 0.368690
vt 0.447494 0.341226
vt 0.586009 0.095778
vt 0.568152 -0.000000
vt 0.654318 0.027463
vt 0.681783 0.113630
vt 0.741827 0.437002
vt 0.670522 0.454856
vt 0.705797 0.368690
vt 0.777124 0.341226
vt 0.095776 0.586341
vt 0.113630 0.682117
vt 0.027464 0.654653
vt 0.000000 0.568487
vt 0.113630 0.341226
vt 0.095776 0.437002
vt 0.000000 0.454856
vt 0.027464 0.368690
vt 0.313428 0.368690
vt 0.340891 0.454856
vt 0.245115 0.437002
vt 0.227261 0.341226
vt 0.340891 0.568487
vt 0.245115 0.586341
vt 0.313427 0.654653
vt 0.227261 0.682117
vt 0.990402 0.454856
vt 0.881929 0.437002
vt 0.883725 0.341226
vt 1.000000 0.368690
vt 1.000000 0.654653
vt 0.883725 0.682117
vt 0.881928 0.586341
vt 0.990402 0.568487
vt 0.777124 0.682117
vt 0.741827 0.586341
vt 0.705797 0.654653
vt 0.670522 0.568487
vt 0.568152 0.340972
vt 0.586009 0.245117
vt 0.681783 0.227261
vt 0.654318 0.341065
vt 0.368354 0.341226
vt 0.340891 0.227261
vt 0.436669 0.245117
vt 0.454522 0.340891
vt 0.436669 0.095778
vt 0.368354 0.027463
vt 0.454522 -0.000000
vt 0.660699 0.454856
vt 0.552301 0.437002
vt 0.554096 0.341226
vt 0.670522 0.368690
vt 0.670522 0.654653
vt 0.554096 0.682117
vt 0.552301 0.586341
vt 0.660699 0.568487
vt 0.447494 0.682117
vt 0.412198 0.586341
vt 0.376165 0.654653
vt 0.227261 0.340891
vt 0.245114 0.245117
vt 0.313428 0.341226
vt 0.027465 0.341065
vt 0.000000 0.227261
vt 0.095774 0.245117
vt 0.113630 0.340972
vt 0.000000 0.113630
vt 0.095774 0.095778
vt 0.027465 0.027463
vt 0.113630 -0.000000
s 0
f 52/1/1 14/2/1 4/3/1 15/4/1
f 48/5/2 20/6/2 8/7/2 21/8/2
f 44/9/3 26/10/3 6/11/3 27/12/3
f 40/13/4 32/14/4 2/15/4 12/16/4
f 36/17/5 13/18/5 2/19/5 32/20/5
f 26/21/6 34/22/6 31/23/6 6/24/6
f 34/22/7 36/17/7 32/20/7 31/23/7
f 8/25/8 20/26/8 33/27/8 25/28/8
f 25/28/9 33/27/9 34/22/9 26/21/9
f 20/26/10 19/29/10 35/30/10 33/27/10
f 33/27/11 35/30/11 36/17/11 34/22/11
f 19/29/12 4/31/12 14/32/12 35/30/12
f 35/30/13 14/32/13 13/18/13 36/17/13
f 29/33/14 38/34/14 11/35/14 1/36/14
f 38/34/15 40/13/15 12/16/15 11/35/15
f 5/37/16 28/38/16 37/39/16 30/40/16
f 30/40/17 37/39/17 38/34/17 29/33/17
f 28/38/18 27/41/18 39/42/18 37/39/18
f 37/39/19 39/42/19 40/13/19 38/34/19
f 27/41/20 6/43/20 31/44/20 39/42/20
f 39/42/21 31/44/21 32/14/21 40/13/21
f 23/45/22 42/46/22 28/47/22 5/48/22
f 42/46/23 44/9/23 27/12/23 28/47/23
f 7/49/24 22/50/24 41/51/24 24/52/24
f 24/52/25 41/51/25 42/46/25 23/45/25
f 22/50/26 21/4/26 43/53/26 41/51/26
f 41/51/27 43/53/27 44/9/27 42/46/27
f 21/4/28 8/54/28 25/55/28 43/53/28
f 43/53/29 25/55/29 26/10/29 44/9/29
f 17/56/30 46/57/30 22/58/30 7/59/30
f 46/57/31 48/5/31 21/8/31 22/58/31
f 3/60/32 16/61/32 45/62/32 18/63/32
f 18/63/33 45/62/33 46/57/33 17/56/33
f 16/61/34 15/64/34 47/65/34 45/62/34
f 45/62/35 47/65/35 48/5/35 46/57/35
f 15/64/36 4/66/36 19/29/36 47/65/36
f 47/65/37 19/29/37 20/6/37 48/5/37
f 9/67/38 50/68/38 16/50/38 3/69/38
f 50/68/39 52/1/39 15/4/39 16/50/39
f 1/70/40 11/71/40 49/72/40 10/73/40
f 10/73/41 49/72/41 50/68/41 9/67/41
f 11/71/42 12/74/42 51/75/42 49/72/42
f 49/72/43 51/75/43 52/1/43 50/68/43
f 12/74/44 2/76/44 13/77/44 51/75/44
f 51/75/45 13/77/45 14/2/45 52/1/45
