# Blender 4.4.3
# www.blender.org
mtllib Bush Segment 2.mtl
o Bush_Part.001
v 0.387962 0.000017 0.766044
v 0.387962 0.712157 0.766044
v -0.387962 -0.000419 0.766044
v -0.387962 0.712157 0.766044
v 0.382840 0.000351 -0.057921
v 0.347756 0.675462 0.051885
v -0.393780 0.000787 -0.058570
v -0.315960 0.747888 0.077508
v -0.154160 0.000492 0.840564
v 0.154160 0.000274 0.840564
v 0.462481 0.308813 0.840564
v 0.462481 0.617134 0.840564
v 0.154160 0.786676 0.840564
v -0.154160 0.786676 0.840564
v -0.462481 0.617134 0.840564
v -0.462481 0.308813 0.840564
v -0.462481 0.000492 0.223922
v -0.462481 0.000492 0.532243
v -0.462481 0.786676 0.532243
v -0.462481 0.786676 0.242455
v -0.425851 0.563265 -0.073729
v -0.462481 0.237551 0.023351
v -0.136505 0.786676 0.002988
v 0.124857 0.786676 0.002988
v 0.424239 0.543305 -0.052781
v 0.457360 0.240254 -0.057921
v 0.462481 0.000274 0.532243
v 0.462481 0.000274 0.223922
v 0.462481 0.786676 0.242455
v 0.462481 0.786676 0.532243
v -0.200319 0.923662 0.173340
v 0.200319 0.923662 0.173340
v -0.200319 0.906193 0.556730
v 0.200319 0.906193 0.556730
v 0.607820 0.195433 0.175476
v 0.607819 0.260367 0.580689
v 0.607820 0.429138 0.175476
v 0.607819 0.665580 0.580689
v -0.169556 0.687505 -0.108319
v 0.163732 0.687505 -0.108319
v -0.607820 0.260367 0.580689
v -0.607820 0.188387 0.175476
v -0.607820 0.665580 0.580689
v -0.607820 0.665580 0.175476
v 0.202606 0.260367 0.985902
v -0.202607 0.260367 0.985902
v 0.202606 0.665580 0.985902
v -0.202607 0.665580 0.985902
v 0.387962 0.002326 -0.837345
v 0.275576 0.597994 -0.783511
v -0.387962 0.001993 -0.837345
v -0.275576 0.597994 -0.783511
v -0.462481 0.002688 -0.603543
v -0.462481 0.002688 -0.295222
v -0.462481 0.709431 -0.260848
v -0.462481 0.709431 -0.539724
v -0.325628 0.470368 -0.823778
v -0.325628 0.304498 -0.887596
v 0.154160 0.002522 -0.911864
v -0.154160 0.002688 -0.911864
v -0.087858 0.685954 -0.815455
v 0.087858 0.685954 -0.815455
v 0.325629 0.470368 -0.823778
v 0.325629 0.304498 -0.887596
v 0.462481 0.002522 -0.295222
v 0.462481 0.002522 -0.603543
v 0.462481 0.709431 -0.539724
v 0.462481 0.709431 -0.260848
v -0.114936 0.870734 -0.601290
v 0.114936 0.870734 -0.601290
v -0.153979 0.847855 -0.261029
v 0.153979 0.847855 -0.261029
v 0.564742 0.201253 -0.651989
v 0.564742 0.201253 -0.246776
v 0.564742 0.510867 -0.588170
v 0.564742 0.510867 -0.212402
v -0.142653 0.278435 -0.964782
v 0.142653 0.278435 -0.964782
v -0.142653 0.496431 -0.900963
v 0.142653 0.496431 -0.900963
v -0.528498 0.201253 -0.246776
v -0.528498 0.201253 -0.651989
v -0.528498 0.510867 -0.212402
v -0.528498 0.510867 -0.588170
v -0.206205 1.224243 0.181392
v 0.206205 1.224243 0.181392
v -0.206205 1.206260 0.576046
v 0.206205 1.206260 0.576046
v -0.080238 0.893250 0.133217
v 0.080238 0.893250 0.133217
v -0.080238 0.872258 0.593920
v 0.080238 0.872258 0.593920
v -0.236250 0.882876 0.439090
v -0.236250 0.889744 0.288371
v 0.236250 0.882876 0.439090
v 0.236250 0.889744 0.288371
v -0.084074 1.257665 0.138787
v 0.084074 1.257665 0.138787
v -0.084074 1.235669 0.621514
v 0.084074 1.235669 0.621514
v -0.247000 1.239512 0.458777
v -0.247000 1.246692 0.301199
v 0.247000 1.239512 0.458777
v 0.247000 1.246692 0.301199
v -0.221843 1.016839 0.156946
v -0.224569 1.126856 0.159345
v 0.224569 1.126856 0.159345
v 0.221843 1.016839 0.156946
v 0.224569 1.107272 0.589146
v 0.221843 0.997493 0.581529
v -0.224569 1.107272 0.589146
v -0.221843 0.997493 0.581529
v -0.278585 0.993998 0.279589
v -0.284627 1.132590 0.283973
v -0.278585 0.985900 0.457317
v -0.284627 1.124316 0.465555
v -0.095514 0.975041 0.642548
v -0.097734 1.117294 0.655415
v 0.095514 0.975041 0.642548
v 0.097733 1.117294 0.655415
v 0.278585 0.985900 0.457317
v 0.284627 1.124316 0.465555
v 0.278585 0.993998 0.279589
v 0.284627 1.132590 0.283973
v -0.119693 1.324838 0.268934
v 0.119693 1.324838 0.268934
v -0.119693 1.314399 0.498015
v 0.119693 1.314399 0.498015
v 0.095514 1.000029 0.094138
v 0.097734 1.142863 0.094261
v -0.095514 1.000029 0.094138
v -0.097734 1.142863 0.094261
v -0.092234 0.872841 -0.975948
v 0.092235 0.872841 -0.975948
v -0.119781 1.051864 -0.740359
v 0.119781 1.051864 -0.740359
v -0.031634 0.670493 -0.818052
v 0.031634 0.670493 -0.818052
v -0.044034 0.869526 -0.574142
v 0.044034 0.869526 -0.574142
v -0.133465 0.795041 -0.640260
v -0.124084 0.715275 -0.728912
v 0.133465 0.795041 -0.640260
v 0.124085 0.715275 -0.728912
v -0.033519 0.872301 -0.993355
v 0.033519 0.872301 -0.993355
v -0.046597 1.080772 -0.733226
v 0.046597 1.080772 -0.733226
v -0.143568 1.029381 -0.824060
v -0.134413 0.953867 -0.928330
v 0.143568 1.029381 -0.824060
v 0.134413 0.953867 -0.928330
v -0.133374 0.936791 -0.626591
v -0.135863 1.006485 -0.679148
v -0.107547 0.795475 -0.946220
v -0.105089 0.722754 -0.882150
v 0.133374 0.936791 -0.626591
v 0.135863 1.006485 -0.679148
v 0.105089 0.722754 -0.882150
v 0.107547 0.795475 -0.946220
v 0.039407 0.703250 -0.894533
v 0.040602 0.784424 -0.967853
v -0.039407 0.703250 -0.894533
v -0.040602 0.784424 -0.967853
v 0.178703 0.866504 -0.672605
v 0.186670 0.970268 -0.752025
v 0.172330 0.759468 -0.795010
v 0.181450 0.866639 -0.887405
v -0.054531 0.949924 -0.591142
v -0.056127 1.037038 -0.654280
v 0.054531 0.949924 -0.591142
v 0.056127 1.037038 -0.654280
v -0.055543 0.971853 -0.963150
v 0.055543 0.971853 -0.963150
v -0.061641 1.072748 -0.835871
v 0.061641 1.072748 -0.835871
v -0.172330 0.759468 -0.795010
v -0.181450 0.866639 -0.887405
v -0.178703 0.866504 -0.672605
v -0.186670 0.970268 -0.752025
vn -0.4147 0.7541 0.5093
vn -0.3936 0.7287 -0.5605
vn 0.4860 0.7135 -0.5046
vn 0.5093 0.7541 0.4147
vn 0.4021 0.8226 0.4021
vn 0.4644 0.5963 -0.6548
vn 0.4095 0.9120 0.0215
vn -0.4558 0.6382 -0.6205
vn -0.0000 0.7749 -0.6321
vn -0.4095 0.9120 0.0215
vn -0.4292 0.3287 -0.8413
vn -0.4021 0.8226 0.4021
vn -0.0000 0.9396 0.3422
vn 0.8201 -0.4044 0.4047
vn 0.8728 -0.0000 0.4881
vn 0.8007 -0.4488 -0.3967
vn 0.8418 -0.5375 0.0489
vn 0.8179 0.0560 -0.5726
vn 1.0000 -0.0000 -0.0000
vn 0.7086 0.4967 -0.5012
vn 0.8384 0.5160 -0.1755
vn -0.4097 0.7221 -0.5574
vn -0.0000 0.7466 -0.6652
vn -0.8139 -0.3753 -0.4435
vn -0.7769 -0.0405 -0.6283
vn -0.8204 -0.4043 0.4043
vn -0.8375 -0.5437 0.0548
vn -0.8728 -0.0000 0.4881
vn -1.0000 -0.0000 -0.0000
vn -0.5093 0.7541 0.4147
vn -0.6401 0.7683 -0.0000
vn -0.4043 -0.4043 0.8204
vn -0.4881 -0.0000 0.8728
vn 0.4047 -0.4044 0.8201
vn -0.0001 -0.4880 0.8729
vn 0.4881 -0.0000 0.8728
vn -0.0000 -0.0000 1.0000
vn 0.4147 0.7541 0.5093
vn -0.0000 0.7683 0.6401
vn -0.6421 0.4054 -0.6506
vn 0.3763 0.4464 -0.8119
vn 0.7020 0.4881 0.5187
vn 0.2834 0.6998 0.6557
vn 0.3723 0.6794 -0.6324
vn 0.4150 0.9098 0.0075
vn -0.3723 0.6794 -0.6324
vn -0.7755 0.6159 0.1386
vn -0.4150 0.9098 0.0075
vn -0.0000 0.9977 0.0682
vn -0.2866 0.7025 0.6514
vn -0.0000 0.6896 0.7241
vn 0.8343 -0.3803 0.3990
vn 0.8155 0.0068 0.5787
vn 0.8000 -0.1767 -0.5733
vn 0.8892 -0.4575 -0.0000
vn 0.7020 0.1846 -0.6878
vn 0.5884 0.4563 -0.6675
vn 0.8890 0.4578 -0.0000
vn 0.3462 -0.1218 -0.9302
vn 0.3716 0.2929 -0.8810
vn -0.3460 -0.1218 -0.9303
vn -0.0001 -0.1884 -0.9821
vn -0.3716 0.2929 -0.8810
vn -0.0000 0.2810 -0.9597
vn -0.3763 0.4464 -0.8119
vn -0.0000 0.4207 -0.9072
vn -0.8451 -0.1093 -0.5233
vn -0.7579 0.1691 -0.6301
vn -0.8968 -0.3561 0.2626
vn -0.9489 -0.3155 -0.0000
vn -0.9274 0.0893 0.3632
vn -0.8065 0.3789 0.4538
vn -0.9489 0.3155 -0.0000
vn 0.4727 0.7321 0.4905
vn 0.8682 0.3029 -0.3931
vn 0.4292 0.2509 0.8677
vn -0.8682 0.2658 0.4190
vn -0.8682 0.3029 -0.3931
vn -0.9502 0.3112 0.0142
vn -0.8512 -0.3276 -0.4101
vn -0.9035 -0.0202 -0.4282
vn -0.9259 -0.3774 -0.0172
vn -0.9991 -0.0435 -0.0020
vn -0.8512 -0.3635 0.3786
vn -0.9035 -0.0590 0.4246
vn -0.4292 0.2509 0.8677
vn -0.0000 0.2753 0.9614
vn -0.4165 -0.3897 0.8213
vn -0.4509 -0.0811 0.8889
vn -0.0000 -0.4277 0.9039
vn -0.0000 -0.0901 0.9959
vn 0.4165 -0.3897 0.8213
vn 0.4509 -0.0811 0.8889
vn 0.8682 0.2658 0.4190
vn 0.9502 0.3112 0.0142
vn 0.8512 -0.3635 0.3786
vn 0.9035 -0.0590 0.4246
vn 0.9259 -0.3774 -0.0172
vn 0.9991 -0.0435 -0.0020
vn 0.8512 -0.3276 -0.4101
vn 0.9035 -0.0202 -0.4282
vn 0.4727 0.7737 -0.4219
vn 0.5155 0.8560 0.0390
vn -0.4727 0.7737 -0.4219
vn -0.0000 0.8886 -0.4586
vn -0.5155 0.8560 0.0390
vn -0.0000 0.9990 0.0455
vn -0.4727 0.7321 0.4905
vn -0.0000 0.8432 0.5376
vn 0.4292 0.3287 -0.8413
vn -0.0000 0.3616 -0.9323
vn 0.4165 -0.3134 -0.8534
vn 0.4509 0.0001 -0.8926
vn -0.0000 -0.3437 -0.9391
vn -0.0000 0.0009 -1.0000
vn -0.4165 -0.3134 -0.8534
vn -0.4509 0.0001 -0.8926
vn 0.4231 0.9041 -0.0599
vn 0.4039 0.8036 0.4371
vn 0.7025 -0.0389 -0.7106
vn -0.3083 -0.2637 -0.9140
vn 0.3083 -0.2637 -0.9140
vn -0.0000 -0.2787 -0.9604
vn 0.2979 -0.8781 -0.3745
vn 0.3259 -0.6339 -0.7014
vn -0.0000 -0.9192 -0.3937
vn -0.0000 -0.6703 -0.7421
vn -0.2979 -0.8781 -0.3745
vn -0.3259 -0.6339 -0.7014
vn 0.7755 0.6159 0.1386
vn 0.8982 0.3245 -0.2964
vn 0.7420 -0.0639 0.6673
vn 0.8537 0.2817 0.4379
vn 0.8510 -0.4232 0.3110
vn 0.9974 -0.0704 0.0127
vn 0.6680 -0.7346 -0.1187
vn 0.7864 -0.4334 -0.4401
vn -0.4039 0.8036 0.4371
vn -0.0000 0.8747 0.4846
vn -0.3915 0.1831 0.9018
vn -0.4251 0.5302 0.7336
vn -0.0000 0.2069 0.9784
vn -0.0000 0.5869 0.8097
vn 0.3915 0.1831 0.9018
vn 0.4251 0.5302 0.7336
vn 0.3712 0.2530 -0.8934
vn 0.4321 0.7034 -0.5644
vn -0.3712 0.2530 -0.8934
vn -0.0000 0.2903 -0.9569
vn -0.4321 0.7034 -0.5644
vn -0.0000 0.7836 -0.6212
vn -0.4231 0.9041 -0.0599
vn -0.0000 0.9970 -0.0779
vn -0.7025 -0.0389 -0.7106
vn -0.8982 0.3245 -0.2964
vn -0.6680 -0.7346 -0.1187
vn -0.7864 -0.4334 -0.4401
vn -0.8510 -0.4232 0.3110
vn -0.9974 -0.0704 0.0127
vn -0.7420 -0.0639 0.6673
vn -0.8537 0.2817 0.4379
vt 0.502645 0.271684
vt 0.565298 0.255441
vt 0.573921 0.333829
vt 0.536131 0.358814
vt 0.877518 0.407557
vt 0.924348 0.455859
vt 0.887251 0.504172
vt 0.808429 0.467647
vt 0.841485 0.664152
vt 0.888280 0.651155
vt 0.863811 0.726930
vt 0.808429 0.752800
vt 0.619244 -0.000000
vt 0.654016 0.048720
vt 0.573921 0.073700
vt 0.536131 0.048719
vt 0.667531 0.136604
vt 0.565298 0.152076
vt 0.955936 0.676592
vt 0.927165 0.765832
vt 0.780856 0.136614
vt 0.741921 0.124567
vt 0.697370 0.124563
vt 0.737402 0.048729
vt 0.954716 0.542330
vt 0.887484 0.563567
vt 0.939749 0.582524
vt 0.940237 0.636303
vt 0.737402 0.358824
vt 0.654016 0.358815
vt 0.667531 0.270918
vt 0.697370 0.282969
vt 0.741921 0.282973
vt 0.780856 0.270929
vt 0.789764 0.130900
vt 0.799375 0.058315
vt 0.855253 0.068562
vt 0.860706 0.138597
vt 0.650992 0.176862
vt 0.650992 0.230662
vt 0.263402 0.103672
vt 0.174202 0.090044
vt 0.160044 0.000238
vt 0.264544 0.023990
vt 0.038478 0.089730
vt 0.056773 -0.000000
vt 0.264544 0.299673
vt 0.183122 0.300917
vt 0.195970 0.225719
vt 0.263416 0.206868
vt 0.082091 0.298327
vt 0.117692 0.225538
vt 0.811323 0.816567
vt 0.000014 0.200057
vt 0.000000 0.103064
vt 0.840470 0.552461
vt 0.265323 0.206451
vt 0.329719 0.225305
vt 0.344661 0.273584
vt 0.264591 0.299767
vt 0.489627 0.225286
vt 0.453391 0.305402
vt 0.264544 0.023615
vt 0.368952 0.000013
vt 0.354044 0.089654
vt 0.265478 0.103238
vt 0.472271 0.000000
vt 0.489832 0.089638
vt 0.619244 0.407545
vt 0.735843 0.407557
vt 0.008907 0.782767
vt 0.107492 0.799009
vt 0.105924 0.886131
vt 0.000000 0.861149
vt 0.234997 0.799008
vt 0.202941 0.886130
vt 0.000137 0.601019
vt 0.105924 0.576036
vt 0.107492 0.663161
vt 0.008838 0.679402
vt 0.202941 0.576035
vt 0.234997 0.663160
vt 0.502645 0.135836
vt 0.704100 0.407557
vt 0.770465 0.429229
vt 0.698993 0.490424
vt 0.654894 0.473868
vt 0.650403 0.630091
vt 0.719952 0.611604
vt 0.698993 0.675133
vt 0.654894 0.692126
vt 0.090952 0.354472
vt 0.025910 0.368573
vt 0.393398 0.784478
vt 0.464777 0.790115
vt 0.502645 0.878751
vt 0.413819 0.888631
vt 0.742297 0.624300
vt 0.779891 0.627804
vt 0.808429 0.621583
vt 0.770465 0.739215
vt 0.292043 0.768007
vt 0.333617 0.885961
vt 0.808429 0.544545
vt 0.779891 0.538347
vt 0.742297 0.541130
vt 0.719952 0.552716
vt 0.524975 0.118906
vt 0.508785 0.044833
vt 0.574472 0.064055
vt 0.605182 0.137833
vt 0.343906 0.576036
vt 0.424108 0.578707
vt 0.396823 0.681291
vt 0.294600 0.690985
vt 0.300847 0.744517
vt 0.301827 0.715009
vt 0.502645 0.593600
vt 0.468484 0.678442
vt 0.262688 0.380624
vt 0.194657 0.366217
vt 0.263846 0.560644
vt 0.163529 0.576035
vt 0.194676 0.501842
vt 0.262702 0.483820
vt 0.595766 0.692321
vt 0.704100 0.773938
vt 0.602470 0.774735
vt 0.090969 0.480243
vt 0.025923 0.461913
vt 0.502645 0.635931
vt 0.575863 0.630504
vt 0.514363 0.714870
vt 0.514264 0.454834
vt 0.595766 0.474063
vt 0.575863 0.534888
vt 0.502694 0.532601
vt 0.650403 0.534476
vt 0.714970 0.571603
vt 0.714970 0.592806
vt 0.265642 0.483450
vt 0.332819 0.500861
vt 0.365263 0.576036
vt 0.264544 0.560361
vt 0.436603 0.479485
vt 0.420879 0.554666
vt 0.333023 0.365213
vt 0.265797 0.380238
vt 0.436792 0.353693
vt 0.502645 0.368702
vt 0.502504 0.462057
vt 0.801586 0.406829
vt 0.716622 0.427502
vt 0.730512 0.356627
vt 0.798830 0.332954
vt 0.538392 0.129039
vt 0.530384 0.059106
vt 0.586955 0.070062
vt 0.604071 0.137448
vt 0.343225 0.425267
vt 0.324495 0.351655
vt 0.375793 0.362312
vt 0.400918 0.433193
vt 0.466899 0.527051
vt 0.474472 0.600968
vt 0.417743 0.591454
vt 0.400918 0.521403
vt 0.474472 0.351655
vt 0.466899 0.421721
vt 0.400918 0.429998
vt 0.417743 0.362529
vt 0.592248 0.365719
vt 0.608294 0.432017
vt 0.547431 0.422911
vt 0.538338 0.353159
vt 0.608294 0.519444
vt 0.547431 0.526005
vt 0.592248 0.588110
vt 0.538338 0.599445
vt 0.324495 0.612318
vt 0.343225 0.538709
vt 0.400918 0.530780
vt 0.375793 0.601659
vt 0.208472 0.598245
vt 0.197434 0.528555
vt 0.263160 0.537421
vt 0.263171 0.610736
vt 0.197434 0.435421
vt 0.263160 0.426556
vt 0.208472 0.365730
vt 0.263171 0.353238
vt 0.530384 0.308367
vt 0.538392 0.234347
vt 0.604071 0.228834
vt 0.586955 0.298940
vt 0.412481 0.295463
vt 0.396704 0.226723
vt 0.457851 0.233245
vt 0.466526 0.306796
vt 0.396704 0.139314
vt 0.457851 0.130173
vt 0.412481 0.073117
vt 0.466526 0.060561
vt 0.860706 0.236149
vt 0.930690 0.258092
vt 0.899518 0.332954
vt 0.855253 0.307824
vt 0.918805 0.406840
vt 0.879461 0.332962
vt 0.899518 0.046357
vt 0.930690 0.119210
vt 0.879461 0.619660
vt 0.798830 0.619652
vt 0.801586 0.545760
vt 0.918805 0.545771
vt 0.730512 0.595973
vt 0.716622 0.525088
vt 0.799375 0.318885
vt 0.789764 0.244302
vt 0.702337 0.358307
vt 0.693617 0.427997
vt 0.639183 0.419132
vt 0.663206 0.345816
vt 0.742407 0.318069
vt 0.716622 0.244048
vt 0.693617 0.521131
vt 0.639183 0.529997
vt 0.716622 0.133222
vt 0.702337 0.590822
vt 0.663206 0.603313
vt 0.742407 0.060662
vt 0.535688 0.459387
vt 0.459116 0.473094
vt 0.451173 0.406372
vt 0.506156 0.384694
vt 0.376874 0.464405
vt 0.382041 0.391710
vt 0.123371 0.273988
vt 0.147525 0.354514
vt 0.075996 0.333367
vt 0.040531 0.254990
vt 0.759492 0.440153
vt 0.698455 0.450369
vt 0.712416 0.387358
vt 0.765950 0.374719
vt 0.894569 0.450369
vt 0.833531 0.440153
vt 0.827073 0.374719
vt 0.880607 0.387358
vt 0.876617 0.605414
vt 0.825354 0.611667
vt 0.832442 0.537546
vt 0.892328 0.536421
vt 0.767669 0.611667
vt 0.760582 0.537546
vt 0.716407 0.605414
vt 0.700696 0.536421
vt 0.138529 0.044833
vt 0.121803 0.118673
vt 0.042128 0.137821
vt 0.073069 0.064144
vt 0.281082 0.062372
vt 0.313610 0.132639
vt 0.241157 0.117743
vt 0.218085 0.044833
vt 0.323661 0.240775
vt 0.252370 0.265470
vt 0.299884 0.319179
vt 0.235577 0.347802
vt 0.382041 0.639460
vt 0.376874 0.566753
vt 0.459116 0.558065
vt 0.451173 0.624795
vt 0.575359 0.599729
vt 0.582865 0.535084
vt 0.646319 0.544654
vt 0.623928 0.616539
vt 0.308304 0.637195
vt 0.286706 0.565304
vt 0.582865 0.454788
vt 0.646319 0.445216
vt 0.286706 0.465867
vt 0.575359 0.390142
vt 0.623928 0.373329
vt 0.308304 0.393985
vt 0.698455 0.272597
vt 0.791488 0.292181
vt 0.791989 0.365013
vt 0.706370 0.326478
vt 0.927319 0.299302
vt 0.897523 0.374719
vt 0.706370 0.158345
vt 0.791989 0.119994
vt 0.791487 0.190932
vt 0.698455 0.211496
vt 0.897523 0.113012
vt 0.927319 0.186938
vt 0.506156 0.646493
vt 0.535688 0.571790
vt 0.500120 0.354343
vt 0.523477 0.274177
vt 0.606891 0.254943
vt 0.571869 0.333114
vt 0.347859 0.318940
vt 0.323661 0.240723
vt 0.394480 0.265635
vt 0.412028 0.347633
vt 0.333607 0.132643
vt 0.405619 0.117956
vt 0.366356 0.062291
vt 0.429197 0.044833
s 0
f 48/1/1 14/2/1 4/3/1 15/4/1
f 44/5/2 20/6/2 8/7/2 21/8/2
f 40/9/3 24/10/3 6/11/3 25/12/3
f 38/13/4 30/14/4 2/15/4 12/16/4
f 34/17/5 13/18/5 2/15/5 30/14/5
f 24/10/6 32/19/6 29/20/6 6/11/6
f 32/21/7 96/22/7 95/23/7 34/17/7 30/14/7 29/24/7
f 8/7/8 20/6/8 31/25/8 23/26/8
f 23/26/9 31/25/9 89/27/9 90/28/9 32/19/9 24/10/9
f 20/29/10 19/30/10 33/31/10 93/32/10 94/33/10 31/34/10
f 132/35/11 106/36/11 85/37/11 97/38/11
f 19/30/12 4/3/12 14/2/12 33/31/12
f 33/31/13 14/2/13 13/18/13 34/17/13 92/39/13 91/40/13
f 27/41/14 36/42/14 11/43/14 1/44/14
f 36/42/15 38/45/15 12/46/15 11/43/15
f 5/47/16 26/48/16 35/49/16 28/50/16
f 28/50/17 35/49/17 36/42/17 27/41/17
f 26/48/18 25/51/18 37/52/18 35/49/18
f 35/49/19 37/52/19 38/45/19 36/42/19
f 25/12/20 6/11/20 29/20/20 37/53/20
f 37/52/21 29/54/21 30/55/21 38/45/21
f 21/8/22 8/7/22 23/26/22 39/56/22
f 39/56/23 23/26/23 24/10/23 40/9/23
f 17/57/24 42/58/24 22/59/24 7/60/24
f 42/58/25 44/61/25 21/62/25 22/59/25
f 3/63/26 16/64/26 41/65/26 18/66/26
f 18/66/27 41/65/27 42/58/27 17/57/27
f 16/64/28 15/67/28 43/68/28 41/65/28
f 41/65/29 43/68/29 44/61/29 42/58/29
f 15/4/30 4/3/30 19/30/30 43/69/30
f 43/69/31 19/30/31 20/29/31 44/70/31
f 9/71/32 46/72/32 16/73/32 3/74/32
f 46/72/33 48/75/33 15/76/33 16/73/33
f 1/77/34 11/78/34 45/79/34 10/80/34
f 10/80/35 45/79/35 46/72/35 9/71/35
f 11/78/36 12/81/36 47/82/36 45/79/36
f 45/79/37 47/82/37 48/75/37 46/72/37
f 12/16/38 2/15/38 13/18/38 47/83/38
f 47/83/39 13/18/39 14/2/39 48/1/39
f 84/84/40 56/85/40 52/86/40 57/87/40
f 80/88/41 62/89/41 50/90/41 63/91/41
f 76/92/42 68/93/42 25/51/42
f 72/94/43 40/95/43 25/96/43 68/97/43
f 62/89/44 144/98/44 143/99/44 70/100/44 67/101/44 50/90/44
f 70/102/45 72/94/45 68/97/45 67/103/45
f 52/86/46 56/85/46 69/104/46 141/105/46 142/106/46 61/107/46
f 180/108/47 154/109/47 135/110/47 149/111/47
f 56/112/48 55/113/48 71/114/48 69/115/48
f 69/115/49 71/114/49 72/94/49 70/102/49 140/116/49 139/117/49
f 55/113/50 21/118/50 39/119/50 71/114/50
f 71/114/51 39/119/51 40/95/51 72/94/51
f 65/120/52 74/121/52 26/48/52 5/47/52
f 74/121/53 76/92/53 25/51/53 26/48/53
f 49/122/54 64/123/54 73/124/54 66/125/54
f 66/125/55 73/124/55 74/121/55 65/120/55
f 64/126/56 63/91/56 75/127/56 73/128/56
f 73/124/19 75/129/19 76/92/19 74/121/19
f 63/91/57 50/90/57 67/101/57 75/127/57
f 75/129/58 67/130/58 68/93/58 76/92/58
f 59/131/59 78/132/59 64/126/59 49/133/59
f 78/132/60 80/88/60 63/91/60 64/126/60
f 51/134/61 58/135/61 77/136/61 60/137/61
f 60/137/62 77/136/62 78/132/62 59/131/62
f 58/135/63 57/87/63 79/138/63 77/136/63
f 77/136/64 79/138/64 80/88/64 78/132/64
f 57/87/65 52/86/65 61/107/65 79/138/65
f 79/138/66 61/107/66 137/139/66 138/140/66 62/89/66 80/88/66
f 53/141/67 82/142/67 58/143/67 51/144/67
f 82/142/68 84/145/68 57/146/68 58/143/68
f 7/60/69 22/59/69 81/147/69 54/148/69
f 54/148/70 81/147/70 82/142/70 53/141/70
f 22/59/71 21/62/71 83/149/71 81/147/71
f 81/147/29 83/149/29 84/145/29 82/142/29
f 21/62/72 55/150/72 83/149/72
f 83/149/73 55/150/73 56/151/73 84/145/73
f 128/152/74 100/153/74 88/154/74 103/155/74
f 124/156/75 107/157/75 86/158/75 104/159/75
f 120/160/76 109/161/76 88/162/76 100/163/76
f 116/164/77 111/165/77 87/166/77 101/167/77
f 106/168/78 114/169/78 102/170/78 85/171/78
f 114/169/79 116/164/79 101/167/79 102/170/79
f 31/172/80 94/173/80 113/174/80 105/175/80
f 105/175/81 113/174/81 114/169/81 106/168/81
f 94/173/82 93/176/82 115/177/82 113/174/82
f 113/174/83 115/177/83 116/164/83 114/169/83
f 93/176/84 33/178/84 112/179/84 115/177/84
f 115/177/85 112/179/85 111/165/85 116/164/85
f 111/180/86 118/181/86 99/182/86 87/183/86
f 118/181/87 120/160/87 100/163/87 99/182/87
f 33/184/88 91/185/88 117/186/88 112/187/88
f 112/187/89 117/186/89 118/181/89 111/180/89
f 91/185/90 92/188/90 119/189/90 117/186/90
f 117/186/91 119/189/91 120/160/91 118/181/91
f 92/188/92 34/190/92 110/191/92 119/189/92
f 119/189/93 110/191/93 109/161/93 120/160/93
f 109/192/94 122/193/94 103/194/94 88/195/94
f 122/193/95 124/156/95 104/159/95 103/194/95
f 34/196/96 95/197/96 121/198/96 110/199/96
f 110/199/97 121/198/97 122/193/97 109/192/97
f 95/197/98 96/200/98 123/201/98 121/198/98
f 121/198/99 123/201/99 124/156/99 122/193/99
f 96/200/100 32/202/100 108/203/100 123/201/100
f 123/201/101 108/203/101 107/157/101 124/156/101
f 98/204/102 126/205/102 104/206/102 86/207/102
f 126/208/103 128/152/103 103/155/103 104/209/103
f 85/37/104 102/210/104 125/211/104 97/38/104
f 97/38/105 125/211/105 126/205/105 98/204/105
f 102/212/106 101/213/106 127/214/106 125/215/106
f 125/215/107 127/214/107 128/152/107 126/208/107
f 101/213/108 87/216/108 99/217/108 127/214/108
f 127/214/109 99/217/109 100/153/109 128/152/109
f 107/218/110 130/219/110 98/204/110 86/207/110
f 130/219/111 132/35/111 97/38/111 98/204/111
f 32/220/112 90/221/112 129/222/112 108/223/112
f 108/224/113 129/225/113 130/219/113 107/218/113
f 90/221/114 89/226/114 131/227/114 129/222/114
f 129/225/115 131/228/115 132/35/115 130/219/115
f 89/226/116 31/229/116 105/230/116 131/227/116
f 131/228/117 105/231/117 106/36/117 132/35/117
f 176/232/118 148/233/118 136/234/118 151/235/118
f 172/236/119 158/237/119 136/234/119 148/233/119
f 168/238/120 160/239/120 134/240/120 152/241/120
f 164/242/121 155/243/121 133/244/121 145/245/121
f 160/246/122 162/247/122 146/248/122 134/249/122
f 162/247/123 164/242/123 145/245/123 146/248/123
f 62/250/124 138/251/124 161/252/124 159/253/124
f 159/253/125 161/252/125 162/247/125 160/246/125
f 138/251/126 137/254/126 163/255/126 161/252/126
f 161/252/127 163/255/127 164/242/127 162/247/127
f 137/254/128 61/256/128 156/257/128 163/255/128
f 163/255/129 156/257/129 155/243/129 164/242/129
f 158/258/130 166/259/130 151/260/130 136/261/130
f 166/259/131 168/238/131 152/241/131 151/260/131
f 70/262/132 143/263/132 165/264/132 157/265/132
f 157/265/133 165/264/133 166/259/133 158/258/133
f 143/263/134 144/266/134 167/267/134 165/264/134
f 165/264/135 167/267/135 168/238/135 166/259/135
f 144/266/136 62/268/136 159/269/136 167/267/136
f 167/267/137 159/269/137 160/239/137 168/238/137
f 154/270/138 170/271/138 147/272/138 135/273/138
f 170/271/139 172/236/139 148/233/139 147/272/139
f 69/274/140 139/275/140 169/276/140 153/277/140
f 153/278/141 169/279/141 170/271/141 154/270/141
f 139/275/142 140/280/142 171/281/142 169/276/142
f 169/279/143 171/282/143 172/236/143 170/271/143
f 140/280/144 70/283/144 157/284/144 171/281/144
f 171/282/145 157/285/145 158/237/145 172/236/145
f 146/286/146 174/287/146 152/288/146 134/289/146
f 174/287/147 176/290/147 151/291/147 152/288/147
f 133/292/148 150/293/148 173/294/148 145/295/148
f 145/295/149 173/294/149 174/287/149 146/286/149
f 150/293/150 149/296/150 175/297/150 173/294/150
f 173/294/151 175/297/151 176/290/151 174/287/151
f 149/298/152 135/273/152 147/272/152 175/299/152
f 175/299/153 147/272/153 148/233/153 176/232/153
f 155/300/154 178/301/154 150/302/154 133/303/154
f 178/301/155 180/108/155 149/111/155 150/302/155
f 61/304/156 142/305/156 177/306/156 156/307/156
f 156/307/157 177/306/157 178/301/157 155/300/157
f 142/305/158 141/308/158 179/309/158 177/306/158
f 177/306/159 179/309/159 180/108/159 178/301/159
f 141/308/160 69/310/160 153/311/160 179/309/160
f 179/309/161 153/311/161 154/109/161 180/108/161
