# Blender 4.4.3
# www.blender.org
o Poste_Nodo.001
v -0.067206 0.577146 0.014240
v -0.068039 0.578659 0.003761
v -0.064483 0.570135 0.012820
v -0.065306 0.571615 0.002542
v -0.057529 0.567171 0.011618
v -0.058336 0.568607 0.001570
v -0.050419 0.569990 0.011338
v -0.051211 0.571397 0.001415
v -0.047317 0.576940 0.012144
v -0.048104 0.578351 0.002168
v -0.050040 0.583951 0.013564
v -0.050837 0.585396 0.003388
v -0.056993 0.586915 0.014766
v -0.057807 0.588404 0.004360
v -0.064104 0.584096 0.015046
v -0.064932 0.585614 0.004515
v -0.068039 0.578659 0.003761
v -0.068693 0.580012 -0.006109
v -0.065306 0.571615 0.002542
v -0.065971 0.572965 -0.007338
v -0.058336 0.568607 0.001570
v -0.059003 0.569942 -0.008277
v -0.051211 0.571397 0.001415
v -0.051869 0.572714 -0.008375
v -0.048104 0.578351 0.002168
v -0.048750 0.579658 -0.007576
v -0.050837 0.585396 0.003388
v -0.051472 0.586705 -0.006348
v -0.057807 0.588404 0.004360
v -0.058440 0.589727 -0.005409
v -0.064932 0.585614 0.004515
v -0.065573 0.586955 -0.005310
v -0.068693 0.580012 -0.006109
v -0.069384 0.581508 -0.015624
v -0.065971 0.572965 -0.007338
v -0.066682 0.574475 -0.016974
v -0.059003 0.569942 -0.008277
v -0.059720 0.571446 -0.017941
v -0.051869 0.572714 -0.008375
v -0.052577 0.574195 -0.017960
v -0.048750 0.579658 -0.007576
v -0.049437 0.581111 -0.017020
v -0.051472 0.586705 -0.006348
v -0.052139 0.588143 -0.015670
v -0.058440 0.589727 -0.005409
v -0.059101 0.591173 -0.014702
v -0.065573 0.586955 -0.005310
v -0.066244 0.588424 -0.014683
v -0.069384 0.581508 -0.015624
v -0.069914 0.583257 -0.025419
v -0.066682 0.574475 -0.016974
v -0.067225 0.576226 -0.026800
v -0.059720 0.571446 -0.017941
v -0.060260 0.573152 -0.027585
v -0.052577 0.574195 -0.017960
v -0.053098 0.575837 -0.027312
v -0.049437 0.581111 -0.017020
v -0.049934 0.582708 -0.026142
v -0.052139 0.588143 -0.015670
v -0.052623 0.589739 -0.024760
v -0.059101 0.591173 -0.014702
v -0.059588 0.592813 -0.023976
v -0.066244 0.588424 -0.014683
v -0.066750 0.590128 -0.024249
v -0.069914 0.583257 -0.025419
v -0.069842 0.585290 -0.035822
v -0.067225 0.576226 -0.026800
v -0.067171 0.578223 -0.037051
v -0.060260 0.573152 -0.027585
v -0.060223 0.575019 -0.037229
v -0.053098 0.575837 -0.027312
v -0.053067 0.577554 -0.036252
v -0.049934 0.582708 -0.026142
v -0.049896 0.584343 -0.034693
v -0.052623 0.589739 -0.024760
v -0.052567 0.591409 -0.033464
v -0.059588 0.592813 -0.023976
v -0.059515 0.594614 -0.033286
v -0.066750 0.590128 -0.024249
v -0.066671 0.592079 -0.034263
v -0.069842 0.585290 -0.035822
v -0.067726 0.587704 -0.047648
v -0.067171 0.578223 -0.037051
v -0.065199 0.580504 -0.048243
v -0.060223 0.575019 -0.037229
v -0.058577 0.576954 -0.046783
v -0.053067 0.577554 -0.036252
v -0.051740 0.579134 -0.044123
v -0.049896 0.584343 -0.034693
v -0.048692 0.585767 -0.041821
v -0.052567 0.591409 -0.033464
v -0.051219 0.592967 -0.041227
v -0.059515 0.594614 -0.033286
v -0.057841 0.596516 -0.042687
v -0.066671 0.592079 -0.034263
v -0.064678 0.594336 -0.045347
v -0.067726 0.587704 -0.047648
v -0.060506 0.590067 -0.060361
v -0.065199 0.580504 -0.048243
v -0.058754 0.582643 -0.059738
v -0.058577 0.576954 -0.046783
v -0.053839 0.578579 -0.055507
v -0.051740 0.579134 -0.044123
v -0.048640 0.580256 -0.050146
v -0.048692 0.585767 -0.041821
v -0.046202 0.586691 -0.046796
v -0.051219 0.592967 -0.041227
v -0.047954 0.594116 -0.047419
v -0.057841 0.596516 -0.042687
v -0.052870 0.598180 -0.051651
v -0.064678 0.594336 -0.045347
v -0.058069 0.596503 -0.057011
v -0.060506 0.590067 -0.060361
v -0.047609 0.590659 -0.068043
v -0.058754 0.582643 -0.059738
v -0.047162 0.583157 -0.066594
v -0.053839 0.578579 -0.055507
v -0.044926 0.578923 -0.060623
v -0.048640 0.580256 -0.050146
v -0.042211 0.580436 -0.053629
v -0.046202 0.586691 -0.046796
v -0.040607 0.586811 -0.049708
v -0.047954 0.594116 -0.047419
v -0.041054 0.594313 -0.051158
v -0.052870 0.598180 -0.051651
v -0.043290 0.598547 -0.057129
v -0.058069 0.596503 -0.057011
v -0.046005 0.597034 -0.064123
v -0.047609 0.590659 -0.068043
v -0.035070 0.589934 -0.070917
v -0.047162 0.583157 -0.066594
v -0.035491 0.582474 -0.069259
v -0.044926 0.578923 -0.060623
v -0.034946 0.578313 -0.062858
v -0.042211 0.580436 -0.053629
v -0.033753 0.579889 -0.055464
v -0.040607 0.586811 -0.049708
v -0.032612 0.586278 -0.051408
v -0.041054 0.594313 -0.051158
v -0.032191 0.593738 -0.053066
v -0.043290 0.598547 -0.057129
v -0.032736 0.597899 -0.059467
v -0.046005 0.597034 -0.064123
v -0.033929 0.596323 -0.066861
v -0.035070 0.589934 -0.070917
v -0.023626 0.588650 -0.071650
v -0.035491 0.582474 -0.069259
v -0.024523 0.581238 -0.069964
v -0.034946 0.578313 -0.062858
v -0.024855 0.577161 -0.063495
v -0.033753 0.579889 -0.055464
v -0.024429 0.578807 -0.056032
v -0.032612 0.586278 -0.051408
v -0.023493 0.585212 -0.051948
v -0.032191 0.593738 -0.053066
v -0.022597 0.592623 -0.053634
v -0.032736 0.597899 -0.059467
v -0.022264 0.596700 -0.060103
v -0.033929 0.596323 -0.066861
v -0.022690 0.595054 -0.067565
v -0.023626 0.588650 -0.071650
v -0.012592 0.587077 -0.071490
v -0.024523 0.581238 -0.069964
v -0.013864 0.579718 -0.069815
v -0.024855 0.577161 -0.063495
v -0.014610 0.575689 -0.063350
v -0.024429 0.578807 -0.056032
v -0.014393 0.577351 -0.055882
v -0.023493 0.585212 -0.051948
v -0.013339 0.583730 -0.051786
v -0.022597 0.592623 -0.053634
v -0.012067 0.591089 -0.053461
v -0.022264 0.596700 -0.060103
v -0.011321 0.595117 -0.059925
v -0.022690 0.595054 -0.067565
v -0.011538 0.593455 -0.067393
v -0.012592 0.587077 -0.071490
v -0.001643 0.585277 -0.070905
v -0.013864 0.579718 -0.069815
v -0.003304 0.577994 -0.069239
v -0.014610 0.575689 -0.063350
v -0.004149 0.573977 -0.062779
v -0.014393 0.577351 -0.055882
v -0.003682 0.575580 -0.055309
v -0.013339 0.583730 -0.051786
v -0.002177 0.581863 -0.051206
v -0.012067 0.591089 -0.053461
v -0.000515 0.589146 -0.052873
v -0.011321 0.595117 -0.059925
v 0.000330 0.593162 -0.059333
v -0.011538 0.593455 -0.067393
v -0.000137 0.591560 -0.066802
v -0.001643 0.585277 -0.070905
v 0.010050 0.581734 -0.071729
v -0.003304 0.577994 -0.069239
v 0.007595 0.574686 -0.070031
v -0.004149 0.573977 -0.062779
v 0.006752 0.570656 -0.063579
v -0.003682 0.575580 -0.055309
v 0.008016 0.572005 -0.056152
v -0.002177 0.581863 -0.051206
v 0.010645 0.577942 -0.052100
v -0.000515 0.589146 -0.052873
v 0.013101 0.584989 -0.053798
v 0.000330 0.593162 -0.059333
v 0.013944 0.589019 -0.060250
v -0.000137 0.591560 -0.066802
v 0.012680 0.587671 -0.067677
v 0.010050 0.581734 -0.071729
v 0.021408 0.576692 -0.072941
v 0.007595 0.574686 -0.070031
v 0.018168 0.569985 -0.071178
v 0.006752 0.570656 -0.063579
v 0.016845 0.566155 -0.064686
v 0.008016 0.572005 -0.056152
v 0.018214 0.567443 -0.057267
v 0.010645 0.577942 -0.052100
v 0.021472 0.573097 -0.053267
v 0.013101 0.584989 -0.053798
v 0.024712 0.579803 -0.055030
v 0.013944 0.589019 -0.060250
v 0.026036 0.583634 -0.061522
v 0.012680 0.587671 -0.067677
v 0.024667 0.582345 -0.068941
v 0.021408 0.576692 -0.072941
v 0.032589 0.570167 -0.073631
v 0.018168 0.569985 -0.071178
v 0.028496 0.563955 -0.071836
v 0.016845 0.566155 -0.064686
v 0.026306 0.560618 -0.065305
v 0.018214 0.567443 -0.057267
v 0.027304 0.562111 -0.057865
v 0.021472 0.573097 -0.053267
v 0.030904 0.567560 -0.053874
v 0.024712 0.579803 -0.055030
v 0.034998 0.573773 -0.055670
v 0.026036 0.583634 -0.061522
v 0.037187 0.577110 -0.062200
v 0.024667 0.582345 -0.068941
v 0.036190 0.575616 -0.069640
v 0.032589 0.570167 -0.073631
v 0.043503 0.562105 -0.072649
v 0.028496 0.563955 -0.071836
v 0.038483 0.556579 -0.070967
v 0.026306 0.560618 -0.065305
v 0.034971 0.554215 -0.064591
v 0.027304 0.562111 -0.057865
v 0.035024 0.556398 -0.057255
v 0.030904 0.567560 -0.053874
v 0.038613 0.561850 -0.053258
v 0.034998 0.573773 -0.055670
v 0.043633 0.567376 -0.054939
v 0.037187 0.577110 -0.062200
v 0.047146 0.569740 -0.061316
v 0.036190 0.575616 -0.069640
v 0.047092 0.567557 -0.068651
v 0.043503 0.562105 -0.072649
v 0.053191 0.553047 -0.068104
v 0.038483 0.556579 -0.070967
v 0.047302 0.548324 -0.066842
v 0.034971 0.554215 -0.064591
v 0.042146 0.547476 -0.061250
v 0.035024 0.556398 -0.057255
v 0.040743 0.551001 -0.054603
v 0.038613 0.561850 -0.053258
v 0.043914 0.556833 -0.050795
v 0.043633 0.567376 -0.054939
v 0.049803 0.561557 -0.052056
v 0.047146 0.569740 -0.061316
v 0.054959 0.562404 -0.057649
v 0.047092 0.567557 -0.068651
v 0.056362 0.558879 -0.064296
v 0.053191 0.553047 -0.068104
v 0.060062 0.545051 -0.059920
v 0.047302 0.548324 -0.066842
v 0.053646 0.540929 -0.059278
v 0.042146 0.547476 -0.061250
v 0.047245 0.541493 -0.055120
v 0.040743 0.551001 -0.054603
v 0.044609 0.546412 -0.049882
v 0.043914 0.556833 -0.050795
v 0.047283 0.552806 -0.046633
v 0.049803 0.561557 -0.052056
v 0.053699 0.556928 -0.047276
v 0.054959 0.562404 -0.057649
v 0.060100 0.556364 -0.051434
v 0.056362 0.558879 -0.064296
v 0.062736 0.551445 -0.056671
v 0.060062 0.545051 -0.059920
v 0.064079 0.539265 -0.050104
v 0.053646 0.540929 -0.059278
v 0.057457 0.535430 -0.049956
v 0.047245 0.541493 -0.055120
v 0.050462 0.536815 -0.047176
v 0.044609 0.546412 -0.049882
v 0.047192 0.542609 -0.043392
v 0.047283 0.552806 -0.046633
v 0.049562 0.549417 -0.040822
v 0.053699 0.556928 -0.047276
v 0.056184 0.553252 -0.040969
v 0.060100 0.556364 -0.051434
v 0.063179 0.551867 -0.043750
v 0.062736 0.551445 -0.056671
v 0.066449 0.546073 -0.047533
v 0.064079 0.539265 -0.050104
v 0.066247 0.535305 -0.039935
v 0.057457 0.535430 -0.049956
v 0.059564 0.531577 -0.040077
v 0.050462 0.536815 -0.047176
v 0.052341 0.533347 -0.038268
v 0.047192 0.542609 -0.043392
v 0.048809 0.539578 -0.035569
v 0.049562 0.549417 -0.040821
v 0.051037 0.546619 -0.033560
v 0.056184 0.553252 -0.040969
v 0.057720 0.550346 -0.033419
v 0.063179 0.551867 -0.043750
v 0.064943 0.548577 -0.035227
v 0.066449 0.546073 -0.047533
v 0.068475 0.542346 -0.037927
v 0.066247 0.535305 -0.039935
v 0.067430 0.532467 -0.029754
v 0.059564 0.531577 -0.040076
v 0.060731 0.528778 -0.030060
v 0.052341 0.533347 -0.038268
v 0.053420 0.530732 -0.028914
v 0.048809 0.539578 -0.035569
v 0.049780 0.537183 -0.026988
v 0.051037 0.546619 -0.033560
v 0.051943 0.544353 -0.025410
v 0.057720 0.550346 -0.033419
v 0.058642 0.548042 -0.025104
v 0.064943 0.548577 -0.035227
v 0.065953 0.546088 -0.026250
v 0.068475 0.542346 -0.037927
v 0.069593 0.539637 -0.028176
v 0.067430 0.532467 -0.029754
v 0.068097 0.530263 -0.019600
v 0.060731 0.528778 -0.030060
v 0.061395 0.526588 -0.020007
v 0.053420 0.530732 -0.028914
v 0.054051 0.528635 -0.019342
v 0.049780 0.537183 -0.026988
v 0.050365 0.535206 -0.017993
v 0.051943 0.544353 -0.025410
v 0.052497 0.542451 -0.016751
v 0.058642 0.548042 -0.025104
v 0.059198 0.546126 -0.016344
v 0.065953 0.546088 -0.026250
v 0.066543 0.544079 -0.017010
v 0.069593 0.539637 -0.028176
v 0.070229 0.537508 -0.018358
v 0.068097 0.530263 -0.019600
v 0.068204 0.528820 -0.009492
v 0.061395 0.526588 -0.020007
v 0.061505 0.525147 -0.009952
v 0.054051 0.528635 -0.019342
v 0.054152 0.527227 -0.009523
v 0.050365 0.535206 -0.017993
v 0.050452 0.533841 -0.008455
v 0.052497 0.542451 -0.016751
v 0.052572 0.541115 -0.007375
v 0.059198 0.546126 -0.016344
v 0.059271 0.544788 -0.006915
v 0.066543 0.544079 -0.017010
v 0.066624 0.542709 -0.007344
v 0.070229 0.537508 -0.018358
v 0.070325 0.536095 -0.008412
v 0.068204 0.528820 -0.009492
v 0.068223 0.527455 0.000673
v 0.061505 0.525147 -0.009952
v 0.061528 0.523783 0.000139
v 0.054152 0.527227 -0.009523
v 0.054171 0.525881 0.000374
v 0.050452 0.533841 -0.008455
v 0.050462 0.532520 0.001241
v 0.052572 0.541115 -0.007375
v 0.052572 0.539809 0.002232
v 0.059271 0.544788 -0.006915
v 0.059267 0.543481 0.002767
v 0.066624 0.542709 -0.007344
v 0.066623 0.541383 0.002532
v 0.070325 0.536095 -0.008412
v 0.070333 0.534744 0.001665
v 0.068223 0.527455 0.000673
v 0.068048 0.526158 0.011039
v 0.061528 0.523783 0.000139
v 0.061362 0.522496 0.010353
v 0.054171 0.525881 0.000374
v 0.054004 0.524599 0.010464
v 0.050462 0.532520 0.001241
v 0.050284 0.531234 0.011307
v 0.052572 0.539809 0.002232
v 0.052380 0.538515 0.012388
v 0.059267 0.543481 0.002767
v 0.059066 0.542177 0.013074
v 0.066623 0.541383 0.002532
v 0.066425 0.540074 0.012963
v 0.070333 0.534744 0.001665
v 0.070145 0.533439 0.012120
v 0.068048 0.526158 0.011039
v 0.067611 0.524485 0.022056
v 0.061362 0.522496 0.010353
v 0.060950 0.520872 0.020979
v 0.054004 0.524599 0.010464
v 0.053601 0.523001 0.020827
v 0.050284 0.531234 0.011307
v 0.049866 0.529626 0.021689
v 0.052380 0.538515 0.012388
v 0.051936 0.536866 0.023061
v 0.059066 0.542177 0.013074
v 0.058596 0.540480 0.024139
v 0.066425 0.540074 0.012963
v 0.065946 0.538350 0.024291
v 0.070145 0.533439 0.012120
v 0.069680 0.531725 0.023428
v 0.067611 0.524485 0.022056
v 0.066001 0.522126 0.035062
v 0.060950 0.520872 0.020979
v 0.059508 0.518697 0.032904
v 0.053601 0.523001 0.020827
v 0.052305 0.520999 0.031723
v 0.049866 0.529626 0.021689
v 0.048611 0.527685 0.032211
v 0.051936 0.536866 0.023061
v 0.050591 0.534837 0.034081
v 0.058596 0.540480 0.024139
v 0.057084 0.538267 0.036239
v 0.065946 0.538350 0.024291
v 0.064287 0.535965 0.037420
v 0.069680 0.531725 0.023428
v 0.067980 0.529279 0.036932
v 0.066001 0.522126 0.035062
v 0.056285 0.518657 0.053532
v 0.059508 0.518697 0.032904
v 0.051600 0.515797 0.048198
v 0.052305 0.520999 0.031723
v 0.046517 0.518765 0.043305
v 0.048611 0.527685 0.032211
v 0.044015 0.525822 0.041719
v 0.050591 0.534837 0.034081
v 0.045559 0.532834 0.044369
v 0.057084 0.538267 0.036239
v 0.050244 0.535694 0.049703
v 0.064287 0.535965 0.037420
v 0.055326 0.532726 0.054596
v 0.067980 0.529279 0.036932
v 0.057828 0.525669 0.056182
v 0.056285 0.518657 0.053532
v 0.038328 0.518924 0.062167
v 0.051600 0.515797 0.048198
v 0.036503 0.516056 0.055309
v 0.046517 0.518765 0.043305
v 0.035332 0.519008 0.048346
v 0.044015 0.525822 0.041719
v 0.035499 0.526051 0.045355
v 0.045559 0.532834 0.044369
v 0.036907 0.533059 0.048089
v 0.050244 0.535694 0.049703
v 0.038731 0.535928 0.054947
v 0.055326 0.532726 0.054596
v 0.039903 0.532976 0.061910
v 0.057828 0.525669 0.056182
v 0.039736 0.525933 0.064901
v 0.038328 0.518924 0.062167
v 0.026544 0.520956 0.063657
v 0.036503 0.516056 0.055309
v 0.025336 0.517973 0.056713
v 0.035332 0.519008 0.048346
v 0.025305 0.520725 0.049571
v 0.035499 0.526051 0.045355
v 0.026467 0.527600 0.046416
v 0.036907 0.533059 0.048089
v 0.028142 0.534571 0.049094
v 0.038731 0.535928 0.054947
v 0.029349 0.537555 0.056039
v 0.039903 0.532976 0.061910
v 0.029381 0.534803 0.063180
v 0.039736 0.525933 0.064901
v 0.028219 0.527927 0.066336
v 0.026544 0.520956 0.063657
v 0.016785 0.523277 0.064290
v 0.025336 0.517973 0.056713
v 0.015568 0.520282 0.057353
v 0.025305 0.520725 0.049571
v 0.015776 0.522964 0.050188
v 0.026467 0.527600 0.046416
v 0.017285 0.529753 0.046992
v 0.028142 0.534571 0.049094
v 0.019213 0.536671 0.049638
v 0.029349 0.537555 0.056039
v 0.020429 0.539666 0.056575
v 0.029381 0.534803 0.063180
v 0.020222 0.536984 0.063740
v 0.028219 0.527927 0.066336
v 0.018712 0.530195 0.066936
v 0.016785 0.523277 0.064290
v 0.007903 0.525688 0.064847
v 0.015568 0.520282 0.057353
v 0.006416 0.522755 0.057936
v 0.015776 0.522964 0.050188
v 0.006553 0.525444 0.050771
v 0.017285 0.529753 0.046992
v 0.008233 0.532180 0.047550
v 0.019213 0.536671 0.049638
v 0.010472 0.539018 0.050160
v 0.020429 0.539666 0.056575
v 0.011959 0.541952 0.057070
v 0.020222 0.536984 0.063740
v 0.011822 0.539263 0.064235
v 0.018712 0.530195 0.066936
v 0.010142 0.532526 0.067456
v 0.007903 0.525688 0.064847
v 0.000150 0.528275 0.065805
v 0.006416 0.522755 0.057936
v -0.001925 0.525519 0.058973
v 0.006553 0.525444 0.050771
v -0.002034 0.528273 0.051832
v 0.008233 0.532180 0.047550
v -0.000113 0.534922 0.048566
v 0.010472 0.539018 0.050160
v 0.002713 0.541573 0.051087
v 0.011959 0.541952 0.057070
v 0.004789 0.544329 0.057919
v 0.011822 0.539263 0.064235
v 0.004897 0.541576 0.065060
v 0.010142 0.532526 0.067456
v 0.002976 0.534926 0.068326
v 0.000150 0.528275 0.065805
v -0.007802 0.531611 0.067311
v -0.001925 0.525519 0.058973
v -0.010294 0.529007 0.060560
v -0.002034 0.528273 0.051832
v -0.010446 0.531758 0.053419
v -0.000113 0.534922 0.048566
v -0.008168 0.538254 0.050073
v 0.002713 0.541573 0.051087
v -0.004795 0.544688 0.052480
v 0.004789 0.544329 0.057919
v -0.002303 0.547293 0.059232
v 0.004897 0.541576 0.065060
v -0.002151 0.544541 0.066372
v 0.002976 0.534926 0.068326
v -0.004429 0.538046 0.069719
v -0.007802 0.531611 0.067311
v -0.016666 0.536064 0.069031
v -0.010294 0.529007 0.060560
v -0.019178 0.533449 0.062291
v -0.010446 0.531758 0.053419
v -0.018982 0.536006 0.055080
v -0.008168 0.538254 0.050073
v -0.016193 0.542238 0.051622
v -0.004795 0.544688 0.052480
v -0.012443 0.548494 0.053942
v -0.002303 0.547293 0.059232
v -0.009931 0.551110 0.060682
v -0.002151 0.544541 0.066372
v -0.010127 0.548553 0.067893
v -0.004429 0.538046 0.069719
v -0.012916 0.542320 0.071351
v -0.016666 0.536064 0.069031
v -0.026814 0.542030 0.070240
v -0.019178 0.533449 0.062291
v -0.028847 0.539111 0.063463
v -0.018982 0.536006 0.055080
v -0.027775 0.541131 0.056159
v -0.016193 0.542238 0.051622
v -0.024226 0.546907 0.052606
v -0.012443 0.548494 0.053942
v -0.020279 0.553055 0.054886
v -0.009931 0.551110 0.060682
v -0.018246 0.555974 0.061663
v -0.010127 0.548553 0.067893
v -0.019318 0.553954 0.068967
v -0.012916 0.542320 0.071351
v -0.022867 0.548178 0.072520
v -0.026814 0.542030 0.070240
v -0.039022 0.550476 0.068685
v -0.028847 0.539111 0.063463
v -0.039756 0.546642 0.062102
v -0.027775 0.541131 0.056159
v -0.036931 0.547435 0.055033
v -0.024226 0.546907 0.052606
v -0.032202 0.552391 0.051619
v -0.020279 0.553055 0.054886
v -0.028339 0.558606 0.053860
v -0.018246 0.555974 0.061663
v -0.027605 0.562441 0.060443
v -0.019318 0.553954 0.068967
v -0.030430 0.561648 0.067512
v -0.022867 0.548178 0.072520
v -0.035159 0.556692 0.070926
v -0.039022 0.550476 0.068685
v -0.051397 0.560364 0.061252
v -0.039756 0.546642 0.062102
v -0.050406 0.555137 0.055750
v -0.036931 0.547435 0.055033
v -0.045460 0.554222 0.049981
v -0.032202 0.552391 0.051619
v -0.039456 0.558156 0.047325
v -0.028339 0.558606 0.053860
v -0.035911 0.564633 0.049337
v -0.027605 0.562441 0.060443
v -0.036901 0.569860 0.054840
v -0.030430 0.561648 0.067512
v -0.041847 0.570775 0.060609
v -0.035159 0.556692 0.070926
v -0.047851 0.566841 0.063265
v -0.051397 0.560364 0.061252
v -0.059664 0.568028 0.048909
v -0.050406 0.555137 0.055750
v -0.057567 0.561769 0.045035
v -0.045460 0.554222 0.049981
v -0.051327 0.559652 0.041140
v -0.039456 0.558156 0.047325
v -0.044601 0.562917 0.039506
v -0.035911 0.564633 0.049337
v -0.041327 0.569652 0.041091
v -0.036901 0.569860 0.054840
v -0.043424 0.575910 0.044965
v -0.041847 0.570775 0.060609
v -0.049663 0.578027 0.048860
v -0.047851 0.566841 0.063265
v -0.056390 0.574762 0.050493
v -0.059664 0.568028 0.048909
v -0.063951 0.572665 0.036084
v -0.057567 0.561769 0.045035
v -0.061420 0.565931 0.033473
v -0.051327 0.559652 0.041140
v -0.054687 0.563276 0.030984
v -0.044601 0.562917 0.039506
v -0.047696 0.566256 0.030074
v -0.041327 0.569652 0.041091
v -0.044543 0.573126 0.031277
v -0.043424 0.575910 0.044965
v -0.047074 0.579860 0.033887
v -0.049663 0.578027 0.048860
v -0.053807 0.582515 0.036377
v -0.056390 0.574762 0.050493
v -0.060798 0.579535 0.037287
v -0.063951 0.572665 0.036084
v -0.066277 0.575615 0.023939
v -0.061420 0.565931 0.033473
v -0.063587 0.568668 0.022182
v -0.054687 0.563276 0.030984
v -0.056675 0.565777 0.020618
v -0.047696 0.566256 0.030074
v -0.049590 0.568635 0.020164
v -0.044543 0.573126 0.031277
v -0.046481 0.575568 0.021085
v -0.047074 0.579860 0.033887
v -0.049171 0.582515 0.022842
v -0.053807 0.582515 0.036377
v -0.056082 0.585406 0.024406
v -0.060798 0.579535 0.037287
v -0.063168 0.582548 0.024861
v -0.066277 0.575615 0.023939
v -0.067327 0.577349 0.012937
v -0.063587 0.568668 0.022182
v -0.064601 0.570331 0.011563
v -0.056675 0.565777 0.020618
v -0.057643 0.567358 0.010409
v -0.049590 0.568635 0.020164
v -0.050530 0.570171 0.010153
v -0.046481 0.575568 0.021085
v -0.047428 0.577124 0.010944
v -0.049171 0.582515 0.022842
v -0.050155 0.584142 0.012318
v -0.056082 0.585406 0.024406
v -0.057113 0.587115 0.013472
v -0.063168 0.582548 0.024861
v -0.064226 0.584301 0.013728
v -0.067327 0.577349 0.012937
v -0.068115 0.578816 0.002584
v -0.064601 0.570331 0.011563
v -0.065384 0.571770 0.001366
v -0.057643 0.567358 0.010409
v -0.058414 0.568760 0.000400
v -0.050530 0.570171 0.010153
v -0.051288 0.571549 0.000251
v -0.047428 0.577124 0.010944
v -0.048180 0.578502 0.001007
v -0.050155 0.584142 0.012318
v -0.050911 0.585547 0.002225
v -0.057113 0.587115 0.013472
v -0.057881 0.588557 0.003191
v -0.064226 0.584301 0.013728
v -0.065007 0.585769 0.003340
v -0.068115 0.578816 0.002584
v -0.068775 0.580189 -0.007235
v -0.065384 0.571770 0.001366
v -0.066055 0.573144 -0.008478
v -0.058414 0.568760 0.000400
v -0.059088 0.570120 -0.009420
v -0.051288 0.571549 0.000251
v -0.051953 0.572890 -0.009510
v -0.048180 0.578502 0.001007
v -0.048831 0.579830 -0.008694
v -0.050911 0.585547 0.002225
v -0.051551 0.586875 -0.007451
v -0.057881 0.588557 0.003191
v -0.058518 0.589899 -0.006509
v -0.065007 0.585769 0.003340
v -0.065653 0.587130 -0.006420
v 0.034034 -0.000575 -0.036556
v 0.047734 0.672401 -0.050830
v 0.036439 0.000124 0.034556
v 0.051943 0.672569 0.046946
v -0.032166 -0.000481 0.037224
v -0.046979 0.672646 0.051240
v -0.036086 -0.000434 -0.033201
v -0.051235 0.673186 -0.045667
v 0.034903 -0.000192 -0.013359
v 0.036153 0.000029 0.010817
v 0.049647 0.672637 0.013875
v 0.048004 0.672573 -0.018427
v 0.058379 0.248534 -0.056388
v 0.034493 0.341164 -0.048444
v 0.033796 0.343479 0.037043
v 0.049894 0.248061 0.033526
v 0.013525 0.000498 0.035243
v -0.009632 0.000265 0.035560
v -0.014196 0.672676 0.049621
v 0.018342 0.672293 0.048175
v -0.036005 0.349515 0.035085
v -0.041680 0.252461 0.051680
v -0.033439 -0.000995 0.014049
v -0.035387 -0.001052 -0.010441
v -0.048079 0.672348 -0.013190
v -0.048461 0.672492 0.019209
v -0.033384 0.338598 -0.048476
v -0.049505 0.249828 -0.051834
v -0.013237 -0.000664 -0.034261
v 0.009968 -0.000982 -0.034939
v 0.014288 0.671646 -0.048904
v -0.018531 0.671687 -0.047135
v -0.014488 0.250405 -0.054642
v 0.021982 0.249236 -0.056324
v -0.011166 0.339945 -0.048904
v 0.011312 0.340770 -0.049051
v -0.044468 0.252733 0.016233
v -0.047585 0.252027 -0.018028
v -0.035354 0.346092 0.006118
v -0.035041 0.341760 -0.021831
v 0.019277 0.249755 0.039935
v -0.011807 0.251196 0.045597
v 0.009802 0.346132 0.036307
v -0.013807 0.348198 0.035915
v 0.056955 0.248684 -0.026335
v 0.053637 0.248204 0.003750
v 0.034562 0.341962 -0.020734
v 0.034178 0.343079 0.008713
v 0.068191 0.569360 -0.008329
v 0.068108 0.570873 0.002183
v 0.065355 0.562349 -0.007151
v 0.065279 0.563829 0.003160
v 0.058323 0.559385 -0.006560
v 0.058251 0.560820 0.003521
v 0.051216 0.562204 -0.006900
v 0.051139 0.563611 0.003054
v 0.048195 0.569154 -0.007974
v 0.048110 0.570565 0.002033
v 0.051032 0.576164 -0.009151
v 0.050939 0.577610 0.001056
v 0.058063 0.579129 -0.009743
v 0.057967 0.580618 0.000695
v 0.065171 0.576310 -0.009402
v 0.065079 0.577827 0.001162
v 0.068108 0.570873 0.002183
v 0.067899 0.572226 0.012073
v 0.065279 0.563829 0.003160
v 0.065081 0.565179 0.013060
v 0.058251 0.560820 0.003521
v 0.058057 0.562156 0.013388
v 0.051139 0.563611 0.003054
v 0.050942 0.564928 0.012864
v 0.048110 0.570565 0.002033
v 0.047904 0.571871 0.011796
v 0.050939 0.577610 0.001056
v 0.050723 0.578918 0.010810
v 0.057967 0.580618 0.000695
v 0.057746 0.581941 0.010482
v 0.065079 0.577827 0.001162
v 0.064861 0.579169 0.011005
v 0.067899 0.572226 0.012073
v 0.067758 0.573721 0.021612
v 0.065081 0.565179 0.013060
v 0.064949 0.566689 0.022721
v 0.058057 0.562156 0.013388
v 0.057929 0.563660 0.023078
v 0.050942 0.564928 0.012864
v 0.050811 0.566409 0.022474
v 0.047904 0.571871 0.011796
v 0.047765 0.573325 0.021264
v 0.050723 0.578918 0.010810
v 0.050575 0.580357 0.020155
v 0.057746 0.581941 0.010482
v 0.057595 0.583386 0.019798
v 0.064861 0.579169 0.011005
v 0.064712 0.580638 0.020401
v 0.067758 0.573721 0.021612
v 0.067432 0.575471 0.031415
v 0.064949 0.566689 0.022721
v 0.064634 0.568440 0.032558
v 0.057929 0.563660 0.023078
v 0.057626 0.565366 0.032732
v 0.050811 0.566409 0.022474
v 0.050515 0.568051 0.031836
v 0.047765 0.573325 0.021264
v 0.047466 0.574922 0.030394
v 0.050575 0.580357 0.020155
v 0.050265 0.581953 0.029252
v 0.057595 0.583386 0.019798
v 0.057272 0.585027 0.029078
v 0.064712 0.580638 0.020401
v 0.064383 0.582342 0.029974
v 0.067432 0.575471 0.031415
v 0.066454 0.577504 0.041773
v 0.064634 0.568440 0.032558
v 0.063686 0.570437 0.042764
v 0.057626 0.565366 0.032732
v 0.056749 0.567233 0.042336
v 0.050515 0.568051 0.031836
v 0.049706 0.569767 0.040739
v 0.047466 0.574922 0.030394
v 0.046683 0.576557 0.038910
v 0.050265 0.581953 0.029252
v 0.049451 0.583623 0.037918
v 0.057272 0.585027 0.029078
v 0.056388 0.586827 0.038347
v 0.064383 0.582342 0.029974
v 0.063431 0.584293 0.039943
v 0.066454 0.577504 0.041773
v 0.063315 0.579917 0.053369
v 0.063686 0.570437 0.042764
v 0.060746 0.572717 0.053742
v 0.056749 0.567233 0.042336
v 0.054277 0.569168 0.051710
v 0.049706 0.569767 0.040739
v 0.047697 0.571348 0.048464
v 0.046683 0.576557 0.038910
v 0.044861 0.577981 0.045906
v 0.049451 0.583623 0.037918
v 0.047431 0.585181 0.045534
v 0.056388 0.586827 0.038347
v 0.053900 0.588730 0.047566
v 0.063431 0.584293 0.039943
v 0.060480 0.586550 0.050811
v 0.063315 0.579917 0.053369
v 0.055015 0.582281 0.065405
v 0.060746 0.572717 0.053742
v 0.053324 0.574857 0.064631
v 0.054277 0.569168 0.051710
v 0.048796 0.570793 0.059988
v 0.047697 0.571348 0.048464
v 0.044084 0.572470 0.054195
v 0.044861 0.577981 0.045906
v 0.041948 0.578905 0.050645
v 0.047431 0.585181 0.045534
v 0.043639 0.586329 0.051419
v 0.053900 0.588730 0.047566
v 0.048167 0.590393 0.056062
v 0.060480 0.586550 0.050811
v 0.052879 0.588717 0.061855
v 0.055015 0.582281 0.065405
v 0.041497 0.582873 0.071934
v 0.053324 0.574857 0.064631
v 0.041178 0.575371 0.070451
v 0.048796 0.570793 0.059988
v 0.039471 0.571137 0.064308
v 0.044084 0.572470 0.054195
v 0.037376 0.572650 0.057104
v 0.041948 0.578905 0.050645
v 0.036120 0.579025 0.053058
v 0.043639 0.586329 0.051419
v 0.036439 0.586527 0.054542
v 0.048167 0.590393 0.056062
v 0.038146 0.590761 0.060684
v 0.052879 0.588717 0.061855
v 0.040241 0.589248 0.067889
v 0.041497 0.582873 0.071934
v 0.028756 0.582147 0.073704
v 0.041178 0.575371 0.070451
v 0.029320 0.574687 0.072089
v 0.039471 0.571137 0.064308
v 0.029334 0.570527 0.065665
v 0.037376 0.572650 0.057104
v 0.028791 0.572103 0.058195
v 0.036120 0.579025 0.053058
v 0.028007 0.578492 0.054055
v 0.036439 0.586527 0.054542
v 0.027443 0.585952 0.055670
v 0.038146 0.590761 0.060684
v 0.027429 0.590113 0.062094
v 0.040241 0.589248 0.067889
v 0.027973 0.588537 0.069564
v 0.028756 0.582147 0.073704
v 0.017291 0.580863 0.073436
v 0.029320 0.574687 0.072089
v 0.018332 0.573452 0.071835
v 0.029334 0.570527 0.065665
v 0.019227 0.569375 0.065419
v 0.028791 0.572103 0.058195
v 0.019453 0.571021 0.057948
v 0.028007 0.578492 0.054055
v 0.018877 0.577425 0.053798
v 0.027443 0.585952 0.055670
v 0.017836 0.584837 0.055399
v 0.027429 0.590113 0.062094
v 0.016941 0.588914 0.061814
v 0.027973 0.588537 0.069564
v 0.016715 0.587268 0.069285
v 0.017291 0.580863 0.073436
v 0.006313 0.579290 0.072315
v 0.018332 0.573452 0.071835
v 0.007727 0.571931 0.070758
v 0.019227 0.569375 0.065419
v 0.009034 0.567903 0.064383
v 0.019453 0.571021 0.057948
v 0.009468 0.569565 0.056924
v 0.018877 0.577425 0.053798
v 0.008775 0.575943 0.052751
v 0.017836 0.584837 0.055399
v 0.007361 0.583302 0.054309
v 0.016941 0.588914 0.061814
v 0.006055 0.587331 0.060684
v 0.016715 0.587268 0.069285
v 0.005621 0.585669 0.068142
v 0.006313 0.579290 0.072315
v -0.004543 0.577491 0.070779
v 0.007727 0.571931 0.070758
v -0.002743 0.570208 0.069263
v 0.009034 0.567903 0.064383
v -0.001338 0.566191 0.062902
v 0.009468 0.569565 0.056924
v -0.001152 0.567794 0.055420
v 0.008775 0.575943 0.052751
v -0.002294 0.574077 0.051201
v 0.007361 0.583302 0.054309
v -0.004095 0.581360 0.052716
v 0.006055 0.587331 0.060684
v -0.005500 0.585376 0.059078
v 0.005621 0.585669 0.068142
v -0.005685 0.583773 0.066560
v -0.004543 0.577491 0.070779
v -0.016264 0.573948 0.070580
v -0.002743 0.570208 0.069263
v -0.013670 0.566900 0.069103
v -0.001338 0.566191 0.062902
v -0.012268 0.562870 0.062749
v -0.001152 0.567794 0.055420
v -0.012879 0.564219 0.055240
v -0.002294 0.574077 0.051201
v -0.015146 0.570156 0.050974
v -0.004095 0.581360 0.052716
v -0.017740 0.577203 0.052451
v -0.005500 0.585376 0.059078
v -0.019142 0.581233 0.058805
v -0.005685 0.583773 0.066560
v -0.018530 0.579885 0.066314
v -0.016264 0.573948 0.070580
v -0.027684 0.568905 0.070798
v -0.013670 0.566900 0.069103
v -0.024303 0.562199 0.069324
v -0.012268 0.562870 0.062749
v -0.022419 0.558368 0.062972
v -0.012879 0.564219 0.055240
v -0.023135 0.559657 0.055461
v -0.015146 0.570156 0.050974
v -0.026033 0.565311 0.051193
v -0.017740 0.577203 0.052451
v -0.029414 0.572017 0.052666
v -0.019142 0.581233 0.058805
v -0.031298 0.575848 0.059019
v -0.018530 0.579885 0.066314
v -0.030582 0.574559 0.066529
v -0.027684 0.568905 0.070798
v -0.038883 0.562381 0.070511
v -0.024303 0.562199 0.069324
v -0.034648 0.556169 0.069079
v -0.022419 0.558368 0.062972
v -0.031898 0.552832 0.062764
v -0.023135 0.559657 0.055461
v -0.032243 0.554325 0.055265
v -0.026033 0.565311 0.051193
v -0.035482 0.559774 0.050975
v -0.029414 0.572017 0.052666
v -0.039717 0.565986 0.052408
v -0.031298 0.575848 0.059019
v -0.042467 0.569323 0.058723
v -0.030582 0.574559 0.066529
v -0.042121 0.567830 0.066221
v -0.038883 0.562381 0.070511
v -0.049670 0.554319 0.068581
v -0.034648 0.556169 0.069079
v -0.044521 0.548793 0.067343
v -0.031898 0.552832 0.062764
v -0.040467 0.546429 0.061297
v -0.032243 0.554325 0.055265
v -0.039881 0.548612 0.053985
v -0.035482 0.559774 0.050975
v -0.043107 0.554064 0.049690
v -0.039717 0.565986 0.052408
v -0.048256 0.559590 0.050928
v -0.042467 0.569323 0.058723
v -0.052310 0.561954 0.056973
v -0.042121 0.567830 0.066221
v -0.052896 0.559771 0.064286
v -0.049670 0.554319 0.068581
v -0.058924 0.545261 0.063209
v -0.044521 0.548793 0.067343
v -0.052948 0.540537 0.062465
v -0.040467 0.546429 0.061297
v -0.047324 0.539690 0.057344
v -0.039881 0.548612 0.053985
v -0.045347 0.543215 0.050844
v -0.043107 0.554064 0.049690
v -0.048174 0.549047 0.046774
v -0.048256 0.559590 0.050928
v -0.054150 0.553771 0.047518
v -0.052310 0.561954 0.056973
v -0.059774 0.554618 0.052639
v -0.052896 0.559771 0.064286
v -0.061752 0.551093 0.059139
v -0.058924 0.545261 0.063209
v -0.065056 0.537265 0.054458
v -0.052948 0.540537 0.062465
v -0.058608 0.533143 0.054377
v -0.047324 0.539690 0.057344
v -0.051869 0.533707 0.050792
v -0.045347 0.543215 0.050844
v -0.048787 0.538626 0.045805
v -0.048174 0.549047 0.046774
v -0.051167 0.545020 0.042335
v -0.054150 0.553771 0.047518
v -0.057615 0.549142 0.042416
v -0.059774 0.554618 0.052639
v -0.064354 0.548578 0.046000
v -0.061752 0.551093 0.059139
v -0.067436 0.543658 0.050988
v -0.065056 0.537265 0.054458
v -0.068202 0.531479 0.044329
v -0.058608 0.533143 0.054377
v -0.061593 0.527644 0.044758
v -0.051869 0.533707 0.050792
v -0.054382 0.529029 0.042598
v -0.048787 0.538626 0.045805
v -0.050794 0.534823 0.039114
v -0.051167 0.545020 0.042335
v -0.052931 0.541631 0.036347
v -0.057615 0.549142 0.042416
v -0.059540 0.545466 0.035917
v -0.064354 0.548578 0.046000
v -0.066751 0.544081 0.038077
v -0.067436 0.543658 0.050988
v -0.070339 0.538287 0.041561
v -0.068202 0.531479 0.044329
v -0.069476 0.527519 0.034009
v -0.061593 0.527644 0.044758
v -0.062830 0.523791 0.034733
v -0.054382 0.529029 0.042598
v -0.055477 0.525561 0.033560
v -0.050794 0.534823 0.039114
v -0.051723 0.531792 0.031179
v -0.052931 0.541631 0.036347
v -0.053768 0.538833 0.028984
v -0.059540 0.545466 0.035917
v -0.060413 0.542560 0.028261
v -0.066751 0.544081 0.038077
v -0.067766 0.540790 0.029433
v -0.070339 0.538287 0.041561
v -0.071520 0.534560 0.031814
v -0.069476 0.527519 0.034009
v -0.069766 0.524680 0.023764
v -0.062830 0.523791 0.034733
v -0.063119 0.520992 0.024652
v -0.055477 0.525561 0.033560
v -0.055736 0.522945 0.024148
v -0.051723 0.531791 0.031179
v -0.051942 0.529397 0.022547
v -0.053768 0.538833 0.028984
v -0.053960 0.536567 0.020786
v -0.060413 0.542560 0.028261
v -0.060607 0.540255 0.019898
v -0.067766 0.540790 0.029433
v -0.067990 0.538302 0.020402
v -0.071520 0.534560 0.031814
v -0.071784 0.531850 0.022003
v -0.069766 0.524680 0.023764
v -0.069546 0.522477 0.013590
v -0.063119 0.520992 0.024652
v -0.062905 0.518802 0.014580
v -0.055736 0.522945 0.024148
v -0.055531 0.520849 0.014557
v -0.051942 0.529397 0.022547
v -0.051742 0.527420 0.013535
v -0.053960 0.536567 0.020786
v -0.053758 0.534665 0.012112
v -0.060607 0.540255 0.019898
v -0.060398 0.538340 0.011122
v -0.067990 0.538302 0.020402
v -0.067772 0.536293 0.011145
v -0.071784 0.531850 0.022003
v -0.071562 0.529722 0.012168
v -0.069546 0.522477 0.013590
v -0.068772 0.521034 0.003512
v -0.062905 0.518802 0.014580
v -0.062139 0.517361 0.004554
v -0.055531 0.520849 0.014557
v -0.054776 0.519440 0.004767
v -0.051742 0.527420 0.013535
v -0.050997 0.526055 0.004026
v -0.053757 0.534665 0.012112
v -0.053015 0.533329 0.002765
v -0.060398 0.538340 0.011122
v -0.059648 0.537002 0.001723
v -0.067772 0.536293 0.011145
v -0.067011 0.534923 0.001510
v -0.071562 0.529722 0.012168
v -0.070790 0.528309 0.002251
v -0.068772 0.521034 0.003512
v -0.067904 0.519668 -0.006617
v -0.062139 0.517361 0.004554
v -0.061282 0.515997 -0.005501
v -0.054776 0.519440 0.004767
v -0.053933 0.518095 -0.005094
v -0.050997 0.526055 0.004026
v -0.050162 0.524733 -0.005634
v -0.053015 0.533329 0.002765
v -0.052178 0.532023 -0.006806
v -0.059648 0.537002 0.001723
v -0.058800 0.535694 -0.007922
v -0.067011 0.534923 0.001510
v -0.066149 0.533596 -0.008329
v -0.070790 0.528309 0.002251
v -0.069920 0.526958 -0.007788
v -0.067904 0.519668 -0.006617
v -0.066827 0.518372 -0.016927
v -0.061282 0.515997 -0.005501
v -0.060227 0.514710 -0.015661
v -0.053933 0.518095 -0.005094
v -0.052887 0.516813 -0.015131
v -0.050162 0.524733 -0.005634
v -0.049107 0.523448 -0.015647
v -0.052178 0.532023 -0.006806
v -0.051101 0.530729 -0.016906
v -0.058800 0.535694 -0.007922
v -0.057702 0.534391 -0.018172
v -0.066149 0.533596 -0.008329
v -0.065042 0.532288 -0.018703
v -0.069920 0.526958 -0.007788
v -0.068822 0.525653 -0.018187
v -0.066827 0.518372 -0.016927
v -0.065431 0.516699 -0.027865
v -0.060227 0.514710 -0.015661
v -0.058890 0.513085 -0.026211
v -0.052887 0.516813 -0.015131
v -0.051581 0.515215 -0.025419
v -0.049107 0.523448 -0.015647
v -0.047786 0.521840 -0.025953
v -0.051101 0.530729 -0.016906
v -0.049728 0.529080 -0.027500
v -0.057702 0.534391 -0.018172
v -0.056269 0.532693 -0.029154
v -0.065042 0.532288 -0.018703
v -0.063578 0.530564 -0.029946
v -0.068822 0.525653 -0.018187
v -0.067373 0.523939 -0.029412
v -0.065431 0.516699 -0.027865
v -0.062694 0.514340 -0.040681
v -0.058890 0.513085 -0.026211
v -0.056413 0.510910 -0.037965
v -0.051581 0.515215 -0.025419
v -0.049341 0.513213 -0.036161
v -0.047786 0.521840 -0.025953
v -0.045619 0.519899 -0.036325
v -0.049728 0.529080 -0.027500
v -0.047428 0.527051 -0.038361
v -0.056269 0.532693 -0.029154
v -0.053708 0.530481 -0.041076
v -0.063578 0.530564 -0.029946
v -0.060781 0.528178 -0.042880
v -0.067373 0.523939 -0.029412
v -0.064503 0.521493 -0.042717
v -0.062694 0.514340 -0.040681
v -0.051405 0.510871 -0.058234
v -0.056413 0.510910 -0.037965
v -0.047203 0.508011 -0.052512
v -0.049341 0.513213 -0.036161
v -0.042566 0.510979 -0.047194
v -0.045619 0.519899 -0.036325
v -0.040212 0.518036 -0.045396
v -0.047428 0.527051 -0.038361
v -0.041518 0.525048 -0.048171
v -0.053708 0.530481 -0.041076
v -0.045721 0.527908 -0.053893
v -0.060781 0.528178 -0.042880
v -0.050357 0.524940 -0.059210
v -0.064503 0.521493 -0.042717
v -0.052712 0.517883 -0.061008
v -0.051405 0.510871 -0.058234
v -0.032764 0.511138 -0.065271
v -0.047203 0.508011 -0.052512
v -0.031544 0.508269 -0.058280
v -0.042566 0.510979 -0.047194
v -0.030983 0.511221 -0.051241
v -0.040212 0.518036 -0.045396
v -0.031410 0.518264 -0.048276
v -0.041518 0.525048 -0.048171
v -0.032575 0.525273 -0.051123
v -0.045721 0.527908 -0.053893
v -0.033794 0.528142 -0.058113
v -0.050357 0.524940 -0.059210
v -0.034355 0.525190 -0.065152
v -0.052712 0.517883 -0.061008
v -0.033928 0.518147 -0.068117
v -0.032764 0.511138 -0.065271
v -0.020894 0.513170 -0.065728
v -0.031544 0.508269 -0.058280
v -0.020297 0.510187 -0.058705
v -0.030983 0.511221 -0.051241
v -0.020888 0.512939 -0.051588
v -0.031410 0.518264 -0.048276
v -0.022321 0.519814 -0.048546
v -0.032575 0.525273 -0.051123
v -0.023756 0.526785 -0.051360
v -0.033794 0.528142 -0.058113
v -0.024354 0.529768 -0.058383
v -0.034355 0.525190 -0.065152
v -0.023763 0.527016 -0.065501
v -0.033928 0.518147 -0.068117
v -0.022330 0.520141 -0.068543
v -0.020894 0.513170 -0.065728
v -0.011118 0.515491 -0.065509
v -0.020297 0.510187 -0.058705
v -0.010510 0.512496 -0.058492
v -0.020888 0.512939 -0.051588
v -0.011341 0.515178 -0.051372
v -0.022321 0.519814 -0.048546
v -0.013124 0.521967 -0.048320
v -0.023756 0.526785 -0.051360
v -0.014814 0.528885 -0.051123
v -0.024354 0.529768 -0.058383
v -0.015421 0.531880 -0.058140
v -0.023763 0.527016 -0.065501
v -0.014590 0.529198 -0.065260
v -0.022330 0.520141 -0.068543
v -0.012807 0.522409 -0.068312
v -0.011118 0.515491 -0.065509
v -0.002221 0.517902 -0.065289
v -0.010510 0.512496 -0.058492
v -0.001342 0.514968 -0.058275
v -0.011341 0.515178 -0.051372
v -0.002103 0.517657 -0.051149
v -0.013124 0.521967 -0.048320
v -0.004057 0.524394 -0.048087
v -0.014814 0.528885 -0.051123
v -0.006061 0.531232 -0.050881
v -0.015421 0.531880 -0.058140
v -0.006939 0.534166 -0.057896
v -0.014590 0.529198 -0.065260
v -0.006179 0.531477 -0.065021
v -0.012807 0.522409 -0.068312
v -0.004224 0.524740 -0.068083
v -0.002221 0.517902 -0.065289
v 0.005586 0.520489 -0.065567
v -0.001342 0.514968 -0.058275
v 0.007058 0.517733 -0.058580
v -0.002103 0.517657 -0.051149
v 0.006544 0.520486 -0.051458
v -0.004057 0.524394 -0.048087
v 0.004345 0.527136 -0.048371
v -0.006061 0.531232 -0.050881
v 0.001750 0.533787 -0.051129
v -0.006939 0.534166 -0.057896
v 0.000278 0.536543 -0.058116
v -0.006179 0.531477 -0.065021
v 0.000792 0.533790 -0.065239
v -0.004224 0.524740 -0.068083
v 0.002990 0.527140 -0.068325
v 0.005586 0.520489 -0.065567
v 0.013639 0.523825 -0.066375
v 0.007058 0.517733 -0.058580
v 0.015533 0.521220 -0.059432
v 0.006544 0.520486 -0.051458
v 0.015062 0.523972 -0.052305
v 0.004345 0.527136 -0.048371
v 0.012501 0.530467 -0.049170
v 0.001750 0.533787 -0.051129
v 0.009351 0.536902 -0.051863
v 0.000278 0.536543 -0.058116
v 0.007457 0.539507 -0.058806
v 0.000792 0.533790 -0.065239
v 0.007928 0.536755 -0.065932
v 0.002990 0.527140 -0.068325
v 0.010488 0.530260 -0.069068
v 0.013639 0.523825 -0.066375
v 0.022619 0.528278 -0.067316
v 0.015533 0.521220 -0.059432
v 0.024534 0.525663 -0.060383
v 0.015062 0.523972 -0.052305
v 0.023710 0.528220 -0.053216
v 0.012501 0.530467 -0.049170
v 0.020630 0.534452 -0.050014
v 0.009351 0.536902 -0.051863
v 0.017098 0.540708 -0.052652
v 0.007457 0.539507 -0.058806
v 0.015182 0.543324 -0.059586
v 0.007928 0.536755 -0.065932
v 0.016006 0.540766 -0.066752
v 0.010488 0.530260 -0.069068
v 0.019086 0.534534 -0.069954
v 0.022619 0.528278 -0.067316
v 0.032834 0.534244 -0.067635
v 0.024534 0.525663 -0.060383
v 0.034268 0.531325 -0.060707
v 0.023710 0.528220 -0.053216
v 0.032564 0.533345 -0.053524
v 0.020630 0.534452 -0.050014
v 0.028719 0.539121 -0.050295
v 0.017098 0.540708 -0.052652
v 0.024986 0.545269 -0.052910
v 0.015182 0.543324 -0.059586
v 0.023551 0.548188 -0.059838
v 0.016006 0.540766 -0.066752
v 0.025255 0.546168 -0.067021
v 0.019086 0.534534 -0.069954
v 0.029101 0.540392 -0.070251
v 0.032834 0.534244 -0.067635
v 0.044860 0.542690 -0.065022
v 0.034268 0.531325 -0.060707
v 0.045017 0.538856 -0.058400
v 0.032564 0.533345 -0.053524
v 0.041587 0.539649 -0.051604
v 0.028719 0.539121 -0.050295
v 0.036579 0.544605 -0.048616
v 0.024986 0.545269 -0.052910
v 0.032926 0.550820 -0.051185
v 0.023551 0.548188 -0.059838
v 0.032768 0.554655 -0.057807
v 0.025255 0.546168 -0.067021
v 0.036198 0.553861 -0.064603
v 0.029101 0.540392 -0.070251
v 0.041207 0.548906 -0.067592
v 0.044860 0.542690 -0.065022
v 0.056540 0.552577 -0.056539
v 0.045017 0.538856 -0.058400
v 0.055074 0.547350 -0.051144
v 0.041587 0.539649 -0.051604
v 0.049644 0.546436 -0.045829
v 0.036579 0.544605 -0.048616
v 0.043431 0.550369 -0.043706
v 0.032926 0.550820 -0.051185
v 0.040074 0.556847 -0.046020
v 0.032768 0.554655 -0.057807
v 0.041541 0.562074 -0.051415
v 0.036198 0.553861 -0.064603
v 0.046970 0.562989 -0.056731
v 0.041207 0.548906 -0.067592
v 0.053183 0.559055 -0.058853
v 0.056540 0.552577 -0.056539
v 0.063699 0.560242 -0.043523
v 0.055074 0.547350 -0.051144
v 0.061273 0.553983 -0.039846
v 0.049644 0.546436 -0.045829
v 0.054718 0.551866 -0.036510
v 0.043431 0.550369 -0.043706
v 0.047874 0.555131 -0.035469
v 0.040074 0.556847 -0.046020
v 0.044751 0.561865 -0.037333
v 0.041541 0.562074 -0.051415
v 0.047178 0.568124 -0.041009
v 0.046970 0.562989 -0.056731
v 0.053733 0.570241 -0.044345
v 0.053183 0.559055 -0.058853
v 0.060576 0.566976 -0.045387
v 0.063699 0.560242 -0.043523
v 0.066853 0.564879 -0.030373
v 0.061273 0.553983 -0.039846
v 0.064103 0.558144 -0.027993
v 0.054718 0.551866 -0.036510
v 0.057179 0.555490 -0.026100
v 0.047874 0.555131 -0.035469
v 0.050136 0.558470 -0.025802
v 0.044751 0.561865 -0.037333
v 0.047099 0.565340 -0.027275
v 0.047178 0.568124 -0.041009
v 0.049849 0.572074 -0.029656
v 0.053733 0.570241 -0.044345
v 0.056773 0.574729 -0.031549
v 0.060576 0.566976 -0.045387
v 0.063816 0.571748 -0.031846
v 0.066853 0.564879 -0.030373
v 0.068111 0.567829 -0.018072
v 0.064103 0.558144 -0.027993
v 0.065279 0.560882 -0.016556
v 0.057179 0.555490 -0.026100
v 0.058257 0.557991 -0.015600
v 0.050136 0.558470 -0.025802
v 0.051159 0.560849 -0.015765
v 0.047099 0.565340 -0.027275
v 0.048142 0.567782 -0.016954
v 0.049849 0.572074 -0.029656
v 0.050974 0.574728 -0.018470
v 0.056773 0.574729 -0.031549
v 0.057996 0.577620 -0.019425
v 0.063816 0.571748 -0.031846
v 0.065094 0.574762 -0.019260
v 0.068111 0.567829 -0.018072
v 0.068199 0.569563 -0.007020
v 0.065279 0.560882 -0.016556
v 0.065363 0.562544 -0.005888
v 0.058257 0.557991 -0.015600
v 0.058331 0.559571 -0.005346
v 0.051159 0.560849 -0.015765
v 0.051223 0.562385 -0.005710
v 0.048142 0.567782 -0.016954
v 0.048202 0.569337 -0.006768
v 0.050974 0.574728 -0.018470
v 0.051038 0.576356 -0.007900
v 0.057996 0.577620 -0.019425
v 0.058070 0.579329 -0.008443
v 0.065094 0.574762 -0.019260
v 0.065178 0.576515 -0.008078
v 0.068199 0.569563 -0.007020
v 0.068081 0.571029 0.003362
v 0.065363 0.562544 -0.005888
v 0.065254 0.563984 0.004338
v 0.058331 0.559571 -0.005346
v 0.058226 0.560974 0.004693
v 0.051223 0.562385 -0.005710
v 0.051114 0.563762 0.004220
v 0.048202 0.569337 -0.006768
v 0.048084 0.570716 0.003196
v 0.051038 0.576356 -0.007900
v 0.050911 0.577761 0.002221
v 0.058070 0.579329 -0.008443
v 0.057939 0.580771 0.001865
v 0.065178 0.576515 -0.008078
v 0.065051 0.577983 0.002338
v 0.068081 0.571029 0.003362
v 0.067882 0.572403 0.013202
v 0.065254 0.563984 0.004338
v 0.065065 0.565358 0.014203
v 0.058226 0.560974 0.004693
v 0.058042 0.562334 0.014534
v 0.051114 0.563762 0.004220
v 0.050927 0.565104 0.014001
v 0.048084 0.570716 0.003196
v 0.047888 0.572044 0.012917
v 0.050911 0.577761 0.002221
v 0.050705 0.579089 0.011915
v 0.057939 0.580771 0.001865
v 0.057728 0.582113 0.011584
v 0.065051 0.577983 0.002338
v 0.064843 0.579343 0.012117
vn -0.9306 -0.3653 0.0216
vn -0.4052 -0.9090 -0.0978
vn 0.3577 -0.9201 -0.1596
vn 0.9109 -0.3924 -0.1279
vn 0.9307 0.3652 -0.0214
vn 0.4052 0.9090 0.0979
vn -0.3576 0.9200 0.1602
vn -0.9108 0.3923 0.1286
vn -0.9318 -0.3628 0.0126
vn -0.4063 -0.9086 -0.0963
vn 0.3571 -0.9222 -0.1487
vn 0.9114 -0.3955 -0.1140
vn 0.9318 0.3628 -0.0125
vn 0.4063 0.9086 0.0962
vn -0.3571 0.9222 0.1487
vn -0.9113 0.3955 0.1141
vn -0.9324 -0.3613 0.0115
vn -0.4088 -0.9058 -0.1112
vn 0.3543 -0.9198 -0.1688
vn 0.9098 -0.3949 -0.1276
vn 0.9324 0.3613 -0.0116
vn 0.4087 0.9059 0.1112
vn -0.3543 0.9198 0.1688
vn -0.9098 0.3949 0.1276
vn -0.9345 -0.3558 -0.0124
vn -0.4120 -0.9008 -0.1370
vn 0.3520 -0.9182 -0.1815
vn 0.9097 -0.3976 -0.1199
vn 0.9345 0.3559 0.0120
vn 0.4120 0.9009 0.1370
vn -0.3520 0.9182 0.1816
vn -0.9097 0.3976 0.1196
vn -0.9367 -0.3426 -0.0726
vn -0.4150 -0.8928 -0.1753
vn 0.3507 -0.9198 -0.1760
vn 0.9103 -0.4072 -0.0744
vn 0.9367 0.3430 0.0708
vn 0.4150 0.8929 0.1750
vn -0.3507 0.9198 0.1758
vn -0.9103 0.4076 0.0728
vn -0.9240 -0.3077 -0.2269
vn -0.4124 -0.8760 -0.2499
vn 0.3465 -0.9292 -0.1284
vn 0.8982 -0.4348 0.0645
vn 0.9252 0.3089 0.2205
vn 0.4125 0.8762 0.2493
vn -0.3462 0.9296 0.1268
vn -0.8969 0.4363 -0.0719
vn -0.8249 -0.2424 -0.5107
vn -0.3790 -0.8492 -0.3677
vn 0.3119 -0.9501 -0.0111
vn 0.8141 -0.4819 0.3241
vn 0.8419 0.2473 0.4797
vn 0.3809 0.8497 0.3646
vn -0.3076 0.9515 0.0040
vn -0.7945 0.4891 -0.3598
vn -0.4947 -0.1906 -0.8479
vn -0.2550 -0.8299 -0.4963
vn 0.1286 -0.9770 0.1699
vn 0.4044 -0.5446 0.7348
vn 0.4577 0.1881 0.8690
vn 0.2507 0.8295 0.4990
vn -0.1365 0.9768 -0.1648
vn -0.4458 0.5441 -0.7108
vn -0.2296 -0.1983 -0.9529
vn -0.1691 -0.8328 -0.5271
vn -0.0142 -0.9768 0.2136
vn 0.1415 -0.5463 0.8255
vn 0.2175 0.1989 0.9556
vn 0.1678 0.8329 0.5274
vn 0.0110 0.9770 -0.2128
vn -0.1555 0.5473 -0.8223
vn -0.0862 -0.2113 -0.9736
vn -0.1288 -0.8362 -0.5331
vn -0.0979 -0.9703 0.2211
vn -0.0117 -0.5354 0.8445
vn 0.0823 0.2117 0.9739
vn 0.1284 0.8362 0.5331
vn 0.0967 0.9705 -0.2210
vn 0.0069 0.5360 -0.8442
vn -0.0174 -0.2194 -0.9755
vn -0.1124 -0.8377 -0.5344
vn -0.1425 -0.9650 0.2199
vn -0.0897 -0.5269 0.8452
vn 0.0162 0.2196 0.9755
vn 0.1129 0.8377 0.5344
vn 0.1424 0.9651 -0.2199
vn 0.0880 0.5272 -0.8452
vn 0.0156 -0.2254 -0.9741
vn -0.1078 -0.8380 -0.5349
vn -0.1699 -0.9611 0.2178
vn -0.1310 -0.5201 0.8440
vn -0.0124 0.2248 0.9743
vn 0.1134 0.8372 0.5350
vn 0.1717 0.9608 -0.2178
vn 0.1304 0.5202 -0.8440
vn -0.1277 -0.1917 -0.9731
vn -0.2815 -0.7974 -0.5337
vn -0.2704 -0.9379 0.2172
vn -0.1018 -0.5282 0.8430
vn 0.1257 0.1923 0.9732
vn 0.2794 0.7981 0.5339
vn 0.2703 0.9380 -0.2172
vn 0.1017 0.5282 -0.8430
vn -0.1795 -0.1694 -0.9690
vn -0.3934 -0.7551 -0.5244
vn -0.3765 -0.8984 0.2263
vn -0.1393 -0.5163 0.8450
vn 0.1794 0.1695 0.9691
vn 0.3924 0.7556 0.5245
vn 0.3759 0.8986 -0.2263
vn 0.1396 0.5161 -0.8451
vn -0.1630 -0.1750 -0.9710
vn -0.4557 -0.7222 -0.5204
vn -0.4799 -0.8454 0.2347
vn -0.2232 -0.4748 0.8513
vn 0.1638 0.1745 0.9709
vn 0.4551 0.7225 0.5204
vn 0.4799 0.8454 -0.2347
vn 0.2246 0.4740 -0.8514
vn -0.0804 -0.2252 -0.9710
vn -0.4774 -0.7062 -0.5228
vn -0.5902 -0.7725 0.2342
vn -0.3553 -0.3887 0.8501
vn 0.0845 0.2221 0.9713
vn 0.4774 0.7062 0.5228
vn 0.5916 0.7715 -0.2341
vn 0.3610 0.3846 -0.8496
vn 0.0928 -0.3648 -0.9265
vn -0.4439 -0.7313 -0.5178
vn -0.7194 -0.6646 0.2019
vn -0.5680 -0.2102 0.7957
vn -0.0901 0.3623 0.9277
vn 0.4447 0.7306 0.5181
vn 0.7186 0.6653 -0.2023
vn 0.5691 0.2092 -0.7952
vn 0.2804 -0.5582 -0.7809
vn -0.3752 -0.8001 -0.4680
vn -0.8159 -0.5647 0.1239
vn -0.7735 0.0039 0.6338
vn -0.2845 0.5628 0.7761
vn 0.3752 0.8001 0.4680
vn 0.8143 0.5666 -0.1258
vn 0.7678 0.0027 -0.6407
vn 0.3979 -0.7098 -0.5813
vn -0.3228 -0.8670 -0.3796
vn -0.8584 -0.5109 0.0447
vn -0.8877 0.1467 0.4365
vn -0.4010 0.7141 0.5739
vn 0.3223 0.8676 0.3787
vn 0.8579 0.5118 -0.0461
vn 0.8845 -0.1420 -0.4443
vn 0.4514 -0.7946 -0.4059
vn -0.2960 -0.9096 -0.2916
vn -0.8721 -0.4892 -0.0078
vn -0.9357 0.2192 0.2765
vn -0.4529 0.7972 0.3991
vn 0.2956 0.9102 0.2902
vn 0.8720 0.4895 0.0071
vn 0.9344 -0.2168 -0.2825
vn 0.4716 -0.8336 -0.2875
vn -0.2848 -0.9313 -0.2273
vn -0.8753 -0.4824 -0.0347
vn -0.9521 0.2497 0.1764
vn -0.4720 0.8346 0.2841
vn 0.2847 0.9315 0.2264
vn 0.8753 0.4824 0.0345
vn 0.9518 -0.2489 -0.1791
vn 0.4790 -0.8507 -0.2165
vn -0.2802 -0.9415 -0.1872
vn -0.8757 -0.4805 -0.0481
vn -0.9577 0.2620 0.1194
vn -0.4790 0.8506 0.2169
vn 0.2802 0.9415 0.1874
vn 0.8757 0.4805 0.0480
vn 0.9577 -0.2620 -0.1193
vn 0.4832 -0.8659 -0.1290
vn -0.2771 -0.9515 -0.1335
vn -0.8755 -0.4794 -0.0602
vn -0.9606 0.2738 0.0473
vn -0.4833 0.8662 0.1270
vn 0.2771 0.9516 0.1327
vn 0.8755 0.4794 0.0601
vn 0.9606 -0.2736 -0.0487
vn 0.4842 -0.8670 -0.1178
vn -0.2763 -0.9524 -0.1285
vn -0.8750 -0.4799 -0.0640
vn -0.9610 0.2738 0.0378
vn -0.4842 0.8671 0.1174
vn 0.2763 0.9525 0.1284
vn 0.8750 0.4799 0.0640
vn 0.9610 -0.2738 -0.0380
vn 0.4852 -0.8685 -0.1010
vn -0.2751 -0.9532 -0.1251
vn -0.8742 -0.4796 -0.0761
vn -0.9613 0.2751 0.0175
vn -0.4852 0.8685 0.1010
vn 0.2751 0.9532 0.1254
vn 0.8742 0.4795 0.0762
vn 0.9613 -0.2751 -0.0176
vn 0.4870 -0.8661 -0.1128
vn -0.2727 -0.9493 -0.1563
vn -0.8725 -0.4766 -0.1082
vn -0.9614 0.2753 0.0032
vn -0.4870 0.8661 0.1128
vn 0.2727 0.9493 0.1566
vn 0.8724 0.4765 0.1088
vn 0.9613 -0.2753 -0.0029
vn 0.4884 -0.8671 -0.0979
vn -0.2680 -0.9415 -0.2045
vn -0.8656 -0.4639 -0.1885
vn -0.9569 0.2834 -0.0632
vn -0.4885 0.8670 0.0987
vn 0.2679 0.9413 0.2052
vn 0.8650 0.4631 0.1931
vn 0.9563 -0.2843 0.0678
vn 0.4536 -0.8885 0.0692
vn -0.2462 -0.9212 -0.3014
vn -0.7918 -0.3943 -0.4664
vn -0.8722 0.3317 -0.3594
vn -0.4593 0.8863 -0.0588
vn 0.2461 0.9211 0.3016
vn 0.7825 0.3915 0.4842
vn 0.8576 -0.3373 0.3884
vn 0.1531 -0.9234 0.3521
vn -0.1838 -0.9148 -0.3598
vn -0.3856 -0.3420 -0.8569
vn -0.3522 0.3992 -0.8465
vn -0.1388 0.9228 -0.3595
vn 0.1841 0.9148 0.3596
vn 0.4097 0.3423 0.8456
vn 0.3926 -0.4006 0.8279
vn -0.1047 -0.9071 0.4076
vn -0.2005 -0.9141 -0.3525
vn -0.1745 -0.3838 -0.9068
vn -0.0442 0.3692 -0.9283
vn 0.1096 0.9062 -0.4083
vn 0.2005 0.9141 0.3525
vn 0.1777 0.3833 0.9064
vn 0.0524 -0.3706 0.9273
vn -0.1841 -0.8907 0.4157
vn -0.2365 -0.9073 -0.3476
vn -0.1500 -0.3925 -0.9075
vn 0.0249 0.3522 -0.9356
vn 0.1849 0.8905 -0.4158
vn 0.2365 0.9073 0.3476
vn 0.1500 0.3925 0.9075
vn -0.0240 -0.3524 0.9355
vn -0.2125 -0.8826 0.4193
vn -0.2646 -0.9009 -0.3440
vn -0.1617 -0.3916 -0.9058
vn 0.0362 0.3470 -0.9372
vn 0.2127 0.8825 -0.4194
vn 0.2640 0.9011 0.3441
vn 0.1606 0.3919 0.9059
vn -0.0365 -0.3470 0.9372
vn -0.2381 -0.8740 0.4236
vn -0.3328 -0.8812 -0.3359
vn -0.2328 -0.3727 -0.8983
vn 0.0037 0.3543 -0.9351
vn 0.2383 0.8739 -0.4236
vn 0.3331 0.8811 0.3358
vn 0.2327 0.3727 0.8983
vn -0.0038 -0.3542 0.9351
vn -0.2770 -0.8583 0.4319
vn -0.4146 -0.8516 -0.3207
vn -0.3098 -0.3465 -0.8854
vn -0.0236 0.3622 -0.9318
vn 0.2773 0.8582 -0.4319
vn 0.4163 0.8509 0.3204
vn 0.3113 0.3458 0.8852
vn 0.0237 -0.3622 0.9318
vn -0.3307 -0.8324 0.4447
vn -0.4721 -0.8263 -0.3071
vn -0.3374 -0.3358 -0.8794
vn -0.0051 0.3516 -0.9361
vn 0.3306 0.8324 -0.4447
vn 0.4728 0.8260 0.3070
vn 0.3374 0.3358 0.8794
vn 0.0042 -0.3512 0.9363
vn -0.4076 -0.7888 0.4600
vn -0.5083 -0.8076 -0.2991
vn -0.3123 -0.3506 -0.8829
vn 0.0656 0.3109 -0.9482
vn 0.4061 0.7897 -0.4599
vn 0.5086 0.8074 0.2990
vn 0.3104 0.3518 0.8831
vn -0.0694 -0.3087 0.9486
vn -0.5421 -0.6994 0.4658
vn -0.5167 -0.8029 -0.2972
vn -0.1866 -0.4296 -0.8835
vn 0.2497 0.1895 -0.9496
vn 0.5424 0.6992 -0.4658
vn 0.5166 0.8030 0.2972
vn 0.1838 0.4315 0.8832
vn -0.2521 -0.1879 0.9493
vn -0.7063 -0.5735 0.4150
vn -0.4868 -0.8251 -0.2868
vn 0.0204 -0.5805 -0.8140
vn 0.5070 -0.0070 -0.8619
vn 0.7063 0.5735 -0.4150
vn 0.4863 0.8254 0.2866
vn -0.0240 0.5834 0.8119
vn -0.5102 0.0096 0.8600
vn -0.8439 -0.4567 0.2815
vn -0.4413 -0.8648 -0.2395
vn 0.2230 -0.7590 -0.6117
vn 0.7499 -0.2169 -0.6250
vn 0.8456 0.4551 -0.2791
vn 0.4413 0.8648 0.2395
vn -0.2205 0.7567 0.6154
vn -0.7458 0.2130 0.6312
vn -0.9029 -0.4000 0.1571
vn -0.4167 -0.8908 -0.1810
vn 0.3145 -0.8570 -0.4082
vn 0.8588 -0.3245 -0.3965
vn 0.9036 0.3993 -0.1551
vn 0.4168 0.8908 0.1811
vn -0.3130 0.8555 0.4126
vn -0.8567 0.3223 0.4027
vn -0.9216 -0.3787 0.0848
vn -0.4082 -0.9021 -0.1399
vn 0.3442 -0.8957 -0.2815
vn 0.8941 -0.3659 -0.2582
vn 0.9217 0.3786 -0.0843
vn 0.4082 0.9021 0.1398
vn -0.3441 0.8955 0.2822
vn -0.8939 0.3656 0.2596
vn -0.9295 -0.3674 0.0310
vn -0.4044 -0.9087 -0.1030
vn 0.3576 -0.9173 -0.1752
vn 0.9098 -0.3890 -0.1449
vn 0.9296 0.3673 -0.0303
vn 0.4045 0.9087 0.1033
vn -0.3574 0.9169 0.1777
vn -0.9095 0.3886 0.1478
vn -0.9309 -0.3649 0.0195
vn -0.4052 -0.9091 -0.0967
vn 0.3578 -0.9207 -0.1560
vn 0.9111 -0.3931 -0.1239
vn 0.9309 0.3648 -0.0194
vn 0.4052 0.9091 0.0968
vn -0.3577 0.9206 0.1565
vn -0.9111 0.3930 0.1245
vn -0.9319 -0.3626 0.0124
vn -0.4067 -0.9083 -0.0984
vn 0.3567 -0.9218 -0.1516
vn 0.9112 -0.3954 -0.1159
vn 0.9319 0.3626 -0.0124
vn 0.4067 0.9083 0.0984
vn -0.3567 0.9218 0.1515
vn -0.9112 0.3954 0.1159
vn -0.0256 0.0709 -0.9972
vn -0.0307 0.0018 -0.9995
vn 0.9963 -0.0770 0.0377
vn -0.0449 -0.0806 -0.9957
vn -0.9967 -0.0452 0.0680
vn -0.9928 0.1185 0.0189
vn -0.0001 1.0000 -0.0051
vn 0.1284 -0.0290 0.9913
vn 0.1037 0.0732 0.9919
vn 0.9762 0.2113 0.0490
vn 0.9988 -0.0447 -0.0185
vn 0.0124 -0.0395 0.9991
vn -0.9991 -0.0414 0.0114
vn 0.9290 -0.3653 0.0596
vn 0.3951 -0.9090 0.1328
vn -0.3702 -0.9201 0.1278
vn -0.9186 -0.3924 0.0480
vn -0.9290 0.3652 -0.0598
vn -0.3951 0.9090 -0.1328
vn 0.3702 0.9200 -0.1284
vn 0.9186 0.3923 -0.0487
vn 0.9293 -0.3628 0.0687
vn 0.3964 -0.9086 0.1313
vn -0.3687 -0.9222 0.1170
vn -0.9178 -0.3955 0.0341
vn -0.9293 0.3628 -0.0687
vn -0.3964 0.9086 -0.1313
vn 0.3687 0.9222 -0.1170
vn 0.9178 0.3955 -0.0342
vn 0.9298 -0.3613 0.0698
vn 0.3975 -0.9058 0.1464
vn -0.3677 -0.9198 0.1373
vn -0.9175 -0.3949 0.0478
vn -0.9298 0.3613 -0.0697
vn -0.3975 0.9059 -0.1464
vn 0.3677 0.9198 -0.1373
vn 0.9175 0.3949 -0.0478
vn 0.9298 -0.3558 0.0938
vn 0.3985 -0.9008 0.1724
vn -0.3665 -0.9182 0.1502
vn -0.9167 -0.3976 0.0401
vn -0.9299 0.3559 -0.0934
vn -0.3984 0.9009 -0.1723
vn 0.3665 0.9182 -0.1502
vn 0.9167 0.3976 -0.0399
vn 0.9268 -0.3426 0.1539
vn 0.3981 -0.8928 0.2108
vn -0.3647 -0.9198 0.1448
vn -0.9133 -0.4072 -0.0052
vn -0.9269 0.3430 -0.1522
vn -0.3981 0.8929 -0.2105
vn 0.3647 0.9198 -0.1446
vn 0.9131 0.4076 0.0069
vn 0.9008 -0.3077 0.3065
vn 0.3890 -0.8760 0.2849
vn -0.3563 -0.9292 0.0977
vn -0.8892 -0.4348 -0.1426
vn -0.9024 0.3089 -0.3003
vn -0.3892 0.8762 -0.2843
vn 0.3559 0.9296 -0.0962
vn 0.8873 0.4363 0.1498
vn 0.7772 -0.2424 0.5806
vn 0.3455 -0.8492 0.3993
vn -0.3117 -0.9501 -0.0161
vn -0.7827 -0.4819 -0.3938
vn -0.7969 0.2473 -0.5512
vn -0.3477 0.8497 -0.3964
vn 0.3067 0.9515 0.0228
vn 0.7601 0.4891 0.4277
vn 0.4189 -0.1906 0.8878
vn 0.2108 -0.8299 0.5166
vn -0.1133 -0.9770 -0.1805
vn -0.3388 -0.5446 -0.7672
vn -0.3803 0.1881 -0.9055
vn -0.2062 0.8295 -0.5190
vn 0.1216 0.9768 0.1761
vn 0.3821 0.5441 0.7470
vn 0.1456 -0.1983 0.9693
vn 0.1225 -0.8328 0.5398
vn 0.0327 -0.9768 -0.2115
vn -0.0690 -0.5463 -0.8347
vn -0.1334 0.1989 -0.9709
vn -0.1212 0.8329 -0.5401
vn -0.0295 0.9770 0.2110
vn 0.0833 0.5473 0.8328
vn 0.0010 -0.2113 0.9774
vn 0.0818 -0.8362 0.5423
vn 0.1168 -0.9703 -0.2117
vn 0.0852 -0.5354 -0.8403
vn 0.0029 0.2117 -0.9773
vn -0.0815 0.8362 -0.5423
vn -0.1156 0.9705 0.2117
vn -0.0804 0.5360 0.8404
vn -0.0677 -0.2194 0.9733
vn 0.0654 -0.8377 0.5421
vn 0.1611 -0.9650 -0.2067
vn 0.1630 -0.5269 -0.8341
vn 0.0689 0.2196 -0.9732
vn -0.0659 0.8377 -0.5422
vn -0.1611 0.9651 0.2067
vn -0.1613 0.5272 0.8343
vn -0.1005 -0.2254 0.9691
vn 0.0607 -0.8380 0.5422
vn 0.1882 -0.9611 -0.2022
vn 0.2040 -0.5201 -0.8294
vn 0.0973 0.2248 -0.9695
vn -0.0663 0.8372 -0.5429
vn -0.1900 0.9608 0.2021
vn -0.2035 0.5202 0.8294
vn 0.0424 -0.1917 0.9805
vn 0.2339 -0.7974 0.5562
vn 0.2883 -0.9379 -0.1928
vn 0.1748 -0.5282 -0.8310
vn -0.0404 0.1923 -0.9805
vn -0.2318 0.7981 -0.5562
vn -0.2882 0.9380 0.1928
vn -0.1748 0.5282 0.8310
vn 0.0944 -0.1694 0.9810
vn 0.3462 -0.7551 0.5567
vn 0.3948 -0.8983 -0.1927
vn 0.2124 -0.5163 -0.8297
vn -0.0942 0.1695 -0.9810
vn -0.3452 0.7556 -0.5567
vn -0.3942 0.8986 0.1927
vn -0.2127 0.5161 0.8297
vn 0.0777 -0.1750 0.9815
vn 0.4086 -0.7222 0.5581
vn 0.4985 -0.8454 -0.1920
vn 0.2966 -0.4748 -0.8286
vn -0.0785 0.1745 -0.9815
vn -0.4081 0.7225 -0.5581
vn -0.4985 0.8454 0.1920
vn -0.2979 0.4740 0.8286
vn -0.0046 -0.2252 0.9743
vn 0.4300 -0.7062 0.5624
vn 0.6084 -0.7725 -0.1819
vn 0.4281 -0.3887 -0.8159
vn 0.0005 0.2221 -0.9750
vn -0.4300 0.7062 -0.5624
vn -0.6098 0.7715 0.1816
vn -0.4337 0.3846 0.8149
vn -0.1731 -0.3648 0.9149
vn 0.3971 -0.7313 0.5545
vn 0.7343 -0.6646 -0.1384
vn 0.6352 -0.2102 -0.7432
vn 0.1706 0.3623 -0.9163
vn -0.3978 0.7306 -0.5549
vn -0.7335 0.6653 0.1389
vn -0.6362 0.2092 0.7426
vn -0.3474 -0.5582 0.7534
vn 0.3330 -0.8001 0.4990
vn 0.8236 -0.5647 -0.0524
vn 0.8258 0.0039 -0.5640
vn 0.3511 0.5628 -0.7483
vn -0.3330 0.8001 -0.4989
vn -0.8222 0.5666 0.0544
vn -0.8207 0.0027 0.5713
vn -0.4470 -0.7098 0.5444
vn 0.2884 -0.8670 0.4063
vn 0.8591 -0.5109 0.0302
vn 0.9223 0.1467 -0.3575
vn 0.4495 0.7141 -0.5367
vn -0.2881 0.8676 -0.4053
vn -0.8586 0.5118 -0.0288
vn -0.9199 -0.1420 0.3656
vn -0.4851 -0.7946 0.3650
vn 0.2694 -0.9096 0.3163
vn 0.8681 -0.4892 0.0838
vn 0.9562 0.2192 -0.1939
vn 0.4860 0.7972 -0.3581
vn -0.2692 0.9102 -0.3148
vn -0.8680 0.4895 -0.0831
vn -0.9555 -0.2168 0.2000
vn -0.4948 -0.8336 0.2453
vn 0.2639 -0.9313 0.2513
vn 0.8689 -0.4824 0.1109
vn 0.9639 0.2497 -0.0927
vn 0.4949 0.8346 -0.2419
vn -0.2638 0.9315 -0.2504
vn -0.8689 0.4824 -0.1106
vn -0.9638 -0.2489 0.0955
vn -0.4960 -0.8507 0.1740
vn 0.2628 -0.9415 0.2109
vn 0.8681 -0.4805 0.1242
vn 0.9644 0.2620 -0.0355
vn 0.4961 0.8506 -0.1744
vn -0.2628 0.9415 -0.2111
vn -0.8681 0.4805 -0.1241
vn -0.9644 -0.2620 0.0354
vn -0.4926 -0.8659 0.0864
vn 0.2644 -0.9515 0.1571
vn 0.8669 -0.4794 0.1363
vn 0.9611 0.2738 0.0366
vn 0.4925 0.8662 -0.0844
vn -0.2645 0.9516 -0.1564
vn -0.8669 0.4794 -0.1362
vn -0.9612 -0.2736 -0.0352
vn -0.4926 -0.8670 0.0752
vn 0.2640 -0.9524 0.1521
vn 0.8661 -0.4799 0.1400
vn 0.9607 0.2738 0.0462
vn 0.4926 0.8671 -0.0747
vn -0.2641 0.9525 -0.1520
vn -0.8661 0.4799 -0.1401
vn -0.9607 -0.2738 -0.0459
vn -0.4922 -0.8685 0.0584
vn 0.2631 -0.9532 0.1486
vn 0.8642 -0.4796 0.1520
vn 0.9591 0.2751 0.0663
vn 0.4922 0.8686 -0.0583
vn -0.2631 0.9532 -0.1489
vn -0.8642 0.4795 -0.1521
vn -0.9591 -0.2751 -0.0662
vn -0.4950 -0.8661 0.0699
vn 0.2580 -0.9493 0.1795
vn 0.8597 -0.4766 0.1838
vn 0.9580 0.2753 0.0806
vn 0.4950 0.8661 -0.0699
vn -0.2580 0.9493 -0.1798
vn -0.8596 0.4765 -0.1844
vn -0.9579 -0.2753 -0.0809
vn -0.4951 -0.8671 0.0550
vn 0.2491 -0.9415 0.2271
vn 0.8459 -0.4639 0.2632
vn 0.9478 0.2834 0.1464
vn 0.4952 0.8670 -0.0557
vn -0.2490 0.9413 -0.2278
vn -0.8449 0.4631 -0.2677
vn -0.9468 -0.2843 -0.1509
vn -0.4458 -0.8885 -0.1084
vn 0.2190 -0.9212 0.3217
vn 0.7482 -0.3943 0.5337
vn 0.8376 0.3317 0.4341
vn 0.4524 0.8863 0.0986
vn -0.2188 0.9211 -0.3219
vn -0.7373 0.3915 -0.5505
vn -0.8204 -0.3373 -0.4617
vn -0.1218 -0.9234 -0.3641
vn 0.1517 -0.9148 0.3744
vn 0.3094 -0.3420 0.8873
vn 0.2770 0.3992 0.8740
vn 0.1069 0.9228 0.3702
vn -0.1520 0.9148 -0.3743
vn -0.3345 0.3423 -0.8780
vn -0.3190 -0.4006 -0.8589
vn 0.1398 -0.9071 -0.3969
vn 0.1690 -0.9141 0.3687
vn 0.0949 -0.3838 0.9185
vn -0.0369 0.3692 0.9286
vn -0.1447 0.9062 0.3972
vn -0.1690 0.9141 -0.3687
vn -0.0981 0.3833 -0.9184
vn 0.0286 -0.3706 -0.9283
vn 0.2196 -0.8907 -0.3981
vn 0.2053 -0.9073 0.3668
vn 0.0703 -0.3925 0.9171
vn -0.1063 0.3522 0.9299
vn -0.2205 0.8905 0.3981
vn -0.2054 0.9073 -0.3668
vn -0.0703 0.3925 -0.9171
vn 0.1055 -0.3524 -0.9299
vn 0.2483 -0.8826 -0.3992
vn 0.2336 -0.9009 0.3658
vn 0.0822 -0.3916 0.9165
vn -0.1178 0.3470 0.9304
vn -0.2485 0.8825 0.3992
vn -0.2330 0.9011 -0.3658
vn -0.0810 0.3919 -0.9164
vn 0.1180 -0.3470 -0.9304
vn 0.2741 -0.8740 -0.4012
vn 0.3022 -0.8812 0.3636
vn 0.1536 -0.3727 0.9152
vn -0.0852 0.3543 0.9312
vn -0.2743 0.8739 0.4012
vn -0.3025 0.8811 -0.3636
vn -0.1535 0.3727 -0.9152
vn 0.0853 -0.3542 -0.9313
vn 0.3136 -0.8583 -0.4061
vn 0.3850 -0.8516 0.3556
vn 0.2314 -0.3465 0.9091
vn -0.0577 0.3622 0.9303
vn -0.3139 0.8582 0.4061
vn -0.3868 0.8509 -0.3555
vn -0.2330 0.3458 -0.9089
vn 0.0576 -0.3622 -0.9303
vn 0.3682 -0.8324 -0.4142
vn 0.4435 -0.8263 0.3471
vn 0.2595 -0.3358 0.9055
vn -0.0766 0.3516 0.9330
vn -0.3681 0.8324 0.4142
vn -0.4443 0.8260 -0.3470
vn -0.2595 0.3358 -0.9055
vn 0.0774 -0.3512 -0.9331
vn 0.4461 -0.7888 -0.4228
vn 0.4803 -0.8076 0.3422
vn 0.2342 -0.3506 0.9068
vn -0.1480 0.3109 0.9388
vn -0.4446 0.7897 0.4228
vn -0.4806 0.8074 -0.3422
vn -0.2322 0.3518 -0.9068
vn 0.1518 -0.3087 -0.9390
vn 0.5807 -0.6994 -0.4168
vn 0.4889 -0.8029 0.3411
vn 0.1089 -0.4296 0.8964
vn -0.3315 0.1895 0.9242
vn -0.5810 0.6992 0.4167
vn -0.4887 0.8030 -0.3411
vn -0.1061 0.4315 -0.8958
vn 0.3338 -0.1879 -0.9237
vn 0.7398 -0.5735 -0.3519
vn 0.4600 -0.8251 0.3282
vn -0.0913 -0.5805 0.8091
vn -0.5802 -0.0070 0.8145
vn -0.7398 0.5735 0.3519
vn -0.4595 0.8254 -0.3279
vn 0.0947 0.5834 -0.8067
vn 0.5832 0.0096 -0.8123
vn 0.8653 -0.4567 -0.2069
vn 0.4187 -0.8648 0.2770
vn -0.2755 -0.7590 0.5900
vn -0.8015 -0.2169 0.5572
vn -0.8667 0.4551 0.2043
vn -0.4187 0.8648 -0.2770
vn 0.2733 0.7567 -0.5938
vn 0.7979 0.2130 -0.5638
vn 0.9132 -0.4000 -0.0778
vn 0.3994 -0.8908 0.2166
vn -0.3489 -0.8570 0.3793
vn -0.8901 -0.3245 0.3201
vn -0.9137 0.3993 0.0758
vn -0.3994 0.8908 -0.2168
vn 0.3478 0.8555 -0.3837
vn 0.8886 0.3223 -0.3265
vn 0.9255 -0.3787 -0.0041
vn 0.3945 -0.9021 0.1749
vn -0.3674 -0.8957 0.2504
vn -0.9132 -0.3659 0.1793
vn -0.9255 0.3786 0.0036
vn -0.3945 0.9021 -0.1749
vn 0.3674 0.8955 -0.2512
vn 0.9131 0.3656 -0.1807
vn 0.9287 -0.3674 0.0501
vn 0.3939 -0.9087 0.1379
vn -0.3715 -0.9173 0.1433
vn -0.9189 -0.3890 0.0650
vn -0.9287 0.3673 -0.0508
vn -0.3939 0.9087 -0.1382
vn 0.3715 0.9169 -0.1458
vn 0.9189 0.3885 -0.0680
vn 0.9290 -0.3649 0.0617
vn 0.3953 -0.9091 0.1317
vn -0.3700 -0.9207 0.1242
vn -0.9185 -0.3931 0.0440
vn -0.9290 0.3648 -0.0618
vn -0.3953 0.9091 -0.1317
vn 0.3700 0.9206 -0.1247
vn 0.9185 0.3930 -0.0447
vn 0.9294 -0.3626 0.0689
vn 0.3965 -0.9083 0.1335
vn -0.3686 -0.9218 0.1199
vn -0.9178 -0.3954 0.0360
vn -0.9294 0.3626 -0.0689
vn -0.3965 0.9083 -0.1334
vn 0.3686 0.9218 -0.1198
vn 0.9178 0.3954 -0.0361
vt 0.499695 0.287540
vt 0.000575 0.287540
vt 0.000575 0.273772
vt 0.499695 0.273772
vt 0.000575 0.255082
vt 0.499695 0.255082
vt 0.000575 0.236392
vt 0.499695 0.236392
vt 0.000575 0.217702
vt 0.499695 0.217702
vt 0.000575 0.199012
vt 0.499695 0.199012
vt 0.000575 0.180322
vt 0.499695 0.180322
vt 0.000575 0.161633
vt 0.499694 0.161633
vt 0.000575 0.149095
vt 0.499695 0.149095
vt 0.571099 0.600450
vt 0.546407 0.600450
vt 0.546407 0.551068
vt 0.571099 0.551068
vt 0.595790 0.551068
vt 0.620481 0.551068
vt 0.620481 0.600450
vt 0.595790 0.600450
vt 0.571099 0.649833
vt 0.546407 0.649833
vt 0.620481 0.649833
vt 0.595790 0.649833
vt 0.793320 0.551068
vt 0.768629 0.551068
vt 0.768629 0.501685
vt 0.793320 0.501685
vt 0.818011 0.501685
vt 0.842702 0.501685
vt 0.842702 0.551068
vt 0.818011 0.551068
vt 0.546407 0.501685
vt 0.571099 0.501685
vt 0.595790 0.501685
vt 0.620481 0.501685
vt 0.645172 0.551068
vt 0.645172 0.501685
vt 0.669864 0.501685
vt 0.694555 0.501685
vt 0.694555 0.551068
vt 0.669864 0.551068
vt 0.645172 0.600450
vt 0.694555 0.600450
vt 0.669864 0.600450
vt 0.546576 0.551081
vt 0.546576 0.526644
vt 0.571014 0.526644
vt 0.595451 0.526644
vt 0.619889 0.526644
vt 0.619889 0.551081
vt 0.619889 0.575519
vt 0.619889 0.599957
vt 0.595451 0.599957
vt 0.571014 0.599957
vt 0.546576 0.599957
vt 0.546576 0.575519
vt 0.719246 0.551068
vt 0.719246 0.501685
vt 0.743937 0.501685
vt 0.743937 0.551068
vt 0.719246 0.600450
vt 0.768629 0.600450
vt 0.743937 0.600450
vt 0.793320 0.600450
vt 0.842702 0.600450
vt 0.818011 0.600450
vt 0.793320 0.649833
vt 0.768629 0.649833
vt 0.842702 0.649833
vt 0.818011 0.649833
vt 0.719246 0.649833
vt 0.694555 0.649833
vt 0.743937 0.649833
vt 0.645172 0.649833
vt 0.669864 0.649833
s 0
f 1/1/1 2/2/1 4/3/1 3/4/1
f 3/4/2 4/3/2 6/5/2 5/6/2
f 5/6/3 6/5/3 8/7/3 7/8/3
f 7/8/4 8/7/4 10/9/4 9/10/4
f 9/10/5 10/9/5 12/11/5 11/12/5
f 11/12/6 12/11/6 14/13/6 13/14/6
f 13/14/7 14/13/7 16/15/7 15/16/7
f 15/16/8 16/15/8 2/17/8 1/18/8
f 17/1/9 18/2/9 20/3/9 19/4/9
f 19/4/10 20/3/10 22/5/10 21/6/10
f 21/6/11 22/5/11 24/7/11 23/8/11
f 23/8/12 24/7/12 26/9/12 25/10/12
f 25/10/13 26/9/13 28/11/13 27/12/13
f 27/12/14 28/11/14 30/13/14 29/14/14
f 29/14/15 30/13/15 32/15/15 31/16/15
f 31/16/16 32/15/16 18/17/16 17/18/16
f 33/1/17 34/2/17 36/3/17 35/4/17
f 35/4/18 36/3/18 38/5/18 37/6/18
f 37/6/19 38/5/19 40/7/19 39/8/19
f 39/8/20 40/7/20 42/9/20 41/10/20
f 41/10/21 42/9/21 44/11/21 43/12/21
f 43/12/22 44/11/22 46/13/22 45/14/22
f 45/14/23 46/13/23 48/15/23 47/16/23
f 47/16/24 48/15/24 34/17/24 33/18/24
f 49/1/25 50/2/25 52/3/25 51/4/25
f 51/4/26 52/3/26 54/5/26 53/6/26
f 53/6/27 54/5/27 56/7/27 55/8/27
f 55/8/28 56/7/28 58/9/28 57/10/28
f 57/10/29 58/9/29 60/11/29 59/12/29
f 59/12/30 60/11/30 62/13/30 61/14/30
f 61/14/31 62/13/31 64/15/31 63/16/31
f 63/16/32 64/15/32 50/17/32 49/18/32
f 65/1/33 66/2/33 68/3/33 67/4/33
f 67/4/34 68/3/34 70/5/34 69/6/34
f 69/6/35 70/5/35 72/7/35 71/8/35
f 71/8/36 72/7/36 74/9/36 73/10/36
f 73/10/37 74/9/37 76/11/37 75/12/37
f 75/12/38 76/11/38 78/13/38 77/14/38
f 77/14/39 78/13/39 80/15/39 79/16/39
f 79/16/40 80/15/40 66/17/40 65/18/40
f 81/1/41 82/2/41 84/3/41 83/4/41
f 83/4/42 84/3/42 86/5/42 85/6/42
f 85/6/43 86/5/43 88/7/43 87/8/43
f 87/8/44 88/7/44 90/9/44 89/10/44
f 89/10/45 90/9/45 92/11/45 91/12/45
f 91/12/46 92/11/46 94/13/46 93/14/46
f 93/14/47 94/13/47 96/15/47 95/16/47
f 95/16/48 96/15/48 82/17/48 81/18/48
f 97/1/49 98/2/49 100/3/49 99/4/49
f 99/4/50 100/3/50 102/5/50 101/6/50
f 101/6/51 102/5/51 104/7/51 103/8/51
f 103/8/52 104/7/52 106/9/52 105/10/52
f 105/10/53 106/9/53 108/11/53 107/12/53
f 107/12/54 108/11/54 110/13/54 109/14/54
f 109/14/55 110/13/55 112/15/55 111/16/55
f 111/16/56 112/15/56 98/17/56 97/18/56
f 113/1/57 114/2/57 116/3/57 115/4/57
f 115/4/58 116/3/58 118/5/58 117/6/58
f 117/6/59 118/5/59 120/7/59 119/8/59
f 119/8/60 120/7/60 122/9/60 121/10/60
f 121/10/61 122/9/61 124/11/61 123/12/61
f 123/12/62 124/11/62 126/13/62 125/14/62
f 125/14/63 126/13/63 128/15/63 127/16/63
f 127/16/64 128/15/64 114/17/64 113/18/64
f 129/1/65 130/2/65 132/3/65 131/4/65
f 131/4/66 132/3/66 134/5/66 133/6/66
f 133/6/67 134/5/67 136/7/67 135/8/67
f 135/8/68 136/7/68 138/9/68 137/10/68
f 137/10/69 138/9/69 140/11/69 139/12/69
f 139/12/70 140/11/70 142/13/70 141/14/70
f 141/14/71 142/13/71 144/15/71 143/16/71
f 143/16/72 144/15/72 130/17/72 129/18/72
f 145/1/73 146/2/73 148/3/73 147/4/73
f 147/4/74 148/3/74 150/5/74 149/6/74
f 149/6/75 150/5/75 152/7/75 151/8/75
f 151/8/76 152/7/76 154/9/76 153/10/76
f 153/10/77 154/9/77 156/11/77 155/12/77
f 155/12/78 156/11/78 158/13/78 157/14/78
f 157/14/79 158/13/79 160/15/79 159/16/79
f 159/16/80 160/15/80 146/17/80 145/18/80
f 161/1/81 162/2/81 164/3/81 163/4/81
f 163/4/82 164/3/82 166/5/82 165/6/82
f 165/6/83 166/5/83 168/7/83 167/8/83
f 167/8/84 168/7/84 170/9/84 169/10/84
f 169/10/85 170/9/85 172/11/85 171/12/85
f 171/12/86 172/11/86 174/13/86 173/14/86
f 173/14/87 174/13/87 176/15/87 175/16/87
f 175/16/88 176/15/88 162/17/88 161/18/88
f 177/1/89 178/2/89 180/3/89 179/4/89
f 179/4/90 180/3/90 182/5/90 181/6/90
f 181/6/91 182/5/91 184/7/91 183/8/91
f 183/8/92 184/7/92 186/9/92 185/10/92
f 185/10/93 186/9/93 188/11/93 187/12/93
f 187/12/94 188/11/94 190/13/94 189/14/94
f 189/14/95 190/13/95 192/15/95 191/16/95
f 191/16/96 192/15/96 178/17/96 177/18/96
f 193/1/97 194/2/97 196/3/97 195/4/97
f 195/4/98 196/3/98 198/5/98 197/6/98
f 197/6/99 198/5/99 200/7/99 199/8/99
f 199/8/100 200/7/100 202/9/100 201/10/100
f 201/10/101 202/9/101 204/11/101 203/12/101
f 203/12/102 204/11/102 206/13/102 205/14/102
f 205/14/103 206/13/103 208/15/103 207/16/103
f 207/16/104 208/15/104 194/17/104 193/18/104
f 209/1/105 210/2/105 212/3/105 211/4/105
f 211/4/106 212/3/106 214/5/106 213/6/106
f 213/6/107 214/5/107 216/7/107 215/8/107
f 215/8/108 216/7/108 218/9/108 217/10/108
f 217/10/109 218/9/109 220/11/109 219/12/109
f 219/12/110 220/11/110 222/13/110 221/14/110
f 221/14/111 222/13/111 224/15/111 223/16/111
f 223/16/112 224/15/112 210/17/112 209/18/112
f 225/1/113 226/2/113 228/3/113 227/4/113
f 227/4/114 228/3/114 230/5/114 229/6/114
f 229/6/115 230/5/115 232/7/115 231/8/115
f 231/8/116 232/7/116 234/9/116 233/10/116
f 233/10/117 234/9/117 236/11/117 235/12/117
f 235/12/118 236/11/118 238/13/118 237/14/118
f 237/14/119 238/13/119 240/15/119 239/16/119
f 239/16/120 240/15/120 226/17/120 225/18/120
f 241/1/121 242/2/121 244/3/121 243/4/121
f 243/4/122 244/3/122 246/5/122 245/6/122
f 245/6/123 246/5/123 248/7/123 247/8/123
f 247/8/124 248/7/124 250/9/124 249/10/124
f 249/10/125 250/9/125 252/11/125 251/12/125
f 251/12/126 252/11/126 254/13/126 253/14/126
f 253/14/127 254/13/127 256/15/127 255/16/127
f 255/16/128 256/15/128 242/17/128 241/18/128
f 257/1/129 258/2/129 260/3/129 259/4/129
f 259/4/130 260/3/130 262/5/130 261/6/130
f 261/6/131 262/5/131 264/7/131 263/8/131
f 263/8/132 264/7/132 266/9/132 265/10/132
f 265/10/133 266/9/133 268/11/133 267/12/133
f 267/12/134 268/11/134 270/13/134 269/14/134
f 269/14/135 270/13/135 272/15/135 271/16/135
f 271/16/136 272/15/136 258/17/136 257/18/136
f 273/1/137 274/2/137 276/3/137 275/4/137
f 275/4/138 276/3/138 278/5/138 277/6/138
f 277/6/139 278/5/139 280/7/139 279/8/139
f 279/8/140 280/7/140 282/9/140 281/10/140
f 281/10/141 282/9/141 284/11/141 283/12/141
f 283/12/142 284/11/142 286/13/142 285/14/142
f 285/14/143 286/13/143 288/15/143 287/16/143
f 287/16/144 288/15/144 274/17/144 273/18/144
f 289/1/145 290/2/145 292/3/145 291/4/145
f 291/4/146 292/3/146 294/5/146 293/6/146
f 293/6/147 294/5/147 296/7/147 295/8/147
f 295/8/148 296/7/148 298/9/148 297/10/148
f 297/10/149 298/9/149 300/11/149 299/12/149
f 299/12/150 300/11/150 302/13/150 301/14/150
f 301/14/151 302/13/151 304/15/151 303/16/151
f 303/16/152 304/15/152 290/17/152 289/18/152
f 305/1/153 306/2/153 308/3/153 307/4/153
f 307/4/154 308/3/154 310/5/154 309/6/154
f 309/6/155 310/5/155 312/7/155 311/8/155
f 311/8/156 312/7/156 314/9/156 313/10/156
f 313/10/157 314/9/157 316/11/157 315/12/157
f 315/12/158 316/11/158 318/13/158 317/14/158
f 317/14/159 318/13/159 320/15/159 319/16/159
f 319/16/160 320/15/160 306/17/160 305/18/160
f 321/1/161 322/2/161 324/3/161 323/4/161
f 323/4/162 324/3/162 326/5/162 325/6/162
f 325/6/163 326/5/163 328/7/163 327/8/163
f 327/8/164 328/7/164 330/9/164 329/10/164
f 329/10/165 330/9/165 332/11/165 331/12/165
f 331/12/166 332/11/166 334/13/166 333/14/166
f 333/14/167 334/13/167 336/15/167 335/16/167
f 335/16/168 336/15/168 322/17/168 321/18/168
f 337/1/169 338/2/169 340/3/169 339/4/169
f 339/4/170 340/3/170 342/5/170 341/6/170
f 341/6/171 342/5/171 344/7/171 343/8/171
f 343/8/172 344/7/172 346/9/172 345/10/172
f 345/10/173 346/9/173 348/11/173 347/12/173
f 347/12/174 348/11/174 350/13/174 349/14/174
f 349/14/175 350/13/175 352/15/175 351/16/175
f 351/16/176 352/15/176 338/17/176 337/18/176
f 353/1/177 354/2/177 356/3/177 355/4/177
f 355/4/178 356/3/178 358/5/178 357/6/178
f 357/6/179 358/5/179 360/7/179 359/8/179
f 359/8/180 360/7/180 362/9/180 361/10/180
f 361/10/181 362/9/181 364/11/181 363/12/181
f 363/12/182 364/11/182 366/13/182 365/14/182
f 365/14/183 366/13/183 368/15/183 367/16/183
f 367/16/184 368/15/184 354/17/184 353/18/184
f 369/1/185 370/2/185 372/3/185 371/4/185
f 371/4/186 372/3/186 374/5/186 373/6/186
f 373/6/187 374/5/187 376/7/187 375/8/187
f 375/8/188 376/7/188 378/9/188 377/10/188
f 377/10/189 378/9/189 380/11/189 379/12/189
f 379/12/190 380/11/190 382/13/190 381/14/190
f 381/14/191 382/13/191 384/15/191 383/16/191
f 383/16/192 384/15/192 370/17/192 369/18/192
f 385/1/193 386/2/193 388/3/193 387/4/193
f 387/4/194 388/3/194 390/5/194 389/6/194
f 389/6/195 390/5/195 392/7/195 391/8/195
f 391/8/196 392/7/196 394/9/196 393/10/196
f 393/10/197 394/9/197 396/11/197 395/12/197
f 395/12/198 396/11/198 398/13/198 397/14/198
f 397/14/199 398/13/199 400/15/199 399/16/199
f 399/16/200 400/15/200 386/17/200 385/18/200
f 401/1/201 402/2/201 404/3/201 403/4/201
f 403/4/202 404/3/202 406/5/202 405/6/202
f 405/6/203 406/5/203 408/7/203 407/8/203
f 407/8/204 408/7/204 410/9/204 409/10/204
f 409/10/205 410/9/205 412/11/205 411/12/205
f 411/12/206 412/11/206 414/13/206 413/14/206
f 413/14/207 414/13/207 416/15/207 415/16/207
f 415/16/208 416/15/208 402/17/208 401/18/208
f 417/1/209 418/2/209 420/3/209 419/4/209
f 419/4/210 420/3/210 422/5/210 421/6/210
f 421/6/211 422/5/211 424/7/211 423/8/211
f 423/8/212 424/7/212 426/9/212 425/10/212
f 425/10/213 426/9/213 428/11/213 427/12/213
f 427/12/214 428/11/214 430/13/214 429/14/214
f 429/14/215 430/13/215 432/15/215 431/16/215
f 431/16/216 432/15/216 418/17/216 417/18/216
f 433/1/217 434/2/217 436/3/217 435/4/217
f 435/4/218 436/3/218 438/5/218 437/6/218
f 437/6/219 438/5/219 440/7/219 439/8/219
f 439/8/220 440/7/220 442/9/220 441/10/220
f 441/10/221 442/9/221 444/11/221 443/12/221
f 443/12/222 444/11/222 446/13/222 445/14/222
f 445/14/223 446/13/223 448/15/223 447/16/223
f 447/16/224 448/15/224 434/17/224 433/18/224
f 449/1/225 450/2/225 452/3/225 451/4/225
f 451/4/226 452/3/226 454/5/226 453/6/226
f 453/6/227 454/5/227 456/7/227 455/8/227
f 455/8/228 456/7/228 458/9/228 457/10/228
f 457/10/229 458/9/229 460/11/229 459/12/229
f 459/12/230 460/11/230 462/13/230 461/14/230
f 461/14/231 462/13/231 464/15/231 463/16/231
f 463/16/232 464/15/232 450/17/232 449/18/232
f 465/1/233 466/2/233 468/3/233 467/4/233
f 467/4/234 468/3/234 470/5/234 469/6/234
f 469/6/235 470/5/235 472/7/235 471/8/235
f 471/8/236 472/7/236 474/9/236 473/10/236
f 473/10/237 474/9/237 476/11/237 475/12/237
f 475/12/238 476/11/238 478/13/238 477/14/238
f 477/14/239 478/13/239 480/15/239 479/16/239
f 479/16/240 480/15/240 466/17/240 465/18/240
f 481/1/241 482/2/241 484/3/241 483/4/241
f 483/4/242 484/3/242 486/5/242 485/6/242
f 485/6/243 486/5/243 488/7/243 487/8/243
f 487/8/244 488/7/244 490/9/244 489/10/244
f 489/10/245 490/9/245 492/11/245 491/12/245
f 491/12/246 492/11/246 494/13/246 493/14/246
f 493/14/247 494/13/247 496/15/247 495/16/247
f 495/16/248 496/15/248 482/17/248 481/18/248
f 497/1/249 498/2/249 500/3/249 499/4/249
f 499/4/250 500/3/250 502/5/250 501/6/250
f 501/6/251 502/5/251 504/7/251 503/8/251
f 503/8/252 504/7/252 506/9/252 505/10/252
f 505/10/253 506/9/253 508/11/253 507/12/253
f 507/12/254 508/11/254 510/13/254 509/14/254
f 509/14/255 510/13/255 512/15/255 511/16/255
f 511/16/256 512/15/256 498/17/256 497/18/256
f 513/1/257 514/2/257 516/3/257 515/4/257
f 515/4/258 516/3/258 518/5/258 517/6/258
f 517/6/259 518/5/259 520/7/259 519/8/259
f 519/8/260 520/7/260 522/9/260 521/10/260
f 521/10/261 522/9/261 524/11/261 523/12/261
f 523/12/262 524/11/262 526/13/262 525/14/262
f 525/14/263 526/13/263 528/15/263 527/16/263
f 527/16/264 528/15/264 514/17/264 513/18/264
f 529/1/265 530/2/265 532/3/265 531/4/265
f 531/4/266 532/3/266 534/5/266 533/6/266
f 533/6/267 534/5/267 536/7/267 535/8/267
f 535/8/268 536/7/268 538/9/268 537/10/268
f 537/10/269 538/9/269 540/11/269 539/12/269
f 539/12/270 540/11/270 542/13/270 541/14/270
f 541/14/271 542/13/271 544/15/271 543/16/271
f 543/16/272 544/15/272 530/17/272 529/18/272
f 545/1/273 546/2/273 548/3/273 547/4/273
f 547/4/274 548/3/274 550/5/274 549/6/274
f 549/6/275 550/5/275 552/7/275 551/8/275
f 551/8/276 552/7/276 554/9/276 553/10/276
f 553/10/277 554/9/277 556/11/277 555/12/277
f 555/12/278 556/11/278 558/13/278 557/14/278
f 557/14/279 558/13/279 560/15/279 559/16/279
f 559/16/280 560/15/280 546/17/280 545/18/280
f 561/1/281 562/2/281 564/3/281 563/4/281
f 563/4/282 564/3/282 566/5/282 565/6/282
f 565/6/283 566/5/283 568/7/283 567/8/283
f 567/8/284 568/7/284 570/9/284 569/10/284
f 569/10/285 570/9/285 572/11/285 571/12/285
f 571/12/286 572/11/286 574/13/286 573/14/286
f 573/14/287 574/13/287 576/15/287 575/16/287
f 575/16/288 576/15/288 562/17/288 561/18/288
f 577/1/289 578/2/289 580/3/289 579/4/289
f 579/4/290 580/3/290 582/5/290 581/6/290
f 581/6/291 582/5/291 584/7/291 583/8/291
f 583/8/292 584/7/292 586/9/292 585/10/292
f 585/10/293 586/9/293 588/11/293 587/12/293
f 587/12/294 588/11/294 590/13/294 589/14/294
f 589/14/295 590/13/295 592/15/295 591/16/295
f 591/16/296 592/15/296 578/17/296 577/18/296
f 593/1/297 594/2/297 596/3/297 595/4/297
f 595/4/298 596/3/298 598/5/298 597/6/298
f 597/6/299 598/5/299 600/7/299 599/8/299
f 599/8/300 600/7/300 602/9/300 601/10/300
f 601/10/301 602/9/301 604/11/301 603/12/301
f 603/12/302 604/11/302 606/13/302 605/14/302
f 605/14/303 606/13/303 608/15/303 607/16/303
f 607/16/304 608/15/304 594/17/304 593/18/304
f 609/1/305 610/2/305 612/3/305 611/4/305
f 611/4/306 612/3/306 614/5/306 613/6/306
f 613/6/307 614/5/307 616/7/307 615/8/307
f 615/8/308 616/7/308 618/9/308 617/10/308
f 617/10/309 618/9/309 620/11/309 619/12/309
f 619/12/310 620/11/310 622/13/310 621/14/310
f 621/14/311 622/13/311 624/15/311 623/16/311
f 623/16/312 624/15/312 610/17/312 609/18/312
f 625/1/313 626/2/313 628/3/313 627/4/313
f 627/4/314 628/3/314 630/5/314 629/6/314
f 629/6/315 630/5/315 632/7/315 631/8/315
f 631/8/316 632/7/316 634/9/316 633/10/316
f 633/10/317 634/9/317 636/11/317 635/12/317
f 635/12/318 636/11/318 638/13/318 637/14/318
f 637/14/319 638/13/319 640/15/319 639/16/319
f 639/16/320 640/15/320 626/17/320 625/18/320
f 641/1/321 642/2/321 644/3/321 643/4/321
f 643/4/322 644/3/322 646/5/322 645/6/322
f 645/6/323 646/5/323 648/7/323 647/8/323
f 647/8/324 648/7/324 650/9/324 649/10/324
f 649/10/325 650/9/325 652/11/325 651/12/325
f 651/12/326 652/11/326 654/13/326 653/14/326
f 653/14/327 654/13/327 656/15/327 655/16/327
f 655/16/328 656/15/328 642/17/328 641/18/328
f 657/1/329 658/2/329 660/3/329 659/4/329
f 659/4/330 660/3/330 662/5/330 661/6/330
f 661/6/331 662/5/331 664/7/331 663/8/331
f 663/8/332 664/7/332 666/9/332 665/10/332
f 665/10/333 666/9/333 668/11/333 667/12/333
f 667/12/334 668/11/334 670/13/334 669/14/334
f 669/14/335 670/13/335 672/15/335 671/16/335
f 671/16/336 672/15/336 658/17/336 657/18/336
f 673/1/337 674/2/337 676/3/337 675/4/337
f 675/4/338 676/3/338 678/5/338 677/6/338
f 677/6/339 678/5/339 680/7/339 679/8/339
f 679/8/340 680/7/340 682/9/340 681/10/340
f 681/10/341 682/9/341 684/11/341 683/12/341
f 683/12/342 684/11/342 686/13/342 685/14/342
f 685/14/343 686/13/343 688/15/343 687/16/343
f 687/16/344 688/15/344 674/17/344 673/18/344
f 689/1/345 690/2/345 692/3/345 691/4/345
f 691/4/346 692/3/346 694/5/346 693/6/346
f 693/6/347 694/5/347 696/7/347 695/8/347
f 695/8/348 696/7/348 698/9/348 697/10/348
f 697/10/349 698/9/349 700/11/349 699/12/349
f 699/12/350 700/11/350 702/13/350 701/14/350
f 701/14/351 702/13/351 704/15/351 703/16/351
f 703/16/352 704/15/352 690/17/352 689/18/352
f 740/19/353 718/20/353 717/21/353 738/22/353 737/23/353 732/24/353 731/25/353 739/26/353
f 735/27/354 706/28/354 718/20/354 740/19/354 739/26/354 731/25/354 712/29/354 736/30/354
f 750/31/355 720/32/355 707/33/355 714/34/355 713/35/355 705/36/355 717/37/355 749/38/355
f 738/22/356 717/21/356 705/39/356 734/40/356 733/41/356 711/42/356 732/24/356 737/23/356
f 742/43/357 732/24/357 711/42/357 728/44/357 727/45/357 709/46/357 726/47/357 741/48/357
f 744/49/358 731/25/358 732/24/358 742/43/358 741/48/358 726/47/358 725/50/358 743/51/358
f 736/52/359 712/53/359 729/54/359 730/55/359 710/56/359 723/57/359 724/58/359 708/59/359 715/60/359 716/61/359 706/62/359 735/63/359
f 746/64/360 726/47/360 709/46/360 722/65/360 721/66/360 707/33/360 720/32/360 745/67/360
f 748/68/361 725/50/361 726/47/361 746/64/361 745/67/361 720/32/361 719/69/361 747/70/361
f 752/71/362 719/69/362 720/32/362 750/31/362 749/38/362 717/37/362 718/72/362 751/73/362
f 715/74/363 708/75/363 719/69/363 752/71/363 751/73/363 718/72/363 706/76/363 716/77/363
f 723/78/364 710/79/364 725/50/364 748/68/364 747/70/364 719/69/364 708/75/364 724/80/364
f 729/81/365 712/29/365 731/25/365 744/49/365 743/51/365 725/50/365 710/79/365 730/82/365
f 753/1/366 754/2/366 756/3/366 755/4/366
f 755/4/367 756/3/367 758/5/367 757/6/367
f 757/6/368 758/5/368 760/7/368 759/8/368
f 759/8/369 760/7/369 762/9/369 761/10/369
f 761/10/370 762/9/370 764/11/370 763/12/370
f 763/12/371 764/11/371 766/13/371 765/14/371
f 765/14/372 766/13/372 768/15/372 767/16/372
f 767/16/373 768/15/373 754/17/373 753/18/373
f 769/1/374 770/2/374 772/3/374 771/4/374
f 771/4/375 772/3/375 774/5/375 773/6/375
f 773/6/376 774/5/376 776/7/376 775/8/376
f 775/8/377 776/7/377 778/9/377 777/10/377
f 777/10/378 778/9/378 780/11/378 779/12/378
f 779/12/379 780/11/379 782/13/379 781/14/379
f 781/14/380 782/13/380 784/15/380 783/16/380
f 783/16/381 784/15/381 770/17/381 769/18/381
f 785/1/382 786/2/382 788/3/382 787/4/382
f 787/4/383 788/3/383 790/5/383 789/6/383
f 789/6/384 790/5/384 792/7/384 791/8/384
f 791/8/385 792/7/385 794/9/385 793/10/385
f 793/10/386 794/9/386 796/11/386 795/12/386
f 795/12/387 796/11/387 798/13/387 797/14/387
f 797/14/388 798/13/388 800/15/388 799/16/388
f 799/16/389 800/15/389 786/17/389 785/18/389
f 801/1/390 802/2/390 804/3/390 803/4/390
f 803/4/391 804/3/391 806/5/391 805/6/391
f 805/6/392 806/5/392 808/7/392 807/8/392
f 807/8/393 808/7/393 810/9/393 809/10/393
f 809/10/394 810/9/394 812/11/394 811/12/394
f 811/12/395 812/11/395 814/13/395 813/14/395
f 813/14/396 814/13/396 816/15/396 815/16/396
f 815/16/397 816/15/397 802/17/397 801/18/397
f 817/1/398 818/2/398 820/3/398 819/4/398
f 819/4/399 820/3/399 822/5/399 821/6/399
f 821/6/400 822/5/400 824/7/400 823/8/400
f 823/8/401 824/7/401 826/9/401 825/10/401
f 825/10/402 826/9/402 828/11/402 827/12/402
f 827/12/403 828/11/403 830/13/403 829/14/403
f 829/14/404 830/13/404 832/15/404 831/16/404
f 831/16/405 832/15/405 818/17/405 817/18/405
f 833/1/406 834/2/406 836/3/406 835/4/406
f 835/4/407 836/3/407 838/5/407 837/6/407
f 837/6/408 838/5/408 840/7/408 839/8/408
f 839/8/409 840/7/409 842/9/409 841/10/409
f 841/10/410 842/9/410 844/11/410 843/12/410
f 843/12/411 844/11/411 846/13/411 845/14/411
f 845/14/412 846/13/412 848/15/412 847/16/412
f 847/16/413 848/15/413 834/17/413 833/18/413
f 849/1/414 850/2/414 852/3/414 851/4/414
f 851/4/415 852/3/415 854/5/415 853/6/415
f 853/6/416 854/5/416 856/7/416 855/8/416
f 855/8/417 856/7/417 858/9/417 857/10/417
f 857/10/418 858/9/418 860/11/418 859/12/418
f 859/12/419 860/11/419 862/13/419 861/14/419
f 861/14/420 862/13/420 864/15/420 863/16/420
f 863/16/421 864/15/421 850/17/421 849/18/421
f 865/1/422 866/2/422 868/3/422 867/4/422
f 867/4/423 868/3/423 870/5/423 869/6/423
f 869/6/424 870/5/424 872/7/424 871/8/424
f 871/8/425 872/7/425 874/9/425 873/10/425
f 873/10/426 874/9/426 876/11/426 875/12/426
f 875/12/427 876/11/427 878/13/427 877/14/427
f 877/14/428 878/13/428 880/15/428 879/16/428
f 879/16/429 880/15/429 866/17/429 865/18/429
f 881/1/430 882/2/430 884/3/430 883/4/430
f 883/4/431 884/3/431 886/5/431 885/6/431
f 885/6/432 886/5/432 888/7/432 887/8/432
f 887/8/433 888/7/433 890/9/433 889/10/433
f 889/10/434 890/9/434 892/11/434 891/12/434
f 891/12/435 892/11/435 894/13/435 893/14/435
f 893/14/436 894/13/436 896/15/436 895/16/436
f 895/16/437 896/15/437 882/17/437 881/18/437
f 897/1/438 898/2/438 900/3/438 899/4/438
f 899/4/439 900/3/439 902/5/439 901/6/439
f 901/6/440 902/5/440 904/7/440 903/8/440
f 903/8/441 904/7/441 906/9/441 905/10/441
f 905/10/442 906/9/442 908/11/442 907/12/442
f 907/12/443 908/11/443 910/13/443 909/14/443
f 909/14/444 910/13/444 912/15/444 911/16/444
f 911/16/445 912/15/445 898/17/445 897/18/445
f 913/1/446 914/2/446 916/3/446 915/4/446
f 915/4/447 916/3/447 918/5/447 917/6/447
f 917/6/448 918/5/448 920/7/448 919/8/448
f 919/8/449 920/7/449 922/9/449 921/10/449
f 921/10/450 922/9/450 924/11/450 923/12/450
f 923/12/451 924/11/451 926/13/451 925/14/451
f 925/14/452 926/13/452 928/15/452 927/16/452
f 927/16/453 928/15/453 914/17/453 913/18/453
f 929/1/454 930/2/454 932/3/454 931/4/454
f 931/4/455 932/3/455 934/5/455 933/6/455
f 933/6/456 934/5/456 936/7/456 935/8/456
f 935/8/457 936/7/457 938/9/457 937/10/457
f 937/10/458 938/9/458 940/11/458 939/12/458
f 939/12/459 940/11/459 942/13/459 941/14/459
f 941/14/460 942/13/460 944/15/460 943/16/460
f 943/16/461 944/15/461 930/17/461 929/18/461
f 945/1/462 946/2/462 948/3/462 947/4/462
f 947/4/463 948/3/463 950/5/463 949/6/463
f 949/6/464 950/5/464 952/7/464 951/8/464
f 951/8/465 952/7/465 954/9/465 953/10/465
f 953/10/466 954/9/466 956/11/466 955/12/466
f 955/12/467 956/11/467 958/13/467 957/14/467
f 957/14/468 958/13/468 960/15/468 959/16/468
f 959/16/469 960/15/469 946/17/469 945/18/469
f 961/1/470 962/2/470 964/3/470 963/4/470
f 963/4/471 964/3/471 966/5/471 965/6/471
f 965/6/472 966/5/472 968/7/472 967/8/472
f 967/8/473 968/7/473 970/9/473 969/10/473
f 969/10/474 970/9/474 972/11/474 971/12/474
f 971/12/475 972/11/475 974/13/475 973/14/475
f 973/14/476 974/13/476 976/15/476 975/16/476
f 975/16/477 976/15/477 962/17/477 961/18/477
f 977/1/478 978/2/478 980/3/478 979/4/478
f 979/4/479 980/3/479 982/5/479 981/6/479
f 981/6/480 982/5/480 984/7/480 983/8/480
f 983/8/481 984/7/481 986/9/481 985/10/481
f 985/10/482 986/9/482 988/11/482 987/12/482
f 987/12/483 988/11/483 990/13/483 989/14/483
f 989/14/484 990/13/484 992/15/484 991/16/484
f 991/16/485 992/15/485 978/17/485 977/18/485
f 993/1/486 994/2/486 996/3/486 995/4/486
f 995/4/487 996/3/487 998/5/487 997/6/487
f 997/6/488 998/5/488 1000/7/488 999/8/488
f 999/8/489 1000/7/489 1002/9/489 1001/10/489
f 1001/10/490 1002/9/490 1004/11/490 1003/12/490
f 1003/12/491 1004/11/491 1006/13/491 1005/14/491
f 1005/14/492 1006/13/492 1008/15/492 1007/16/492
f 1007/16/493 1008/15/493 994/17/493 993/18/493
f 1009/1/494 1010/2/494 1012/3/494 1011/4/494
f 1011/4/495 1012/3/495 1014/5/495 1013/6/495
f 1013/6/496 1014/5/496 1016/7/496 1015/8/496
f 1015/8/497 1016/7/497 1018/9/497 1017/10/497
f 1017/10/498 1018/9/498 1020/11/498 1019/12/498
f 1019/12/499 1020/11/499 1022/13/499 1021/14/499
f 1021/14/500 1022/13/500 1024/15/500 1023/16/500
f 1023/16/501 1024/15/501 1010/17/501 1009/18/501
f 1025/1/502 1026/2/502 1028/3/502 1027/4/502
f 1027/4/503 1028/3/503 1030/5/503 1029/6/503
f 1029/6/504 1030/5/504 1032/7/504 1031/8/504
f 1031/8/505 1032/7/505 1034/9/505 1033/10/505
f 1033/10/506 1034/9/506 1036/11/506 1035/12/506
f 1035/12/507 1036/11/507 1038/13/507 1037/14/507
f 1037/14/508 1038/13/508 1040/15/508 1039/16/508
f 1039/16/509 1040/15/509 1026/17/509 1025/18/509
f 1041/1/510 1042/2/510 1044/3/510 1043/4/510
f 1043/4/511 1044/3/511 1046/5/511 1045/6/511
f 1045/6/512 1046/5/512 1048/7/512 1047/8/512
f 1047/8/513 1048/7/513 1050/9/513 1049/10/513
f 1049/10/514 1050/9/514 1052/11/514 1051/12/514
f 1051/12/515 1052/11/515 1054/13/515 1053/14/515
f 1053/14/516 1054/13/516 1056/15/516 1055/16/516
f 1055/16/517 1056/15/517 1042/17/517 1041/18/517
f 1057/1/518 1058/2/518 1060/3/518 1059/4/518
f 1059/4/519 1060/3/519 1062/5/519 1061/6/519
f 1061/6/520 1062/5/520 1064/7/520 1063/8/520
f 1063/8/521 1064/7/521 1066/9/521 1065/10/521
f 1065/10/522 1066/9/522 1068/11/522 1067/12/522
f 1067/12/523 1068/11/523 1070/13/523 1069/14/523
f 1069/14/524 1070/13/524 1072/15/524 1071/16/524
f 1071/16/525 1072/15/525 1058/17/525 1057/18/525
f 1073/1/526 1074/2/526 1076/3/526 1075/4/526
f 1075/4/527 1076/3/527 1078/5/527 1077/6/527
f 1077/6/528 1078/5/528 1080/7/528 1079/8/528
f 1079/8/529 1080/7/529 1082/9/529 1081/10/529
f 1081/10/530 1082/9/530 1084/11/530 1083/12/530
f 1083/12/531 1084/11/531 1086/13/531 1085/14/531
f 1085/14/532 1086/13/532 1088/15/532 1087/16/532
f 1087/16/533 1088/15/533 1074/17/533 1073/18/533
f 1089/1/534 1090/2/534 1092/3/534 1091/4/534
f 1091/4/535 1092/3/535 1094/5/535 1093/6/535
f 1093/6/536 1094/5/536 1096/7/536 1095/8/536
f 1095/8/537 1096/7/537 1098/9/537 1097/10/537
f 1097/10/538 1098/9/538 1100/11/538 1099/12/538
f 1099/12/539 1100/11/539 1102/13/539 1101/14/539
f 1101/14/540 1102/13/540 1104/15/540 1103/16/540
f 1103/16/541 1104/15/541 1090/17/541 1089/18/541
f 1105/1/542 1106/2/542 1108/3/542 1107/4/542
f 1107/4/543 1108/3/543 1110/5/543 1109/6/543
f 1109/6/544 1110/5/544 1112/7/544 1111/8/544
f 1111/8/545 1112/7/545 1114/9/545 1113/10/545
f 1113/10/546 1114/9/546 1116/11/546 1115/12/546
f 1115/12/547 1116/11/547 1118/13/547 1117/14/547
f 1117/14/548 1118/13/548 1120/15/548 1119/16/548
f 1119/16/549 1120/15/549 1106/17/549 1105/18/549
f 1121/1/550 1122/2/550 1124/3/550 1123/4/550
f 1123/4/551 1124/3/551 1126/5/551 1125/6/551
f 1125/6/552 1126/5/552 1128/7/552 1127/8/552
f 1127/8/553 1128/7/553 1130/9/553 1129/10/553
f 1129/10/554 1130/9/554 1132/11/554 1131/12/554
f 1131/12/555 1132/11/555 1134/13/555 1133/14/555
f 1133/14/556 1134/13/556 1136/15/556 1135/16/556
f 1135/16/557 1136/15/557 1122/17/557 1121/18/557
f 1137/1/558 1138/2/558 1140/3/558 1139/4/558
f 1139/4/559 1140/3/559 1142/5/559 1141/6/559
f 1141/6/560 1142/5/560 1144/7/560 1143/8/560
f 1143/8/561 1144/7/561 1146/9/561 1145/10/561
f 1145/10/562 1146/9/562 1148/11/562 1147/12/562
f 1147/12/563 1148/11/563 1150/13/563 1149/14/563
f 1149/14/564 1150/13/564 1152/15/564 1151/16/564
f 1151/16/565 1152/15/565 1138/17/565 1137/18/565
f 1153/1/566 1154/2/566 1156/3/566 1155/4/566
f 1155/4/567 1156/3/567 1158/5/567 1157/6/567
f 1157/6/568 1158/5/568 1160/7/568 1159/8/568
f 1159/8/569 1160/7/569 1162/9/569 1161/10/569
f 1161/10/570 1162/9/570 1164/11/570 1163/12/570
f 1163/12/571 1164/11/571 1166/13/571 1165/14/571
f 1165/14/572 1166/13/572 1168/15/572 1167/16/572
f 1167/16/573 1168/15/573 1154/17/573 1153/18/573
f 1169/1/574 1170/2/574 1172/3/574 1171/4/574
f 1171/4/575 1172/3/575 1174/5/575 1173/6/575
f 1173/6/576 1174/5/576 1176/7/576 1175/8/576
f 1175/8/577 1176/7/577 1178/9/577 1177/10/577
f 1177/10/578 1178/9/578 1180/11/578 1179/12/578
f 1179/12/579 1180/11/579 1182/13/579 1181/14/579
f 1181/14/580 1182/13/580 1184/15/580 1183/16/580
f 1183/16/581 1184/15/581 1170/17/581 1169/18/581
f 1185/1/582 1186/2/582 1188/3/582 1187/4/582
f 1187/4/583 1188/3/583 1190/5/583 1189/6/583
f 1189/6/584 1190/5/584 1192/7/584 1191/8/584
f 1191/8/585 1192/7/585 1194/9/585 1193/10/585
f 1193/10/586 1194/9/586 1196/11/586 1195/12/586
f 1195/12/587 1196/11/587 1198/13/587 1197/14/587
f 1197/14/588 1198/13/588 1200/15/588 1199/16/588
f 1199/16/589 1200/15/589 1186/17/589 1185/18/589
f 1201/1/590 1202/2/590 1204/3/590 1203/4/590
f 1203/4/591 1204/3/591 1206/5/591 1205/6/591
f 1205/6/592 1206/5/592 1208/7/592 1207/8/592
f 1207/8/593 1208/7/593 1210/9/593 1209/10/593
f 1209/10/594 1210/9/594 1212/11/594 1211/12/594
f 1211/12/595 1212/11/595 1214/13/595 1213/14/595
f 1213/14/596 1214/13/596 1216/15/596 1215/16/596
f 1215/16/597 1216/15/597 1202/17/597 1201/18/597
f 1217/1/598 1218/2/598 1220/3/598 1219/4/598
f 1219/4/599 1220/3/599 1222/5/599 1221/6/599
f 1221/6/600 1222/5/600 1224/7/600 1223/8/600
f 1223/8/601 1224/7/601 1226/9/601 1225/10/601
f 1225/10/602 1226/9/602 1228/11/602 1227/12/602
f 1227/12/603 1228/11/603 1230/13/603 1229/14/603
f 1229/14/604 1230/13/604 1232/15/604 1231/16/604
f 1231/16/605 1232/15/605 1218/17/605 1217/18/605
f 1233/1/606 1234/2/606 1236/3/606 1235/4/606
f 1235/4/607 1236/3/607 1238/5/607 1237/6/607
f 1237/6/608 1238/5/608 1240/7/608 1239/8/608
f 1239/8/609 1240/7/609 1242/9/609 1241/10/609
f 1241/10/610 1242/9/610 1244/11/610 1243/12/610
f 1243/12/611 1244/11/611 1246/13/611 1245/14/611
f 1245/14/612 1246/13/612 1248/15/612 1247/16/612
f 1247/16/613 1248/15/613 1234/17/613 1233/18/613
f 1249/1/614 1250/2/614 1252/3/614 1251/4/614
f 1251/4/615 1252/3/615 1254/5/615 1253/6/615
f 1253/6/616 1254/5/616 1256/7/616 1255/8/616
f 1255/8/617 1256/7/617 1258/9/617 1257/10/617
f 1257/10/618 1258/9/618 1260/11/618 1259/12/618
f 1259/12/619 1260/11/619 1262/13/619 1261/14/619
f 1261/14/620 1262/13/620 1264/15/620 1263/16/620
f 1263/16/621 1264/15/621 1250/17/621 1249/18/621
f 1265/1/622 1266/2/622 1268/3/622 1267/4/622
f 1267/4/623 1268/3/623 1270/5/623 1269/6/623
f 1269/6/624 1270/5/624 1272/7/624 1271/8/624
f 1271/8/625 1272/7/625 1274/9/625 1273/10/625
f 1273/10/626 1274/9/626 1276/11/626 1275/12/626
f 1275/12/627 1276/11/627 1278/13/627 1277/14/627
f 1277/14/628 1278/13/628 1280/15/628 1279/16/628
f 1279/16/629 1280/15/629 1266/17/629 1265/18/629
f 1281/1/630 1282/2/630 1284/3/630 1283/4/630
f 1283/4/631 1284/3/631 1286/5/631 1285/6/631
f 1285/6/632 1286/5/632 1288/7/632 1287/8/632
f 1287/8/633 1288/7/633 1290/9/633 1289/10/633
f 1289/10/634 1290/9/634 1292/11/634 1291/12/634
f 1291/12/635 1292/11/635 1294/13/635 1293/14/635
f 1293/14/636 1294/13/636 1296/15/636 1295/16/636
f 1295/16/637 1296/15/637 1282/17/637 1281/18/637
f 1297/1/638 1298/2/638 1300/3/638 1299/4/638
f 1299/4/639 1300/3/639 1302/5/639 1301/6/639
f 1301/6/640 1302/5/640 1304/7/640 1303/8/640
f 1303/8/641 1304/7/641 1306/9/641 1305/10/641
f 1305/10/642 1306/9/642 1308/11/642 1307/12/642
f 1307/12/643 1308/11/643 1310/13/643 1309/14/643
f 1309/14/644 1310/13/644 1312/15/644 1311/16/644
f 1311/16/645 1312/15/645 1298/17/645 1297/18/645
f 1313/1/646 1314/2/646 1316/3/646 1315/4/646
f 1315/4/647 1316/3/647 1318/5/647 1317/6/647
f 1317/6/648 1318/5/648 1320/7/648 1319/8/648
f 1319/8/649 1320/7/649 1322/9/649 1321/10/649
f 1321/10/650 1322/9/650 1324/11/650 1323/12/650
f 1323/12/651 1324/11/651 1326/13/651 1325/14/651
f 1325/14/652 1326/13/652 1328/15/652 1327/16/652
f 1327/16/653 1328/15/653 1314/17/653 1313/18/653
f 1329/1/654 1330/2/654 1332/3/654 1331/4/654
f 1331/4/655 1332/3/655 1334/5/655 1333/6/655
f 1333/6/656 1334/5/656 1336/7/656 1335/8/656
f 1335/8/657 1336/7/657 1338/9/657 1337/10/657
f 1337/10/658 1338/9/658 1340/11/658 1339/12/658
f 1339/12/659 1340/11/659 1342/13/659 1341/14/659
f 1341/14/660 1342/13/660 1344/15/660 1343/16/660
f 1343/16/661 1344/15/661 1330/17/661 1329/18/661
f 1345/1/662 1346/2/662 1348/3/662 1347/4/662
f 1347/4/663 1348/3/663 1350/5/663 1349/6/663
f 1349/6/664 1350/5/664 1352/7/664 1351/8/664
f 1351/8/665 1352/7/665 1354/9/665 1353/10/665
f 1353/10/666 1354/9/666 1356/11/666 1355/12/666
f 1355/12/667 1356/11/667 1358/13/667 1357/14/667
f 1357/14/668 1358/13/668 1360/15/668 1359/16/668
f 1359/16/669 1360/15/669 1346/17/669 1345/18/669
f 1361/1/670 1362/2/670 1364/3/670 1363/4/670
f 1363/4/671 1364/3/671 1366/5/671 1365/6/671
f 1365/6/672 1366/5/672 1368/7/672 1367/8/672
f 1367/8/673 1368/7/673 1370/9/673 1369/10/673
f 1369/10/674 1370/9/674 1372/11/674 1371/12/674
f 1371/12/675 1372/11/675 1374/13/675 1373/14/675
f 1373/14/676 1374/13/676 1376/15/676 1375/16/676
f 1375/16/677 1376/15/677 1362/17/677 1361/18/677
f 1377/1/678 1378/2/678 1380/3/678 1379/4/678
f 1379/4/679 1380/3/679 1382/5/679 1381/6/679
f 1381/6/680 1382/5/680 1384/7/680 1383/8/680
f 1383/8/681 1384/7/681 1386/9/681 1385/10/681
f 1385/10/682 1386/9/682 1388/11/682 1387/12/682
f 1387/12/683 1388/11/683 1390/13/683 1389/14/683
f 1389/14/684 1390/13/684 1392/15/684 1391/16/684
f 1391/16/685 1392/15/685 1378/17/685 1377/18/685
f 1393/1/686 1394/2/686 1396/3/686 1395/4/686
f 1395/4/687 1396/3/687 1398/5/687 1397/6/687
f 1397/6/688 1398/5/688 1400/7/688 1399/8/688
f 1399/8/689 1400/7/689 1402/9/689 1401/10/689
f 1401/10/690 1402/9/690 1404/11/690 1403/12/690
f 1403/12/691 1404/11/691 1406/13/691 1405/14/691
f 1405/14/692 1406/13/692 1408/15/692 1407/16/692
f 1407/16/693 1408/15/693 1394/17/693 1393/18/693
f 1409/1/694 1410/2/694 1412/3/694 1411/4/694
f 1411/4/695 1412/3/695 1414/5/695 1413/6/695
f 1413/6/696 1414/5/696 1416/7/696 1415/8/696
f 1415/8/697 1416/7/697 1418/9/697 1417/10/697
f 1417/10/698 1418/9/698 1420/11/698 1419/12/698
f 1419/12/699 1420/11/699 1422/13/699 1421/14/699
f 1421/14/700 1422/13/700 1424/15/700 1423/16/700
f 1423/16/701 1424/15/701 1410/17/701 1409/18/701
f 1425/1/702 1426/2/702 1428/3/702 1427/4/702
f 1427/4/703 1428/3/703 1430/5/703 1429/6/703
f 1429/6/704 1430/5/704 1432/7/704 1431/8/704
f 1431/8/705 1432/7/705 1434/9/705 1433/10/705
f 1433/10/706 1434/9/706 1436/11/706 1435/12/706
f 1435/12/707 1436/11/707 1438/13/707 1437/14/707
f 1437/14/708 1438/13/708 1440/15/708 1439/16/708
f 1439/16/709 1440/15/709 1426/17/709 1425/18/709
f 1441/1/710 1442/2/710 1444/3/710 1443/4/710
f 1443/4/711 1444/3/711 1446/5/711 1445/6/711
f 1445/6/712 1446/5/712 1448/7/712 1447/8/712
f 1447/8/713 1448/7/713 1450/9/713 1449/10/713
f 1449/10/714 1450/9/714 1452/11/714 1451/12/714
f 1451/12/715 1452/11/715 1454/13/715 1453/14/715
f 1453/14/716 1454/13/716 1456/15/716 1455/16/716
f 1455/16/717 1456/15/717 1442/17/717 1441/18/717
