# Blender 4.4.3
# www.blender.org
o Cube
v -15.000000 13.249001 -15.000000
v 15.000000 15.000000 0.000000
v 15.000000 -15.000000 -32.116127
v -15.000000 -15.000000 -17.500000
v -15.000000 15.000000 -3.750000
v -15.000000 13.249001 -7.500000
v 15.000000 -7.500000 -32.116127
v 15.000000 13.249001 -11.250000
v 15.000000 13.249001 -7.500000
v 15.000000 7.500000 0.000000
v 15.000000 -7.500000 0.000000
v 15.000000 -7.500000 -17.500000
v 15.000000 -7.500000 -3.750000
v -15.000000 -7.500000 -3.750000
v 15.000000 13.249001 -15.000000
v -15.000000 15.000000 0.000000
v -15.000000 -15.000000 -32.116127
v 15.000000 -15.000000 -21.250000
v 15.000000 -15.000000 -17.500000
v 15.000000 -15.000000 -3.750000
v 15.000000 15.000000 -3.750000
v 15.000000 7.500000 -13.524525
v 15.000000 7.500000 -34.302395
v -15.000000 7.500000 -13.524525
v -15.000000 7.500000 -34.302395
v -15.000000 -7.500000 -32.116127
v -15.000000 -15.000000 -3.750000
v -15.000000 -15.000000 -21.250000
v -15.000000 13.249001 -11.250000
v -15.000000 7.500000 0.000000
v -15.000000 -7.500000 0.000000
v -15.000000 -7.500000 -21.250000
v -15.000000 -7.500000 -17.500000
v 15.000000 -7.500000 -21.250000
v 15.000000 -15.000000 32.116127
v 15.000000 13.249001 15.000000
v -15.000000 -15.000000 21.250000
v -15.000000 -15.000000 17.500000
v -15.000000 -15.000000 3.750000
v -15.000000 15.000000 3.750000
v -15.000000 13.249001 7.500000
v -15.000000 13.249001 11.250000
v -15.000000 7.500000 34.302395
v -15.000000 -7.500000 32.116127
v 15.000000 -7.500000 32.116127
v 15.000000 -15.000000 21.250000
v 15.000000 15.000000 3.750000
v 15.000000 -7.500000 17.500000
v 15.000000 -7.500000 3.750000
v -15.000000 -15.000000 32.116127
v -15.000000 13.249001 15.000000
v 15.000000 -15.000000 17.500000
v 15.000000 -15.000000 3.750000
v 15.000000 13.249001 7.500000
v 15.000000 13.249001 11.250000
v 15.000000 7.500000 13.524525
v 15.000000 7.500000 34.302395
v -15.000000 7.500000 13.524525
v -15.000000 -7.500000 21.250000
v -15.000000 -7.500000 17.500000
v -15.000000 -7.500000 3.750000
v 15.000000 -7.500000 21.250000
vn -0.0000 1.0000 -0.0000
vn -0.0000 0.9061 -0.4231
vn 1.0000 -0.0000 -0.0000
vn -0.0000 -0.0000 -1.0000
vn -0.0000 -0.1442 -0.9895
vn -0.0000 -0.2486 -0.9686
vn -1.0000 -0.0000 -0.0000
vn -0.0000 -1.0000 -0.0000
vn -0.0000 -0.0000 1.0000
vn -0.0000 0.9061 0.4231
vn -0.0000 -0.1442 0.9895
vn -0.0000 -0.2486 0.9686
vt 0.625000 0.500000
vt 0.875000 0.500000
vt 0.875000 0.562500
vt 0.625000 0.562500
vt 0.625000 0.687500
vt 0.875000 0.687500
vt 0.875000 0.750000
vt 0.625000 0.750000
vt 0.875000 0.625000
vt 0.625000 0.625000
vt 0.375000 0.500000
vt 0.437500 0.500000
vt 0.437500 0.562500
vt 0.375000 0.562500
vt 0.375000 0.625000
vt 0.437500 0.625000
vt 0.437500 0.687500
vt 0.375000 0.687500
vt 0.562500 0.500000
vt 0.562500 0.750000
vt 0.437500 0.750000
vt 0.500000 0.500000
vt 0.437500 0.250000
vt 0.375000 0.250000
vt 0.500000 0.250000
vt 0.625000 0.250000
vt 0.562500 0.250000
vt 0.375000 0.062500
vt 0.437500 0.062500
vt 0.437500 0.125000
vt 0.375000 0.125000
vt 0.625000 0.062500
vt 0.625000 0.125000
vt 0.625000 0.187500
vt 0.562500 0.000000
vt 0.625000 0.000000
vt 0.437500 0.187500
vt 0.437500 0.000000
vt 0.375000 0.187500
s 0
f 15/1/1 1/2/1 29/3/1 8/4/1
f 21/5/1 5/6/1 16/7/1 2/8/1
f 8/4/1 29/3/1 6/9/1 9/10/1
f 9/10/2 6/9/2 5/6/2 21/5/2
f 3/11/3 7/12/3 34/13/3 18/14/3
f 19/15/3 12/16/3 13/17/3 20/18/3
f 22/19/3 10/20/3 11/21/3 13/17/3 12/16/3 34/13/3 7/12/3 23/22/3
f 8/4/3 9/10/3 21/5/3 2/8/3 10/20/3 22/19/3 15/1/3
f 26/23/4 7/12/4 3/11/4 17/24/4
f 25/25/5 23/22/5 7/12/5 26/23/5
f 1/26/6 15/1/6 22/19/6 24/27/6
f 27/28/7 14/29/7 33/30/7 4/31/7
f 5/32/7 6/33/7 29/34/7 1/26/7 24/27/7 30/35/7 16/36/7
f 30/35/7 24/27/7 25/25/7 26/23/7 32/37/7 33/30/7 14/29/7 31/38/7
f 34/13/8 12/16/8 33/30/8 32/37/8
f 19/15/4 4/31/4 33/30/4 12/16/4
f 20/18/9 13/17/9 14/29/9 27/28/9
f 13/17/8 11/21/8 31/38/8 14/29/8
f 17/11/7 28/14/7 32/13/7 26/12/7
f 22/27/1 23/25/1 25/22/1 24/19/1
f 28/14/9 18/39/9 34/37/9 32/13/9
f 36/1/1 55/4/1 42/3/1 51/2/1
f 47/5/1 2/8/1 16/7/1 40/6/1
f 55/4/1 54/10/1 41/9/1 42/3/1
f 54/10/10 47/5/10 40/6/10 41/9/10
f 35/11/3 46/14/3 62/13/3 45/12/3
f 52/15/3 53/18/3 49/17/3 48/16/3
f 56/19/3 57/22/3 45/12/3 62/13/3 48/16/3 49/17/3 11/21/3 10/20/3
f 55/4/3 36/1/3 56/19/3 10/20/3 2/8/3 47/5/3 54/10/3
f 44/23/9 50/24/9 35/11/9 45/12/9
f 43/25/11 44/23/11 45/12/11 57/22/11
f 58/27/1 43/25/1 57/22/1 56/19/1
f 51/26/12 58/27/12 56/19/12 36/1/12
f 37/39/7 50/24/7 44/23/7 59/37/7
f 39/28/7 38/31/7 60/30/7 61/29/7
f 40/32/7 16/36/7 30/35/7 58/27/7 51/26/7 42/34/7 41/33/7
f 30/35/7 31/38/7 61/29/7 60/30/7 59/37/7 44/23/7 43/25/7 58/27/7
f 46/14/4 37/39/4 59/37/4 62/13/4
f 62/13/8 59/37/8 60/30/8 48/16/8
f 52/15/9 48/16/9 60/30/9 38/31/9
f 53/18/4 39/28/4 61/29/4 49/17/4
f 49/17/8 61/29/8 31/38/8 11/21/8
o Cube.001
v 77.559349 10.002491 -16.694878
v 77.559349 10.002491 -10.073989
v 77.559349 78.251495 -11.250000
v 77.559349 78.251495 -7.500000
v 77.559349 72.502487 0.000000
v 77.559349 67.502487 0.000000
v 77.559349 57.502491 -13.073989
v 82.511650 80.002487 0.000000
v 82.511650 78.251495 -15.000000
v 77.559349 80.002487 0.000000
v 77.559349 78.251495 -15.000000
v 82.511650 67.502487 0.000000
v 82.511650 72.502487 0.000000
v 82.511650 80.002487 -3.750000
v 82.511650 72.502487 -21.881145
v 77.559349 72.502487 -21.881145
v 82.511650 10.002491 -16.694878
v 77.559349 80.002487 -3.750000
v 77.559349 72.502487 -13.524525
v 82.511650 10.002491 -10.073989
v 82.511650 57.502491 -13.073989
v 82.511650 67.502487 -13.323989
v 77.559349 67.502487 -13.323989
v 77.559349 57.502491 -19.694878
v 82.511650 72.502487 -13.524525
v 82.511650 57.502491 -19.694878
v 82.511650 78.251495 -11.250000
v 82.511650 78.251495 -7.500000
v 82.511650 10.002491 16.694878
v 82.511650 78.251495 11.250000
v 82.511650 57.502491 19.694878
v 77.559349 67.502487 13.323989
v 82.511650 67.502487 13.323989
v 82.511650 78.251495 15.000000
v 77.559349 78.251495 15.000000
v 82.511650 72.502487 13.524525
v 77.559349 78.251495 11.250000
v 77.559349 80.002487 3.750000
v 77.559349 10.002491 16.694878
v 77.559349 10.002491 10.073989
v 82.511650 72.502487 21.881145
v 82.511650 10.002491 10.073989
v 82.511650 78.251495 7.500000
v 82.511650 80.002487 3.750000
v 77.559349 78.251495 7.500000
v 77.559349 72.502487 13.524525
v 77.559349 72.502487 21.881145
v 77.559349 57.502491 19.694878
v 82.511650 57.502491 13.073989
v 77.559349 57.502491 13.073989
vn -0.0000 1.0000 -0.0000
vn -0.0000 0.9061 -0.4231
vn -1.0000 -0.0000 -0.0000
vn -0.0000 -0.0630 -0.9980
vn -0.0000 -0.1442 -0.9895
vn -0.0000 -0.2486 -0.9686
vn 1.0000 -0.0000 -0.0000
vn -0.0000 0.9061 0.4231
vn -0.0000 -0.0630 0.9980
vn -0.0000 -0.1442 0.9895
vn -0.0000 -0.2486 0.9686
vn -0.0000 0.0630 0.9980
vn -0.0000 0.0250 0.9997
vn -0.0000 -1.0000 -0.0000
vn -0.0000 0.0250 -0.9997
vn -0.0000 0.0630 -0.9980
vt 0.625000 0.500000
vt 0.875000 0.500000
vt 0.875000 0.562500
vt 0.625000 0.562500
vt 0.625000 0.687500
vt 0.875000 0.687500
vt 0.875000 0.750000
vt 0.625000 0.750000
vt 0.875000 0.625000
vt 0.625000 0.625000
vt 0.375000 0.500000
vt 0.437500 0.500000
vt 0.437500 0.562500
vt 0.375000 0.562500
vt 0.562500 0.500000
vt 0.562500 0.750000
vt 0.437500 0.750000
vt 0.437500 0.625000
vt 0.500000 0.500000
vt 0.437500 0.250000
vt 0.375000 0.250000
vt 0.500000 0.250000
vt 0.562500 0.250000
vt 0.625000 0.250000
vt 0.375000 0.187500
vt 0.437500 0.187500
vt 0.625000 0.062500
vt 0.625000 0.125000
vt 0.625000 0.187500
vt 0.562500 0.000000
vt 0.625000 0.000000
vt 0.437500 0.125000
vt 0.437500 0.000000
vt 0.000000 0.000000
s 0
f 73/40/13 65/43/13 89/42/13 71/41/13
f 80/44/13 72/47/13 70/46/13 76/45/13
f 65/43/13 66/49/13 90/48/13 89/42/13
f 66/49/14 80/44/14 76/45/14 90/48/14
f 63/50/15 64/53/15 69/52/15 86/51/15
f 81/54/15 78/58/15 86/51/15 69/52/15 85/57/15 68/56/15 67/55/15
f 65/43/15 73/40/15 81/54/15 67/55/15 72/47/15 80/44/15 66/49/15
f 88/59/16 79/60/16 63/50/16 86/51/16
f 77/61/17 88/59/17 86/51/17 78/58/17
f 87/62/13 77/61/13 78/58/13 81/54/13
f 71/63/18 87/62/18 81/54/18 73/40/18
f 82/64/19 79/60/19 88/59/19 83/65/19
f 76/66/19 70/70/19 75/69/19 87/62/19 71/63/19 89/68/19 90/67/19
f 75/69/19 74/72/19 84/71/19 83/65/19 88/59/19 77/61/19 87/62/19
f 97/40/13 96/41/13 92/42/13 99/43/13
f 100/44/13 106/45/13 70/46/13 72/47/13
f 99/43/13 92/42/13 105/48/13 107/49/13
f 107/49/20 105/48/20 106/45/20 100/44/20
f 101/50/15 110/51/15 112/52/15 102/53/15
f 108/54/15 67/55/15 68/56/15 94/57/15 112/52/15 110/51/15 109/58/15
f 99/43/15 107/49/15 100/44/15 72/47/15 67/55/15 108/54/15 97/40/15
f 93/59/21 110/51/21 101/50/21 91/60/21
f 103/61/22 109/58/22 110/51/22 93/59/22
f 98/62/13 108/54/13 109/58/13 103/61/13
f 96/63/23 97/40/23 108/54/23 98/62/23
f 104/64/19 111/65/19 93/59/19 91/60/19
f 106/66/19 105/67/19 92/68/19 96/63/19 98/62/19 75/69/19 70/70/19
f 75/69/19 98/62/19 103/61/19 93/59/19 111/65/19 95/71/19 74/72/19
f 82/73/24 83/73/24 69/73/24 64/73/24
f 83/73/25 84/57/25 85/71/25 69/73/25
f 74/56/26 95/57/26 94/71/26 68/72/26 85/71/26 84/57/26
f 112/65/27 94/71/27 95/57/27 111/52/27
f 102/73/28 112/65/28 111/52/28 104/73/28
o Cylinder
v 80.000000 51.616440 -14.000000
v 80.000000 58.383560 -14.000000
v 80.390182 51.616440 -13.961571
v 80.390182 58.383560 -13.961571
v 80.765366 51.616440 -13.847759
v 80.765366 58.383560 -13.847759
v 81.111137 51.616440 -13.662939
v 81.111137 58.383560 -13.662939
v 81.414215 51.616440 -13.414213
v 81.414215 58.383560 -13.414213
v 81.662941 51.616440 -13.111140
v 81.662941 58.383560 -13.111140
v 81.847755 51.616440 -12.765367
v 81.847755 58.383560 -12.765367
v 81.961571 51.616440 -12.390181
v 81.961571 58.383560 -12.390181
v 82.000000 51.616440 -12.000000
v 82.000000 58.383560 -12.000000
v 81.961571 51.616440 -11.609819
v 81.961571 58.383560 -11.609819
v 81.847755 51.616440 -11.234633
v 81.847755 58.383560 -11.234633
v 81.662941 51.616440 -10.888860
v 81.662941 58.383560 -10.888860
v 81.414215 51.616440 -10.585787
v 81.414215 58.383560 -10.585787
v 81.111137 51.616440 -10.337061
v 81.111137 58.383560 -10.337061
v 80.765366 51.616440 -10.152241
v 80.765366 58.383560 -10.152241
v 80.390182 51.616440 -10.038429
v 80.390182 58.383560 -10.038429
v 80.000000 51.616440 -10.000000
v 80.000000 58.383560 -10.000000
v 79.609818 51.616440 -10.038429
v 79.609818 58.383560 -10.038429
v 79.234634 51.616440 -10.152241
v 79.234634 58.383560 -10.152241
v 78.888863 51.616440 -10.337061
v 78.888863 58.383560 -10.337061
v 78.585785 51.616440 -10.585787
v 78.585785 58.383560 -10.585787
v 78.337059 51.616440 -10.888860
v 78.337059 58.383560 -10.888860
v 78.152245 51.616440 -11.234633
v 78.152245 58.383560 -11.234633
v 78.038429 51.616440 -11.609819
v 78.038429 58.383560 -11.609819
v 78.000000 51.616440 -12.000000
v 78.000000 58.383560 -12.000000
v 78.038429 51.616440 -12.390181
v 78.038429 58.383560 -12.390181
v 78.152245 51.616440 -12.765367
v 78.152245 58.383560 -12.765367
v 78.337059 51.616440 -13.111140
v 78.337059 58.383560 -13.111140
v 78.585785 51.616440 -13.414213
v 78.585785 58.383560 -13.414213
v 78.888863 51.616440 -13.662939
v 78.888863 58.383560 -13.662939
v 79.234634 51.616440 -13.847759
v 79.234634 58.383560 -13.847759
v 79.609818 51.616440 -13.961571
v 79.609818 58.383560 -13.961571
v 80.000000 51.616440 14.000000
v 80.000000 58.383560 14.000000
v 80.390182 51.616440 13.961571
v 80.390182 58.383560 13.961571
v 80.765366 51.616440 13.847759
v 80.765366 58.383560 13.847759
v 81.111137 51.616440 13.662939
v 81.111137 58.383560 13.662939
v 81.414215 51.616440 13.414213
v 81.414215 58.383560 13.414213
v 81.662941 51.616440 13.111141
v 81.662941 58.383560 13.111141
v 81.847755 51.616440 12.765368
v 81.847755 58.383560 12.765368
v 81.961571 51.616440 12.390181
v 81.961571 58.383560 12.390181
v 82.000000 51.616440 12.000000
v 82.000000 58.383560 12.000000
v 81.961571 51.616440 11.609819
v 81.961571 58.383560 11.609819
v 81.847755 51.616440 11.234632
v 81.847755 58.383560 11.234632
v 81.662941 51.616440 10.888859
v 81.662941 58.383560 10.888859
v 81.414215 51.616440 10.585787
v 81.414215 58.383560 10.585787
v 81.111137 51.616440 10.337061
v 81.111137 58.383560 10.337061
v 80.765366 51.616440 10.152241
v 80.765366 58.383560 10.152241
v 80.390182 51.616440 10.038429
v 80.390182 58.383560 10.038429
v 80.000000 51.616440 10.000000
v 80.000000 58.383560 10.000000
v 79.609818 51.616440 10.038429
v 79.609818 58.383560 10.038429
v 79.234634 51.616440 10.152241
v 79.234634 58.383560 10.152241
v 78.888863 51.616440 10.337061
v 78.888863 58.383560 10.337061
v 78.585785 51.616440 10.585787
v 78.585785 58.383560 10.585787
v 78.337059 51.616440 10.888859
v 78.337059 58.383560 10.888859
v 78.152245 51.616440 11.234632
v 78.152245 58.383560 11.234632
v 78.038429 51.616440 11.609819
v 78.038429 58.383560 11.609819
v 78.000000 51.616440 12.000000
v 78.000000 58.383560 12.000000
v 78.038429 51.616440 12.390181
v 78.038429 58.383560 12.390181
v 78.152245 51.616440 12.765368
v 78.152245 58.383560 12.765368
v 78.337059 51.616440 13.111141
v 78.337059 58.383560 13.111141
v 78.585785 51.616440 13.414213
v 78.585785 58.383560 13.414213
v 78.888863 51.616440 13.662939
v 78.888863 58.383560 13.662939
v 79.234634 51.616440 13.847759
v 79.234634 58.383560 13.847759
v 79.609818 51.616440 13.961571
v 79.609818 58.383560 13.961571
vn 0.0980 -0.0000 -0.9952
vn 0.2903 -0.0000 -0.9569
vn 0.4714 -0.0000 -0.8819
vn 0.6344 -0.0000 -0.7730
vn 0.7730 -0.0000 -0.6344
vn 0.8819 -0.0000 -0.4714
vn 0.9569 -0.0000 -0.2903
vn 0.9952 -0.0000 -0.0980
vn 0.9952 -0.0000 0.0980
vn 0.9569 -0.0000 0.2903
vn 0.8819 -0.0000 0.4714
vn 0.7730 -0.0000 0.6344
vn 0.6344 -0.0000 0.7730
vn 0.4714 -0.0000 0.8819
vn 0.2903 -0.0000 0.9569
vn 0.0980 -0.0000 0.9952
vn -0.0980 -0.0000 0.9952
vn -0.2903 -0.0000 0.9569
vn -0.4714 -0.0000 0.8819
vn -0.6344 -0.0000 0.7730
vn -0.7730 -0.0000 0.6344
vn -0.8819 -0.0000 0.4714
vn -0.9569 -0.0000 0.2903
vn -0.9952 -0.0000 0.0980
vn -0.9952 -0.0000 -0.0980
vn -0.9569 -0.0000 -0.2903
vn -0.8819 -0.0000 -0.4714
vn -0.7730 -0.0000 -0.6344
vn -0.6344 -0.0000 -0.7730
vn -0.4714 -0.0000 -0.8819
vn -0.0000 1.0000 -0.0000
vn -0.2903 -0.0000 -0.9569
vn -0.0980 -0.0000 -0.9952
vn -0.0000 -1.0000 -0.0000
vt 1.000000 0.500000
vt 1.000000 1.000000
vt 0.968750 1.000000
vt 0.968750 0.500000
vt 0.937500 1.000000
vt 0.937500 0.500000
vt 0.906250 1.000000
vt 0.906250 0.500000
vt 0.875000 1.000000
vt 0.875000 0.500000
vt 0.843750 1.000000
vt 0.843750 0.500000
vt 0.812500 1.000000
vt 0.812500 0.500000
vt 0.781250 1.000000
vt 0.781250 0.500000
vt 0.750000 1.000000
vt 0.750000 0.500000
vt 0.718750 1.000000
vt 0.718750 0.500000
vt 0.687500 1.000000
vt 0.687500 0.500000
vt 0.656250 1.000000
vt 0.656250 0.500000
vt 0.625000 1.000000
vt 0.625000 0.500000
vt 0.593750 1.000000
vt 0.593750 0.500000
vt 0.562500 1.000000
vt 0.562500 0.500000
vt 0.531250 1.000000
vt 0.531250 0.500000
vt 0.500000 1.000000
vt 0.500000 0.500000
vt 0.468750 1.000000
vt 0.468750 0.500000
vt 0.437500 1.000000
vt 0.437500 0.500000
vt 0.406250 1.000000
vt 0.406250 0.500000
vt 0.375000 1.000000
vt 0.375000 0.500000
vt 0.343750 1.000000
vt 0.343750 0.500000
vt 0.312500 1.000000
vt 0.312500 0.500000
vt 0.281250 1.000000
vt 0.281250 0.500000
vt 0.250000 1.000000
vt 0.250000 0.500000
vt 0.218750 1.000000
vt 0.218750 0.500000
vt 0.187500 1.000000
vt 0.187500 0.500000
vt 0.156250 1.000000
vt 0.156250 0.500000
vt 0.125000 1.000000
vt 0.125000 0.500000
vt 0.093750 1.000000
vt 0.093750 0.500000
vt 0.062500 1.000000
vt 0.062500 0.500000
vt 0.296822 0.485388
vt 0.250000 0.490000
vt 0.203178 0.485388
vt 0.158156 0.471731
vt 0.116663 0.449553
vt 0.080294 0.419706
vt 0.050447 0.383337
vt 0.028269 0.341844
vt 0.014612 0.296822
vt 0.010000 0.250000
vt 0.014612 0.203178
vt 0.028269 0.158156
vt 0.050447 0.116663
vt 0.080294 0.080294
vt 0.116663 0.050447
vt 0.158156 0.028269
vt 0.203178 0.014612
vt 0.250000 0.010000
vt 0.296822 0.014612
vt 0.341844 0.028269
vt 0.383337 0.050447
vt 0.419706 0.080294
vt 0.449553 0.116663
vt 0.471731 0.158156
vt 0.485388 0.203178
vt 0.490000 0.250000
vt 0.485388 0.296822
vt 0.471731 0.341844
vt 0.449553 0.383337
vt 0.419706 0.419706
vt 0.383337 0.449553
vt 0.341844 0.471731
vt 0.031250 1.000000
vt 0.031250 0.500000
vt 0.000000 1.000000
vt 0.000000 0.500000
vt 0.750000 0.490000
vt 0.796822 0.485388
vt 0.841844 0.471731
vt 0.883337 0.449553
vt 0.919706 0.419706
vt 0.949553 0.383337
vt 0.971731 0.341844
vt 0.985388 0.296822
vt 0.990000 0.250000
vt 0.985388 0.203178
vt 0.971731 0.158156
vt 0.949553 0.116663
vt 0.919706 0.080294
vt 0.883337 0.050447
vt 0.841844 0.028269
vt 0.796822 0.014612
vt 0.750000 0.010000
vt 0.703178 0.014612
vt 0.658156 0.028269
vt 0.616663 0.050447
vt 0.580294 0.080294
vt 0.550447 0.116663
vt 0.528269 0.158156
vt 0.514612 0.203178
vt 0.510000 0.250000
vt 0.514612 0.296822
vt 0.528269 0.341844
vt 0.550447 0.383337
vt 0.580294 0.419706
vt 0.616663 0.449553
vt 0.658156 0.471731
vt 0.703178 0.485388
s 0
f 113/74/29 114/75/29 116/76/29 115/77/29
f 115/77/30 116/76/30 118/78/30 117/79/30
f 117/79/31 118/78/31 120/80/31 119/81/31
f 119/81/32 120/80/32 122/82/32 121/83/32
f 121/83/33 122/82/33 124/84/33 123/85/33
f 123/85/34 124/84/34 126/86/34 125/87/34
f 125/87/35 126/86/35 128/88/35 127/89/35
f 127/89/36 128/88/36 130/90/36 129/91/36
f 129/91/37 130/90/37 132/92/37 131/93/37
f 131/93/38 132/92/38 134/94/38 133/95/38
f 133/95/39 134/94/39 136/96/39 135/97/39
f 135/97/40 136/96/40 138/98/40 137/99/40
f 137/99/41 138/98/41 140/100/41 139/101/41
f 139/101/42 140/100/42 142/102/42 141/103/42
f 141/103/43 142/102/43 144/104/43 143/105/43
f 143/105/44 144/104/44 146/106/44 145/107/44
f 145/107/45 146/106/45 148/108/45 147/109/45
f 147/109/46 148/108/46 150/110/46 149/111/46
f 149/111/47 150/110/47 152/112/47 151/113/47
f 151/113/48 152/112/48 154/114/48 153/115/48
f 153/115/49 154/114/49 156/116/49 155/117/49
f 155/117/50 156/116/50 158/118/50 157/119/50
f 157/119/51 158/118/51 160/120/51 159/121/51
f 159/121/52 160/120/52 162/122/52 161/123/52
f 161/123/53 162/122/53 164/124/53 163/125/53
f 163/125/54 164/124/54 166/126/54 165/127/54
f 165/127/55 166/126/55 168/128/55 167/129/55
f 167/129/56 168/128/56 170/130/56 169/131/56
f 169/131/57 170/130/57 172/132/57 171/133/57
f 171/133/58 172/132/58 174/134/58 173/135/58
f 116/136/59 114/137/59 176/138/59 174/139/59 172/140/59 170/141/59 168/142/59 166/143/59 164/144/59 162/145/59 160/146/59 158/147/59 156/148/59 154/149/59 152/150/59 150/151/59 148/152/59 146/153/59 144/154/59 142/155/59 140/156/59 138/157/59 136/158/59 134/159/59 132/160/59 130/161/59 128/162/59 126/163/59 124/164/59 122/165/59 120/166/59 118/167/59
f 173/135/60 174/134/60 176/168/60 175/169/60
f 175/169/61 176/168/61 114/170/61 113/171/61
f 113/172/62 115/173/62 117/174/62 119/175/62 121/176/62 123/177/62 125/178/62 127/179/62 129/180/62 131/181/62 133/182/62 135/183/62 137/184/62 139/185/62 141/186/62 143/187/62 145/188/62 147/189/62 149/190/62 151/191/62 153/192/62 155/193/62 157/194/62 159/195/62 161/196/62 163/197/62 165/198/62 167/199/62 169/200/62 171/201/62 173/202/62 175/203/62
f 177/74/44 179/77/44 180/76/44 178/75/44
f 179/77/43 181/79/43 182/78/43 180/76/43
f 181/79/42 183/81/42 184/80/42 182/78/42
f 183/81/41 185/83/41 186/82/41 184/80/41
f 185/83/40 187/85/40 188/84/40 186/82/40
f 187/85/39 189/87/39 190/86/39 188/84/39
f 189/87/38 191/89/38 192/88/38 190/86/38
f 191/89/37 193/91/37 194/90/37 192/88/37
f 193/91/36 195/93/36 196/92/36 194/90/36
f 195/93/35 197/95/35 198/94/35 196/92/35
f 197/95/34 199/97/34 200/96/34 198/94/34
f 199/97/33 201/99/33 202/98/33 200/96/33
f 201/99/32 203/101/32 204/100/32 202/98/32
f 203/101/31 205/103/31 206/102/31 204/100/31
f 205/103/30 207/105/30 208/104/30 206/102/30
f 207/105/29 209/107/29 210/106/29 208/104/29
f 209/107/61 211/109/61 212/108/61 210/106/61
f 211/109/60 213/111/60 214/110/60 212/108/60
f 213/111/58 215/113/58 216/112/58 214/110/58
f 215/113/57 217/115/57 218/114/57 216/112/57
f 217/115/56 219/117/56 220/116/56 218/114/56
f 219/117/55 221/119/55 222/118/55 220/116/55
f 221/119/54 223/121/54 224/120/54 222/118/54
f 223/121/53 225/123/53 226/122/53 224/120/53
f 225/123/52 227/125/52 228/124/52 226/122/52
f 227/125/51 229/127/51 230/126/51 228/124/51
f 229/127/50 231/129/50 232/128/50 230/126/50
f 231/129/49 233/131/49 234/130/49 232/128/49
f 233/131/48 235/133/48 236/132/48 234/130/48
f 235/133/47 237/135/47 238/134/47 236/132/47
f 180/136/59 182/167/59 184/166/59 186/165/59 188/164/59 190/163/59 192/162/59 194/161/59 196/160/59 198/159/59 200/158/59 202/157/59 204/156/59 206/155/59 208/154/59 210/153/59 212/152/59 214/151/59 216/150/59 218/149/59 220/148/59 222/147/59 224/146/59 226/145/59 228/144/59 230/143/59 232/142/59 234/141/59 236/140/59 238/139/59 240/138/59 178/137/59
f 237/135/46 239/169/46 240/168/46 238/134/46
f 239/169/45 177/171/45 178/170/45 240/168/45
f 177/172/62 239/203/62 237/202/62 235/201/62 233/200/62 231/199/62 229/198/62 227/197/62 225/196/62 223/195/62 221/194/62 219/193/62 217/192/62 215/191/62 213/190/62 211/189/62 209/188/62 207/187/62 205/186/62 203/185/62 201/184/62 199/183/62 197/182/62 195/181/62 193/180/62 191/179/62 189/178/62 187/177/62 185/176/62 183/175/62 181/174/62 179/173/62
o Cylinder.001
v 80.000000 24.607178 -13.783128
v 80.000000 31.374298 -13.783128
v 80.390182 24.607178 -13.744699
v 80.390182 31.374298 -13.744699
v 80.765366 24.607178 -13.630887
v 80.765366 31.374298 -13.630887
v 81.111137 24.607178 -13.446067
v 81.111137 31.374298 -13.446067
v 81.414215 24.607178 -13.197341
v 81.414215 31.374298 -13.197341
v 81.662941 24.607178 -12.894268
v 81.662941 31.374298 -12.894268
v 81.847755 24.607178 -12.548494
v 81.847755 31.374298 -12.548494
v 81.961571 24.607178 -12.173308
v 81.961571 31.374298 -12.173308
v 82.000000 24.607178 -11.783128
v 82.000000 31.374298 -11.783128
v 81.961571 24.607178 -11.392947
v 81.961571 31.374298 -11.392947
v 81.847755 24.607178 -11.017761
v 81.847755 31.374298 -11.017761
v 81.662941 24.607178 -10.671988
v 81.662941 31.374298 -10.671988
v 81.414215 24.607178 -10.368915
v 81.414215 31.374298 -10.368915
v 81.111137 24.607178 -10.120189
v 81.111137 31.374298 -10.120189
v 80.765366 24.607178 -9.935369
v 80.765366 31.374298 -9.935369
v 80.390182 24.607178 -9.821557
v 80.390182 31.374298 -9.821557
v 80.000000 24.607178 -9.783128
v 80.000000 31.374298 -9.783128
v 79.609818 24.607178 -9.821557
v 79.609818 31.374298 -9.821557
v 79.234634 24.607178 -9.935369
v 79.234634 31.374298 -9.935369
v 78.888863 24.607178 -10.120189
v 78.888863 31.374298 -10.120189
v 78.585785 24.607178 -10.368915
v 78.585785 31.374298 -10.368915
v 78.337059 24.607178 -10.671988
v 78.337059 31.374298 -10.671988
v 78.152245 24.607178 -11.017761
v 78.152245 31.374298 -11.017761
v 78.038429 24.607178 -11.392947
v 78.038429 31.374298 -11.392947
v 78.000000 24.607178 -11.783128
v 78.000000 31.374298 -11.783128
v 78.038429 24.607178 -12.173308
v 78.038429 31.374298 -12.173308
v 78.152245 24.607178 -12.548494
v 78.152245 31.374298 -12.548494
v 78.337059 24.607178 -12.894268
v 78.337059 31.374298 -12.894268
v 78.585785 24.607178 -13.197341
v 78.585785 31.374298 -13.197341
v 78.888863 24.607178 -13.446067
v 78.888863 31.374298 -13.446067
v 79.234634 24.607178 -13.630887
v 79.234634 31.374298 -13.630887
v 79.609818 24.607178 -13.744699
v 79.609818 31.374298 -13.744699
v 80.000000 24.607178 13.783128
v 80.000000 31.374298 13.783128
v 80.390182 24.607178 13.744699
v 80.390182 31.374298 13.744699
v 80.765366 24.607178 13.630887
v 80.765366 31.374298 13.630887
v 81.111137 24.607178 13.446067
v 81.111137 31.374298 13.446067
v 81.414215 24.607178 13.197341
v 81.414215 31.374298 13.197341
v 81.662941 24.607178 12.894269
v 81.662941 31.374298 12.894269
v 81.847755 24.607178 12.548495
v 81.847755 31.374298 12.548495
v 81.961571 24.607178 12.173308
v 81.961571 31.374298 12.173308
v 82.000000 24.607178 11.783128
v 82.000000 31.374298 11.783128
v 81.961571 24.607178 11.392947
v 81.961571 31.374298 11.392947
v 81.847755 24.607178 11.017760
v 81.847755 31.374298 11.017760
v 81.662941 24.607178 10.671987
v 81.662941 31.374298 10.671987
v 81.414215 24.607178 10.368915
v 81.414215 31.374298 10.368915
v 81.111137 24.607178 10.120189
v 81.111137 31.374298 10.120189
v 80.765366 24.607178 9.935369
v 80.765366 31.374298 9.935369
v 80.390182 24.607178 9.821557
v 80.390182 31.374298 9.821557
v 80.000000 24.607178 9.783128
v 80.000000 31.374298 9.783128
v 79.609818 24.607178 9.821557
v 79.609818 31.374298 9.821557
v 79.234634 24.607178 9.935369
v 79.234634 31.374298 9.935369
v 78.888863 24.607178 10.120189
v 78.888863 31.374298 10.120189
v 78.585785 24.607178 10.368915
v 78.585785 31.374298 10.368915
v 78.337059 24.607178 10.671987
v 78.337059 31.374298 10.671987
v 78.152245 24.607178 11.017760
v 78.152245 31.374298 11.017760
v 78.038429 24.607178 11.392947
v 78.038429 31.374298 11.392947
v 78.000000 24.607178 11.783128
v 78.000000 31.374298 11.783128
v 78.038429 24.607178 12.173308
v 78.038429 31.374298 12.173308
v 78.152245 24.607178 12.548495
v 78.152245 31.374298 12.548495
v 78.337059 24.607178 12.894269
v 78.337059 31.374298 12.894269
v 78.585785 24.607178 13.197341
v 78.585785 31.374298 13.197341
v 78.888863 24.607178 13.446067
v 78.888863 31.374298 13.446067
v 79.234634 24.607178 13.630887
v 79.234634 31.374298 13.630887
v 79.609818 24.607178 13.744699
v 79.609818 31.374298 13.744699
vn 0.0980 -0.0000 -0.9952
vn 0.2903 -0.0000 -0.9569
vn 0.4714 -0.0000 -0.8819
vn 0.6344 -0.0000 -0.7730
vn 0.7730 -0.0000 -0.6344
vn 0.8819 -0.0000 -0.4714
vn 0.9569 -0.0000 -0.2903
vn 0.9952 -0.0000 -0.0980
vn 0.9952 -0.0000 0.0980
vn 0.9569 -0.0000 0.2903
vn 0.8819 -0.0000 0.4714
vn 0.7730 -0.0000 0.6344
vn 0.6344 -0.0000 0.7730
vn 0.4714 -0.0000 0.8819
vn 0.2903 -0.0000 0.9569
vn 0.0980 -0.0000 0.9952
vn -0.0980 -0.0000 0.9952
vn -0.2903 -0.0000 0.9569
vn -0.4714 -0.0000 0.8819
vn -0.6344 -0.0000 0.7730
vn -0.7730 -0.0000 0.6344
vn -0.8819 -0.0000 0.4714
vn -0.9569 -0.0000 0.2903
vn -0.9952 -0.0000 0.0980
vn -0.9952 -0.0000 -0.0980
vn -0.9569 -0.0000 -0.2903
vn -0.8819 -0.0000 -0.4714
vn -0.7730 -0.0000 -0.6344
vn -0.6344 -0.0000 -0.7730
vn -0.4714 -0.0000 -0.8819
vn -0.0000 1.0000 -0.0000
vn -0.2903 -0.0000 -0.9569
vn -0.0980 -0.0000 -0.9952
vn -0.0000 -1.0000 -0.0000
vt 1.000000 0.500000
vt 1.000000 1.000000
vt 0.968750 1.000000
vt 0.968750 0.500000
vt 0.937500 1.000000
vt 0.937500 0.500000
vt 0.906250 1.000000
vt 0.906250 0.500000
vt 0.875000 1.000000
vt 0.875000 0.500000
vt 0.843750 1.000000
vt 0.843750 0.500000
vt 0.812500 1.000000
vt 0.812500 0.500000
vt 0.781250 1.000000
vt 0.781250 0.500000
vt 0.750000 1.000000
vt 0.750000 0.500000
vt 0.718750 1.000000
vt 0.718750 0.500000
vt 0.687500 1.000000
vt 0.687500 0.500000
vt 0.656250 1.000000
vt 0.656250 0.500000
vt 0.625000 1.000000
vt 0.625000 0.500000
vt 0.593750 1.000000
vt 0.593750 0.500000
vt 0.562500 1.000000
vt 0.562500 0.500000
vt 0.531250 1.000000
vt 0.531250 0.500000
vt 0.500000 1.000000
vt 0.500000 0.500000
vt 0.468750 1.000000
vt 0.468750 0.500000
vt 0.437500 1.000000
vt 0.437500 0.500000
vt 0.406250 1.000000
vt 0.406250 0.500000
vt 0.375000 1.000000
vt 0.375000 0.500000
vt 0.343750 1.000000
vt 0.343750 0.500000
vt 0.312500 1.000000
vt 0.312500 0.500000
vt 0.281250 1.000000
vt 0.281250 0.500000
vt 0.250000 1.000000
vt 0.250000 0.500000
vt 0.218750 1.000000
vt 0.218750 0.500000
vt 0.187500 1.000000
vt 0.187500 0.500000
vt 0.156250 1.000000
vt 0.156250 0.500000
vt 0.125000 1.000000
vt 0.125000 0.500000
vt 0.093750 1.000000
vt 0.093750 0.500000
vt 0.062500 1.000000
vt 0.062500 0.500000
vt 0.296822 0.485388
vt 0.250000 0.490000
vt 0.203178 0.485388
vt 0.158156 0.471731
vt 0.116663 0.449553
vt 0.080294 0.419706
vt 0.050447 0.383337
vt 0.028269 0.341844
vt 0.014612 0.296822
vt 0.010000 0.250000
vt 0.014612 0.203178
vt 0.028269 0.158156
vt 0.050447 0.116663
vt 0.080294 0.080294
vt 0.116663 0.050447
vt 0.158156 0.028269
vt 0.203178 0.014612
vt 0.250000 0.010000
vt 0.296822 0.014612
vt 0.341844 0.028269
vt 0.383337 0.050447
vt 0.419706 0.080294
vt 0.449553 0.116663
vt 0.471731 0.158156
vt 0.485388 0.203178
vt 0.490000 0.250000
vt 0.485388 0.296822
vt 0.471731 0.341844
vt 0.449553 0.383337
vt 0.419706 0.419706
vt 0.383337 0.449553
vt 0.341844 0.471731
vt 0.031250 1.000000
vt 0.031250 0.500000
vt 0.000000 1.000000
vt 0.000000 0.500000
vt 0.750000 0.490000
vt 0.796822 0.485388
vt 0.841844 0.471731
vt 0.883337 0.449553
vt 0.919706 0.419706
vt 0.949553 0.383337
vt 0.971731 0.341844
vt 0.985388 0.296822
vt 0.990000 0.250000
vt 0.985388 0.203178
vt 0.971731 0.158156
vt 0.949553 0.116663
vt 0.919706 0.080294
vt 0.883337 0.050447
vt 0.841844 0.028269
vt 0.796822 0.014612
vt 0.750000 0.010000
vt 0.703178 0.014612
vt 0.658156 0.028269
vt 0.616663 0.050447
vt 0.580294 0.080294
vt 0.550447 0.116663
vt 0.528269 0.158156
vt 0.514612 0.203178
vt 0.510000 0.250000
vt 0.514612 0.296822
vt 0.528269 0.341844
vt 0.550447 0.383337
vt 0.580294 0.419706
vt 0.616663 0.449553
vt 0.658156 0.471731
vt 0.703178 0.485388
s 0
f 241/204/63 242/205/63 244/206/63 243/207/63
f 243/207/64 244/206/64 246/208/64 245/209/64
f 245/209/65 246/208/65 248/210/65 247/211/65
f 247/211/66 248/210/66 250/212/66 249/213/66
f 249/213/67 250/212/67 252/214/67 251/215/67
f 251/215/68 252/214/68 254/216/68 253/217/68
f 253/217/69 254/216/69 256/218/69 255/219/69
f 255/219/70 256/218/70 258/220/70 257/221/70
f 257/221/71 258/220/71 260/222/71 259/223/71
f 259/223/72 260/222/72 262/224/72 261/225/72
f 261/225/73 262/224/73 264/226/73 263/227/73
f 263/227/74 264/226/74 266/228/74 265/229/74
f 265/229/75 266/228/75 268/230/75 267/231/75
f 267/231/76 268/230/76 270/232/76 269/233/76
f 269/233/77 270/232/77 272/234/77 271/235/77
f 271/235/78 272/234/78 274/236/78 273/237/78
f 273/237/79 274/236/79 276/238/79 275/239/79
f 275/239/80 276/238/80 278/240/80 277/241/80
f 277/241/81 278/240/81 280/242/81 279/243/81
f 279/243/82 280/242/82 282/244/82 281/245/82
f 281/245/83 282/244/83 284/246/83 283/247/83
f 283/247/84 284/246/84 286/248/84 285/249/84
f 285/249/85 286/248/85 288/250/85 287/251/85
f 287/251/86 288/250/86 290/252/86 289/253/86
f 289/253/87 290/252/87 292/254/87 291/255/87
f 291/255/88 292/254/88 294/256/88 293/257/88
f 293/257/89 294/256/89 296/258/89 295/259/89
f 295/259/90 296/258/90 298/260/90 297/261/90
f 297/261/91 298/260/91 300/262/91 299/263/91
f 299/263/92 300/262/92 302/264/92 301/265/92
f 244/266/93 242/267/93 304/268/93 302/269/93 300/270/93 298/271/93 296/272/93 294/273/93 292/274/93 290/275/93 288/276/93 286/277/93 284/278/93 282/279/93 280/280/93 278/281/93 276/282/93 274/283/93 272/284/93 270/285/93 268/286/93 266/287/93 264/288/93 262/289/93 260/290/93 258/291/93 256/292/93 254/293/93 252/294/93 250/295/93 248/296/93 246/297/93
f 301/265/94 302/264/94 304/298/94 303/299/94
f 303/299/95 304/298/95 242/300/95 241/301/95
f 241/302/96 243/303/96 245/304/96 247/305/96 249/306/96 251/307/96 253/308/96 255/309/96 257/310/96 259/311/96 261/312/96 263/313/96 265/314/96 267/315/96 269/316/96 271/317/96 273/318/96 275/319/96 277/320/96 279/321/96 281/322/96 283/323/96 285/324/96 287/325/96 289/326/96 291/327/96 293/328/96 295/329/96 297/330/96 299/331/96 301/332/96 303/333/96
f 305/204/78 307/207/78 308/206/78 306/205/78
f 307/207/77 309/209/77 310/208/77 308/206/77
f 309/209/76 311/211/76 312/210/76 310/208/76
f 311/211/75 313/213/75 314/212/75 312/210/75
f 313/213/74 315/215/74 316/214/74 314/212/74
f 315/215/73 317/217/73 318/216/73 316/214/73
f 317/217/72 319/219/72 320/218/72 318/216/72
f 319/219/71 321/221/71 322/220/71 320/218/71
f 321/221/70 323/223/70 324/222/70 322/220/70
f 323/223/69 325/225/69 326/224/69 324/222/69
f 325/225/68 327/227/68 328/226/68 326/224/68
f 327/227/67 329/229/67 330/228/67 328/226/67
f 329/229/66 331/231/66 332/230/66 330/228/66
f 331/231/65 333/233/65 334/232/65 332/230/65
f 333/233/64 335/235/64 336/234/64 334/232/64
f 335/235/63 337/237/63 338/236/63 336/234/63
f 337/237/95 339/239/95 340/238/95 338/236/95
f 339/239/94 341/241/94 342/240/94 340/238/94
f 341/241/92 343/243/92 344/242/92 342/240/92
f 343/243/91 345/245/91 346/244/91 344/242/91
f 345/245/90 347/247/90 348/246/90 346/244/90
f 347/247/89 349/249/89 350/248/89 348/246/89
f 349/249/88 351/251/88 352/250/88 350/248/88
f 351/251/87 353/253/87 354/252/87 352/250/87
f 353/253/86 355/255/86 356/254/86 354/252/86
f 355/255/85 357/257/85 358/256/85 356/254/85
f 357/257/84 359/259/84 360/258/84 358/256/84
f 359/259/83 361/261/83 362/260/83 360/258/83
f 361/261/82 363/263/82 364/262/82 362/260/82
f 363/263/81 365/265/81 366/264/81 364/262/81
f 308/266/93 310/297/93 312/296/93 314/295/93 316/294/93 318/293/93 320/292/93 322/291/93 324/290/93 326/289/93 328/288/93 330/287/93 332/286/93 334/285/93 336/284/93 338/283/93 340/282/93 342/281/93 344/280/93 346/279/93 348/278/93 350/277/93 352/276/93 354/275/93 356/274/93 358/273/93 360/272/93 362/271/93 364/270/93 366/269/93 368/268/93 306/267/93
f 365/265/80 367/299/80 368/298/80 366/264/80
f 367/299/79 305/301/79 306/300/79 368/298/79
f 305/302/96 367/333/96 365/332/96 363/331/96 361/330/96 359/329/96 357/328/96 355/327/96 353/326/96 351/325/96 349/324/96 347/323/96 345/322/96 343/321/96 341/320/96 339/319/96 337/318/96 335/317/96 333/316/96 331/315/96 329/314/96 327/313/96 325/312/96 323/311/96 321/310/96 319/309/96 317/308/96 315/307/96 313/306/96 311/305/96 309/304/96 307/303/96
o Cube.002
v 82.143723 15.716909 0.232686
v 82.143723 66.653648 -0.285942
v 82.143723 15.119368 -9.722780
v 82.143723 66.056099 -12.262333
v 79.143723 15.716909 0.232686
v 80.315376 66.653648 -0.815033
v 79.143723 15.119368 -9.722780
v 79.143723 66.056099 -12.262333
v 82.143723 15.716906 -0.232687
v 82.143723 66.653648 0.285942
v 82.143723 15.119364 9.722780
v 82.143723 66.056099 12.262333
v 79.143723 15.716906 -0.232687
v 80.315376 66.653648 0.815032
v 79.143723 15.119364 9.722780
v 79.143723 66.056099 12.262333
vn 1.0000 -0.0000 -0.0000
vn -0.0000 -0.0498 -0.9988
vn -0.9985 0.0134 0.0539
vn -0.1089 0.0165 0.9939
vn -0.0000 -0.9982 0.0599
vn 0.0056 0.9987 -0.0512
vn -0.0000 -0.0498 0.9988
vn -0.9985 0.0134 -0.0539
vn -0.1089 0.0165 -0.9939
vn -0.0000 -0.9982 -0.0599
vn 0.0056 0.9987 0.0512
vt 0.375000 0.000000
vt 0.625000 0.000000
vt 0.625000 0.250000
vt 0.375000 0.250000
vt 0.625000 0.500000
vt 0.375000 0.500000
vt 0.625000 0.750000
vt 0.375000 0.750000
vt 0.625000 1.000000
vt 0.375000 1.000000
vt 0.125000 0.500000
vt 0.125000 0.750000
vt 0.875000 0.500000
vt 0.875000 0.750000
s 0
f 369/334/97 371/337/97 372/336/97 370/335/97
f 371/337/98 375/339/98 376/338/98 372/336/98
f 375/339/99 373/341/99 374/340/99 376/338/99
f 373/341/100 369/343/100 370/342/100 374/340/100
f 371/344/101 369/345/101 373/341/101 375/339/101
f 376/338/102 374/340/102 370/347/102 372/346/102
f 377/334/97 378/335/97 380/336/97 379/337/97
f 379/337/103 380/336/103 384/338/103 383/339/103
f 383/339/104 384/338/104 382/340/104 381/341/104
f 381/341/105 382/340/105 378/342/105 377/343/105
f 379/344/106 383/339/106 381/341/106 377/345/106
f 384/338/107 380/346/107 378/347/107 382/340/107
o Cube.003
v 73.857773 10.000000 19.500002
v 73.857773 15.000000 19.500002
v 73.857773 10.000000 -19.500002
v 73.857773 15.000000 -19.500002
v 75.957779 10.000000 19.500002
v 75.957779 15.000000 19.500002
v 75.957779 10.000000 -19.500002
v 75.957779 15.000000 -19.500002
v 71.757774 9.400000 19.500002
v 71.757774 14.400000 19.500002
v 71.757774 9.400000 -19.500002
v 71.757774 14.400000 -19.500002
v 73.857773 9.400000 19.500002
v 73.857773 14.400000 19.500002
v 73.857773 9.400000 -19.500002
v 73.857773 14.400000 -19.500002
v 69.657776 8.800000 19.500002
v 69.657776 13.800000 19.500002
v 69.657776 8.800000 -19.500002
v 69.657776 13.800000 -19.500002
v 71.757774 8.800000 19.500002
v 71.757774 13.800000 19.500002
v 71.757774 8.800000 -19.500002
v 71.757774 13.800000 -19.500002
v 67.557777 8.200000 19.500002
v 67.557777 13.200000 19.500002
v 67.557777 8.200000 -19.500002
v 67.557777 13.200000 -19.500002
v 69.657776 8.200000 19.500002
v 69.657776 13.200000 19.500002
v 69.657776 8.200000 -19.500002
v 69.657776 13.200000 -19.500002
v 65.457771 7.600000 19.500002
v 65.457771 12.600000 19.500002
v 65.457771 7.600000 -19.500002
v 65.457771 12.600000 -19.500002
v 67.557777 7.600000 19.500002
v 67.557777 12.600000 19.500002
v 67.557777 7.600000 -19.500002
v 67.557777 12.600000 -19.500002
v 63.357773 7.000000 19.500002
v 63.357773 12.000000 19.500002
v 63.357773 7.000000 -19.500002
v 63.357773 12.000000 -19.500002
v 65.457771 7.000000 19.500002
v 65.457771 12.000000 19.500002
v 65.457771 7.000000 -19.500002
v 65.457771 12.000000 -19.500002
v 61.257774 6.400001 19.500002
v 61.257774 11.400001 19.500002
v 61.257774 6.400001 -19.500002
v 61.257774 11.400001 -19.500002
v 63.357773 6.400001 19.500002
v 63.357773 11.400001 19.500002
v 63.357773 6.400001 -19.500002
v 63.357773 11.400001 -19.500002
v 59.157772 5.800000 19.500002
v 59.157772 10.800000 19.500002
v 59.157772 5.800000 -19.500002
v 59.157772 10.800000 -19.500002
v 61.257774 5.800000 19.500002
v 61.257774 10.800000 19.500002
v 61.257774 5.800000 -19.500002
v 61.257774 10.800000 -19.500002
v 57.057770 5.200000 19.500002
v 57.057770 10.200001 19.500002
v 57.057770 5.200000 -19.500002
v 57.057770 10.200001 -19.500002
v 59.157772 5.200000 19.500002
v 59.157772 10.200001 19.500002
v 59.157772 5.200000 -19.500002
v 59.157772 10.200001 -19.500002
v 54.957771 4.600000 19.500002
v 54.957771 9.600000 19.500002
v 54.957771 4.600000 -19.500002
v 54.957771 9.600000 -19.500002
v 57.057770 4.600000 19.500002
v 57.057770 9.600000 19.500002
v 57.057770 4.600000 -19.500002
v 57.057770 9.600000 -19.500002
v 52.857773 4.000000 19.500002
v 52.857773 9.000000 19.500002
v 52.857773 4.000000 -19.500002
v 52.857773 9.000000 -19.500002
v 54.957771 4.000000 19.500002
v 54.957771 9.000000 19.500002
v 54.957771 4.000000 -19.500002
v 54.957771 9.000000 -19.500002
v 50.757771 3.400001 19.500002
v 50.757771 8.400001 19.500002
v 50.757771 3.400001 -19.500002
v 50.757771 8.400001 -19.500002
v 52.857773 3.400001 19.500002
v 52.857773 8.400001 19.500002
v 52.857773 3.400001 -19.500002
v 52.857773 8.400001 -19.500002
v 48.657768 2.800001 19.500002
v 48.657768 7.800001 19.500002
v 48.657768 2.800001 -19.500002
v 48.657768 7.800001 -19.500002
v 50.757771 2.800001 19.500002
v 50.757771 7.800001 19.500002
v 50.757771 2.800001 -19.500002
v 50.757771 7.800001 -19.500002
v 46.557770 2.200001 19.500002
v 46.557770 7.200001 19.500002
v 46.557770 2.200001 -19.500002
v 46.557770 7.200001 -19.500002
v 48.657768 2.200001 19.500002
v 48.657768 7.200001 19.500002
v 48.657768 2.200001 -19.500002
v 48.657768 7.200001 -19.500002
v 44.457771 1.600000 19.500002
v 44.457771 6.600000 19.500002
v 44.457771 1.600000 -19.500002
v 44.457771 6.600000 -19.500002
v 46.557770 1.600000 19.500002
v 46.557770 6.600000 19.500002
v 46.557770 1.600000 -19.500002
v 46.557770 6.600000 -19.500002
v 42.357769 1.000000 19.500002
v 42.357769 6.000000 19.500002
v 42.357769 1.000000 -19.500002
v 42.357769 6.000000 -19.500002
v 44.457771 1.000000 19.500002
v 44.457771 6.000000 19.500002
v 44.457771 1.000000 -19.500002
v 44.457771 6.000000 -19.500002
v 40.257767 0.400000 19.500002
v 40.257767 5.400000 19.500002
v 40.257767 0.400000 -19.500002
v 40.257767 5.400000 -19.500002
v 42.357769 0.400000 19.500002
v 42.357769 5.400000 19.500002
v 42.357769 0.400000 -19.500002
v 42.357769 5.400000 -19.500002
v 38.157768 -0.200001 19.500002
v 38.157768 4.799999 19.500002
v 38.157768 -0.200001 -19.500002
v 38.157768 4.799999 -19.500002
v 40.257767 -0.200001 19.500002
v 40.257767 4.799999 19.500002
v 40.257767 -0.200001 -19.500002
v 40.257767 4.799999 -19.500002
v 36.057766 -0.800001 19.500002
v 36.057766 4.199999 19.500002
v 36.057766 -0.800001 -19.500002
v 36.057766 4.199999 -19.500002
v 38.157768 -0.800001 19.500002
v 38.157768 4.199999 19.500002
v 38.157768 -0.800001 -19.500002
v 38.157768 4.199999 -19.500002
v 33.957767 -1.400002 19.500002
v 33.957767 3.599998 19.500002
v 33.957767 -1.400002 -19.500002
v 33.957767 3.599998 -19.500002
v 36.057766 -1.400002 19.500002
v 36.057766 3.599998 19.500002
v 36.057766 -1.400002 -19.500002
v 36.057766 3.599998 -19.500002
v 31.857765 -2.000002 19.500002
v 31.857765 2.999998 19.500002
v 31.857765 -2.000002 -19.500002
v 31.857765 2.999998 -19.500002
v 33.957767 -2.000002 19.500002
v 33.957767 2.999998 19.500002
v 33.957767 -2.000002 -19.500002
v 33.957767 2.999998 -19.500002
v 29.757767 -2.600002 19.500002
v 29.757767 2.399998 19.500002
v 29.757767 -2.600002 -19.500002
v 29.757767 2.399998 -19.500002
v 31.857765 -2.600002 19.500002
v 31.857765 2.399998 19.500002
v 31.857765 -2.600002 -19.500002
v 31.857765 2.399998 -19.500002
v 27.657764 -3.200003 19.500002
v 27.657764 1.799997 19.500002
v 27.657764 -3.200003 -19.500002
v 27.657764 1.799997 -19.500002
v 29.757767 -3.200003 19.500002
v 29.757767 1.799997 19.500002
v 29.757767 -3.200003 -19.500002
v 29.757767 1.799997 -19.500002
v 25.557766 -3.800003 19.500002
v 25.557766 1.199997 19.500002
v 25.557766 -3.800003 -19.500002
v 25.557766 1.199997 -19.500002
v 27.657764 -3.800003 19.500002
v 27.657764 1.199997 19.500002
v 27.657764 -3.800003 -19.500002
v 27.657764 1.199997 -19.500002
v 23.457764 -4.400003 19.500002
v 23.457764 0.599997 19.500002
v 23.457764 -4.400003 -19.500002
v 23.457764 0.599997 -19.500002
v 25.557766 -4.400003 19.500002
v 25.557766 0.599997 19.500002
v 25.557766 -4.400003 -19.500002
v 25.557766 0.599997 -19.500002
v 21.357765 -5.000004 19.500002
v 21.357765 -0.000004 19.500002
v 21.357765 -5.000004 -19.500002
v 21.357765 -0.000004 -19.500002
v 23.457764 -5.000004 19.500002
v 23.457764 -0.000004 19.500002
v 23.457764 -5.000004 -19.500002
v 23.457764 -0.000004 -19.500002
v 19.257763 -5.600004 19.500002
v 19.257763 -0.600004 19.500002
v 19.257763 -5.600004 -19.500002
v 19.257763 -0.600004 -19.500002
v 21.357765 -5.600004 19.500002
v 21.357765 -0.600004 19.500002
v 21.357765 -5.600004 -19.500002
v 21.357765 -0.600004 -19.500002
v 17.157764 -6.200005 19.500002
v 17.157764 -1.200005 19.500002
v 17.157764 -6.200005 -19.500002
v 17.157764 -1.200005 -19.500002
v 19.257763 -6.200005 19.500002
v 19.257763 -1.200005 19.500002
v 19.257763 -6.200005 -19.500002
v 19.257763 -1.200005 -19.500002
v 15.057762 -6.800005 19.500002
v 15.057762 -1.800005 19.500002
v 15.057762 -6.800005 -19.500002
v 15.057762 -1.800005 -19.500002
v 17.157764 -6.800005 19.500002
v 17.157764 -1.800005 19.500002
v 17.157764 -6.800005 -19.500002
v 17.157764 -1.800005 -19.500002
v 12.957764 -7.400005 19.500002
v 12.957764 -2.400005 19.500002
v 12.957764 -7.400005 -19.500002
v 12.957764 -2.400005 -19.500002
v 15.057762 -7.400005 19.500002
v 15.057762 -2.400005 19.500002
v 15.057762 -7.400005 -19.500002
v 15.057762 -2.400005 -19.500002
vn -1.0000 -0.0000 -0.0000
vn -0.0000 -0.0000 -1.0000
vn 1.0000 -0.0000 -0.0000
vn -0.0000 -0.0000 1.0000
vn -0.0000 -1.0000 -0.0000
vn -0.0000 1.0000 -0.0000
vt 0.375000 0.000000
vt 0.625000 0.000000
vt 0.625000 0.250000
vt 0.375000 0.250000
vt 0.625000 0.500000
vt 0.375000 0.500000
vt 0.625000 0.750000
vt 0.375000 0.750000
vt 0.625000 1.000000
vt 0.375000 1.000000
vt 0.125000 0.500000
vt 0.125000 0.750000
vt 0.875000 0.500000
vt 0.875000 0.750000
s 0
f 385/348/108 386/349/108 388/350/108 387/351/108
f 387/351/109 388/350/109 392/352/109 391/353/109
f 391/353/110 392/352/110 390/354/110 389/355/110
f 389/355/111 390/354/111 386/356/111 385/357/111
f 387/358/112 391/353/112 389/355/112 385/359/112
f 392/352/113 388/360/113 386/361/113 390/354/113
f 393/348/108 394/349/108 396/350/108 395/351/108
f 395/351/109 396/350/109 400/352/109 399/353/109
f 399/353/110 400/352/110 398/354/110 397/355/110
f 397/355/111 398/354/111 394/356/111 393/357/111
f 395/358/112 399/353/112 397/355/112 393/359/112
f 400/352/113 396/360/113 394/361/113 398/354/113
f 401/348/108 402/349/108 404/350/108 403/351/108
f 403/351/109 404/350/109 408/352/109 407/353/109
f 407/353/110 408/352/110 406/354/110 405/355/110
f 405/355/111 406/354/111 402/356/111 401/357/111
f 403/358/112 407/353/112 405/355/112 401/359/112
f 408/352/113 404/360/113 402/361/113 406/354/113
f 409/348/108 410/349/108 412/350/108 411/351/108
f 411/351/109 412/350/109 416/352/109 415/353/109
f 415/353/110 416/352/110 414/354/110 413/355/110
f 413/355/111 414/354/111 410/356/111 409/357/111
f 411/358/112 415/353/112 413/355/112 409/359/112
f 416/352/113 412/360/113 410/361/113 414/354/113
f 417/348/108 418/349/108 420/350/108 419/351/108
f 419/351/109 420/350/109 424/352/109 423/353/109
f 423/353/110 424/352/110 422/354/110 421/355/110
f 421/355/111 422/354/111 418/356/111 417/357/111
f 419/358/112 423/353/112 421/355/112 417/359/112
f 424/352/113 420/360/113 418/361/113 422/354/113
f 425/348/108 426/349/108 428/350/108 427/351/108
f 427/351/109 428/350/109 432/352/109 431/353/109
f 431/353/110 432/352/110 430/354/110 429/355/110
f 429/355/111 430/354/111 426/356/111 425/357/111
f 427/358/112 431/353/112 429/355/112 425/359/112
f 432/352/113 428/360/113 426/361/113 430/354/113
f 433/348/108 434/349/108 436/350/108 435/351/108
f 435/351/109 436/350/109 440/352/109 439/353/109
f 439/353/110 440/352/110 438/354/110 437/355/110
f 437/355/111 438/354/111 434/356/111 433/357/111
f 435/358/112 439/353/112 437/355/112 433/359/112
f 440/352/113 436/360/113 434/361/113 438/354/113
f 441/348/108 442/349/108 444/350/108 443/351/108
f 443/351/109 444/350/109 448/352/109 447/353/109
f 447/353/110 448/352/110 446/354/110 445/355/110
f 445/355/111 446/354/111 442/356/111 441/357/111
f 443/358/112 447/353/112 445/355/112 441/359/112
f 448/352/113 444/360/113 442/361/113 446/354/113
f 449/348/108 450/349/108 452/350/108 451/351/108
f 451/351/109 452/350/109 456/352/109 455/353/109
f 455/353/110 456/352/110 454/354/110 453/355/110
f 453/355/111 454/354/111 450/356/111 449/357/111
f 451/358/112 455/353/112 453/355/112 449/359/112
f 456/352/113 452/360/113 450/361/113 454/354/113
f 457/348/108 458/349/108 460/350/108 459/351/108
f 459/351/109 460/350/109 464/352/109 463/353/109
f 463/353/110 464/352/110 462/354/110 461/355/110
f 461/355/111 462/354/111 458/356/111 457/357/111
f 459/358/112 463/353/112 461/355/112 457/359/112
f 464/352/113 460/360/113 458/361/113 462/354/113
f 465/348/108 466/349/108 468/350/108 467/351/108
f 467/351/109 468/350/109 472/352/109 471/353/109
f 471/353/110 472/352/110 470/354/110 469/355/110
f 469/355/111 470/354/111 466/356/111 465/357/111
f 467/358/112 471/353/112 469/355/112 465/359/112
f 472/352/113 468/360/113 466/361/113 470/354/113
f 473/348/108 474/349/108 476/350/108 475/351/108
f 475/351/109 476/350/109 480/352/109 479/353/109
f 479/353/110 480/352/110 478/354/110 477/355/110
f 477/355/111 478/354/111 474/356/111 473/357/111
f 475/358/112 479/353/112 477/355/112 473/359/112
f 480/352/113 476/360/113 474/361/113 478/354/113
f 481/348/108 482/349/108 484/350/108 483/351/108
f 483/351/109 484/350/109 488/352/109 487/353/109
f 487/353/110 488/352/110 486/354/110 485/355/110
f 485/355/111 486/354/111 482/356/111 481/357/111
f 483/358/112 487/353/112 485/355/112 481/359/112
f 488/352/113 484/360/113 482/361/113 486/354/113
f 489/348/108 490/349/108 492/350/108 491/351/108
f 491/351/109 492/350/109 496/352/109 495/353/109
f 495/353/110 496/352/110 494/354/110 493/355/110
f 493/355/111 494/354/111 490/356/111 489/357/111
f 491/358/112 495/353/112 493/355/112 489/359/112
f 496/352/113 492/360/113 490/361/113 494/354/113
f 497/348/108 498/349/108 500/350/108 499/351/108
f 499/351/109 500/350/109 504/352/109 503/353/109
f 503/353/110 504/352/110 502/354/110 501/355/110
f 501/355/111 502/354/111 498/356/111 497/357/111
f 499/358/112 503/353/112 501/355/112 497/359/112
f 504/352/113 500/360/113 498/361/113 502/354/113
f 505/348/108 506/349/108 508/350/108 507/351/108
f 507/351/109 508/350/109 512/352/109 511/353/109
f 511/353/110 512/352/110 510/354/110 509/355/110
f 509/355/111 510/354/111 506/356/111 505/357/111
f 507/358/112 511/353/112 509/355/112 505/359/112
f 512/352/113 508/360/113 506/361/113 510/354/113
f 513/348/108 514/349/108 516/350/108 515/351/108
f 515/351/109 516/350/109 520/352/109 519/353/109
f 519/353/110 520/352/110 518/354/110 517/355/110
f 517/355/111 518/354/111 514/356/111 513/357/111
f 515/358/112 519/353/112 517/355/112 513/359/112
f 520/352/113 516/360/113 514/361/113 518/354/113
f 521/348/108 522/349/108 524/350/108 523/351/108
f 523/351/109 524/350/109 528/352/109 527/353/109
f 527/353/110 528/352/110 526/354/110 525/355/110
f 525/355/111 526/354/111 522/356/111 521/357/111
f 523/358/112 527/353/112 525/355/112 521/359/112
f 528/352/113 524/360/113 522/361/113 526/354/113
f 529/348/108 530/349/108 532/350/108 531/351/108
f 531/351/109 532/350/109 536/352/109 535/353/109
f 535/353/110 536/352/110 534/354/110 533/355/110
f 533/355/111 534/354/111 530/356/111 529/357/111
f 531/358/112 535/353/112 533/355/112 529/359/112
f 536/352/113 532/360/113 530/361/113 534/354/113
f 537/348/108 538/349/108 540/350/108 539/351/108
f 539/351/109 540/350/109 544/352/109 543/353/109
f 543/353/110 544/352/110 542/354/110 541/355/110
f 541/355/111 542/354/111 538/356/111 537/357/111
f 539/358/112 543/353/112 541/355/112 537/359/112
f 544/352/113 540/360/113 538/361/113 542/354/113
f 545/348/108 546/349/108 548/350/108 547/351/108
f 547/351/109 548/350/109 552/352/109 551/353/109
f 551/353/110 552/352/110 550/354/110 549/355/110
f 549/355/111 550/354/111 546/356/111 545/357/111
f 547/358/112 551/353/112 549/355/112 545/359/112
f 552/352/113 548/360/113 546/361/113 550/354/113
f 553/348/108 554/349/108 556/350/108 555/351/108
f 555/351/109 556/350/109 560/352/109 559/353/109
f 559/353/110 560/352/110 558/354/110 557/355/110
f 557/355/111 558/354/111 554/356/111 553/357/111
f 555/358/112 559/353/112 557/355/112 553/359/112
f 560/352/113 556/360/113 554/361/113 558/354/113
f 561/348/108 562/349/108 564/350/108 563/351/108
f 563/351/109 564/350/109 568/352/109 567/353/109
f 567/353/110 568/352/110 566/354/110 565/355/110
f 565/355/111 566/354/111 562/356/111 561/357/111
f 563/358/112 567/353/112 565/355/112 561/359/112
f 568/352/113 564/360/113 562/361/113 566/354/113
f 569/348/108 570/349/108 572/350/108 571/351/108
f 571/351/109 572/350/109 576/352/109 575/353/109
f 575/353/110 576/352/110 574/354/110 573/355/110
f 573/355/111 574/354/111 570/356/111 569/357/111
f 571/358/112 575/353/112 573/355/112 569/359/112
f 576/352/113 572/360/113 570/361/113 574/354/113
f 577/348/108 578/349/108 580/350/108 579/351/108
f 579/351/109 580/350/109 584/352/109 583/353/109
f 583/353/110 584/352/110 582/354/110 581/355/110
f 581/355/111 582/354/111 578/356/111 577/357/111
f 579/358/112 583/353/112 581/355/112 577/359/112
f 584/352/113 580/360/113 578/361/113 582/354/113
f 585/348/108 586/349/108 588/350/108 587/351/108
f 587/351/109 588/350/109 592/352/109 591/353/109
f 591/353/110 592/352/110 590/354/110 589/355/110
f 589/355/111 590/354/111 586/356/111 585/357/111
f 587/358/112 591/353/112 589/355/112 585/359/112
f 592/352/113 588/360/113 586/361/113 590/354/113
f 593/348/108 594/349/108 596/350/108 595/351/108
f 595/351/109 596/350/109 600/352/109 599/353/109
f 599/353/110 600/352/110 598/354/110 597/355/110
f 597/355/111 598/354/111 594/356/111 593/357/111
f 595/358/112 599/353/112 597/355/112 593/359/112
f 600/352/113 596/360/113 594/361/113 598/354/113
f 601/348/108 602/349/108 604/350/108 603/351/108
f 603/351/109 604/350/109 608/352/109 607/353/109
f 607/353/110 608/352/110 606/354/110 605/355/110
f 605/355/111 606/354/111 602/356/111 601/357/111
f 603/358/112 607/353/112 605/355/112 601/359/112
f 608/352/113 604/360/113 602/361/113 606/354/113
f 609/348/108 610/349/108 612/350/108 611/351/108
f 611/351/109 612/350/109 616/352/109 615/353/109
f 615/353/110 616/352/110 614/354/110 613/355/110
f 613/355/111 614/354/111 610/356/111 609/357/111
f 611/358/112 615/353/112 613/355/112 609/359/112
f 616/352/113 612/360/113 610/361/113 614/354/113
f 617/348/108 618/349/108 620/350/108 619/351/108
f 619/351/109 620/350/109 624/352/109 623/353/109
f 623/353/110 624/352/110 622/354/110 621/355/110
f 621/355/111 622/354/111 618/356/111 617/357/111
f 619/358/112 623/353/112 621/355/112 617/359/112
f 624/352/113 620/360/113 618/361/113 622/354/113
o Cube.004
v 75.857773 10.000000 27.300001
v 75.857773 15.000000 27.300001
v 75.857773 10.000000 -27.300001
v 75.857773 15.000000 -27.300001
v 83.947670 10.000000 33.150005
v 83.947670 15.000000 33.150005
v 83.947670 10.000000 -33.150005
v 83.947670 15.000000 -33.150005
vn -1.0000 -0.0000 -0.0000
vn -0.5860 -0.0000 -0.8103
vn 1.0000 -0.0000 -0.0000
vn -0.5860 -0.0000 0.8103
vn -0.0000 -1.0000 -0.0000
vn -0.0000 1.0000 -0.0000
vt 0.375000 0.000000
vt 0.625000 0.000000
vt 0.625000 0.250000
vt 0.375000 0.250000
vt 0.625000 0.500000
vt 0.375000 0.500000
vt 0.625000 0.750000
vt 0.375000 0.750000
vt 0.625000 1.000000
vt 0.375000 1.000000
vt 0.125000 0.500000
vt 0.125000 0.750000
vt 0.875000 0.500000
vt 0.875000 0.750000
s 0
f 625/362/114 626/363/114 628/364/114 627/365/114
f 627/365/115 628/364/115 632/366/115 631/367/115
f 631/367/116 632/366/116 630/368/116 629/369/116
f 629/369/117 630/368/117 626/370/117 625/371/117
f 627/372/118 631/367/118 629/369/118 625/373/118
f 632/366/119 628/374/119 626/375/119 630/368/119
