# Blender 4.4.3
# www.blender.org
mtllib Piedra2.mtl
o Cube.005
v -0.097870 0.691025 0.711348
v -0.507325 0.372471 0.711033
v -0.420675 0.597870 0.024457
v -0.097870 1.482004 0.191024
v -0.420675 0.597870 -0.186316
v -0.097870 1.518953 -0.352884
v 0.500000 0.840583 0.124991
v 0.340582 1.582870 0.191024
v 0.340582 0.691025 0.763175
v 0.340582 1.435754 -0.500000
v 0.340582 1.551688 -0.352884
v 0.500000 1.423452 -0.286851
v 0.500000 0.000000 0.659271
v 0.396096 0.000000 0.763175
v 0.396096 0.612516 0.750399
v 0.500000 0.569478 0.615073
v 0.429598 0.000000 -0.659388
v 0.500000 0.000000 -0.588986
v 0.500000 1.280705 -0.429598
v 0.429598 1.309866 -0.500000
v -0.443419 0.354520 -0.589053
v -0.500000 0.143517 -0.659388
v 0.001598 1.435754 -0.500000
v -0.097870 1.506088 -0.429666
v -0.399447 0.000000 0.763175
v -0.399447 0.000000 -0.659388
v -0.575898 0.097230 0.763175
v -0.455767 0.001978 0.763175
v -0.455767 0.056320 -0.659388
v -0.500000 0.143517 -0.659388
vn -0.1506 0.9886 0.0052
vn 1.0000 -0.0000 -0.0000
vn 0.9162 0.2710 0.2952
vn -0.0022 0.8353 -0.5498
vn -0.8268 0.4581 0.3264
vn 0.0214 0.1076 -0.9940
vn -0.9415 0.3367 0.0165
vn 0.9210 0.3373 0.1947
vn -0.1115 0.5411 0.8335
vn 0.7574 0.0314 0.6522
vn 0.6905 0.5363 -0.4855
vn 0.7133 0.0856 -0.6956
vn -0.0340 0.0612 0.9975
vn -0.5682 0.2971 -0.7674
vn -0.9452 0.3044 -0.1178
vn -0.9712 0.2338 -0.0459
vn -0.0000 -1.0000 -0.0000
vn -0.7423 -0.6687 -0.0435
vn -0.4596 -0.8880 -0.0170
vt 0.664854 0.536779
vt 0.774467 0.536779
vt 0.774467 0.672756
vt 0.664854 0.672756
vt 0.375000 0.517600
vt 0.549459 0.517600
vt 0.585146 0.553287
vt 0.585146 0.656248
vt 0.517369 0.724024
vt 0.375000 0.724024
vt 0.528129 0.750000
vt 0.625000 0.672756
vt 0.547756 0.750000
vt 0.625000 0.350533
vt 0.625000 0.460146
vt 0.588221 0.460146
vt 0.588221 0.375400
vt 0.605805 0.350533
vt 0.524467 0.118886
vt 0.405582 0.000000
vt 0.547756 0.000000
vt 0.625000 0.077244
vt 0.375000 0.275138
vt 0.389080 0.261058
vt 0.410879 0.250000
vt 0.588221 0.375400
vt 0.588221 0.460146
vt 0.556749 0.482400
vt 0.375000 0.482400
vt 0.625000 0.213221
vt 0.524467 0.171579
vt 0.625000 0.789854
vt 0.625000 0.899467
vt 0.547756 0.899467
vt 0.547756 0.789854
vt 0.528129 0.775976
vt 0.375000 0.775976
vt 0.549459 0.517600
vt 0.556749 0.500000
vt 0.588221 0.500000
vt 0.625000 0.536779
vt 0.405582 1.000000
vt 0.389080 0.988942
vt 0.375000 0.974862
vt 0.457769 0.258289
vt 0.588221 0.350533
vt 0.463630 0.232416
vt 0.605805 0.232416
vt 0.463630 0.232416
vt 0.150138 0.500000
vt 0.357400 0.500000
vt 0.375000 0.517600
vt 0.349024 0.750000
vt 0.150138 0.750000
vt 0.125000 0.750000
vt 0.125000 0.500000
vt 0.136058 0.500000
vt 0.136058 0.750000
s 0
f 11/1/1 6/2/1 4/3/1 8/4/1
f 18/5/2 19/6/2 12/7/2 7/8/2 16/9/2 13/10/2
f 15/11/3 16/9/3 7/8/3 8/12/3 9/13/3
f 6/14/4 11/15/4 10/16/4 23/17/4 24/18/4
f 3/19/5 2/20/5 1/21/5 4/22/5
f 26/23/6 29/24/6 30/25/6 22/25/6 23/26/6 10/27/6 20/28/6 17/29/6
f 4/22/7 6/30/7 5/31/7 3/19/7
f 7/8/8 12/7/8 11/1/8 8/4/8
f 8/32/9 4/33/9 1/34/9 9/35/9
f 15/36/10 14/37/10 13/10/10 16/9/10
f 12/7/11 19/38/11 20/39/11 10/40/11 11/41/11
f 17/29/12 20/28/12 19/6/12 18/5/12
f 14/37/13 15/36/13 9/35/13 1/34/13 2/42/13 27/42/13 28/43/13 25/44/13
f 23/26/14 22/25/14 21/45/14 24/46/14
f 21/47/15 5/31/15 6/30/15 24/48/15
f 27/20/16 2/20/16 3/19/16 5/31/16 21/49/16 22/25/16 30/25/16
f 26/50/17 17/51/17 18/52/17 13/10/17 14/53/17 25/54/17
f 27/55/18 30/56/18 29/57/18 28/58/18
f 26/50/19 25/54/19 28/58/19 29/57/19
l 10 24
l 11 19
