# Blender 4.4.3
# www.blender.org
o Cube.004
v -0.097870 0.691024 0.448173
v -0.507325 0.372471 0.447858
v -0.420675 0.597870 0.024457
v -0.097870 1.000000 0.191024
v -0.420675 0.597870 -0.186316
v -0.097870 1.000000 -0.352884
v 0.500000 0.840582 0.124991
v 0.340582 1.000000 0.191024
v 0.340582 0.691024 0.500000
v 0.340582 0.852884 -0.500000
v 0.340582 0.968818 -0.352884
v 0.500000 0.840582 -0.286851
v 0.500000 0.000000 0.396096
v 0.396096 0.000000 0.500000
v 0.396096 0.612516 0.487224
v 0.500000 0.569477 0.351898
v 0.429598 0.000000 -0.500000
v 0.500000 0.000000 -0.429598
v 0.500000 0.697835 -0.429598
v 0.429598 0.726996 -0.500000
v -0.443419 0.354520 -0.429666
v -0.500000 0.143517 -0.500000
v 0.001598 0.852884 -0.500000
v -0.097870 0.923218 -0.429666
v -0.399447 0.000000 0.500000
v -0.399447 0.000000 -0.500000
v -0.575898 0.097230 0.500000
v -0.455767 0.001978 0.500000
v -0.455767 0.056320 -0.500000
v -0.500000 0.143517 -0.500000
vn 0.0355 0.9990 -0.0286
vn 1.0000 -0.0000 -0.0000
vn 0.7393 0.4593 0.4925
vn 0.0281 0.7475 -0.6637
vn -0.6893 0.6098 0.3911
vn -0.0000 -0.0000 -1.0000
vn -0.7798 0.6260 -0.0000
vn 0.6697 0.7423 -0.0242
vn -0.0435 0.6749 0.7367
vn 0.7574 0.0314 0.6522
vn 0.6905 0.5363 -0.4855
vn 0.7071 -0.0000 -0.7071
vn -0.0340 0.0612 0.9975
vn -0.4940 0.3274 -0.8055
vn -0.7820 0.4676 -0.4121
vn -0.9699 0.2346 -0.0655
vn -0.0000 -1.0000 -0.0000
vn -0.7416 -0.6680 -0.0618
vn -0.4595 -0.8878 -0.0241
vt 0.459830 0.715121
vt 0.459830 0.824734
vt 0.323853 0.824734
vt 0.323853 0.715121
vt 0.479008 0.425266
vt 0.479008 0.599725
vt 0.443321 0.635412
vt 0.340361 0.635412
vt 0.272585 0.567636
vt 0.272585 0.425266
vt 0.246609 0.578395
vt 0.323853 0.675266
vt 0.246609 0.598022
vt 0.646076 0.675266
vt 0.536463 0.675266
vt 0.536463 0.638487
vt 0.621209 0.638487
vt 0.646076 0.656071
vt 0.877723 0.574734
vt 0.996609 0.455848
vt 0.996609 0.598022
vt 0.919365 0.675266
vt 0.721470 0.425266
vt 0.735550 0.439346
vt 0.746609 0.461146
vt 0.621209 0.638487
vt 0.514209 0.607015
vt 0.514209 0.425266
vt 0.783388 0.675266
vt 0.825030 0.574734
vt 0.206754 0.675266
vt 0.097141 0.675266
vt 0.097141 0.598022
vt 0.206754 0.598022
vt 0.220633 0.578395
vt 0.220633 0.425266
vt 0.479008 0.599725
vt 0.496609 0.607015
vt 0.496609 0.638487
vt 0.459830 0.675266
vt 0.002761 0.455848
vt 0.007667 0.439346
vt 0.021747 0.425266
vt 0.738320 0.508035
vt 0.646076 0.638487
vt 0.764192 0.513896
vt 0.764192 0.656071
vt 0.764192 0.513896
vt 0.496609 0.200404
vt 0.496609 0.407666
vt 0.479008 0.425266
vt 0.246609 0.399290
vt 0.246609 0.200405
vt 0.246609 0.175266
vt 0.496609 0.175266
vt 0.496609 0.186325
vt 0.246609 0.186325
s 0
f 11/1/1 6/2/1 4/3/1 8/4/1
f 18/5/2 19/6/2 12/7/2 7/8/2 16/9/2 13/10/2
f 15/11/3 16/9/3 7/8/3 8/12/3 9/13/3
f 6/14/4 11/15/4 10/16/4 23/17/4 24/18/4
f 3/19/5 2/20/5 1/21/5 4/22/5
f 26/23/6 29/24/6 30/25/6 22/25/6 23/26/6 10/16/6 20/27/6 17/28/6
f 4/22/7 6/29/7 5/30/7 3/19/7
f 7/8/8 12/7/8 11/1/8 8/4/8
f 8/31/9 4/32/9 1/33/9 9/34/9
f 15/35/10 14/36/10 13/10/10 16/9/10
f 12/7/11 19/37/11 20/38/11 10/39/11 11/40/11
f 17/28/12 20/27/12 19/6/12 18/5/12
f 14/36/13 15/35/13 9/34/13 1/33/13 2/41/13 27/41/13 28/42/13 25/43/13
f 23/26/14 22/25/14 21/44/14 24/45/14
f 21/46/15 5/30/15 6/29/15 24/47/15
f 27/20/16 2/20/16 3/19/16 5/30/16 21/48/16 22/25/16 30/25/16
f 26/49/17 17/50/17 18/51/17 13/10/17 14/52/17 25/53/17
f 27/54/18 30/55/18 29/56/18 28/57/18
f 26/49/19 25/53/19 28/57/19 29/56/19
