# Blender 4.4.3
# www.blender.org
o Cube
v -0.009045 0.040301 -0.133668
v -0.009045 0.030953 -0.138392
v 0.004522 0.026279 -0.140754
v -0.004522 0.026279 -0.140754
v -0.004522 0.044974 -0.131306
v 0.004522 0.044974 -0.131306
v 0.009045 0.040301 -0.133668
v 0.009045 0.030953 -0.138392
v 0.010833 0.043351 -0.096211
v 0.007500 0.029358 -0.062518
v 0.009643 0.029952 -0.031220
v -0.010833 0.043351 -0.096211
v -0.007500 0.029358 -0.062518
v -0.009643 0.029952 -0.031220
v -0.010833 -0.000408 -0.106642
v -0.007500 -0.000277 -0.066293
v -0.009643 -0.017601 -0.035269
v -0.021667 0.032411 0.098927
v -0.015000 0.021949 0.063570
v -0.019286 0.018064 0.032341
v -0.015000 0.007500 0.000011
v 0.010833 -0.000408 -0.106642
v 0.007500 -0.000277 -0.066293
v 0.009643 -0.017601 -0.035269
v -0.021667 0.010532 0.104143
v -0.015000 0.007131 0.065458
v -0.019286 -0.005713 0.034366
v -0.015000 -0.007500 0.000011
v 0.015000 0.010500 0.000011
v 0.019286 0.018064 0.032341
v 0.015000 0.021949 0.063570
v 0.021667 0.032411 0.098927
v 0.015000 -0.004500 0.000011
v 0.019286 -0.005713 0.034366
v 0.015000 0.007131 0.065458
v 0.021667 0.010532 0.104143
v 0.007500 -0.012000 0.000011
v 0.009643 -0.017601 0.035378
v 0.007500 -0.000277 0.066402
v 0.010833 -0.000408 0.106751
v 0.021667 0.010532 -0.104034
v 0.015000 0.007131 -0.065349
v 0.019286 -0.005713 -0.034257
v -0.007500 -0.012000 0.000011
v -0.009643 -0.017601 0.035378
v -0.007500 -0.000277 0.066402
v -0.010833 -0.000408 0.106751
v 0.021667 0.032411 -0.098819
v 0.015000 0.021949 -0.063462
v 0.019286 0.018064 -0.032232
v -0.007500 0.018000 0.000011
v -0.009643 0.029952 0.031328
v 0.009045 0.030953 0.138500
v 0.009045 0.040301 0.133777
v 0.004522 0.044974 0.131415
v -0.004522 0.044974 0.131415
v -0.004522 0.026279 0.140862
v 0.004522 0.026279 0.140862
v -0.009045 0.030953 0.138500
v -0.009045 0.040301 0.133777
v -0.007500 0.029358 0.062627
v -0.010833 0.043351 0.096319
v -0.019286 -0.005713 -0.034257
v -0.015000 0.007131 -0.065349
v -0.021667 0.010532 -0.104034
v 0.007500 0.018000 0.000011
v 0.009643 0.029952 0.031328
v 0.007500 0.029358 0.062627
v 0.010833 0.043351 0.096319
v -0.019286 0.018064 -0.032232
v -0.015000 0.021949 -0.063462
v -0.021667 0.032411 -0.098819
vn 0.7449 0.6659 0.0415
vn 0.7287 0.6304 0.2676
vn -0.0000 0.9339 0.3574
vn -0.0000 0.9989 0.0462
vn -0.0000 0.9235 0.3835
vn -0.0000 0.9998 -0.0190
vn -0.0000 0.9343 -0.3566
vn -0.7449 0.6659 0.0415
vn -0.7679 0.5752 0.2818
vn -0.6818 -0.5009 0.5331
vn -0.6842 -0.7220 0.1028
vn -0.0000 -0.7876 -0.6162
vn -0.0000 -0.9876 0.1568
vn -0.0000 -1.0000 0.0032
vn -0.0000 -0.8731 -0.4875
vn 0.6818 -0.5009 -0.5331
vn 0.7390 -0.6604 0.1330
vn -0.7680 0.5754 -0.2811
vn -0.6953 0.7129 0.0913
vn -0.6953 0.7129 -0.0913
vn 0.7004 -0.7113 0.0592
vn 0.7143 -0.5976 -0.3642
vn -0.9911 0.0135 0.1327
vn -0.9920 -0.0066 -0.1263
vn -0.9472 0.0973 0.3057
vn -0.7004 -0.7113 -0.0592
vn -0.7143 -0.5976 0.3642
vn 0.9472 0.0973 -0.3057
vn 0.9919 -0.0066 0.1272
vn -0.6818 -0.5009 -0.5331
vn 0.9847 -0.0331 0.1711
vn 0.9911 0.0135 -0.1327
vn 0.6995 0.6357 0.3264
vn 0.7449 0.6659 -0.0415
vn -0.9847 -0.0331 -0.1711
vn 0.6995 0.6357 -0.3264
vn 0.7391 -0.6604 -0.1327
vn 0.7143 -0.5976 0.3642
vn 0.7004 -0.7113 -0.0592
vn 0.6818 -0.5009 0.5331
vn -0.0000 -0.9877 -0.1564
vn -0.0000 -0.8731 0.4875
vn -0.0000 -1.0000 -0.0032
vn -0.0000 -0.7876 0.6162
vn -0.6842 -0.7220 -0.1026
vn -0.6995 0.6357 -0.3264
vn -0.0000 0.9998 0.0190
vn -0.0000 0.9235 -0.3835
vn -0.0000 0.9989 -0.0462
vn 0.7288 0.6305 -0.2669
vn -0.7143 -0.5976 -0.3642
vn -0.9911 0.0135 -0.1327
vn -0.7449 0.6659 -0.0415
vn 0.6953 0.7129 0.0913
vn 0.6953 0.7129 -0.0913
vn -0.7004 -0.7113 0.0592
vn 0.9919 -0.0066 -0.1269
vn 0.9911 0.0135 0.1327
vn -0.9919 -0.0066 0.1266
vn -0.9472 0.0973 -0.3057
vn 0.9847 -0.0331 -0.1711
vn 0.9472 0.0973 0.3057
vn -0.9847 -0.0331 0.1711
vn -0.6995 0.6357 0.3264
vt 0.528617 0.507849
vt 0.529216 0.503145
vt 0.509391 0.500679
vt 0.508748 0.508226
vt 0.468399 0.500679
vt 0.469041 0.508226
vt 0.488868 0.500638
vt 0.488868 0.495877
vt 0.405504 0.517762
vt 0.427784 0.516732
vt 0.449173 0.507849
vt 0.488868 0.493973
vt 0.578283 0.505894
vt 0.576783 0.508861
vt 0.554972 0.495897
vt 0.556628 0.488953
vt 0.488868 0.484450
vt 0.467113 0.485585
vt 0.466471 0.478038
vt 0.488868 0.481594
vt 0.399507 0.505894
vt 0.421162 0.488953
vt 0.446776 0.489035
vt 0.401006 0.508861
vt 0.422817 0.495897
vt 0.488868 0.486355
vt 0.572285 0.517762
vt 0.550006 0.516732
vt 0.551661 0.509787
vt 0.573785 0.514795
vt 0.404005 0.514795
vt 0.426128 0.509787
vt 0.447375 0.493739
vt 0.510676 0.485585
vt 0.530414 0.493739
vt 0.531014 0.489035
vt 0.511319 0.478038
vt 0.448573 0.503145
vt 0.447375 0.493739
s 0
f 68/1/1 31/2/1 30/3/1 67/4/1
f 50/5/2 11/6/2 66/7/2 29/8/2
f 11/6/3 14/6/3 51/7/3 66/7/3
f 5/9/4 12/10/4 9/10/4 6/9/4
f 9/10/5 12/10/5 13/11/5 10/11/5
f 10/11/6 13/11/6 14/6/6 11/6/6
f 67/4/7 66/7/7 51/7/7 52/4/7
f 61/1/8 52/4/8 20/3/8 19/2/8
f 21/12/9 51/7/9 14/6/9 70/5/9
f 57/13/10 59/14/10 25/15/10 47/16/10
f 28/17/11 63/18/11 17/19/11 44/20/11
f 3/21/12 22/22/12 15/22/12 4/21/12
f 17/19/13 24/19/13 37/20/13 44/20/13
f 15/22/14 22/22/14 23/23/14 16/23/14
f 16/23/15 23/23/15 24/19/15 17/19/15
f 8/24/16 41/25/16 22/22/16 3/21/16
f 24/19/17 43/18/17 33/26/17 37/20/17
f 52/4/18 51/7/18 21/12/18 20/3/18
f 56/27/19 62/28/19 18/29/19 60/30/19
f 1/31/20 72/32/20 12/10/20 5/9/20
f 22/22/21 41/25/21 42/33/21 23/23/21
f 23/23/22 42/33/22 43/18/22 24/19/22
f 20/3/23 27/34/23 26/35/23 19/2/23
f 21/12/24 28/17/24 27/34/24 20/3/24
f 18/29/25 25/15/25 59/14/25 60/30/25
f 25/15/26 26/35/26 46/36/26 47/16/26
f 26/35/27 27/34/27 45/37/27 46/36/27
f 7/31/28 48/32/28 41/25/28 8/24/28
f 43/18/29 50/5/29 29/8/29 33/26/29
f 15/22/30 65/25/30 2/24/30 4/21/30
f 41/25/31 48/32/31 49/38/31 42/33/31
f 42/33/32 49/38/32 50/5/32 43/18/32
f 48/32/33 9/10/33 10/11/33 49/38/33
f 49/38/34 10/11/34 11/6/34 50/5/34
f 19/2/35 26/35/35 25/15/35 18/29/35
f 69/28/36 32/29/36 31/2/36 68/1/36
f 34/34/37 38/37/37 37/20/37 33/26/37
f 35/35/38 39/36/38 38/37/38 34/34/38
f 36/15/39 40/16/39 39/36/39 35/35/39
f 58/13/40 40/16/40 36/15/40 53/14/40
f 38/37/41 45/37/41 44/20/41 37/20/41
f 39/36/42 46/36/42 45/37/42 38/37/42
f 40/16/43 47/16/43 46/36/43 39/36/43
f 57/13/44 47/16/44 40/16/44 58/13/44
f 27/34/45 28/17/45 44/20/45 45/37/45
f 62/28/46 61/1/46 19/2/46 18/29/46
f 61/1/47 68/1/47 67/4/47 52/4/47
f 62/28/48 69/28/48 68/1/48 61/1/48
f 55/27/49 69/28/49 62/28/49 56/27/49
f 67/4/50 30/3/50 29/8/50 66/7/50
f 17/19/51 63/18/51 64/39/51 16/23/51
f 63/18/52 70/5/52 71/38/52 64/39/52
f 70/5/53 14/6/53 13/11/53 71/38/53
f 54/30/54 32/29/54 69/28/54 55/27/54
f 6/9/55 9/10/55 48/32/55 7/31/55
f 16/23/56 64/39/56 65/25/56 15/22/56
f 30/3/57 34/34/57 33/26/57 29/8/57
f 31/2/58 35/35/58 34/34/58 30/3/58
f 21/12/59 70/5/59 63/18/59 28/17/59
f 65/25/60 72/32/60 1/31/60 2/24/60
f 32/29/61 36/15/61 35/35/61 31/2/61
f 53/14/62 36/15/62 32/29/62 54/30/62
f 64/39/63 71/38/63 72/32/63 65/25/63
f 71/38/64 13/11/64 12/10/64 72/32/64
o Torus
v 0.073305 0.007435 0.000000
v 0.062570 0.007435 0.020280
v 0.036653 0.007435 0.028680
v 0.010735 0.007435 0.020280
v 0.000000 0.007435 0.000000
v 0.010735 0.007435 -0.020280
v 0.036653 0.007435 -0.028680
v 0.062570 0.007435 -0.020280
v 0.051835 0.049498 -0.000000
v 0.044244 0.043338 0.020280
v 0.025917 0.028466 0.028680
v 0.007591 0.013595 0.020280
v 0.000000 0.007435 0.000000
v 0.007591 0.013595 -0.020280
v 0.025917 0.028466 -0.028680
v 0.044244 0.043338 -0.020280
v 0.000000 0.066921 -0.000000
v 0.000000 0.058209 0.020280
v 0.000000 0.037178 0.028680
v 0.000000 0.016146 0.020280
v 0.000000 0.007435 0.000000
v 0.000000 0.016146 -0.020280
v 0.000000 0.037178 -0.028680
v 0.000000 0.058209 -0.020280
v -0.051835 0.049497 -0.000000
v -0.044244 0.043338 0.020280
v -0.025917 0.028466 0.028680
v -0.007591 0.013595 0.020280
v 0.000000 0.007435 0.000000
v -0.007591 0.013595 -0.020280
v -0.025917 0.028466 -0.028680
v -0.044244 0.043338 -0.020280
v -0.073305 0.007435 -0.000000
v -0.062570 0.007435 0.020280
v -0.036653 0.007435 0.028680
v -0.010735 0.007435 0.020280
v 0.000000 0.007435 0.000000
v -0.010735 0.007435 -0.020280
v -0.036653 0.007435 -0.028680
v -0.062570 0.007435 -0.020280
v -0.051835 -0.034628 0.000000
v -0.044244 -0.028468 0.020280
v -0.025917 -0.013597 0.028680
v -0.007591 0.001275 0.020280
v 0.000000 0.007435 0.000000
v -0.007591 0.001275 -0.020280
v -0.025917 -0.013597 -0.028680
v -0.044244 -0.028468 -0.020280
v 0.000000 -0.052052 0.000000
v 0.000000 -0.043340 0.020280
v 0.000000 -0.022308 0.028680
v 0.000000 -0.001277 0.020280
v 0.000000 0.007435 0.000000
v 0.000000 -0.001277 -0.020280
v 0.000000 -0.022308 -0.028680
v 0.000000 -0.043340 -0.020280
v 0.051835 -0.034628 0.000000
v 0.044244 -0.028468 0.020280
v 0.025917 -0.013597 0.028680
v 0.007591 0.001275 0.020280
v 0.000000 0.007435 0.000000
v 0.007591 0.001275 -0.020280
v 0.025917 -0.013597 -0.028680
v 0.044244 -0.028468 -0.020280
vn 0.8056 0.4112 0.4265
vn 0.3046 0.1555 0.9397
vn -0.3046 -0.1555 0.9397
vn -0.8056 -0.4112 0.4265
vn -0.8056 -0.4112 -0.4265
vn -0.3046 -0.1555 -0.9397
vn 0.3046 0.1555 -0.9397
vn 0.8056 0.4112 -0.4265
vn 0.2951 0.8779 0.3771
vn 0.1237 0.3681 0.9215
vn -0.1237 -0.3681 0.9215
vn -0.2951 -0.8779 0.3771
vn -0.2951 -0.8779 -0.3771
vn -0.1237 -0.3681 -0.9215
vn 0.1237 0.3681 -0.9215
vn 0.2951 0.8779 -0.3771
vn -0.2951 0.8779 0.3771
vn -0.1237 0.3681 0.9215
vn 0.1237 -0.3681 0.9215
vn 0.2951 -0.8779 0.3771
vn 0.2951 -0.8779 -0.3771
vn 0.1237 -0.3681 -0.9215
vn -0.1237 0.3681 -0.9215
vn -0.2951 0.8779 -0.3771
vn -0.8056 0.4112 0.4265
vn -0.3046 0.1555 0.9397
vn 0.3046 -0.1555 0.9397
vn 0.8056 -0.4112 0.4265
vn 0.8056 -0.4112 -0.4265
vn 0.3046 -0.1555 -0.9397
vn -0.3046 0.1555 -0.9397
vn -0.8056 0.4112 -0.4265
vt 0.500000 0.500000
vt 0.625000 0.500000
vt 0.625000 0.625000
vt 0.500000 0.625000
vt 0.625000 0.750000
vt 0.500000 0.750000
vt 0.625000 0.875000
vt 0.500000 0.875000
vt 0.625000 1.000000
vt 0.500000 1.000000
vt 0.500000 0.000000
vt 0.625000 0.000000
vt 0.625000 0.125000
vt 0.500000 0.125000
vt 0.625000 0.250000
vt 0.500000 0.250000
vt 0.625000 0.375000
vt 0.500000 0.375000
vt 0.750000 0.500000
vt 0.750000 0.625000
vt 0.750000 0.750000
vt 0.750000 0.875000
vt 0.750000 1.000000
vt 0.750000 0.000000
vt 0.750000 0.125000
vt 0.750000 0.250000
vt 0.750000 0.375000
vt 0.875000 0.500000
vt 0.875000 0.625000
vt 0.875000 0.750000
vt 0.875000 0.875000
vt 0.875000 1.000000
vt 0.875000 0.000000
vt 0.875000 0.125000
vt 0.875000 0.250000
vt 0.875000 0.375000
vt 1.000000 0.500000
vt 1.000000 0.625000
vt 1.000000 0.750000
vt 1.000000 0.875000
vt 1.000000 1.000000
vt 1.000000 0.000000
vt 1.000000 0.125000
vt 1.000000 0.250000
vt 1.000000 0.375000
vt 0.000000 0.500000
vt 0.125000 0.500000
vt 0.125000 0.625000
vt 0.000000 0.625000
vt 0.125000 0.750000
vt 0.000000 0.750000
vt 0.125000 0.875000
vt 0.000000 0.875000
vt 0.125000 1.000000
vt 0.000000 1.000000
vt 0.000000 0.000000
vt 0.125000 0.000000
vt 0.125000 0.125000
vt 0.000000 0.125000
vt 0.125000 0.250000
vt 0.000000 0.250000
vt 0.125000 0.375000
vt 0.000000 0.375000
vt 0.250000 0.500000
vt 0.250000 0.625000
vt 0.250000 0.750000
vt 0.250000 0.875000
vt 0.250000 1.000000
vt 0.250000 0.000000
vt 0.250000 0.125000
vt 0.250000 0.250000
vt 0.250000 0.375000
vt 0.375000 0.500000
vt 0.375000 0.625000
vt 0.375000 0.750000
vt 0.375000 0.875000
vt 0.375000 1.000000
vt 0.375000 0.000000
vt 0.375000 0.125000
vt 0.375000 0.250000
vt 0.375000 0.375000
s 0
f 73/40/65 81/41/65 82/42/65 74/43/65
f 74/43/66 82/42/66 83/44/66 75/45/66
f 75/45/67 83/44/67 84/46/67 76/47/67
f 76/47/68 84/46/68 85/48/68 77/49/68
f 77/50/69 85/51/69 86/52/69 78/53/69
f 78/53/70 86/52/70 87/54/70 79/55/70
f 79/55/71 87/54/71 88/56/71 80/57/71
f 80/57/72 88/56/72 81/41/72 73/40/72
f 81/41/73 89/58/73 90/59/73 82/42/73
f 82/42/74 90/59/74 91/60/74 83/44/74
f 83/44/75 91/60/75 92/61/75 84/46/75
f 84/46/76 92/61/76 93/62/76 85/48/76
f 85/51/77 93/63/77 94/64/77 86/52/77
f 86/52/78 94/64/78 95/65/78 87/54/78
f 87/54/79 95/65/79 96/66/79 88/56/79
f 88/56/80 96/66/80 89/58/80 81/41/80
f 89/58/81 97/67/81 98/68/81 90/59/81
f 90/59/82 98/68/82 99/69/82 91/60/82
f 91/60/83 99/69/83 100/70/83 92/61/83
f 92/61/84 100/70/84 101/71/84 93/62/84
f 93/63/85 101/72/85 102/73/85 94/64/85
f 94/64/86 102/73/86 103/74/86 95/65/86
f 95/65/87 103/74/87 104/75/87 96/66/87
f 96/66/88 104/75/88 97/67/88 89/58/88
f 97/67/89 105/76/89 106/77/89 98/68/89
f 98/68/90 106/77/90 107/78/90 99/69/90
f 99/69/91 107/78/91 108/79/91 100/70/91
f 100/70/92 108/79/92 109/80/92 101/71/92
f 101/72/93 109/81/93 110/82/93 102/73/93
f 102/73/94 110/82/94 111/83/94 103/74/94
f 103/74/95 111/83/95 112/84/95 104/75/95
f 104/75/96 112/84/96 105/76/96 97/67/96
f 105/85/68 113/86/68 114/87/68 106/88/68
f 106/88/67 114/87/67 115/89/67 107/90/67
f 107/90/66 115/89/66 116/91/66 108/92/66
f 108/92/65 116/91/65 117/93/65 109/94/65
f 109/95/72 117/96/72 118/97/72 110/98/72
f 110/98/71 118/97/71 119/99/71 111/100/71
f 111/100/70 119/99/70 120/101/70 112/102/70
f 112/102/69 120/101/69 113/86/69 105/85/69
f 113/86/76 121/103/76 122/104/76 114/87/76
f 114/87/75 122/104/75 123/105/75 115/89/75
f 115/89/74 123/105/74 124/106/74 116/91/74
f 116/91/73 124/106/73 125/107/73 117/93/73
f 117/96/80 125/108/80 126/109/80 118/97/80
f 118/97/79 126/109/79 127/110/79 119/99/79
f 119/99/78 127/110/78 128/111/78 120/101/78
f 120/101/77 128/111/77 121/103/77 113/86/77
f 121/103/84 129/112/84 130/113/84 122/104/84
f 122/104/83 130/113/83 131/114/83 123/105/83
f 123/105/82 131/114/82 132/115/82 124/106/82
f 124/106/81 132/115/81 133/116/81 125/107/81
f 125/108/88 133/117/88 134/118/88 126/109/88
f 126/109/87 134/118/87 135/119/87 127/110/87
f 127/110/86 135/119/86 136/120/86 128/111/86
f 128/111/85 136/120/85 129/112/85 121/103/85
f 129/112/92 73/40/92 74/43/92 130/113/92
f 130/113/91 74/43/91 75/45/91 131/114/91
f 131/114/90 75/45/90 76/47/90 132/115/90
f 132/115/89 76/47/89 77/49/89 133/116/89
f 133/117/96 77/50/96 78/53/96 134/118/96
f 134/118/95 78/53/95 79/55/95 135/119/95
f 135/119/94 79/55/94 80/57/94 136/120/94
f 136/120/93 80/57/93 73/40/93 129/112/93
o Torus.002
v 0.000000 0.006701 0.165135
v 0.007071 0.009630 0.165135
v 0.010000 0.016701 0.165135
v 0.007071 0.023772 0.165135
v 0.000000 0.026701 0.165135
v -0.007071 0.023772 0.165135
v -0.010000 0.016701 0.165135
v -0.007071 0.009630 0.165135
v 0.000000 0.018416 0.136851
v 0.007071 0.020487 0.138922
v 0.010000 0.025487 0.143922
v 0.007071 0.030487 0.148922
v 0.000000 0.032558 0.150993
v -0.007071 0.030487 0.148922
v -0.010000 0.025487 0.143922
v -0.007071 0.020487 0.138922
v 0.000000 0.046701 0.125135
v 0.007071 0.046701 0.128064
v 0.010000 0.046701 0.135135
v 0.007071 0.046701 0.142206
v 0.000000 0.046701 0.145135
v -0.007071 0.046701 0.142206
v -0.010000 0.046701 0.135135
v -0.007071 0.046701 0.128064
v -0.000000 0.074985 0.136851
v 0.007071 0.072914 0.138922
v 0.010000 0.067914 0.143922
v 0.007071 0.062914 0.148922
v -0.000000 0.060843 0.150993
v -0.007071 0.062914 0.148922
v -0.010000 0.067914 0.143922
v -0.007071 0.072914 0.138922
v -0.000000 0.086701 0.165135
v 0.007071 0.083772 0.165135
v 0.010000 0.076701 0.165135
v 0.007071 0.069630 0.165135
v -0.000000 0.066701 0.165135
v -0.007071 0.069630 0.165135
v -0.010000 0.076701 0.165135
v -0.007071 0.083772 0.165135
v -0.000000 0.074985 0.193420
v 0.007071 0.072914 0.191348
v 0.010000 0.067914 0.186348
v 0.007071 0.062914 0.181348
v -0.000000 0.060843 0.179277
v -0.007071 0.062914 0.181348
v -0.010000 0.067914 0.186348
v -0.007071 0.072914 0.191348
v 0.000000 0.046701 0.205135
v 0.007071 0.046701 0.202206
v 0.010000 0.046701 0.195135
v 0.007071 0.046701 0.188064
v 0.000000 0.046701 0.185135
v -0.007071 0.046701 0.188064
v -0.010000 0.046701 0.195135
v -0.007071 0.046701 0.202206
v 0.000000 0.018416 0.193420
v 0.007071 0.020487 0.191348
v 0.010000 0.025487 0.186348
v 0.007071 0.030487 0.181348
v 0.000000 0.032558 0.179277
v -0.007071 0.030487 0.181348
v -0.010000 0.025487 0.186348
v -0.007071 0.020487 0.191348
vn 0.3574 -0.8629 -0.3574
vn 0.9125 -0.3780 -0.1566
vn 0.9125 0.3780 0.1566
vn 0.3574 0.8629 0.3574
vn -0.3574 0.8629 0.3574
vn -0.9125 0.3780 0.1566
vn -0.9125 -0.3780 -0.1566
vn -0.3574 -0.8629 -0.3574
vn 0.3574 -0.3574 -0.8629
vn 0.9125 -0.1566 -0.3780
vn 0.9125 0.1566 0.3780
vn 0.3574 0.3574 0.8629
vn -0.3574 0.3574 0.8629
vn -0.9125 0.1566 0.3780
vn -0.9125 -0.1566 -0.3780
vn -0.3574 -0.3574 -0.8629
vn 0.3574 0.3574 -0.8629
vn 0.9125 0.1566 -0.3780
vn 0.9125 -0.1566 0.3780
vn 0.3574 -0.3574 0.8629
vn -0.3574 -0.3574 0.8629
vn -0.9125 -0.1566 0.3780
vn -0.9125 0.1566 -0.3780
vn -0.3574 0.3574 -0.8629
vn 0.3574 0.8629 -0.3574
vn 0.9125 0.3780 -0.1566
vn 0.9125 -0.3780 0.1566
vn 0.3574 -0.8629 0.3574
vn -0.3574 -0.8629 0.3574
vn -0.9125 -0.3780 0.1566
vn -0.9125 0.3780 -0.1566
vn -0.3574 0.8629 -0.3574
vt 0.500000 0.500000
vt 0.625000 0.500000
vt 0.625000 0.625000
vt 0.500000 0.625000
vt 0.625000 0.750000
vt 0.500000 0.750000
vt 0.625000 0.875000
vt 0.500000 0.875000
vt 0.625000 1.000000
vt 0.500000 1.000000
vt 0.500000 0.000000
vt 0.625000 0.000000
vt 0.625000 0.125000
vt 0.500000 0.125000
vt 0.625000 0.250000
vt 0.500000 0.250000
vt 0.625000 0.375000
vt 0.500000 0.375000
vt 0.750000 0.500000
vt 0.750000 0.625000
vt 0.750000 0.750000
vt 0.750000 0.875000
vt 0.750000 1.000000
vt 0.750000 0.000000
vt 0.750000 0.125000
vt 0.750000 0.250000
vt 0.750000 0.375000
vt 0.875000 0.500000
vt 0.875000 0.625000
vt 0.875000 0.750000
vt 0.875000 0.875000
vt 0.875000 1.000000
vt 0.875000 0.000000
vt 0.875000 0.125000
vt 0.875000 0.250000
vt 0.875000 0.375000
vt 1.000000 0.500000
vt 1.000000 0.625000
vt 1.000000 0.750000
vt 1.000000 0.875000
vt 1.000000 1.000000
vt 1.000000 0.000000
vt 1.000000 0.125000
vt 1.000000 0.250000
vt 1.000000 0.375000
vt 0.000000 0.500000
vt 0.125000 0.500000
vt 0.125000 0.625000
vt 0.000000 0.625000
vt 0.125000 0.750000
vt 0.000000 0.750000
vt 0.125000 0.875000
vt 0.000000 0.875000
vt 0.125000 1.000000
vt 0.000000 1.000000
vt 0.000000 0.000000
vt 0.125000 0.000000
vt 0.125000 0.125000
vt 0.000000 0.125000
vt 0.125000 0.250000
vt 0.000000 0.250000
vt 0.125000 0.375000
vt 0.000000 0.375000
vt 0.250000 0.500000
vt 0.250000 0.625000
vt 0.250000 0.750000
vt 0.250000 0.875000
vt 0.250000 1.000000
vt 0.250000 0.000000
vt 0.250000 0.125000
vt 0.250000 0.250000
vt 0.250000 0.375000
vt 0.375000 0.500000
vt 0.375000 0.625000
vt 0.375000 0.750000
vt 0.375000 0.875000
vt 0.375000 1.000000
vt 0.375000 0.000000
vt 0.375000 0.125000
vt 0.375000 0.250000
vt 0.375000 0.375000
s 0
f 137/121/97 145/122/97 146/123/97 138/124/97
f 138/124/98 146/123/98 147/125/98 139/126/98
f 139/126/99 147/125/99 148/127/99 140/128/99
f 140/128/100 148/127/100 149/129/100 141/130/100
f 141/131/101 149/132/101 150/133/101 142/134/101
f 142/134/102 150/133/102 151/135/102 143/136/102
f 143/136/103 151/135/103 152/137/103 144/138/103
f 144/138/104 152/137/104 145/122/104 137/121/104
f 145/122/105 153/139/105 154/140/105 146/123/105
f 146/123/106 154/140/106 155/141/106 147/125/106
f 147/125/107 155/141/107 156/142/107 148/127/107
f 148/127/108 156/142/108 157/143/108 149/129/108
f 149/132/109 157/144/109 158/145/109 150/133/109
f 150/133/110 158/145/110 159/146/110 151/135/110
f 151/135/111 159/146/111 160/147/111 152/137/111
f 152/137/112 160/147/112 153/139/112 145/122/112
f 153/139/113 161/148/113 162/149/113 154/140/113
f 154/140/114 162/149/114 163/150/114 155/141/114
f 155/141/115 163/150/115 164/151/115 156/142/115
f 156/142/116 164/151/116 165/152/116 157/143/116
f 157/144/117 165/153/117 166/154/117 158/145/117
f 158/145/118 166/154/118 167/155/118 159/146/118
f 159/146/119 167/155/119 168/156/119 160/147/119
f 160/147/120 168/156/120 161/148/120 153/139/120
f 161/148/121 169/157/121 170/158/121 162/149/121
f 162/149/122 170/158/122 171/159/122 163/150/122
f 163/150/123 171/159/123 172/160/123 164/151/123
f 164/151/124 172/160/124 173/161/124 165/152/124
f 165/153/125 173/162/125 174/163/125 166/154/125
f 166/154/126 174/163/126 175/164/126 167/155/126
f 167/155/127 175/164/127 176/165/127 168/156/127
f 168/156/128 176/165/128 169/157/128 161/148/128
f 169/166/100 177/167/100 178/168/100 170/169/100
f 170/169/99 178/168/99 179/170/99 171/171/99
f 171/171/98 179/170/98 180/172/98 172/173/98
f 172/173/97 180/172/97 181/174/97 173/175/97
f 173/176/104 181/177/104 182/178/104 174/179/104
f 174/179/103 182/178/103 183/180/103 175/181/103
f 175/181/102 183/180/102 184/182/102 176/183/102
f 176/183/101 184/182/101 177/167/101 169/166/101
f 177/167/108 185/184/108 186/185/108 178/168/108
f 178/168/107 186/185/107 187/186/107 179/170/107
f 179/170/106 187/186/106 188/187/106 180/172/106
f 180/172/105 188/187/105 189/188/105 181/174/105
f 181/177/112 189/189/112 190/190/112 182/178/112
f 182/178/111 190/190/111 191/191/111 183/180/111
f 183/180/110 191/191/110 192/192/110 184/182/110
f 184/182/109 192/192/109 185/184/109 177/167/109
f 185/184/116 193/193/116 194/194/116 186/185/116
f 186/185/115 194/194/115 195/195/115 187/186/115
f 187/186/114 195/195/114 196/196/114 188/187/114
f 188/187/113 196/196/113 197/197/113 189/188/113
f 189/189/120 197/198/120 198/199/120 190/190/120
f 190/190/119 198/199/119 199/200/119 191/191/119
f 191/191/118 199/200/118 200/201/118 192/192/118
f 192/192/117 200/201/117 193/193/117 185/184/117
f 193/193/124 137/121/124 138/124/124 194/194/124
f 194/194/123 138/124/123 139/126/123 195/195/123
f 195/195/122 139/126/122 140/128/122 196/196/122
f 196/196/121 140/128/121 141/130/121 197/197/121
f 197/198/128 141/131/128 142/134/128 198/199/128
f 198/199/127 142/134/127 143/136/127 199/200/127
f 199/200/126 143/136/126 144/138/126 200/201/126
f 200/201/125 144/138/125 137/121/125 193/193/125
o Torus.001
v 0.000000 0.006701 -0.164865
v 0.007071 0.009630 -0.164865
v 0.010000 0.016701 -0.164865
v 0.007071 0.023772 -0.164865
v 0.000000 0.026701 -0.164865
v -0.007071 0.023772 -0.164865
v -0.010000 0.016701 -0.164865
v -0.007071 0.009630 -0.164865
v 0.000000 0.018416 -0.193149
v 0.007071 0.020487 -0.191078
v 0.010000 0.025487 -0.186078
v 0.007071 0.030487 -0.181078
v 0.000000 0.032558 -0.179007
v -0.007071 0.030487 -0.181078
v -0.010000 0.025487 -0.186078
v -0.007071 0.020487 -0.191078
v 0.000000 0.046701 -0.204865
v 0.007071 0.046701 -0.201936
v 0.010000 0.046701 -0.194865
v 0.007071 0.046701 -0.187794
v 0.000000 0.046701 -0.184865
v -0.007071 0.046701 -0.187794
v -0.010000 0.046701 -0.194865
v -0.007071 0.046701 -0.201936
v -0.000000 0.074985 -0.193149
v 0.007071 0.072914 -0.191078
v 0.010000 0.067914 -0.186078
v 0.007071 0.062914 -0.181078
v -0.000000 0.060843 -0.179007
v -0.007071 0.062914 -0.181078
v -0.010000 0.067914 -0.186078
v -0.007071 0.072914 -0.191078
v -0.000000 0.086701 -0.164865
v 0.007071 0.083772 -0.164865
v 0.010000 0.076701 -0.164865
v 0.007071 0.069630 -0.164865
v -0.000000 0.066701 -0.164865
v -0.007071 0.069630 -0.164865
v -0.010000 0.076701 -0.164865
v -0.007071 0.083772 -0.164865
v -0.000000 0.074985 -0.136580
v 0.007071 0.072914 -0.138652
v 0.010000 0.067914 -0.143652
v 0.007071 0.062914 -0.148652
v -0.000000 0.060843 -0.150723
v -0.007071 0.062914 -0.148652
v -0.010000 0.067914 -0.143652
v -0.007071 0.072914 -0.138652
v 0.000000 0.046701 -0.124865
v 0.007071 0.046701 -0.127794
v 0.010000 0.046701 -0.134865
v 0.007071 0.046701 -0.141936
v 0.000000 0.046701 -0.144865
v -0.007071 0.046701 -0.141936
v -0.010000 0.046701 -0.134865
v -0.007071 0.046701 -0.127794
v 0.000000 0.018416 -0.136580
v 0.007071 0.020487 -0.138652
v 0.010000 0.025487 -0.143652
v 0.007071 0.030487 -0.148652
v 0.000000 0.032558 -0.150723
v -0.007071 0.030487 -0.148652
v -0.010000 0.025487 -0.143652
v -0.007071 0.020487 -0.138652
vn 0.3574 -0.8629 -0.3574
vn 0.9125 -0.3780 -0.1566
vn 0.9125 0.3780 0.1566
vn 0.3574 0.8629 0.3574
vn -0.3574 0.8629 0.3574
vn -0.9125 0.3780 0.1566
vn -0.9125 -0.3780 -0.1566
vn -0.3574 -0.8629 -0.3574
vn 0.3574 -0.3574 -0.8629
vn 0.9125 -0.1566 -0.3780
vn 0.9125 0.1566 0.3780
vn 0.3574 0.3574 0.8629
vn -0.3574 0.3574 0.8629
vn -0.9125 0.1566 0.3780
vn -0.9125 -0.1566 -0.3780
vn -0.3574 -0.3574 -0.8629
vn 0.3574 0.3574 -0.8629
vn 0.9125 0.1566 -0.3780
vn 0.9125 -0.1566 0.3780
vn 0.3574 -0.3574 0.8629
vn -0.3574 -0.3574 0.8629
vn -0.9125 -0.1566 0.3780
vn -0.9125 0.1566 -0.3780
vn -0.3574 0.3574 -0.8629
vn 0.3574 0.8629 -0.3574
vn 0.9125 0.3780 -0.1566
vn 0.9125 -0.3780 0.1566
vn 0.3574 -0.8629 0.3574
vn -0.3574 -0.8629 0.3574
vn -0.9125 -0.3780 0.1566
vn -0.9125 0.3780 -0.1566
vn -0.3574 0.8629 -0.3574
vt 0.500000 0.500000
vt 0.625000 0.500000
vt 0.625000 0.625000
vt 0.500000 0.625000
vt 0.625000 0.750000
vt 0.500000 0.750000
vt 0.625000 0.875000
vt 0.500000 0.875000
vt 0.625000 1.000000
vt 0.500000 1.000000
vt 0.500000 0.000000
vt 0.625000 0.000000
vt 0.625000 0.125000
vt 0.500000 0.125000
vt 0.625000 0.250000
vt 0.500000 0.250000
vt 0.625000 0.375000
vt 0.500000 0.375000
vt 0.750000 0.500000
vt 0.750000 0.625000
vt 0.750000 0.750000
vt 0.750000 0.875000
vt 0.750000 1.000000
vt 0.750000 0.000000
vt 0.750000 0.125000
vt 0.750000 0.250000
vt 0.750000 0.375000
vt 0.875000 0.500000
vt 0.875000 0.625000
vt 0.875000 0.750000
vt 0.875000 0.875000
vt 0.875000 1.000000
vt 0.875000 0.000000
vt 0.875000 0.125000
vt 0.875000 0.250000
vt 0.875000 0.375000
vt 1.000000 0.500000
vt 1.000000 0.625000
vt 1.000000 0.750000
vt 1.000000 0.875000
vt 1.000000 1.000000
vt 1.000000 0.000000
vt 1.000000 0.125000
vt 1.000000 0.250000
vt 1.000000 0.375000
vt 0.000000 0.500000
vt 0.125000 0.500000
vt 0.125000 0.625000
vt 0.000000 0.625000
vt 0.125000 0.750000
vt 0.000000 0.750000
vt 0.125000 0.875000
vt 0.000000 0.875000
vt 0.125000 1.000000
vt 0.000000 1.000000
vt 0.000000 0.000000
vt 0.125000 0.000000
vt 0.125000 0.125000
vt 0.000000 0.125000
vt 0.125000 0.250000
vt 0.000000 0.250000
vt 0.125000 0.375000
vt 0.000000 0.375000
vt 0.250000 0.500000
vt 0.250000 0.625000
vt 0.250000 0.750000
vt 0.250000 0.875000
vt 0.250000 1.000000
vt 0.250000 0.000000
vt 0.250000 0.125000
vt 0.250000 0.250000
vt 0.250000 0.375000
vt 0.375000 0.500000
vt 0.375000 0.625000
vt 0.375000 0.750000
vt 0.375000 0.875000
vt 0.375000 1.000000
vt 0.375000 0.000000
vt 0.375000 0.125000
vt 0.375000 0.250000
vt 0.375000 0.375000
s 0
f 201/202/129 209/203/129 210/204/129 202/205/129
f 202/205/130 210/204/130 211/206/130 203/207/130
f 203/207/131 211/206/131 212/208/131 204/209/131
f 204/209/132 212/208/132 213/210/132 205/211/132
f 205/212/133 213/213/133 214/214/133 206/215/133
f 206/215/134 214/214/134 215/216/134 207/217/134
f 207/217/135 215/216/135 216/218/135 208/219/135
f 208/219/136 216/218/136 209/203/136 201/202/136
f 209/203/137 217/220/137 218/221/137 210/204/137
f 210/204/138 218/221/138 219/222/138 211/206/138
f 211/206/139 219/222/139 220/223/139 212/208/139
f 212/208/140 220/223/140 221/224/140 213/210/140
f 213/213/141 221/225/141 222/226/141 214/214/141
f 214/214/142 222/226/142 223/227/142 215/216/142
f 215/216/143 223/227/143 224/228/143 216/218/143
f 216/218/144 224/228/144 217/220/144 209/203/144
f 217/220/145 225/229/145 226/230/145 218/221/145
f 218/221/146 226/230/146 227/231/146 219/222/146
f 219/222/147 227/231/147 228/232/147 220/223/147
f 220/223/148 228/232/148 229/233/148 221/224/148
f 221/225/149 229/234/149 230/235/149 222/226/149
f 222/226/150 230/235/150 231/236/150 223/227/150
f 223/227/151 231/236/151 232/237/151 224/228/151
f 224/228/152 232/237/152 225/229/152 217/220/152
f 225/229/153 233/238/153 234/239/153 226/230/153
f 226/230/154 234/239/154 235/240/154 227/231/154
f 227/231/155 235/240/155 236/241/155 228/232/155
f 228/232/156 236/241/156 237/242/156 229/233/156
f 229/234/157 237/243/157 238/244/157 230/235/157
f 230/235/158 238/244/158 239/245/158 231/236/158
f 231/236/159 239/245/159 240/246/159 232/237/159
f 232/237/160 240/246/160 233/238/160 225/229/160
f 233/247/132 241/248/132 242/249/132 234/250/132
f 234/250/131 242/249/131 243/251/131 235/252/131
f 235/252/130 243/251/130 244/253/130 236/254/130
f 236/254/129 244/253/129 245/255/129 237/256/129
f 237/257/136 245/258/136 246/259/136 238/260/136
f 238/260/135 246/259/135 247/261/135 239/262/135
f 239/262/134 247/261/134 248/263/134 240/264/134
f 240/264/133 248/263/133 241/248/133 233/247/133
f 241/248/140 249/265/140 250/266/140 242/249/140
f 242/249/139 250/266/139 251/267/139 243/251/139
f 243/251/138 251/267/138 252/268/138 244/253/138
f 244/253/137 252/268/137 253/269/137 245/255/137
f 245/258/144 253/270/144 254/271/144 246/259/144
f 246/259/143 254/271/143 255/272/143 247/261/143
f 247/261/142 255/272/142 256/273/142 248/263/142
f 248/263/141 256/273/141 249/265/141 241/248/141
f 249/265/148 257/274/148 258/275/148 250/266/148
f 250/266/147 258/275/147 259/276/147 251/267/147
f 251/267/146 259/276/146 260/277/146 252/268/146
f 252/268/145 260/277/145 261/278/145 253/269/145
f 253/270/152 261/279/152 262/280/152 254/271/152
f 254/271/151 262/280/151 263/281/151 255/272/151
f 255/272/150 263/281/150 264/282/150 256/273/150
f 256/273/149 264/282/149 257/274/149 249/265/149
f 257/274/156 201/202/156 202/205/156 258/275/156
f 258/275/155 202/205/155 203/207/155 259/276/155
f 259/276/154 203/207/154 204/209/154 260/277/154
f 260/277/153 204/209/153 205/211/153 261/278/153
f 261/279/160 205/212/160 206/215/160 262/280/160
f 262/280/159 206/215/159 207/217/159 263/281/159
f 263/281/158 207/217/158 208/219/158 264/282/158
f 264/282/157 208/219/157 201/202/157 257/274/157
o Cube.007
v -0.081881 0.023437 0.169620
v -0.085895 0.037665 0.169109
v -0.080012 0.023437 0.154946
v -0.084026 0.037665 0.154435
v 0.046062 0.040485 0.190992
v 0.035931 0.076397 0.189701
v 0.050780 0.040485 0.153955
v 0.040648 0.076397 0.152664
vn -0.9541 -0.2736 -0.1215
vn -0.0028 -0.0367 -0.9993
vn 0.9541 0.2736 0.1215
vn -0.1634 -0.0106 0.9865
vn 0.1294 -0.9915 0.0165
vn -0.2970 0.9541 -0.0378
vt 0.375000 0.000000
vt 0.625000 0.000000
vt 0.625000 0.250000
vt 0.375000 0.250000
vt 0.625000 0.500000
vt 0.375000 0.500000
vt 0.625000 0.750000
vt 0.375000 0.750000
vt 0.625000 1.000000
vt 0.375000 1.000000
vt 0.125000 0.500000
vt 0.125000 0.750000
vt 0.875000 0.500000
vt 0.875000 0.750000
s 0
f 265/283/161 266/284/161 268/285/161 267/286/161
f 267/286/162 268/285/162 272/287/162 271/288/162
f 271/288/163 272/287/163 270/289/163 269/290/163
f 269/290/164 270/289/164 266/291/164 265/292/164
f 267/293/165 271/288/165 269/290/165 265/294/165
f 272/287/166 268/295/166 266/296/166 270/289/166
o Cube.008
v -0.079308 0.023437 -0.144690
v -0.083338 0.037665 -0.144322
v -0.080653 0.023437 -0.159421
v -0.084683 0.037665 -0.159053
v 0.050231 0.040485 -0.151461
v 0.040060 0.076397 -0.150533
v 0.046836 0.040485 -0.188643
v 0.036665 0.076397 -0.187714
vn -0.9579 -0.2736 0.0875
vn -0.2186 -0.0367 -0.9751
vn 0.9579 0.2736 -0.0875
vn 0.0536 -0.0106 0.9985
vn 0.1299 -0.9915 -0.0119
vn -0.2981 0.9541 0.0272
vt 0.375000 0.000000
vt 0.625000 0.000000
vt 0.625000 0.250000
vt 0.375000 0.250000
vt 0.625000 0.500000
vt 0.375000 0.500000
vt 0.625000 0.750000
vt 0.375000 0.750000
vt 0.625000 1.000000
vt 0.375000 1.000000
vt 0.125000 0.500000
vt 0.125000 0.750000
vt 0.875000 0.500000
vt 0.875000 0.750000
s 0
f 273/297/167 274/298/167 276/299/167 275/300/167
f 275/300/168 276/299/168 280/301/168 279/302/168
f 279/302/169 280/301/169 278/303/169 277/304/169
f 277/304/170 278/303/170 274/305/170 273/306/170
f 275/307/171 279/302/171 277/304/171 273/308/171
f 280/301/172 276/309/172 274/310/172 278/303/172
