# Blender 4.4.3
# www.blender.org
o Cube.011
v -0.003569 -0.137830 0.012420
v -0.012420 -0.137830 0.003569
v -0.012420 -0.039711 0.003569
v -0.003569 -0.039711 0.012420
v -0.012420 -0.137830 -0.003569
v -0.003569 -0.137830 -0.012420
v -0.003569 -0.039711 -0.012420
v -0.012420 -0.039711 -0.003569
v 0.012420 -0.137830 0.003569
v 0.003569 -0.137830 0.012420
v 0.003569 -0.039711 0.012420
v 0.012420 -0.039711 0.003569
v 0.003569 -0.137830 -0.012420
v 0.012420 -0.137830 -0.003569
v 0.012420 -0.039711 -0.003569
v 0.003569 -0.039711 -0.012420
v -0.010207 -0.137830 0.005782
v -0.007995 -0.137830 0.007995
v -0.005782 -0.137830 0.010207
v -0.005711 -0.115787 0.019872
v -0.003569 -0.090181 0.012420
v -0.005711 -0.066548 0.019872
v -0.005782 -0.039711 0.010207
v -0.007995 -0.039711 0.007995
v -0.010207 -0.039711 0.005782
v -0.019872 -0.066548 0.005711
v -0.012420 -0.090181 0.003569
v -0.019872 -0.115787 0.005711
v -0.010207 -0.039711 -0.005782
v -0.007995 -0.039711 -0.007995
v -0.005782 -0.039711 -0.010207
v -0.005711 -0.066548 -0.019872
v -0.003569 -0.090181 -0.012420
v -0.005711 -0.115787 -0.019872
v -0.005782 -0.137830 -0.010207
v -0.007995 -0.137830 -0.007995
v -0.010207 -0.137830 -0.005782
v -0.019872 -0.115787 -0.005711
v -0.012420 -0.090181 -0.003569
v -0.019872 -0.066548 -0.005711
v 0.005782 -0.039711 -0.010207
v 0.007995 -0.039711 -0.007995
v 0.010207 -0.039711 -0.005782
v 0.019872 -0.066548 -0.005711
v 0.012420 -0.090181 -0.003569
v 0.019872 -0.115787 -0.005711
v 0.010207 -0.137830 -0.005782
v 0.007995 -0.137830 -0.007995
v 0.005782 -0.137830 -0.010207
v 0.005711 -0.115787 -0.019872
v 0.003569 -0.090181 -0.012420
v 0.005711 -0.066548 -0.019872
v 0.010207 -0.039711 0.005782
v 0.007995 -0.039711 0.007995
v 0.005782 -0.039711 0.010207
v 0.005711 -0.066548 0.019872
v 0.003569 -0.090181 0.012420
v 0.005711 -0.115787 0.019872
v 0.005782 -0.137830 0.010207
v 0.007995 -0.137830 0.007995
v 0.010207 -0.137830 0.005782
v 0.019872 -0.115787 0.005711
v 0.012420 -0.090181 0.003569
v 0.019872 -0.066548 0.005711
v -0.012420 -0.137830 0.001785
v -0.012420 -0.137830 0.000000
v -0.012420 -0.137830 -0.001785
v -0.001785 -0.137830 -0.012420
v -0.000000 -0.137830 -0.012420
v 0.001785 -0.137830 -0.012420
v 0.012420 -0.137830 -0.001785
v 0.012420 -0.137830 0.000000
v 0.012420 -0.137830 0.001785
v 0.001785 -0.137830 0.012420
v -0.000000 -0.137830 0.012420
v -0.001785 -0.137830 0.012420
v -0.012420 -0.039711 0.001785
v -0.012420 -0.039711 0.000000
v -0.012420 -0.039711 -0.001785
v 0.001785 -0.039711 0.012420
v -0.000000 -0.039711 0.012420
v -0.001785 -0.039711 0.012420
v 0.012420 -0.039711 0.001785
v 0.012420 -0.039711 0.000000
v 0.012420 -0.039711 -0.001785
v 0.001785 -0.039711 -0.012420
v -0.000000 -0.039711 -0.012420
v -0.001785 -0.039711 -0.012420
v 0.009251 -0.066548 0.016332
v 0.012792 -0.066548 0.012792
v 0.016332 -0.066548 0.009251
v 0.005782 -0.090181 0.010207
v 0.007995 -0.090181 0.007995
v 0.010207 -0.090181 0.005782
v 0.009251 -0.115787 0.016332
v 0.012792 -0.115787 0.012792
v 0.016332 -0.115787 0.009251
v 0.016332 -0.066548 -0.009251
v 0.012792 -0.066548 -0.012792
v 0.009251 -0.066548 -0.016332
v 0.010207 -0.090181 -0.005782
v 0.007995 -0.090181 -0.007995
v 0.005782 -0.090181 -0.010207
v 0.016332 -0.115787 -0.009251
v 0.012792 -0.115787 -0.012792
v 0.009251 -0.115787 -0.016332
v -0.009251 -0.066548 -0.016332
v -0.012792 -0.066548 -0.012792
v -0.016332 -0.066548 -0.009251
v -0.005782 -0.090181 -0.010207
v -0.007995 -0.090181 -0.007995
v -0.010207 -0.090181 -0.005782
v -0.009251 -0.115787 -0.016332
v -0.012792 -0.115787 -0.012792
v -0.016332 -0.115787 -0.009251
v -0.009251 -0.115787 0.016332
v -0.012792 -0.115787 0.012792
v -0.016332 -0.115787 0.009251
v -0.005782 -0.090181 0.010207
v -0.007995 -0.090181 0.007995
v -0.010207 -0.090181 0.005782
v -0.009251 -0.066548 0.016332
v -0.012792 -0.066548 0.012792
v -0.016332 -0.066548 0.009251
v -0.002856 -0.115787 -0.019872
v 0.000000 -0.115787 -0.019872
v 0.002856 -0.115787 -0.019872
v -0.001785 -0.090181 -0.012420
v -0.000000 -0.090181 -0.012420
v 0.001785 -0.090181 -0.012420
v -0.002856 -0.066548 -0.019872
v 0.000000 -0.066548 -0.019872
v 0.002856 -0.066548 -0.019872
v -0.019872 -0.115787 0.002856
v -0.019872 -0.115787 -0.000000
v -0.019872 -0.115787 -0.002856
v -0.012420 -0.090181 0.001785
v -0.012420 -0.090181 0.000000
v -0.012420 -0.090181 -0.001785
v -0.019872 -0.066548 0.002856
v -0.019872 -0.066548 -0.000000
v -0.019872 -0.066548 -0.002856
v 0.019872 -0.115787 -0.002856
v 0.019872 -0.115787 -0.000000
v 0.019872 -0.115787 0.002856
v 0.012420 -0.090181 -0.001785
v 0.012420 -0.090181 0.000000
v 0.012420 -0.090181 0.001785
v 0.019872 -0.066548 -0.002856
v 0.019872 -0.066548 -0.000000
v 0.019872 -0.066548 0.002856
v 0.002856 -0.115787 0.019872
v -0.000000 -0.115787 0.019872
v -0.002856 -0.115787 0.019872
v 0.001785 -0.090181 0.012420
v -0.000000 -0.090181 0.012420
v -0.001785 -0.090181 0.012420
v 0.002856 -0.066548 0.019872
v -0.000000 -0.066548 0.019872
v -0.002856 -0.066548 0.019872
vn 0.6797 -0.2759 0.6797
vn 0.6835 0.2561 0.6835
vn 0.6758 -0.2941 0.6758
vn 0.9635 0.2676 -0.0000
vn -0.0000 0.2676 -0.9635
vn 0.6855 0.2451 -0.6855
vn 0.6797 -0.2759 -0.6797
vn 0.6835 0.2561 -0.6835
vn -0.6797 -0.2759 -0.6797
vn -0.6835 0.2561 -0.6835
vn -0.6758 -0.2941 -0.6758
vn -0.9635 0.2676 -0.0000
vn -0.6758 -0.2941 0.6758
vn -0.6835 0.2561 0.6835
vn -0.6797 -0.2759 0.6797
vn -0.6855 0.2451 -0.6855
vn -0.0000 -0.3203 -0.9473
vn -0.0000 0.2794 -0.9602
vn -0.0000 -0.3007 -0.9537
vn -0.6855 0.2451 0.6855
vn -0.9473 -0.3203 -0.0000
vn -0.9602 0.2794 -0.0000
vn -0.9537 -0.3007 -0.0000
vn 0.9473 -0.3203 -0.0000
vn 0.9537 -0.3007 -0.0000
vn 0.6855 0.2451 0.6855
vn -0.0000 -0.3007 0.9537
vn -0.0000 0.2676 0.9635
vn -0.0000 -0.3203 0.9473
vn -0.0000 0.2794 0.9602
vn 0.9602 0.2794 -0.0000
vn 0.6758 -0.2941 -0.6758
vt 0.500000 0.705462
vt 0.500000 0.660924
vt 0.562500 0.660924
vt 0.562500 0.705462
vt 0.562500 0.750000
vt 0.562500 0.794538
vt 0.562500 0.839076
vt 0.500000 0.839076
vt 0.500000 0.794538
vt 0.500000 0.750000
vt 0.437500 0.705462
vt 0.437500 0.660924
vt 0.437500 0.839076
vt 0.437500 0.794538
vt 0.437500 0.750000
vt 0.375000 0.705462
vt 0.375000 0.660924
vt 0.375000 0.839076
vt 0.375000 0.794538
vt 0.375000 0.750000
vt 0.625000 0.642962
vt 0.625000 0.660924
vt 0.562500 0.642962
vt 0.562500 0.625000
vt 0.562500 0.607038
vt 0.562500 0.589076
vt 0.625000 0.589076
vt 0.625000 0.607038
vt 0.625000 0.625000
vt 0.625000 0.392962
vt 0.625000 0.410924
vt 0.562500 0.410924
vt 0.562500 0.392962
vt 0.562500 0.375000
vt 0.562500 0.357038
vt 0.562500 0.339076
vt 0.625000 0.339076
vt 0.625000 0.357038
vt 0.625000 0.375000
vt 0.562500 0.455462
vt 0.625000 0.455462
vt 0.625000 0.500000
vt 0.625000 0.544538
vt 0.562500 0.544538
vt 0.562500 0.500000
vt 0.500000 0.455462
vt 0.500000 0.410924
vt 0.500000 0.589076
vt 0.500000 0.544538
vt 0.500000 0.500000
vt 0.437500 0.455462
vt 0.437500 0.410924
vt 0.437500 0.589076
vt 0.437500 0.544538
vt 0.437500 0.500000
vt 0.500000 0.205462
vt 0.500000 0.160924
vt 0.562500 0.160924
vt 0.562500 0.205462
vt 0.562500 0.250000
vt 0.562500 0.294538
vt 0.500000 0.339076
vt 0.500000 0.294538
vt 0.500000 0.250000
vt 0.437500 0.205462
vt 0.437500 0.160924
vt 0.437500 0.339076
vt 0.437500 0.294538
vt 0.437500 0.250000
vt 0.375000 0.205462
vt 0.375000 0.160924
vt 0.375000 0.339076
vt 0.375000 0.294538
vt 0.375000 0.250000
vt 0.625000 0.142962
vt 0.625000 0.160924
vt 0.562500 0.142962
vt 0.562500 0.125000
vt 0.562500 0.107038
vt 0.562500 0.089076
vt 0.625000 0.089076
vt 0.625000 0.107038
vt 0.625000 0.125000
vt 0.437500 0.066807
vt 0.437500 0.089076
vt 0.375000 0.089076
vt 0.375000 0.066807
vt 0.375000 0.044538
vt 0.375000 0.022269
vt 0.375000 0.000000
vt 0.437500 0.000000
vt 0.437500 0.022269
vt 0.437500 0.044538
vt 0.500000 0.066807
vt 0.500000 0.089076
vt 0.500000 0.000000
vt 0.500000 0.022269
vt 0.500000 0.044538
vt 0.562500 0.066807
vt 0.562500 0.000000
vt 0.562500 0.022269
vt 0.562500 0.044538
vt 0.625000 0.205462
vt 0.625000 0.250000
vt 0.625000 0.294538
vt 0.437500 0.392962
vt 0.375000 0.410924
vt 0.375000 0.392962
vt 0.375000 0.375000
vt 0.375000 0.357038
vt 0.437500 0.357038
vt 0.437500 0.375000
vt 0.500000 0.392962
vt 0.500000 0.357038
vt 0.500000 0.375000
vt 0.625000 0.066807
vt 0.625000 0.000000
vt 0.625000 0.022269
vt 0.625000 0.044538
vt 0.437500 0.142962
vt 0.375000 0.142962
vt 0.375000 0.125000
vt 0.375000 0.107038
vt 0.437500 0.107038
vt 0.437500 0.125000
vt 0.500000 0.142962
vt 0.500000 0.107038
vt 0.500000 0.125000
vt 0.437500 0.642962
vt 0.375000 0.642962
vt 0.375000 0.625000
vt 0.375000 0.607038
vt 0.375000 0.589076
vt 0.437500 0.607038
vt 0.437500 0.625000
vt 0.500000 0.642962
vt 0.500000 0.625000
vt 0.500000 0.607038
vt 0.625000 0.705462
vt 0.625000 0.750000
vt 0.625000 0.794538
vt 0.625000 0.839076
vt 0.562500 0.892962
vt 0.562500 0.910924
vt 0.500000 0.910924
vt 0.500000 0.892962
vt 0.500000 0.875000
vt 0.500000 0.857038
vt 0.562500 0.857038
vt 0.562500 0.875000
vt 0.625000 0.892962
vt 0.625000 0.910924
vt 0.625000 0.857038
vt 0.625000 0.875000
vt 0.437500 0.892962
vt 0.437500 0.910924
vt 0.375000 0.910924
vt 0.375000 0.892962
vt 0.375000 0.875000
vt 0.375000 0.857038
vt 0.437500 0.857038
vt 0.437500 0.875000
vt 0.375000 0.455462
vt 0.375000 0.544538
vt 0.375000 0.500000
s 0
f 94/1/1 63/2/1 64/3/1 91/4/1 90/5/1 89/6/1 56/7/1 57/8/1 92/9/1 93/10/1
f 97/11/2 62/12/2 63/2/2 94/1/2 93/10/2 92/9/2 57/8/2 58/13/2 95/14/2 96/15/2
f 61/16/3 9/17/3 62/12/3 97/11/3 96/15/3 95/14/3 58/13/3 10/18/3 59/19/3 60/20/3
f 83/21/4 12/22/4 64/3/4 151/23/4 150/24/4 149/25/4 44/26/4 15/27/4 85/28/4 84/29/4
f 86/30/5 16/31/5 52/32/5 133/33/5 132/34/5 131/35/5 32/36/5 7/37/5 88/38/5 87/39/5
f 100/40/6 52/32/6 16/31/6 41/41/6 42/42/6 43/43/6 15/27/6 44/26/6 98/44/6 99/45/6
f 103/46/7 51/47/7 52/32/7 100/40/7 99/45/7 98/44/7 44/26/7 45/48/7 101/49/7 102/50/7
f 106/51/8 50/52/8 51/47/8 103/46/8 102/50/8 101/49/8 45/48/8 46/53/8 104/54/8 105/55/8
f 112/56/9 39/57/9 40/58/9 109/59/9 108/60/9 107/61/9 32/36/9 33/62/9 110/63/9 111/64/9
f 115/65/10 38/66/10 39/57/10 112/56/10 111/64/10 110/63/10 33/62/10 34/67/10 113/68/10 114/69/10
f 37/70/11 5/71/11 38/66/11 115/65/11 114/69/11 113/68/11 34/67/11 6/72/11 35/73/11 36/74/11
f 79/75/12 8/76/12 40/58/12 142/77/12 141/78/12 140/79/12 26/80/12 3/81/12 77/82/12 78/83/12
f 118/84/13 28/85/13 2/86/13 17/87/13 18/88/13 19/89/13 1/90/13 20/91/13 116/92/13 117/93/13
f 121/94/14 27/95/14 28/85/14 118/84/14 117/93/14 116/92/14 20/91/14 21/96/14 119/97/14 120/98/14
f 124/99/15 26/80/15 27/95/15 121/94/15 120/98/15 119/97/15 21/96/15 22/100/15 122/101/15 123/102/15
f 109/59/16 40/58/16 8/76/16 29/103/16 30/104/16 31/105/16 7/37/16 32/36/16 107/61/16 108/60/16
f 127/106/17 50/52/17 13/107/17 70/108/17 69/109/17 68/110/17 6/72/17 34/67/17 125/111/17 126/112/17
f 130/113/18 51/47/18 50/52/18 127/106/18 126/112/18 125/111/18 34/67/18 33/62/18 128/114/18 129/115/18
f 133/33/19 52/32/19 51/47/19 130/113/19 129/115/19 128/114/19 33/62/19 32/36/19 131/35/19 132/34/19
f 25/116/20 3/81/20 26/80/20 124/99/20 123/102/20 122/101/20 22/100/20 4/117/20 23/118/20 24/119/20
f 136/120/21 38/66/21 5/71/21 67/121/21 66/122/21 65/123/21 2/86/21 28/85/21 134/124/21 135/125/21
f 139/126/22 39/57/22 38/66/22 136/120/22 135/125/22 134/124/22 28/85/22 27/95/22 137/127/22 138/128/22
f 142/77/23 40/58/23 39/57/23 139/126/23 138/128/23 137/127/23 27/95/23 26/80/23 140/79/23 141/78/23
f 145/129/24 62/12/24 9/17/24 73/130/24 72/131/24 71/132/24 14/133/24 46/53/24 143/134/24 144/135/24
f 151/23/25 64/3/25 63/2/25 148/136/25 147/137/25 146/138/25 45/48/25 44/26/25 149/25/25 150/24/25
f 91/4/26 64/3/26 12/22/26 53/139/26 54/140/26 55/141/26 11/142/26 56/7/26 89/6/26 90/5/26
f 160/143/27 22/144/27 21/145/27 157/146/27 156/147/27 155/148/27 57/8/27 56/7/27 158/149/27 159/150/27
f 82/151/28 4/152/28 22/144/28 160/143/28 159/150/28 158/149/28 56/7/28 11/142/28 80/153/28 81/154/28
f 154/155/29 20/156/29 1/157/29 76/158/29 75/159/29 74/160/29 10/18/29 58/13/29 152/161/29 153/162/29
f 157/146/30 21/145/30 20/156/30 154/155/30 153/162/30 152/161/30 58/13/30 57/8/30 155/148/30 156/147/30
f 148/136/31 63/2/31 62/12/31 145/129/31 144/135/31 143/134/31 46/53/31 45/48/31 146/138/31 147/137/31
f 49/163/32 13/107/32 50/52/32 106/51/32 105/55/32 104/54/32 46/53/32 14/133/32 47/164/32 48/165/32
o Torus.003
v 0.057755 -0.148160 -0.006832
v 0.049297 -0.133513 -0.000448
v 0.028877 -0.127446 0.002197
v 0.008458 -0.133513 -0.000448
v 0.000000 -0.148160 -0.006832
v 0.008458 -0.162807 -0.013217
v 0.028877 -0.168874 -0.015862
v 0.049297 -0.162807 -0.013217
v 0.040839 -0.134918 -0.037212
v 0.034858 -0.122210 -0.026378
v 0.020419 -0.120825 -0.012993
v 0.005981 -0.131574 -0.004897
v 0.000000 -0.148160 -0.006832
v 0.005981 -0.160868 -0.017666
v 0.020419 -0.162253 -0.031051
v 0.034858 -0.151504 -0.039147
v 0.000000 -0.129432 -0.049795
v 0.000000 -0.117528 -0.037119
v 0.000000 -0.118082 -0.019285
v 0.000000 -0.130771 -0.006740
v 0.000000 -0.148160 -0.006832
v 0.000000 -0.160064 -0.019509
v 0.000000 -0.159510 -0.037343
v 0.000000 -0.146822 -0.049888
v -0.040839 -0.134918 -0.037212
v -0.034858 -0.122210 -0.026378
v -0.020419 -0.120825 -0.012993
v -0.005981 -0.131574 -0.004897
v 0.000000 -0.148160 -0.006832
v -0.005981 -0.160868 -0.017666
v -0.020419 -0.162253 -0.031051
v -0.034858 -0.151504 -0.039147
v -0.057755 -0.148160 -0.006832
v -0.049297 -0.133513 -0.000448
v -0.028877 -0.127446 0.002197
v -0.008458 -0.133513 -0.000448
v 0.000000 -0.148160 -0.006832
v -0.008458 -0.162807 -0.013217
v -0.028877 -0.168874 -0.015862
v -0.049297 -0.162807 -0.013217
v -0.040839 -0.161402 0.023547
v -0.034858 -0.144816 0.025482
v -0.020419 -0.134067 0.017386
v -0.005981 -0.135452 0.004001
v 0.000000 -0.148160 -0.006832
v -0.005981 -0.164746 -0.008768
v -0.020419 -0.175495 -0.000672
v -0.034858 -0.174110 0.012713
v 0.000000 -0.166888 0.036130
v 0.000000 -0.149498 0.036223
v 0.000000 -0.136810 0.023678
v 0.000000 -0.136256 0.005844
v 0.000000 -0.148160 -0.006832
v 0.000000 -0.165549 -0.006925
v 0.000000 -0.178238 0.005620
v 0.000000 -0.178792 0.023454
v 0.040839 -0.161402 0.023547
v 0.034858 -0.144816 0.025482
v 0.020419 -0.134067 0.017386
v 0.005981 -0.135452 0.004001
v 0.000000 -0.148160 -0.006832
v 0.005981 -0.164746 -0.008768
v 0.020419 -0.175495 -0.000672
v 0.034858 -0.174110 0.012713
vn 0.8056 0.5553 -0.2066
vn 0.3046 0.9236 0.2330
vn -0.3046 0.7993 0.5180
vn -0.8056 0.2266 0.5474
vn -0.8056 -0.5553 0.2066
vn -0.3046 -0.9236 -0.2330
vn 0.3046 -0.7993 -0.5180
vn 0.8056 -0.2266 -0.5474
vn 0.2951 0.6965 -0.6541
vn 0.1237 0.9918 0.0308
vn -0.1237 0.6977 0.7056
vn -0.2951 -0.0051 0.9555
vn -0.2951 -0.6965 0.6541
vn -0.1237 -0.9918 -0.0308
vn 0.1237 -0.6977 -0.7056
vn 0.2951 0.0051 -0.9555
vn -0.2951 0.6965 -0.6541
vn -0.1237 0.9918 0.0308
vn 0.1237 0.6977 0.7056
vn 0.2951 -0.0051 0.9555
vn 0.2951 -0.6965 0.6541
vn 0.1237 -0.9918 -0.0308
vn -0.1237 -0.6977 -0.7056
vn -0.2951 0.0051 -0.9555
vn -0.8056 0.5553 -0.2066
vn -0.3046 0.9236 0.2330
vn 0.3046 0.7993 0.5180
vn 0.8056 0.2266 0.5474
vn 0.8056 -0.5553 0.2066
vn 0.3046 -0.9236 -0.2330
vn -0.3046 -0.7993 -0.5180
vn -0.8056 -0.2266 -0.5474
vt 0.500000 0.500000
vt 0.625000 0.500000
vt 0.625000 0.625000
vt 0.500000 0.625000
vt 0.625000 0.750000
vt 0.500000 0.750000
vt 0.625000 0.875000
vt 0.500000 0.875000
vt 0.625000 1.000000
vt 0.500000 1.000000
vt 0.500000 0.000000
vt 0.625000 0.000000
vt 0.625000 0.125000
vt 0.500000 0.125000
vt 0.625000 0.250000
vt 0.500000 0.250000
vt 0.625000 0.375000
vt 0.500000 0.375000
vt 0.750000 0.500000
vt 0.750000 0.625000
vt 0.750000 0.750000
vt 0.750000 0.875000
vt 0.750000 1.000000
vt 0.750000 0.000000
vt 0.750000 0.125000
vt 0.750000 0.250000
vt 0.750000 0.375000
vt 0.875000 0.500000
vt 0.875000 0.625000
vt 0.875000 0.750000
vt 0.875000 0.875000
vt 0.875000 1.000000
vt 0.875000 0.000000
vt 0.875000 0.125000
vt 0.875000 0.250000
vt 0.875000 0.375000
vt 1.000000 0.500000
vt 1.000000 0.625000
vt 1.000000 0.750000
vt 1.000000 0.875000
vt 1.000000 1.000000
vt 1.000000 0.000000
vt 1.000000 0.125000
vt 1.000000 0.250000
vt 1.000000 0.375000
vt 0.000000 0.500000
vt 0.125000 0.500000
vt 0.125000 0.625000
vt 0.000000 0.625000
vt 0.125000 0.750000
vt 0.000000 0.750000
vt 0.125000 0.875000
vt 0.000000 0.875000
vt 0.125000 1.000000
vt 0.000000 1.000000
vt 0.000000 0.000000
vt 0.125000 0.000000
vt 0.125000 0.125000
vt 0.000000 0.125000
vt 0.125000 0.250000
vt 0.000000 0.250000
vt 0.125000 0.375000
vt 0.000000 0.375000
vt 0.250000 0.500000
vt 0.250000 0.625000
vt 0.250000 0.750000
vt 0.250000 0.875000
vt 0.250000 1.000000
vt 0.250000 0.000000
vt 0.250000 0.125000
vt 0.250000 0.250000
vt 0.250000 0.375000
vt 0.375000 0.500000
vt 0.375000 0.625000
vt 0.375000 0.750000
vt 0.375000 0.875000
vt 0.375000 1.000000
vt 0.375000 0.000000
vt 0.375000 0.125000
vt 0.375000 0.250000
vt 0.375000 0.375000
s 0
f 161/166/33 169/167/33 170/168/33 162/169/33
f 162/169/34 170/168/34 171/170/34 163/171/34
f 163/171/35 171/170/35 172/172/35 164/173/35
f 164/173/36 172/172/36 173/174/36 165/175/36
f 165/176/37 173/177/37 174/178/37 166/179/37
f 166/179/38 174/178/38 175/180/38 167/181/38
f 167/181/39 175/180/39 176/182/39 168/183/39
f 168/183/40 176/182/40 169/167/40 161/166/40
f 169/167/41 177/184/41 178/185/41 170/168/41
f 170/168/42 178/185/42 179/186/42 171/170/42
f 171/170/43 179/186/43 180/187/43 172/172/43
f 172/172/44 180/187/44 181/188/44 173/174/44
f 173/177/45 181/189/45 182/190/45 174/178/45
f 174/178/46 182/190/46 183/191/46 175/180/46
f 175/180/47 183/191/47 184/192/47 176/182/47
f 176/182/48 184/192/48 177/184/48 169/167/48
f 177/184/49 185/193/49 186/194/49 178/185/49
f 178/185/50 186/194/50 187/195/50 179/186/50
f 179/186/51 187/195/51 188/196/51 180/187/51
f 180/187/52 188/196/52 189/197/52 181/188/52
f 181/189/53 189/198/53 190/199/53 182/190/53
f 182/190/54 190/199/54 191/200/54 183/191/54
f 183/191/55 191/200/55 192/201/55 184/192/55
f 184/192/56 192/201/56 185/193/56 177/184/56
f 185/193/57 193/202/57 194/203/57 186/194/57
f 186/194/58 194/203/58 195/204/58 187/195/58
f 187/195/59 195/204/59 196/205/59 188/196/59
f 188/196/60 196/205/60 197/206/60 189/197/60
f 189/198/61 197/207/61 198/208/61 190/199/61
f 190/199/62 198/208/62 199/209/62 191/200/62
f 191/200/63 199/209/63 200/210/63 192/201/63
f 192/201/64 200/210/64 193/202/64 185/193/64
f 193/211/36 201/212/36 202/213/36 194/214/36
f 194/214/35 202/213/35 203/215/35 195/216/35
f 195/216/34 203/215/34 204/217/34 196/218/34
f 196/218/33 204/217/33 205/219/33 197/220/33
f 197/221/40 205/222/40 206/223/40 198/224/40
f 198/224/39 206/223/39 207/225/39 199/226/39
f 199/226/38 207/225/38 208/227/38 200/228/38
f 200/228/37 208/227/37 201/212/37 193/211/37
f 201/212/44 209/229/44 210/230/44 202/213/44
f 202/213/43 210/230/43 211/231/43 203/215/43
f 203/215/42 211/231/42 212/232/42 204/217/42
f 204/217/41 212/232/41 213/233/41 205/219/41
f 205/222/48 213/234/48 214/235/48 206/223/48
f 206/223/47 214/235/47 215/236/47 207/225/47
f 207/225/46 215/236/46 216/237/46 208/227/46
f 208/227/45 216/237/45 209/229/45 201/212/45
f 209/229/52 217/238/52 218/239/52 210/230/52
f 210/230/51 218/239/51 219/240/51 211/231/51
f 211/231/50 219/240/50 220/241/50 212/232/50
f 212/232/49 220/241/49 221/242/49 213/233/49
f 213/234/56 221/243/56 222/244/56 214/235/56
f 214/235/55 222/244/55 223/245/55 215/236/55
f 215/236/54 223/245/54 224/246/54 216/237/54
f 216/237/53 224/246/53 217/238/53 209/229/53
f 217/238/60 161/166/60 162/169/60 218/239/60
f 218/239/59 162/169/59 163/171/59 219/240/59
f 219/240/58 163/171/58 164/173/58 220/241/58
f 220/241/57 164/173/57 165/175/57 221/242/57
f 221/243/64 165/176/64 166/179/64 222/244/64
f 222/244/63 166/179/63 167/181/63 223/245/63
f 223/245/62 167/181/62 168/183/62 224/246/62
f 224/246/61 168/183/61 161/166/61 217/238/61
o Torus.004
v 0.057755 -0.189949 -0.005997
v 0.049297 -0.174764 -0.001024
v 0.028877 -0.168475 0.001036
v 0.008458 -0.174764 -0.001024
v 0.000000 -0.189949 -0.005997
v 0.008458 -0.205133 -0.010969
v 0.028877 -0.211423 -0.013029
v 0.049297 -0.205133 -0.010969
v 0.040839 -0.179635 -0.037491
v 0.034858 -0.165961 -0.027906
v 0.020419 -0.163318 -0.014711
v 0.005981 -0.173254 -0.005636
v 0.000000 -0.189949 -0.005997
v 0.005981 -0.203623 -0.015582
v 0.020419 -0.206266 -0.028776
v 0.034858 -0.196330 -0.037851
v 0.000000 -0.175363 -0.050536
v 0.000000 -0.162314 -0.039041
v 0.000000 -0.161182 -0.021234
v 0.000000 -0.172628 -0.007547
v 0.000000 -0.189949 -0.005997
v 0.000000 -0.202997 -0.017492
v 0.000000 -0.204130 -0.035299
v 0.000000 -0.192683 -0.048986
v -0.040839 -0.179635 -0.037491
v -0.034858 -0.165961 -0.027906
v -0.020419 -0.163318 -0.014711
v -0.005981 -0.173254 -0.005636
v 0.000000 -0.189949 -0.005997
v -0.005981 -0.203623 -0.015582
v -0.020419 -0.206266 -0.028776
v -0.034858 -0.196330 -0.037851
v -0.057755 -0.189949 -0.005997
v -0.049297 -0.174764 -0.001024
v -0.028877 -0.168475 0.001036
v -0.008458 -0.174764 -0.001024
v 0.000000 -0.189949 -0.005997
v -0.008458 -0.205133 -0.010969
v -0.028877 -0.211423 -0.013029
v -0.049297 -0.205133 -0.010969
v -0.040839 -0.200263 0.025497
v -0.034858 -0.183568 0.025858
v -0.020419 -0.173632 0.016783
v -0.005981 -0.176275 0.003588
v 0.000000 -0.189949 -0.005997
v -0.005981 -0.206644 -0.006357
v -0.020419 -0.216580 0.002718
v -0.034858 -0.213937 0.015912
v 0.000000 -0.204535 0.038543
v 0.000000 -0.187215 0.036993
v 0.000000 -0.175768 0.023306
v 0.000000 -0.176901 0.005499
v 0.000000 -0.189949 -0.005997
v 0.000000 -0.207269 -0.004447
v 0.000000 -0.218716 0.009240
v 0.000000 -0.217583 0.027047
v 0.040839 -0.200263 0.025497
v 0.034858 -0.183568 0.025858
v 0.020419 -0.173632 0.016783
v 0.005981 -0.176275 0.003588
v 0.000000 -0.189949 -0.005997
v 0.005981 -0.206644 -0.006357
v 0.020419 -0.216580 0.002718
v 0.034858 -0.213937 0.015912
vn 0.8056 0.5333 -0.2581
vn 0.3046 0.9414 0.1447
vn -0.3046 0.8447 0.4402
vn -0.8056 0.2773 0.5235
vn -0.8056 -0.5333 0.2581
vn -0.3046 -0.9414 -0.1447
vn 0.3046 -0.8447 -0.4402
vn 0.8056 -0.2773 -0.5235
vn 0.2951 0.6316 -0.7169
vn 0.1237 0.9903 -0.0630
vn -0.1237 0.7612 0.6366
vn -0.2951 0.0852 0.9517
vn -0.2951 -0.6316 0.7169
vn -0.1237 -0.9903 0.0630
vn 0.1237 -0.7612 -0.6366
vn 0.2951 -0.0852 -0.9517
vn -0.2951 0.6316 -0.7169
vn -0.1237 0.9903 -0.0630
vn 0.1237 0.7612 0.6366
vn 0.2951 0.0852 0.9517
vn 0.2951 -0.6316 0.7169
vn 0.1237 -0.9903 0.0630
vn -0.1237 -0.7612 -0.6366
vn -0.2951 -0.0852 -0.9517
vn -0.8056 0.5333 -0.2581
vn -0.3046 0.9414 0.1447
vn 0.3046 0.8447 0.4402
vn 0.8056 0.2773 0.5235
vn 0.8056 -0.5333 0.2581
vn 0.3046 -0.9414 -0.1447
vn -0.3046 -0.8447 -0.4402
vn -0.8056 -0.2773 -0.5235
vt 0.500000 0.500000
vt 0.625000 0.500000
vt 0.625000 0.625000
vt 0.500000 0.625000
vt 0.625000 0.750000
vt 0.500000 0.750000
vt 0.625000 0.875000
vt 0.500000 0.875000
vt 0.625000 1.000000
vt 0.500000 1.000000
vt 0.500000 0.000000
vt 0.625000 0.000000
vt 0.625000 0.125000
vt 0.500000 0.125000
vt 0.625000 0.250000
vt 0.500000 0.250000
vt 0.625000 0.375000
vt 0.500000 0.375000
vt 0.750000 0.500000
vt 0.750000 0.625000
vt 0.750000 0.750000
vt 0.750000 0.875000
vt 0.750000 1.000000
vt 0.750000 0.000000
vt 0.750000 0.125000
vt 0.750000 0.250000
vt 0.750000 0.375000
vt 0.875000 0.500000
vt 0.875000 0.625000
vt 0.875000 0.750000
vt 0.875000 0.875000
vt 0.875000 1.000000
vt 0.875000 0.000000
vt 0.875000 0.125000
vt 0.875000 0.250000
vt 0.875000 0.375000
vt 1.000000 0.500000
vt 1.000000 0.625000
vt 1.000000 0.750000
vt 1.000000 0.875000
vt 1.000000 1.000000
vt 1.000000 0.000000
vt 1.000000 0.125000
vt 1.000000 0.250000
vt 1.000000 0.375000
vt 0.000000 0.500000
vt 0.125000 0.500000
vt 0.125000 0.625000
vt 0.000000 0.625000
vt 0.125000 0.750000
vt 0.000000 0.750000
vt 0.125000 0.875000
vt 0.000000 0.875000
vt 0.125000 1.000000
vt 0.000000 1.000000
vt 0.000000 0.000000
vt 0.125000 0.000000
vt 0.125000 0.125000
vt 0.000000 0.125000
vt 0.125000 0.250000
vt 0.000000 0.250000
vt 0.125000 0.375000
vt 0.000000 0.375000
vt 0.250000 0.500000
vt 0.250000 0.625000
vt 0.250000 0.750000
vt 0.250000 0.875000
vt 0.250000 1.000000
vt 0.250000 0.000000
vt 0.250000 0.125000
vt 0.250000 0.250000
vt 0.250000 0.375000
vt 0.375000 0.500000
vt 0.375000 0.625000
vt 0.375000 0.750000
vt 0.375000 0.875000
vt 0.375000 1.000000
vt 0.375000 0.000000
vt 0.375000 0.125000
vt 0.375000 0.250000
vt 0.375000 0.375000
s 0
f 225/247/65 233/248/65 234/249/65 226/250/65
f 226/250/66 234/249/66 235/251/66 227/252/66
f 227/252/67 235/251/67 236/253/67 228/254/67
f 228/254/68 236/253/68 237/255/68 229/256/68
f 229/257/69 237/258/69 238/259/69 230/260/69
f 230/260/70 238/259/70 239/261/70 231/262/70
f 231/262/71 239/261/71 240/263/71 232/264/71
f 232/264/72 240/263/72 233/248/72 225/247/72
f 233/248/73 241/265/73 242/266/73 234/249/73
f 234/249/74 242/266/74 243/267/74 235/251/74
f 235/251/75 243/267/75 244/268/75 236/253/75
f 236/253/76 244/268/76 245/269/76 237/255/76
f 237/258/77 245/270/77 246/271/77 238/259/77
f 238/259/78 246/271/78 247/272/78 239/261/78
f 239/261/79 247/272/79 248/273/79 240/263/79
f 240/263/80 248/273/80 241/265/80 233/248/80
f 241/265/81 249/274/81 250/275/81 242/266/81
f 242/266/82 250/275/82 251/276/82 243/267/82
f 243/267/83 251/276/83 252/277/83 244/268/83
f 244/268/84 252/277/84 253/278/84 245/269/84
f 245/270/85 253/279/85 254/280/85 246/271/85
f 246/271/86 254/280/86 255/281/86 247/272/86
f 247/272/87 255/281/87 256/282/87 248/273/87
f 248/273/88 256/282/88 249/274/88 241/265/88
f 249/274/89 257/283/89 258/284/89 250/275/89
f 250/275/90 258/284/90 259/285/90 251/276/90
f 251/276/91 259/285/91 260/286/91 252/277/91
f 252/277/92 260/286/92 261/287/92 253/278/92
f 253/279/93 261/288/93 262/289/93 254/280/93
f 254/280/94 262/289/94 263/290/94 255/281/94
f 255/281/95 263/290/95 264/291/95 256/282/95
f 256/282/96 264/291/96 257/283/96 249/274/96
f 257/292/68 265/293/68 266/294/68 258/295/68
f 258/295/67 266/294/67 267/296/67 259/297/67
f 259/297/66 267/296/66 268/298/66 260/299/66
f 260/299/65 268/298/65 269/300/65 261/301/65
f 261/302/72 269/303/72 270/304/72 262/305/72
f 262/305/71 270/304/71 271/306/71 263/307/71
f 263/307/70 271/306/70 272/308/70 264/309/70
f 264/309/69 272/308/69 265/293/69 257/292/69
f 265/293/76 273/310/76 274/311/76 266/294/76
f 266/294/75 274/311/75 275/312/75 267/296/75
f 267/296/74 275/312/74 276/313/74 268/298/74
f 268/298/73 276/313/73 277/314/73 269/300/73
f 269/303/80 277/315/80 278/316/80 270/304/80
f 270/304/79 278/316/79 279/317/79 271/306/79
f 271/306/78 279/317/78 280/318/78 272/308/78
f 272/308/77 280/318/77 273/310/77 265/293/77
f 273/310/84 281/319/84 282/320/84 274/311/84
f 274/311/83 282/320/83 283/321/83 275/312/83
f 275/312/82 283/321/82 284/322/82 276/313/82
f 276/313/81 284/322/81 285/323/81 277/314/81
f 277/315/88 285/324/88 286/325/88 278/316/88
f 278/316/87 286/325/87 287/326/87 279/317/87
f 279/317/86 287/326/86 288/327/86 280/318/86
f 280/318/85 288/327/85 281/319/85 273/310/85
f 281/319/92 225/247/92 226/250/92 282/320/92
f 282/320/91 226/250/91 227/252/91 283/321/91
f 283/321/90 227/252/90 228/254/90 284/322/90
f 284/322/89 228/254/89 229/256/89 285/323/89
f 285/324/96 229/257/96 230/260/96 286/325/96
f 286/325/95 230/260/95 231/262/95 287/326/95
f 287/326/94 231/262/94 232/264/94 288/327/94
f 288/327/93 232/264/93 225/247/93 281/319/93
o Cube.001
v -0.003569 -0.297830 0.012420
v -0.012420 -0.297830 0.003569
v -0.012420 -0.199711 0.003569
v -0.003569 -0.199711 0.012420
v -0.012420 -0.297830 -0.003569
v -0.003569 -0.297830 -0.012420
v -0.003569 -0.199711 -0.012420
v -0.012420 -0.199711 -0.003569
v 0.012420 -0.297830 0.003569
v 0.003569 -0.297830 0.012420
v 0.003569 -0.199711 0.012420
v 0.012420 -0.199711 0.003569
v 0.003569 -0.297830 -0.012420
v 0.012420 -0.297830 -0.003569
v 0.012420 -0.199711 -0.003569
v 0.003569 -0.199711 -0.012420
v -0.010207 -0.297830 0.005782
v -0.007995 -0.297830 0.007995
v -0.005782 -0.297830 0.010207
v -0.005711 -0.275787 0.019872
v -0.003569 -0.250181 0.012420
v -0.005711 -0.226548 0.019872
v -0.005782 -0.199711 0.010207
v -0.007995 -0.199711 0.007995
v -0.010207 -0.199711 0.005782
v -0.019872 -0.226548 0.005711
v -0.012420 -0.250181 0.003569
v -0.019872 -0.275787 0.005711
v -0.010207 -0.199711 -0.005782
v -0.007995 -0.199711 -0.007995
v -0.005782 -0.199711 -0.010207
v -0.005711 -0.226548 -0.019872
v -0.003569 -0.250181 -0.012420
v -0.005711 -0.275787 -0.019872
v -0.005782 -0.297830 -0.010207
v -0.007995 -0.297830 -0.007995
v -0.010207 -0.297830 -0.005782
v -0.019872 -0.275787 -0.005711
v -0.012420 -0.250181 -0.003569
v -0.019872 -0.226548 -0.005711
v 0.005782 -0.199711 -0.010207
v 0.007995 -0.199711 -0.007995
v 0.010207 -0.199711 -0.005782
v 0.019872 -0.226548 -0.005711
v 0.012420 -0.250181 -0.003569
v 0.019872 -0.275787 -0.005711
v 0.010207 -0.297830 -0.005782
v 0.007995 -0.297830 -0.007995
v 0.005782 -0.297830 -0.010207
v 0.005711 -0.275787 -0.019872
v 0.003569 -0.250181 -0.012420
v 0.005711 -0.226548 -0.019872
v 0.010207 -0.199711 0.005782
v 0.007995 -0.199711 0.007995
v 0.005782 -0.199711 0.010207
v 0.005711 -0.226548 0.019872
v 0.003569 -0.250181 0.012420
v 0.005711 -0.275787 0.019872
v 0.005782 -0.297830 0.010207
v 0.007995 -0.297830 0.007995
v 0.010207 -0.297830 0.005782
v 0.019872 -0.275787 0.005711
v 0.012420 -0.250181 0.003569
v 0.019872 -0.226548 0.005711
v -0.012420 -0.297830 0.001785
v -0.012420 -0.297830 0.000000
v -0.012420 -0.297830 -0.001785
v -0.001785 -0.297830 -0.012420
v -0.000000 -0.297830 -0.012420
v 0.001785 -0.297830 -0.012420
v 0.012420 -0.297830 -0.001785
v 0.012420 -0.297830 0.000000
v 0.012420 -0.297830 0.001785
v 0.001785 -0.297830 0.012420
v -0.000000 -0.297830 0.012420
v -0.001785 -0.297830 0.012420
v -0.012420 -0.199711 0.001785
v -0.012420 -0.199711 0.000000
v -0.012420 -0.199711 -0.001785
v 0.001785 -0.199711 0.012420
v -0.000000 -0.199711 0.012420
v -0.001785 -0.199711 0.012420
v 0.012420 -0.199711 0.001785
v 0.012420 -0.199711 0.000000
v 0.012420 -0.199711 -0.001785
v 0.001785 -0.199711 -0.012420
v -0.000000 -0.199711 -0.012420
v -0.001785 -0.199711 -0.012420
v 0.009251 -0.226548 0.016332
v 0.012792 -0.226548 0.012792
v 0.016332 -0.226548 0.009251
v 0.005782 -0.250181 0.010207
v 0.007995 -0.250181 0.007995
v 0.010207 -0.250181 0.005782
v 0.009251 -0.275787 0.016332
v 0.012792 -0.275787 0.012792
v 0.016332 -0.275787 0.009251
v 0.016332 -0.226548 -0.009251
v 0.012792 -0.226548 -0.012792
v 0.009251 -0.226548 -0.016332
v 0.010207 -0.250181 -0.005782
v 0.007995 -0.250181 -0.007995
v 0.005782 -0.250181 -0.010207
v 0.016332 -0.275787 -0.009251
v 0.012792 -0.275787 -0.012792
v 0.009251 -0.275787 -0.016332
v -0.009251 -0.226548 -0.016332
v -0.012792 -0.226548 -0.012792
v -0.016332 -0.226548 -0.009251
v -0.005782 -0.250181 -0.010207
v -0.007995 -0.250181 -0.007995
v -0.010207 -0.250181 -0.005782
v -0.009251 -0.275787 -0.016332
v -0.012792 -0.275787 -0.012792
v -0.016332 -0.275787 -0.009251
v -0.009251 -0.275787 0.016332
v -0.012792 -0.275787 0.012792
v -0.016332 -0.275787 0.009251
v -0.005782 -0.250181 0.010207
v -0.007995 -0.250181 0.007995
v -0.010207 -0.250181 0.005782
v -0.009251 -0.226548 0.016332
v -0.012792 -0.226548 0.012792
v -0.016332 -0.226548 0.009251
v -0.002856 -0.275787 -0.019872
v 0.000000 -0.275787 -0.019872
v 0.002856 -0.275787 -0.019872
v -0.001785 -0.250181 -0.012420
v -0.000000 -0.250181 -0.012420
v 0.001785 -0.250181 -0.012420
v -0.002856 -0.226548 -0.019872
v 0.000000 -0.226548 -0.019872
v 0.002856 -0.226548 -0.019872
v -0.019872 -0.275787 0.002856
v -0.019872 -0.275787 -0.000000
v -0.019872 -0.275787 -0.002856
v -0.012420 -0.250181 0.001785
v -0.012420 -0.250181 0.000000
v -0.012420 -0.250181 -0.001785
v -0.019872 -0.226548 0.002856
v -0.019872 -0.226548 -0.000000
v -0.019872 -0.226548 -0.002856
v 0.019872 -0.275787 -0.002856
v 0.019872 -0.275787 -0.000000
v 0.019872 -0.275787 0.002856
v 0.012420 -0.250181 -0.001785
v 0.012420 -0.250181 0.000000
v 0.012420 -0.250181 0.001785
v 0.019872 -0.226548 -0.002856
v 0.019872 -0.226548 -0.000000
v 0.019872 -0.226548 0.002856
v 0.002856 -0.275787 0.019872
v -0.000000 -0.275787 0.019872
v -0.002856 -0.275787 0.019872
v 0.001785 -0.250181 0.012420
v -0.000000 -0.250181 0.012420
v -0.001785 -0.250181 0.012420
v 0.002856 -0.226548 0.019872
v -0.000000 -0.226548 0.019872
v -0.002856 -0.226548 0.019872
vn 0.6797 -0.2759 0.6797
vn 0.6835 0.2561 0.6835
vn 0.6758 -0.2941 0.6758
vn 0.9635 0.2676 -0.0000
vn 0.6855 0.2451 -0.6855
vn 0.6797 -0.2759 -0.6797
vn 0.6835 0.2561 -0.6835
vn -0.6797 -0.2759 -0.6797
vn -0.6835 0.2561 -0.6835
vn -0.6758 -0.2941 -0.6758
vn -0.9473 -0.3203 -0.0000
vn -0.0000 0.2676 0.9635
vn -0.6758 -0.2941 0.6758
vn -0.6835 0.2561 0.6835
vn -0.6797 -0.2759 0.6797
vn -0.6855 0.2451 -0.6855
vn -0.0000 -0.3203 -0.9473
vn -0.0000 0.2794 -0.9602
vn -0.0000 -0.3007 -0.9537
vn -0.9602 0.2794 -0.0000
vn -0.9537 -0.3007 -0.0000
vn -0.9635 0.2676 -0.0000
vn -0.6855 0.2451 0.6855
vn 0.6758 -0.2941 -0.6758
vn 0.9473 -0.3203 -0.0000
vn 0.9602 0.2794 -0.0000
vn 0.9537 -0.3007 -0.0000
vn 0.6855 0.2451 0.6855
vn -0.0000 -0.3203 0.9473
vn -0.0000 0.2794 0.9602
vn -0.0000 -0.3007 0.9537
vn -0.0000 0.2676 -0.9635
vt 0.500000 0.705462
vt 0.500000 0.660924
vt 0.562500 0.660924
vt 0.562500 0.705462
vt 0.562500 0.750000
vt 0.562500 0.794538
vt 0.562500 0.839076
vt 0.500000 0.839076
vt 0.500000 0.794538
vt 0.500000 0.750000
vt 0.437500 0.705462
vt 0.437500 0.660924
vt 0.437500 0.839076
vt 0.437500 0.794538
vt 0.437500 0.750000
vt 0.375000 0.705462
vt 0.375000 0.660924
vt 0.375000 0.839076
vt 0.375000 0.794538
vt 0.375000 0.750000
vt 0.625000 0.642962
vt 0.625000 0.660924
vt 0.562500 0.642962
vt 0.562500 0.625000
vt 0.562500 0.607038
vt 0.562500 0.589076
vt 0.625000 0.589076
vt 0.625000 0.607038
vt 0.625000 0.625000
vt 0.562500 0.455462
vt 0.562500 0.410924
vt 0.625000 0.410924
vt 0.625000 0.455462
vt 0.625000 0.500000
vt 0.625000 0.544538
vt 0.562500 0.544538
vt 0.562500 0.500000
vt 0.500000 0.455462
vt 0.500000 0.410924
vt 0.500000 0.589076
vt 0.500000 0.544538
vt 0.500000 0.500000
vt 0.437500 0.455462
vt 0.437500 0.410924
vt 0.437500 0.589076
vt 0.437500 0.544538
vt 0.437500 0.500000
vt 0.500000 0.205462
vt 0.500000 0.160924
vt 0.562500 0.160924
vt 0.562500 0.205462
vt 0.562500 0.250000
vt 0.562500 0.294538
vt 0.562500 0.339076
vt 0.500000 0.339076
vt 0.500000 0.294538
vt 0.500000 0.250000
vt 0.437500 0.205462
vt 0.437500 0.160924
vt 0.437500 0.339076
vt 0.437500 0.294538
vt 0.437500 0.250000
vt 0.375000 0.205462
vt 0.375000 0.160924
vt 0.375000 0.339076
vt 0.375000 0.294538
vt 0.375000 0.250000
vt 0.437500 0.142962
vt 0.375000 0.142962
vt 0.375000 0.125000
vt 0.375000 0.107038
vt 0.375000 0.089076
vt 0.437500 0.089076
vt 0.437500 0.107038
vt 0.437500 0.125000
vt 0.625000 0.892962
vt 0.625000 0.910924
vt 0.562500 0.910924
vt 0.562500 0.892962
vt 0.562500 0.875000
vt 0.562500 0.857038
vt 0.625000 0.839076
vt 0.625000 0.857038
vt 0.625000 0.875000
vt 0.437500 0.066807
vt 0.375000 0.066807
vt 0.375000 0.044538
vt 0.375000 0.022269
vt 0.375000 0.000000
vt 0.437500 0.000000
vt 0.437500 0.022269
vt 0.437500 0.044538
vt 0.500000 0.066807
vt 0.500000 0.089076
vt 0.500000 0.000000
vt 0.500000 0.022269
vt 0.500000 0.044538
vt 0.562500 0.066807
vt 0.562500 0.089076
vt 0.562500 0.000000
vt 0.562500 0.022269
vt 0.562500 0.044538
vt 0.625000 0.160924
vt 0.625000 0.205462
vt 0.625000 0.250000
vt 0.625000 0.294538
vt 0.625000 0.339076
vt 0.437500 0.392962
vt 0.375000 0.410924
vt 0.375000 0.392962
vt 0.375000 0.375000
vt 0.375000 0.357038
vt 0.437500 0.357038
vt 0.437500 0.375000
vt 0.500000 0.392962
vt 0.500000 0.357038
vt 0.500000 0.375000
vt 0.562500 0.392962
vt 0.562500 0.357038
vt 0.562500 0.375000
vt 0.500000 0.142962
vt 0.500000 0.107038
vt 0.500000 0.125000
vt 0.562500 0.142962
vt 0.562500 0.107038
vt 0.562500 0.125000
vt 0.625000 0.142962
vt 0.625000 0.089076
vt 0.625000 0.107038
vt 0.625000 0.125000
vt 0.625000 0.066807
vt 0.625000 0.000000
vt 0.625000 0.022269
vt 0.625000 0.044538
vt 0.375000 0.455462
vt 0.375000 0.589076
vt 0.375000 0.544538
vt 0.375000 0.500000
vt 0.437500 0.642962
vt 0.375000 0.642962
vt 0.375000 0.625000
vt 0.375000 0.607038
vt 0.437500 0.607038
vt 0.437500 0.625000
vt 0.500000 0.642962
vt 0.500000 0.607038
vt 0.500000 0.625000
vt 0.625000 0.705462
vt 0.625000 0.750000
vt 0.625000 0.794538
vt 0.437500 0.892962
vt 0.437500 0.910924
vt 0.375000 0.910924
vt 0.375000 0.892962
vt 0.375000 0.875000
vt 0.375000 0.857038
vt 0.437500 0.857038
vt 0.437500 0.875000
vt 0.500000 0.892962
vt 0.500000 0.910924
vt 0.500000 0.857038
vt 0.500000 0.875000
vt 0.625000 0.392962
vt 0.625000 0.357038
vt 0.625000 0.375000
s 0
f 382/328/97 351/329/97 352/330/97 379/331/97 378/332/97 377/333/97 344/334/97 345/335/97 380/336/97 381/337/97
f 385/338/98 350/339/98 351/329/98 382/328/98 381/337/98 380/336/98 345/335/98 346/340/98 383/341/98 384/342/98
f 349/343/99 297/344/99 350/339/99 385/338/99 384/342/99 383/341/99 346/340/99 298/345/99 347/346/99 348/347/99
f 371/348/100 300/349/100 352/330/100 439/350/100 438/351/100 437/352/100 332/353/100 303/354/100 373/355/100 372/356/100
f 388/357/101 340/358/101 304/359/101 329/360/101 330/361/101 331/362/101 303/354/101 332/353/101 386/363/101 387/364/101
f 391/365/102 339/366/102 340/358/102 388/357/102 387/364/102 386/363/102 332/353/102 333/367/102 389/368/102 390/369/102
f 394/370/103 338/371/103 339/366/103 391/365/103 390/369/103 389/368/103 333/367/103 334/372/103 392/373/103 393/374/103
f 400/375/104 327/376/104 328/377/104 397/378/104 396/379/104 395/380/104 320/381/104 321/382/104 398/383/104 399/384/104
f 403/385/105 326/386/105 327/376/105 400/375/105 399/384/105 398/383/105 321/382/105 322/387/105 401/388/105 402/389/105
f 325/390/106 293/391/106 326/386/106 403/385/106 402/389/106 401/388/106 322/387/106 294/392/106 323/393/106 324/394/106
f 424/395/107 326/386/107 293/391/107 355/396/107 354/397/107 353/398/107 290/399/107 316/400/107 422/401/107 423/402/107
f 370/403/108 292/404/108 310/405/108 448/406/108 447/407/108 446/408/108 344/334/108 299/409/108 368/410/108 369/411/108
f 406/412/109 316/400/109 290/399/109 305/413/109 306/414/109 307/415/109 289/416/109 308/417/109 404/418/109 405/419/109
f 409/420/110 315/421/110 316/400/110 406/412/110 405/419/110 404/418/110 308/417/110 309/422/110 407/423/110 408/424/110
f 412/425/111 314/426/111 315/421/111 409/420/111 408/424/111 407/423/111 309/422/111 310/427/111 410/428/111 411/429/111
f 397/378/112 328/377/112 296/430/112 317/431/112 318/432/112 319/433/112 295/434/112 320/381/112 395/380/112 396/379/112
f 415/435/113 338/371/113 301/436/113 358/437/113 357/438/113 356/439/113 294/392/113 322/387/113 413/440/113 414/441/113
f 418/442/114 339/366/114 338/371/114 415/435/114 414/441/114 413/440/114 322/387/114 321/382/114 416/443/114 417/444/114
f 421/445/115 340/358/115 339/366/115 418/442/115 417/444/115 416/443/115 321/382/115 320/381/115 419/446/115 420/447/115
f 427/448/116 327/376/116 326/386/116 424/395/116 423/402/116 422/401/116 316/400/116 315/421/116 425/449/116 426/450/116
f 430/451/117 328/377/117 327/376/117 427/448/117 426/450/117 425/449/117 315/421/117 314/426/117 428/452/117 429/453/117
f 367/454/118 296/430/118 328/377/118 430/451/118 429/453/118 428/452/118 314/426/118 291/455/118 365/456/118 366/457/118
f 313/458/119 291/455/119 314/426/119 412/425/119 411/429/119 410/428/119 310/427/119 292/459/119 311/460/119 312/461/119
f 337/462/120 301/436/120 338/371/120 394/370/120 393/374/120 392/373/120 334/372/120 302/463/120 335/464/120 336/465/120
f 433/466/121 350/339/121 297/344/121 361/467/121 360/468/121 359/469/121 302/463/121 334/372/121 431/470/121 432/471/121
f 436/472/122 351/329/122 350/339/122 433/466/122 432/471/122 431/470/122 334/372/122 333/367/122 434/473/122 435/474/122
f 439/350/123 352/330/123 351/329/123 436/472/123 435/474/123 434/473/123 333/367/123 332/353/123 437/352/123 438/351/123
f 379/331/124 352/330/124 300/349/124 341/475/124 342/476/124 343/477/124 299/409/124 344/334/124 377/333/124 378/332/124
f 442/478/125 308/479/125 289/480/125 364/481/125 363/482/125 362/483/125 298/345/125 346/340/125 440/484/125 441/485/125
f 445/486/126 309/487/126 308/479/126 442/478/126 441/485/126 440/484/126 346/340/126 345/335/126 443/488/126 444/489/126
f 448/406/127 310/405/127 309/487/127 445/486/127 444/489/127 443/488/127 345/335/127 344/334/127 446/408/127 447/407/127
f 374/490/128 304/359/128 340/358/128 421/445/128 420/447/128 419/446/128 320/381/128 295/434/128 376/491/128 375/492/128
