# Blender 4.4.3
# www.blender.org
o Crystal
v -0.056695 0.360635 0.014714
v -0.005512 0.389802 -0.013558
v -0.007557 0.316636 0.092401
v 0.090318 0.264170 -0.033150
v -0.087198 0.318736 0.051963
v -0.080980 0.170452 0.019094
v -0.042280 0.306704 0.083313
v -0.035080 0.209761 0.101031
v 0.008762 0.251623 -0.090060
v -0.045233 0.296776 -0.057125
v -0.030191 0.174122 -0.041523
v -0.073573 0.190839 -0.020060
v 0.064210 0.175742 0.045524
v 0.090891 0.255272 0.027433
v 0.025899 0.348215 0.052830
v 0.018784 0.133643 0.008487
v -0.012470 0.126431 0.013056
v -0.065183 0.154407 0.038828
v -0.054705 0.165885 0.066051
vn -0.3697 0.5188 -0.7708
vn 0.1195 -0.7668 0.6306
vn 0.5896 0.0970 0.8018
vn -0.5614 -0.1718 -0.8095
vn 0.4568 0.4665 -0.7574
vn 0.1805 -0.6612 0.7281
vn -0.2998 0.7184 0.6278
vn -0.9333 0.1271 -0.3359
vn 0.8081 0.5883 0.0304
vn -0.1362 0.8164 0.5611
vn 0.9425 -0.3292 -0.0573
vn 0.6400 -0.5286 -0.5576
vn -0.7863 -0.0792 0.6127
vn 0.3261 -0.0076 0.9453
vn -0.5167 -0.7436 -0.4243
vn 0.2193 -0.6422 -0.7345
vt 0.480434 0.550979
vt 0.533120 0.491443
vt 0.674035 0.500000
vt 0.625000 0.580171
vt 0.375000 0.224938
vt 0.404974 0.083527
vt 0.438591 0.206818
vt 0.378181 0.341798
vt 0.200304 0.567872
vt 0.689217 0.632604
vt 0.663043 0.375399
vt 0.458949 0.914113
vt 0.503278 0.835945
vt 0.412574 0.350935
vt 0.507192 0.465515
vt 0.375000 0.542605
vt 0.243801 0.548295
vt 0.625000 0.590038
vt 0.387070 0.637149
vt 0.525315 0.174586
vt 0.625000 0.421908
vt 0.609277 0.367579
vt 0.613056 0.208418
vt 0.625000 0.203103
vt 0.433460 0.295517
vt 0.625000 0.450965
vt 0.432486 0.707605
vt 0.703092 0.500000
vt 0.799894 0.645272
vt 0.711162 0.675881
vt 0.459502 0.809112
vt 0.459502 0.572664
vt 0.404829 0.083505
vt 0.367576 0.345104
vt 0.454585 0.868759
vt 0.273033 0.519063
vt 0.336230 0.618740
vt 0.173786 0.620067
vt 0.185434 0.582742
s 0
f 9/1/1 10/2/1 1/3/1 2/4/1
f 16/5/2 13/6/2 19/7/2 18/8/2 17/9/2
f 15/10/3 3/11/3 13/12/3 14/13/3
f 12/14/4 10/15/4 9/16/4 11/17/4
f 9/1/5 2/18/5 4/19/5
f 13/6/6 8/20/6 19/7/6
f 1/21/7 5/22/7 7/23/7 3/24/7
f 6/25/8 5/22/8 1/26/8 10/15/8 12/14/8
f 4/27/9 2/18/9 15/10/9 14/13/9
f 1/28/10 3/29/10 15/30/10 2/4/10
f 4/31/11 14/13/11 13/12/11
f 16/5/12 9/16/12 4/32/12 13/33/12
f 5/22/13 6/25/13 18/8/13 19/34/13 8/20/13 7/23/13
f 8/20/14 13/35/14 3/24/14 7/23/14
f 6/25/15 12/14/15 11/36/15 17/9/15 18/8/15
f 11/17/16 9/37/16 16/38/16 17/39/16
