# Blender 4.4.3
# www.blender.org
o Sconce_Base
v -0.034711 -0.000000 0.151656
v -0.100000 -0.000000 0.061602
v -0.084395 0.100000 0.055138
v -0.055138 0.115278 0.084395
v -0.100000 -0.000000 -0.061602
v -0.061602 -0.000000 -0.100000
v -0.055138 0.085490 -0.084395
v -0.084395 0.100000 -0.055138
v 0.100000 -0.000000 0.061602
v 0.034711 -0.000000 0.151656
v 0.055138 0.115278 0.084395
v 0.084395 0.100000 0.055138
v 0.061602 -0.000000 -0.100000
v 0.100000 -0.000000 -0.061602
v 0.084395 0.100000 -0.055138
v 0.055138 0.085490 -0.084395
v -0.034711 0.115278 0.151656
v -0.100000 0.100000 0.061602
v -0.100000 0.100000 -0.061602
v -0.061602 0.085490 -0.100000
v 0.061602 0.085490 -0.100000
v 0.100000 0.100000 -0.061602
v 0.100000 0.100000 0.061602
v 0.034711 0.115278 0.151656
v -0.055138 0.052605 0.084395
v -0.084395 0.052605 0.055138
v -0.084395 0.052605 -0.055138
v -0.055138 0.052605 -0.084395
v 0.055138 0.052605 -0.084395
v 0.084395 0.052605 -0.055138
v 0.084395 0.052605 0.055138
v 0.055138 0.052605 0.084395
vn -0.0000 -0.0000 1.0000
vn 1.0000 -0.0000 -0.0000
vn -1.0000 -0.0000 -0.0000
vn -0.0000 -0.0000 -1.0000
vn -0.8096 -0.0000 0.5870
vn -0.7071 -0.0000 -0.7071
vn 0.7071 -0.0000 -0.7071
vn 0.8096 -0.0000 0.5870
vn -0.3322 0.9430 0.0217
vn 0.2052 0.9569 -0.2052
vn -0.2052 0.9569 -0.2052
vn 0.3322 0.9430 0.0217
vn -0.0000 1.0000 -0.0000
vn -0.7071 -0.0000 0.7071
vn 0.7071 -0.0000 0.7071
vt 0.375000 0.797997
vt 0.625000 0.797997
vt 0.625000 0.952003
vt 0.375000 0.952002
vt 0.375000 0.547997
vt 0.625000 0.547997
vt 0.625000 0.702002
vt 0.375000 0.702002
vt 0.855494 0.556077
vt 0.855494 0.693923
vt 0.375000 0.047998
vt 0.625000 0.047997
vt 0.625000 0.202002
vt 0.375000 0.202002
vt 0.375000 0.297998
vt 0.625000 0.297997
vt 0.625000 0.452002
vt 0.375000 0.452002
vt 0.375000 0.000000
vt 0.625000 0.000000
vt 0.818923 0.730494
vt 0.875000 0.702002
vt 0.827002 0.750000
vt 0.818923 0.519506
vt 0.827002 0.500000
vt 0.875000 0.547997
vt 0.681077 0.519506
vt 0.644506 0.556077
vt 0.672997 0.500000
vt 0.644506 0.693923
vt 0.681077 0.730494
vt 0.672998 0.750000
s 0
f 10/1/1 24/2/1 17/3/1 1/4/1
f 14/5/2 22/6/2 23/7/2 9/8/2
f 8/9/2 3/10/2 26/10/2 27/9/2
f 2/11/3 18/12/3 19/13/3 5/14/3
f 6/15/4 20/16/4 21/17/4 13/18/4
f 1/19/5 17/20/5 18/12/5 2/11/5
f 20/16/6 6/15/6 5/14/6 19/13/6
f 22/6/7 14/5/7 13/18/7 21/17/7
f 24/2/8 10/1/8 9/8/8 23/7/8
f 4/21/9 3/10/9 18/22/9 17/23/9
f 8/9/10 7/24/10 20/25/10 19/26/10
f 16/27/11 15/28/11 22/6/11 21/29/11
f 12/30/12 11/31/12 24/32/12 23/7/12
f 3/10/13 8/9/13 19/26/13 18/22/13
f 11/31/13 4/21/13 17/23/13 24/32/13
f 15/28/13 12/30/13 23/7/13 22/6/13
f 7/24/13 16/27/13 21/29/13 20/25/13
f 30/28/13 29/27/13 28/24/13 27/9/13 26/10/13 25/21/13 32/31/13 31/30/13
f 15/28/14 16/27/14 29/27/14 30/28/14
f 3/10/7 4/21/7 25/21/7 26/10/7
f 16/27/1 7/24/1 28/24/1 29/27/1
f 4/21/4 11/31/4 32/31/4 25/21/4
f 11/31/6 12/30/6 31/30/6 32/31/6
f 7/24/15 8/9/15 27/9/15 28/24/15
f 12/30/3 15/28/3 30/28/3 31/30/3
