# Blender 4.4.3
# www.blender.org
mtllib Altar Grande.mtl
o V2
v -0.637494 0.004527 0.395473
v -0.562370 0.795473 0.389881
v -0.573490 0.004527 -0.395473
v 0.470660 0.004527 0.395473
v 0.362370 0.795473 0.389881
v 0.347375 0.004527 -0.395473
v -0.660546 0.400000 0.433316
v -0.636853 0.400000 -0.290109
v 0.383067 0.400000 -0.290109
v 0.470671 0.452713 0.392677
v -0.589441 0.795473 -0.125420
v -0.602762 0.638559 -0.257909
v -0.579314 0.785715 -0.273526
v 0.388183 0.638559 -0.257909
v 0.350266 0.795473 -0.166060
v 0.352987 0.749514 -0.273526
vn -0.9901 0.1349 -0.0392
vn 0.9909 0.0900 -0.0999
vn 0.0187 0.0053 0.9998
vn -0.0000 -1.0000 -0.0000
vn -0.0000 0.2574 -0.9663
vn 0.9869 -0.0481 -0.1538
vn -0.0003 1.0000 -0.0081
vn -0.0000 0.1338 -0.9910
vn 0.9534 0.3011 -0.0208
vn 0.9919 -0.0008 -0.1272
vn 0.0357 0.9192 -0.3922
vn -0.9935 -0.0981 -0.0575
vn -0.9680 0.2459 0.0509
vn 0.9718 0.2248 -0.0715
vn -0.0023 -0.1202 -0.9927
vt 0.610473 0.233670
vt 0.575403 0.250000
vt 0.500000 0.250000
vt 0.500000 0.000000
vt 0.625000 0.194817
vt 0.575403 0.500000
vt 0.610473 0.516330
vt 0.500000 0.750000
vt 0.500000 0.500000
vt 0.625000 0.750000
vt 0.625000 1.000000
vt 0.500000 1.000000
vt 0.375000 1.000000
vt 0.375000 0.750000
vt 0.375000 0.500000
vt 0.125000 0.750000
vt 0.125000 0.500000
vt 0.375000 0.250000
vt 0.625000 0.555183
vt 0.875000 0.500000
vt 0.875000 0.555183
vt 0.875000 0.750000
vt 0.625000 0.500000
vt 0.375000 0.000000
vt 0.625000 0.000000
vt 0.625000 0.250000
s 0
usemtl Material.001
f 13/1/1 12/2/1 8/3/1 7/4/1 11/5/1
f 14/6/2 16/7/2 10/8/2 9/9/2
f 5/10/3 2/11/3 7/12/3 1/13/3 4/14/3 10/8/3
f 6/15/4 1/16/4 3/17/4
f 8/3/5 9/9/5 6/15/5 3/18/5
f 9/9/6 4/14/6 6/15/6
f 5/10/7 15/19/7 13/20/7 11/21/7 2/22/7
f 12/2/8 14/6/8 9/9/8 8/3/8
f 10/8/9 15/19/9 5/10/9
f 6/15/4 4/14/4 1/16/4
f 9/9/10 10/8/10 4/14/10
f 15/19/11 16/23/11 13/20/11
f 1/24/12 7/4/12 8/3/12 3/18/12
f 7/4/13 2/25/13 11/5/13
f 10/8/14 16/7/14 15/19/14
f 13/26/15 16/23/15 14/6/15 12/2/15
o Cube.002
v 1.195098 0.864990 0.120280
v 1.278305 2.672331 0.292237
v 1.265985 0.809684 0.256690
v 1.329036 2.728457 0.328244
v -1.441471 0.866174 0.205487
v -1.514027 2.560484 0.328246
v -1.519189 0.835232 0.241357
v -1.605712 2.642435 0.372010
v -0.977690 0.782771 0.305871
v -0.124293 0.798948 0.307003
v 0.826054 0.790575 0.259928
v 0.924595 2.771113 0.409578
v -0.096371 2.754060 0.443717
v -1.020387 2.695567 0.439627
v 0.790474 0.807714 0.223092
v -0.119778 0.854322 0.272841
v -0.933082 0.816982 0.270230
v -0.975779 2.658073 0.398971
v -0.091856 2.676247 0.400242
v 0.889016 2.731040 0.357584
vn -0.0437 0.6954 -0.7173
vn 0.0978 -0.0604 0.9934
vn -0.1161 -0.0744 0.9904
vn 0.8171 0.0056 -0.5764
vn 0.0198 0.5920 -0.8057
vn 0.0322 -0.9149 -0.4024
vn 0.1246 0.0744 -0.9894
vn 0.0217 -0.6219 -0.7828
vn -0.0575 -0.7109 -0.7009
vn -0.0524 0.6368 -0.7693
vn -0.0490 0.0713 -0.9962
vn -0.0000 0.0698 -0.9976
vn -0.4133 0.0470 -0.9094
vn 0.0095 -0.7472 -0.6646
vn -0.0223 0.5830 -0.8121
vn 0.0414 -0.0738 0.9964
vn -0.0000 -0.0698 0.9976
vn -0.2062 0.0901 -0.9744
vt 0.635579 0.524608
vt 0.635579 0.689638
vt 0.594322 0.689638
vt 0.594322 0.524608
vt 0.305519 0.359578
vt 0.470549 0.359578
vt 0.470549 0.400835
vt 0.305519 0.400835
vt 0.470549 0.483350
vt 0.470549 0.524608
vt 0.305519 0.524608
vt 0.305519 0.483350
vt 0.470549 0.194548
vt 0.305519 0.194548
vt 0.511807 0.524608
vt 0.511807 0.689638
vt 0.470549 0.689638
vt 0.140490 0.524608
vt 0.181747 0.524608
vt 0.181747 0.689638
vt 0.140490 0.689638
vt 0.305519 0.689638
vt 0.470549 0.730895
vt 0.305519 0.730895
vt 0.223004 0.524608
vt 0.264262 0.524608
vt 0.264262 0.689638
vt 0.223004 0.689638
vt 0.553064 0.524608
vt 0.553064 0.689638
vt 0.470549 0.772153
vt 0.470549 0.813410
vt 0.305519 0.813410
vt 0.305519 0.772153
vt 0.470549 0.442093
vt 0.305519 0.442093
vt 0.470549 0.854668
vt 0.305519 0.854668
s 0
usemtl Material.005
f 20/27/16 18/28/16 36/29/16 28/30/16
f 19/31/17 20/32/17 28/33/17 27/34/17
f 30/35/18 24/36/18 23/37/18 25/38/18
f 18/39/19 20/32/19 19/31/19 17/40/19
f 24/36/20 30/41/20 34/42/20 22/43/20
f 19/44/21 27/45/21 31/46/21 17/47/21
f 21/48/22 22/43/22 34/49/22 33/50/22
f 26/51/23 25/52/23 33/53/23 32/54/23
f 26/51/24 32/54/24 31/46/24 27/45/24
f 29/55/25 28/30/25 36/29/25 35/56/25
f 35/57/26 36/58/26 31/59/26 32/60/26
f 34/49/27 35/57/27 32/60/27 33/50/27
f 23/37/28 24/36/28 22/43/28 21/48/28
f 23/37/29 21/48/29 33/53/29 25/52/29
f 29/55/30 35/56/30 34/42/30 30/41/30
f 27/34/31 28/33/31 29/61/31 26/62/31
f 26/62/32 29/61/32 30/35/32 25/38/32
f 36/58/33 18/63/33 17/64/33 31/59/33
