# Blender 4.4.3
# www.blender.org
mtllib Altar Mediano.mtl
o V1
v 2.065409 0.004527 0.395473
v 2.082795 0.795473 0.389881
v 2.170862 0.004527 -0.395473
v 3.014948 0.004527 0.395473
v 3.007535 0.795473 0.389881
v 2.867224 0.004527 -0.395473
v 2.011926 0.400000 0.392677
v 2.062099 0.400000 -0.290109
v 3.028232 0.400000 -0.290109
v 3.086760 0.400000 0.392677
v 2.094900 0.795473 -0.166060
v 2.056983 0.638559 -0.257909
v 3.033348 0.638559 -0.257909
v 2.995431 0.795473 0.035100
v 3.041234 0.749514 -0.273526
vn -0.9911 0.1297 -0.0289
vn -0.0000 -1.0000 -0.0000
vn -0.0000 0.2574 -0.9663
vn -0.0000 0.0071 1.0000
vn 0.0117 0.9986 -0.0523
vn 0.9553 -0.2638 -0.1337
vn -0.0469 0.2808 -0.9586
vn -0.0000 1.0000 -0.0000
vn -0.0000 0.1338 -0.9910
vn -0.9769 -0.1870 -0.1032
vn 0.9917 0.1265 -0.0246
vt 0.625000 0.194817
vt 0.575403 0.250000
vt 0.500000 0.250000
vt 0.500000 0.000000
vt 0.625000 0.000000
vt 0.375000 0.500000
vt 0.125000 0.750000
vt 0.125000 0.500000
vt 0.500000 0.500000
vt 0.375000 0.250000
vt 0.625000 0.750000
vt 0.625000 1.000000
vt 0.500000 1.000000
vt 0.500000 0.750000
vt 0.375000 0.750000
vt 0.375000 1.000000
vt 0.875000 0.555183
vt 0.875000 0.750000
vt 0.625000 0.555183
vt 0.625000 0.500000
vt 0.575403 0.500000
vt 0.375000 0.000000
vt 0.610473 0.516330
s 0
usemtl Material.002
f 11/1/1 12/2/1 8/3/1 7/4/1 2/5/1
f 6/6/2 1/7/2 3/8/2
f 8/3/3 9/9/3 6/6/3 3/10/3
f 5/11/4 2/12/4 7/13/4 10/14/4
f 4/15/4 10/14/4 7/13/4 1/16/4
f 11/17/5 2/18/5 14/19/5 15/20/5
f 9/9/6 10/14/6 4/15/6 6/6/6
f 15/20/7 13/21/7 12/2/7 11/17/7
f 14/19/8 2/18/8 5/11/8
f 12/2/9 13/21/9 9/9/9 8/3/9
f 6/6/2 4/15/2 1/7/2
f 1/22/10 7/4/10 8/3/10 3/10/10
f 15/23/11 14/19/11 5/11/11 10/14/11 9/9/11 13/21/11
o Cube.003
v 3.010348 0.866591 0.221200
v 3.057142 2.359417 0.340551
v 3.059711 0.798217 0.271776
v 3.057142 2.421128 0.385261
v 2.097205 0.902932 0.223741
v 2.010423 2.180743 0.328057
v 2.056704 0.798217 0.271776
v 2.010423 2.242453 0.372767
v 3.235039 1.721660 0.276005
v 3.299315 1.717461 0.336056
v 1.691860 1.717461 0.336056
v 1.851471 1.721660 0.276005
v 2.558208 0.798217 0.271776
v 2.429103 2.325835 0.378598
v 2.558208 0.866591 0.221200
v 2.429102 2.264124 0.333887
vn 0.6519 -0.1204 -0.7487
vn -0.0802 0.5848 -0.8072
vn -0.0000 -0.5947 -0.8040
vn -0.1050 0.5835 -0.8053
vn -0.4483 0.2937 -0.8443
vn 0.7402 0.2835 -0.6098
vn -0.4338 -0.0923 -0.8962
vn -0.0011 0.0809 -0.9967
vn -0.0000 -0.0698 0.9976
vn -0.0208 -0.4912 -0.8708
vt 0.610232 0.422599
vt 0.637703 0.527138
vt 0.645561 0.526625
vt 0.616267 0.414239
vt 0.539170 0.601004
vt 0.615953 0.612654
vt 0.615953 0.605109
vt 0.539170 0.593459
vt 0.554954 0.414239
vt 0.554954 0.422599
vt 0.487983 0.590810
vt 0.487983 0.583265
vt 0.547051 0.526625
vt 0.542563 0.590810
vt 0.468550 0.527138
vt 0.546502 0.605109
vt 0.541036 0.612654
vt 0.449036 0.526625
vt 0.498593 0.427042
vt 0.493641 0.414239
vt 0.483374 0.645913
vt 0.432187 0.635719
vt 0.393240 0.571534
vt 0.437845 0.459149
vt 0.499158 0.459149
s 0
usemtl Material.006
f 16/24/12 24/25/12 25/26/12 18/27/12
f 29/28/13 19/29/13 17/30/13 31/31/13
f 28/32/14 30/33/14 16/24/14 18/27/14
f 23/34/15 29/28/15 31/31/15 21/35/15
f 26/36/16 23/37/16 21/35/16 27/38/16
f 17/39/17 19/40/17 25/26/17 24/25/17
f 26/41/18 27/38/18 20/42/18 22/43/18
f 21/35/19 31/31/19 17/30/19 24/25/19 16/24/19 30/33/19 20/42/19 27/38/19
f 19/29/20 29/44/20 23/45/20 26/46/20 22/47/20 28/48/20 18/27/20 25/26/20
f 28/32/21 22/43/21 20/42/21 30/33/21
