# Blender 4.4.3
# www.blender.org
mtllib Altar Pequeño.mtl
o v3
v -2.918793 0.795473 0.389881
v -3.042394 0.004527 0.395473
v -2.937165 0.004527 -0.395473
v -2.001887 0.004527 0.395473
v -2.153252 0.795473 0.389881
v -2.070419 0.004527 -0.395473
v -2.946443 0.400000 0.392677
v -2.956960 0.371755 -0.290109
v -2.118775 0.371755 -0.290109
v -2.062045 0.400000 0.392677
v -2.979715 0.795473 -0.049409
v -3.004257 0.473672 -0.257909
v -2.982436 0.749514 -0.273526
v -2.091105 0.638559 -0.257909
v -2.079184 0.795473 -0.166060
v -2.076463 0.749514 -0.273526
vn 0.9925 -0.0934 -0.0786
vn -0.9028 -0.4289 0.0317
vn -0.0000 0.0071 1.0000
vn -0.0000 -1.0000 -0.0000
vn -0.0000 0.3013 -0.9535
vn 0.9846 0.1517 -0.0866
vn 0.9777 0.1842 0.1004
vn -0.0056 0.0311 -0.9995
vn -0.0000 1.0000 -0.0000
vn -0.9920 0.1079 -0.0658
vn -0.9981 -0.0573 0.0239
vn -0.0172 0.9635 -0.2671
vn 0.9849 -0.1436 -0.0966
vn -0.9917 0.0840 0.0976
vn -0.0000 -0.1394 -0.9902
vn -0.9881 0.0701 0.1370
vn -0.0000 0.2758 -0.9612
vt 0.575403 0.500000
vt 0.500000 0.750000
vt 0.500000 0.500000
vt 0.500000 0.000000
vt 0.575403 0.250000
vt 0.500000 0.250000
vt 0.500000 1.000000
vt 0.375000 1.000000
vt 0.375000 0.750000
vt 0.375000 0.500000
vt 0.125000 0.750000
vt 0.125000 0.500000
vt 0.610473 0.516330
vt 0.625000 0.555183
vt 0.625000 0.750000
vt 0.625000 0.250000
vt 0.625000 1.000000
vt 0.875000 0.555183
vt 0.875000 0.750000
vt 0.375000 0.000000
vt 0.375000 0.250000
vt 0.625000 0.194817
vt 0.610473 0.233670
vt 0.625000 0.500000
vt 0.875000 0.500000
vt 0.625000 0.000000
s 0
usemtl Material
f 14/1/1 10/2/1 9/3/1
f 7/4/2 12/5/2 8/6/2
f 10/2/3 7/7/3 2/8/3 4/9/3
f 6/10/4 2/11/4 3/12/4
f 12/5/5 9/3/5 8/6/5
f 9/3/6 10/2/6 4/9/6 6/10/6
f 10/2/7 16/13/7 15/14/7 5/15/7
f 14/1/8 9/3/8 12/5/8 13/16/8
f 5/15/3 1/17/3 7/7/3 10/2/3
f 11/18/9 1/19/9 5/15/9 15/14/9
f 2/20/10 7/4/10 8/6/10 3/21/10
f 7/4/11 11/22/11 13/23/11
f 15/14/12 16/24/12 13/25/12 11/18/12
f 14/1/13 16/13/13 10/2/13
f 7/4/14 13/23/14 12/5/14
f 6/10/4 4/9/4 2/11/4
f 13/16/15 16/24/15 14/1/15
f 7/4/16 1/26/16 11/22/16
f 8/6/17 9/3/17 6/10/17 3/21/17
o Chico
v -2.238669 0.933240 0.255906
v -2.273764 1.685207 0.321695
v -2.202024 0.893821 0.315382
v -2.237895 1.679743 0.384142
v -2.826924 0.919942 0.254743
v -2.862902 1.759552 0.328199
v -2.868852 0.870515 0.313343
v -2.890649 1.754089 0.390646
v -2.194291 1.323458 0.290046
v -2.154812 1.350162 0.355307
v -2.965507 1.231210 0.344900
v -2.932556 1.236673 0.282453
v -2.617033 0.797545 0.306959
v -2.542936 1.947387 0.407557
v -2.617848 0.837283 0.247511
v -2.542936 1.933486 0.343417
v -2.354624 0.797545 0.306959
v -2.390415 1.877011 0.338476
v -2.402257 1.301105 0.288090
v -2.390415 1.905258 0.403872
v -2.354624 0.840242 0.247770
v -2.323249 1.295642 0.350537
v -2.702919 1.905258 0.403872
v -2.731247 0.834231 0.247244
v -2.762623 1.255991 0.347068
v -2.731247 0.797545 0.306959
v -2.670355 1.888128 0.339448
v -2.662024 1.261455 0.284621
vn -0.8932 0.1602 -0.4201
vn -0.0000 -0.0872 0.9962
vn -0.4651 -0.6292 -0.6228
vn -0.0000 0.0872 -0.9962
vn 0.7847 0.5337 -0.3153
vn -0.7952 -0.1870 -0.5767
vn 0.8186 0.2382 -0.5226
vn 0.8506 -0.0462 -0.5238
vn -0.2716 0.9176 -0.2903
vn 0.0049 -0.8212 -0.5706
vn 0.4877 -0.6401 -0.5936
vn 0.2861 0.9112 -0.2965
vn -0.5455 0.7704 -0.3301
vn 0.0119 -0.8417 -0.5399
vt 0.935507 0.696160
vt 0.919735 0.696160
vt 0.959327 0.397816
vt 0.978057 0.397816
vt 0.473364 0.228342
vt 0.473364 0.490101
vt 0.381316 0.449341
vt 0.392713 0.164806
vt 0.844901 0.150375
vt 0.923117 0.192010
vt 0.899285 0.217095
vt 0.844901 0.168190
vt 0.657900 0.434580
vt 0.539690 0.447333
vt 0.564915 0.224683
vt 0.630825 0.171620
vt 0.564475 0.653740
vt 0.584864 0.653740
vt 0.651169 0.763180
vt 0.651169 0.782414
vt 0.517250 0.465688
vt 0.544086 0.205308
vt 0.135207 0.401233
vt 0.130985 0.773218
vt 0.033683 0.676479
vt 0.021943 0.375344
vt 0.737863 0.806452
vt 0.737863 0.795404
vt 0.810290 0.769523
vt 0.828799 0.782414
vt 0.179765 0.142859
vt 0.097693 0.176256
vt 0.805554 0.411956
vt 0.630825 0.150375
vt 0.779981 0.150375
vt 0.780444 0.169931
vt 0.244343 0.149514
vt 0.307679 0.791429
vt 0.218978 0.806452
vt 0.407108 0.672321
s 0
usemtl Material.004
f 24/27/18 22/28/18 28/29/18 27/30/18
f 19/31/19 26/32/19 38/33/19 33/34/19
f 42/35/20 23/36/20 21/37/20 40/38/20
f 35/39/21 25/40/21 17/41/21 37/42/21
f 20/43/22 18/44/22 34/45/22 36/46/22
f 27/30/23 28/29/23 21/37/23 23/36/23
f 18/44/24 20/43/24 26/47/24 25/40/24
f 17/41/25 25/40/25 26/47/25 19/48/25
f 41/49/19 39/50/19 24/51/19 27/52/19
f 30/53/26 32/54/26 43/55/26 39/56/26
f 42/57/19 41/49/19 27/52/19 23/58/19
f 22/28/21 43/55/21 44/59/21 28/29/21
f 33/60/27 29/61/27 31/62/27 37/42/27
f 33/60/28 37/42/28 17/41/28 19/48/28
f 32/54/21 34/45/21 35/39/21 37/42/21 31/62/21 44/59/21 43/55/21
f 29/63/19 33/34/19 38/33/19 36/64/19 30/65/19 39/50/19 41/49/19 42/57/19
f 36/46/29 34/45/29 32/54/29 30/53/29
f 20/66/19 36/64/19 38/33/19 26/32/19
f 39/56/30 43/55/30 22/28/30 24/27/30
f 44/59/21 31/62/21 40/38/21 21/37/21 28/29/21
f 29/61/31 42/35/31 40/38/31 31/62/31
f 35/39/21 34/45/21 18/44/21 25/40/21
